<?xml version="1.0" encoding="UTF-8"?>
<svg width="234px" height="30px" viewBox="0 0 234 30" version="1.1" xmlns="http://www.w3.org/2000/svg" xmlns:xlink="http://www.w3.org/1999/xlink">
    <!-- Generator: Sketch 58 (84663) - https://sketch.com -->
    <title>PortuguêsàVista</title>
    <desc>Created with Sketch.</desc>
    <g id="Page-1" stroke="none" stroke-width="1" fill="none" fill-rule="evenodd">
        <g id="PortuguêsàVista" transform="translate(0.080000, -0.008000)" fill-rule="nonzero">
            <path d="M8.352,0.608 C10.5066774,0.608 12.3199926,1.33332608 13.792,2.784 C15.2640074,4.23467392 16,6.01598944 16,8.128 C16,10.2400106 15.2640074,12.0213261 13.792,13.472 C12.3199926,14.9226739 10.5066774,15.648 8.352,15.648 L4.416,15.648 L4.416,23.008 L0,23.008 L0,0.608 L8.352,0.608 Z M8.352,11.52 C9.29067136,11.52 10.0693302,11.1946699 10.688,10.544 C11.3066698,9.89333008 11.616,9.0880048 11.616,8.128 C11.616,7.14666176 11.3066698,6.3360032 10.688,5.696 C10.0693302,5.0559968 9.29067136,4.736 8.352,4.736 L4.416,4.736 L4.416,11.52 L8.352,11.52 Z M30.7549091,21.024 C29.1122342,22.6453414 27.1069209,23.456 24.7389091,23.456 C22.3708973,23.456 20.3709173,22.6400082 18.7389091,21.008 C17.1069009,19.3759918 16.2909091,17.3760118 16.2909091,15.008 C16.2909091,12.6399882 17.1069009,10.6400082 18.7389091,9.008 C20.3709173,7.37599184 22.3708973,6.56 24.7389091,6.56 C27.1069209,6.56 29.1122342,7.37599184 30.7549091,9.008 C32.397584,10.6400082 33.2189091,12.6399882 33.2189091,15.008 C33.2189091,17.3760118 32.397584,19.3813251 30.7549091,21.024 Z M21.6349091,18.176 C22.4669133,19.0080042 23.5015696,19.424 24.7389091,19.424 C25.9762486,19.424 27.0109049,19.0080042 27.8429091,18.176 C28.6749133,17.3439958 29.0909091,16.2880064 29.0909091,15.008 C29.0909091,13.7279936 28.6749133,12.6720042 27.8429091,11.84 C27.0109049,11.0079958 25.9762486,10.592 24.7389091,10.592 C23.5015696,10.592 22.4722465,11.0079958 21.6509091,11.84 C20.8295717,12.6720042 20.4189091,13.7279936 20.4189091,15.008 C20.4189091,16.2880064 20.8242384,17.3439958 21.6349091,18.176 Z M39.7498182,9.76 C40.1338201,8.73599488 40.7684804,7.96800256 41.6538182,7.456 C42.5391559,6.94399744 43.5258127,6.688 44.6138182,6.688 L44.6138182,11.296 C43.3551452,11.1466659 42.2298231,11.4026634 41.2378182,12.064 C40.2458132,12.7253366 39.7498182,13.8239923 39.7498182,15.36 L39.7498182,23.008 L35.6218182,23.008 L35.6218182,7.008 L39.7498182,7.008 L39.7498182,9.76 Z M56.1047273,10.976 L52.4887273,10.976 L52.4887273,17.632 C52.4887273,18.1866694 52.6273926,18.5919987 52.9047273,18.848 C53.182062,19.1040013 53.5873913,19.2479998 54.1207273,19.28 C54.6540633,19.3120002 55.31539,19.3066669 56.1047273,19.264 L56.1047273,23.008 C53.2673798,23.3280016 51.2673998,23.0613376 50.1047273,22.208 C48.9420548,21.3546624 48.3607273,19.8293443 48.3607273,17.632 L48.3607273,10.976 L45.5767273,10.976 L45.5767273,7.008 L48.3607273,7.008 L48.3607273,3.776 L52.4887273,2.528 L52.4887273,7.008 L56.1047273,7.008 L56.1047273,10.976 Z M69.3236364,7.008 L73.4516364,7.008 L73.4516364,23.008 L69.3236364,23.008 L69.3236364,21.216 C68.3209647,22.7093408 66.7316472,23.456 64.5556364,23.456 C62.8062943,23.456 61.3609754,22.8693392 60.2196364,21.696 C59.0782973,20.5226608 58.5076364,18.9013437 58.5076364,16.832 L58.5076364,7.008 L62.6356364,7.008 L62.6356364,16.32 C62.6356364,17.386672 62.9236335,18.2026638 63.4996364,18.768 C64.0756392,19.3333362 64.8436316,19.616 65.8036364,19.616 C66.8703084,19.616 67.7236332,19.2853366 68.3636364,18.624 C69.0036396,17.9626634 69.3236364,16.9706733 69.3236364,15.648 L69.3236364,7.008 Z M88.9745455,7.008 L93.0065455,7.008 L93.0065455,22.24 C93.0065455,24.714679 92.1905536,26.6026602 90.5585455,27.904 C88.9265373,29.2053398 86.958557,29.856 84.6545455,29.856 C82.9265368,29.856 81.406552,29.5253366 80.0945455,28.864 C78.7825389,28.2026634 77.774549,27.2320064 77.0705455,25.952 L80.5905455,23.936 C81.4012162,25.4293408 82.7985355,26.176 84.7825455,26.176 C86.0838853,26.176 87.1078751,25.8346701 87.8545455,25.152 C88.6012159,24.4693299 88.9745455,23.498673 88.9745455,22.24 L88.9745455,20.512 C87.7585394,22.1333414 86.0518898,22.944 83.8545455,22.944 C81.5932008,22.944 79.6998864,22.1493413 78.1745455,20.56 C76.6492045,18.9706587 75.8865455,17.0346781 75.8865455,14.752 C75.8865455,12.4906554 76.6545378,10.56 78.1905455,8.96 C79.7265531,7.359992 81.6145343,6.56 83.8545455,6.56 C86.0518898,6.56 87.7585394,7.37065856 88.9745455,8.992 L88.9745455,7.008 Z M81.2625455,17.92 C82.1158831,18.7306707 83.1932056,19.136 84.4945455,19.136 C85.7958853,19.136 86.8678746,18.7253374 87.7105455,17.904 C88.5532163,17.0826626 88.9745455,16.0320064 88.9745455,14.752 C88.9745455,13.493327 88.5532163,12.4533374 87.7105455,11.632 C86.8678746,10.8106626 85.7958853,10.4 84.4945455,10.4 C83.1932056,10.4 82.1212163,10.8106626 81.2785455,11.632 C80.4358746,12.4533374 80.0145455,13.493327 80.0145455,14.752 C80.0145455,16.0320064 80.4305413,17.0879958 81.2625455,17.92 Z M106.801455,7.008 L110.929455,7.008 L110.929455,23.008 L106.801455,23.008 L106.801455,21.216 C105.798783,22.7093408 104.209465,23.456 102.033455,23.456 C100.284112,23.456 98.8387936,22.8693392 97.6974545,21.696 C96.5561155,20.5226608 95.9854545,18.9013437 95.9854545,16.832 L95.9854545,7.008 L100.113455,7.008 L100.113455,16.32 C100.113455,17.386672 100.401452,18.2026638 100.977455,18.768 C101.553457,19.3333362 102.32145,19.616 103.281455,19.616 C104.348127,19.616 105.201451,19.2853366 105.841455,18.624 C106.481458,17.9626634 106.801455,16.9706733 106.801455,15.648 L106.801455,7.008 Z M121.524364,3.04 L120.116364,5.12 L116.020364,5.12 L119.412364,0.48 L123.604364,0.48 L126.996364,5.12 L122.900364,5.12 L121.524364,3.04 Z M117.684364,16.704 C118.239033,18.7093434 119.743018,19.712 122.196364,19.712 C123.775038,19.712 124.969693,19.178672 125.780364,18.112 L129.108364,20.032 C127.529689,22.3146781 125.204379,23.456 122.132364,23.456 C119.487017,23.456 117.364364,22.656008 115.764364,21.056 C114.164356,19.455992 113.364364,17.4400122 113.364364,15.008 C113.364364,12.5973213 114.153689,10.5866747 115.732364,8.976 C117.311038,7.36532528 119.337685,6.56 121.812364,6.56 C124.159042,6.56 126.095023,7.37065856 127.620364,8.992 C129.145705,10.6133414 129.908364,12.6186547 129.908364,15.008 C129.908364,15.541336 129.855031,16.1066637 129.748364,16.704 L117.684364,16.704 Z M117.620364,13.504 L125.780364,13.504 C125.545696,12.4159946 125.060367,11.605336 124.324364,11.072 C123.58836,10.538664 122.751035,10.272 121.812364,10.272 C120.703025,10.272 119.785701,10.5546638 119.060364,11.12 C118.335027,11.6853362 117.855031,12.4799949 117.620364,13.504 Z M135.447273,11.552 C135.447273,11.9786688 135.729937,12.325332 136.295273,12.592 C136.860609,12.858668 137.548602,13.0933323 138.359273,13.296 C139.169943,13.4986677 139.980602,13.7546651 140.791273,14.064 C141.601943,14.3733349 142.289937,14.890663 142.855273,15.616 C143.420609,16.341337 143.703273,17.2479946 143.703273,18.336 C143.703273,19.9786749 143.089946,21.2426622 141.863273,22.128 C140.6366,23.0133378 139.105949,23.456 137.271273,23.456 C133.985923,23.456 131.745945,22.1866794 130.551273,19.648 L134.135273,17.632 C134.604608,19.0186736 135.649931,19.712 137.271273,19.712 C138.74328,19.712 139.479273,19.2533379 139.479273,18.336 C139.479273,17.9093312 139.196609,17.562668 138.631273,17.296 C138.146699,17.0674274 137.57201,16.8584494 136.907192,16.6690615 L136.567273,16.576 C135.756602,16.3626656 134.945943,16.0960016 134.135273,15.776 C133.324602,15.4559984 132.636609,14.9493368 132.071273,14.256 C131.505937,13.5626632 131.223273,12.6933386 131.223273,11.648 C131.223273,10.0693254 131.8046,8.8266712 132.967273,7.92 C134.129945,7.0133288 135.575264,6.56 137.303273,6.56 C138.604613,6.56 139.788601,6.8533304 140.855273,7.44 C141.921945,8.0266696 142.764603,8.86399456 143.383273,9.952 L139.863273,11.872 C139.35127,10.7839946 138.497945,10.24 137.303273,10.24 C136.769937,10.24 136.327274,10.3573322 135.975273,10.592 C135.623271,10.8266678 135.447273,11.1466646 135.447273,11.552 Z" id="Português" fill="#131B31"></path>
            <path d="M156.250182,4.992 L152.282182,4.992 L148.730182,0.608 L153.690182,0.608 L156.250182,4.992 Z M152.570182,6.56 C154.810193,6.56 156.548842,7.33865888 157.786182,8.896 L157.786182,7.008 L161.914182,7.008 L161.914182,23.008 L157.786182,23.008 L157.786182,21.12 C156.548842,22.6773411 154.810193,23.456 152.570182,23.456 C150.436838,23.456 148.607523,22.6400082 147.082182,21.008 C145.556841,19.3759918 144.794182,17.3760118 144.794182,15.008 C144.794182,12.6399882 145.556841,10.6400082 147.082182,9.008 C148.607523,7.37599184 150.436838,6.56 152.570182,6.56 Z M153.338182,10.496 C152.058175,10.496 151.002186,10.9173291 150.170182,11.76 C149.338178,12.6026709 148.922182,13.6853267 148.922182,15.008 C148.922182,16.3306733 149.338178,17.4186624 150.170182,18.272 C151.002186,19.1040042 152.058175,19.52 153.338182,19.52 C154.618188,19.52 155.679511,19.0986709 156.522182,18.256 C157.364853,17.4133291 157.786182,16.3306733 157.786182,15.008 C157.786182,13.6853267 157.364853,12.6026709 156.522182,11.76 C155.679511,10.9173291 154.618188,10.496 153.338182,10.496 Z" id="à" fill="#FF2850"></path>
            <path d="M170.877091,23.008 L163.357091,0.608 L168.157091,0.608 L173.629091,17.824 L179.069091,0.608 L183.901091,0.608 L176.349091,23.008 L170.877091,23.008 Z M186.752,5.088 C186.06933,5.088 185.477336,4.83733584 184.976,4.336 C184.474664,3.83466416 184.224,3.24267008 184.224,2.56 C184.224,1.87732992 184.474664,1.28000256 184.976,0.768 C185.477336,0.25599744 186.06933,0 186.752,0 C187.456004,0 188.058664,0.25599744 188.56,0.768 C189.061336,1.28000256 189.312,1.87732992 189.312,2.56 C189.312,3.24267008 189.061336,3.83466416 188.56,4.336 C188.058664,4.83733584 187.456004,5.088 186.752,5.088 Z M184.704,23.008 L184.704,7.008 L188.832,7.008 L188.832,23.008 L184.704,23.008 Z M195.778909,11.552 C195.778909,11.9786688 196.061573,12.325332 196.626909,12.592 C197.192245,12.858668 197.880238,13.0933323 198.690909,13.296 C199.50158,13.4986677 200.312238,13.7546651 201.122909,14.064 C201.93358,14.3733349 202.621573,14.890663 203.186909,15.616 C203.752245,16.341337 204.034909,17.2479946 204.034909,18.336 C204.034909,19.9786749 203.421582,21.2426622 202.194909,22.128 C200.968236,23.0133378 199.437585,23.456 197.602909,23.456 C194.317559,23.456 192.077582,22.1866794 190.882909,19.648 L194.466909,17.632 C194.936245,19.0186736 195.981568,19.712 197.602909,19.712 C199.074916,19.712 199.810909,19.2533379 199.810909,18.336 C199.810909,17.9093312 199.528245,17.562668 198.962909,17.296 C198.478335,17.0674274 197.903646,16.8584494 197.238829,16.6690615 L196.898909,16.576 C196.088238,16.3626656 195.27758,16.0960016 194.466909,15.776 C193.656238,15.4559984 192.968245,14.9493368 192.402909,14.256 C191.837573,13.5626632 191.554909,12.6933386 191.554909,11.648 C191.554909,10.0693254 192.136237,8.8266712 193.298909,7.92 C194.461582,7.0133288 195.9069,6.56 197.634909,6.56 C198.936249,6.56 200.120237,6.8533304 201.186909,7.44 C202.253581,8.0266696 203.096239,8.86399456 203.714909,9.952 L200.194909,11.872 C199.682907,10.7839946 198.829582,10.24 197.634909,10.24 C197.101573,10.24 196.658911,10.3573322 196.306909,10.592 C195.954907,10.8266678 195.778909,11.1466646 195.778909,11.552 Z M214.853818,10.976 L211.237818,10.976 L211.237818,17.632 C211.237818,18.1866694 211.376483,18.5919987 211.653818,18.848 C211.931153,19.1040013 212.336482,19.2479998 212.869818,19.28 C213.403154,19.3120002 214.064481,19.3066669 214.853818,19.264 L214.853818,23.008 C212.016471,23.3280016 210.016491,23.0613376 208.853818,22.208 C207.691146,21.3546624 207.109818,19.8293443 207.109818,17.632 L207.109818,10.976 L204.325818,10.976 L204.325818,7.008 L207.109818,7.008 L207.109818,3.776 L211.237818,2.528 L211.237818,7.008 L214.853818,7.008 L214.853818,10.976 Z M223.720727,6.56 C225.960738,6.56 227.699388,7.33865888 228.936727,8.896 L228.936727,7.008 L233.064727,7.008 L233.064727,23.008 L228.936727,23.008 L228.936727,21.12 C227.699388,22.6773411 225.960738,23.456 223.720727,23.456 C221.587383,23.456 219.758068,22.6400082 218.232727,21.008 C216.707386,19.3759918 215.944727,17.3760118 215.944727,15.008 C215.944727,12.6399882 216.707386,10.6400082 218.232727,9.008 C219.758068,7.37599184 221.587383,6.56 223.720727,6.56 Z M224.488727,10.496 C223.208721,10.496 222.152731,10.9173291 221.320727,11.76 C220.488723,12.6026709 220.072727,13.6853267 220.072727,15.008 C220.072727,16.3306733 220.488723,17.4186624 221.320727,18.272 C222.152731,19.1040042 223.208721,19.52 224.488727,19.52 C225.768734,19.52 226.830056,19.0986709 227.672727,18.256 C228.515398,17.4133291 228.936727,16.3306733 228.936727,15.008 C228.936727,13.6853267 228.515398,12.6026709 227.672727,11.76 C226.830056,10.9173291 225.768734,10.496 224.488727,10.496 Z" id="Vista" fill="#131B31"></path>
        </g>
    </g>
</svg>