<?xml version="1.0" encoding="UTF-8"?>
<svg width="300px" height="39px" viewBox="0 0 300 39" version="1.1" xmlns="http://www.w3.org/2000/svg" xmlns:xlink="http://www.w3.org/1999/xlink">
    <!-- Generator: Sketch 58 (84663) - https://sketch.com -->
    <title>PortuguêsàVista</title>
    <desc>Created with Sketch.</desc>
    <g id="Page-1" stroke="none" stroke-width="1" fill="none" fill-rule="evenodd">
        <g id="PortuguêsàVista" transform="translate(0.665000, 0.521000)" fill-rule="nonzero">
            <path d="M10.701,0.779 C13.4616805,0.779 15.7849906,1.70832404 17.671,3.567 C19.5570094,5.42567596 20.5,7.70798647 20.5,10.414 C20.5,13.1200135 19.5570094,15.402324 17.671,17.261 C15.7849906,19.119676 13.4616805,20.049 10.701,20.049 L5.658,20.049 L5.658,29.479 L0,29.479 L0,0.779 L10.701,0.779 Z M10.701,14.76 C11.9036727,14.76 12.9013294,14.3431708 13.694,13.5095 C14.4866706,12.6758292 14.883,11.6440061 14.883,10.414 C14.883,9.15666038 14.4866706,8.1180041 13.694,7.298 C12.9013294,6.4779959 11.9036727,6.068 10.701,6.068 L5.658,6.068 L5.658,14.76 L10.701,14.76 Z M39.4047273,26.937 C37.3000501,29.0143437 34.7307424,30.053 31.6967273,30.053 C28.6627121,30.053 26.1002377,29.0075105 24.0092273,26.9165 C21.9182168,24.8254895 20.8727273,22.2630152 20.8727273,19.229 C20.8727273,16.1949848 21.9182168,13.6325105 24.0092273,11.5415 C26.1002377,9.45048954 28.6627121,8.405 31.6967273,8.405 C34.7307424,8.405 37.3000501,9.45048954 39.4047273,11.5415 C41.5094045,13.6325105 42.5617273,16.1949848 42.5617273,19.229 C42.5617273,22.2630152 41.5094045,24.8323228 39.4047273,26.937 Z M27.7197273,23.288 C28.7857326,24.3540053 30.111386,24.887 31.6967273,24.887 C33.2820685,24.887 34.6077219,24.3540053 35.6737273,23.288 C36.7397326,22.2219947 37.2727273,20.8690082 37.2727273,19.229 C37.2727273,17.5889918 36.7397326,16.2360053 35.6737273,15.17 C34.6077219,14.1039947 33.2820685,13.571 31.6967273,13.571 C30.111386,13.571 28.7925659,14.1039947 27.7402273,15.17 C26.6878887,16.2360053 26.1617273,17.5889918 26.1617273,19.229 C26.1617273,20.8690082 26.6810554,22.2219947 27.7197273,23.288 Z M50.9294545,12.505 C51.421457,11.1929934 52.2346155,10.2090033 53.3689545,9.553 C54.5032936,8.89699672 55.7674476,8.569 57.1614545,8.569 L57.1614545,14.473 C55.5487798,14.2816657 54.1069609,14.6096624 52.8359545,15.457 C51.5649482,16.3043376 50.9294545,17.7119902 50.9294545,19.68 L50.9294545,29.479 L45.6404545,29.479 L45.6404545,8.979 L50.9294545,8.979 L50.9294545,12.505 Z M71.8841818,14.063 L67.2511818,14.063 L67.2511818,22.591 C67.2511818,23.3016702 67.4288467,23.8209984 67.7841818,24.149 C68.1395169,24.4770016 68.6588451,24.6614998 69.3421818,24.7025 C70.0255186,24.7435002 70.8728434,24.7366669 71.8841818,24.682 L71.8841818,29.479 C68.2488303,29.8890021 65.6863559,29.5473388 64.1966818,28.454 C62.7070077,27.3606612 61.9621818,25.4063474 61.9621818,22.591 L61.9621818,14.063 L58.3951818,14.063 L58.3951818,8.979 L61.9621818,8.979 L61.9621818,4.838 L67.2511818,3.239 L67.2511818,8.979 L71.8841818,8.979 L71.8841818,14.063 Z M88.8209091,8.979 L94.1099091,8.979 L94.1099091,29.479 L88.8209091,29.479 L88.8209091,27.183 C87.536236,29.0963429 85.499923,30.053 82.7119091,30.053 C80.4705646,30.053 78.6187497,29.3013409 77.1564091,27.798 C75.6940684,26.2946592 74.9629091,24.2173466 74.9629091,21.566 L74.9629091,8.979 L80.2519091,8.979 L80.2519091,20.91 C80.2519091,22.2766735 80.6209054,23.322163 81.3589091,24.0465 C82.0969128,24.770837 83.0809029,25.133 84.3109091,25.133 C85.6775826,25.133 86.770905,24.7093376 87.5909091,23.862 C88.4109132,23.0146624 88.8209091,21.7436751 88.8209091,20.049 L88.8209091,8.979 Z M113.998636,8.979 L119.164636,8.979 L119.164636,28.495 C119.164636,31.6656825 118.119147,34.0846583 116.028136,35.752 C113.937126,37.4193417 111.415651,38.253 108.463636,38.253 C106.249625,38.253 104.302145,37.8293376 102.621136,36.982 C100.940128,36.1346624 99.6486409,34.8910082 98.7466364,33.251 L103.256636,30.668 C104.295308,32.5813429 106.085624,33.538 108.627636,33.538 C110.294978,33.538 111.606965,33.100671 112.563636,32.226 C113.520308,31.351329 113.998636,30.1076747 113.998636,28.495 L113.998636,26.281 C112.440629,28.3583437 110.253984,29.397 107.438636,29.397 C104.541289,29.397 102.115479,28.3788435 100.161136,26.3425 C98.2067933,24.3061565 97.2296364,21.8256813 97.2296364,18.901 C97.2296364,16.0036522 98.2136265,13.5300103 100.181636,11.48 C102.149646,9.42998975 104.568622,8.405 107.438636,8.405 C110.253984,8.405 112.440629,9.44365628 113.998636,11.521 L113.998636,8.979 Z M104.117636,22.96 C105.210975,23.9986719 106.591295,24.518 108.258636,24.518 C109.925978,24.518 111.299464,23.9918386 112.379136,22.9395 C113.458808,21.8871614 113.998636,20.5410082 113.998636,18.901 C113.998636,17.2883253 113.458808,15.9558386 112.379136,14.9035 C111.299464,13.8511614 109.925978,13.325 108.258636,13.325 C106.591295,13.325 105.217808,13.8511614 104.138136,14.9035 C103.058464,15.9558386 102.518636,17.2883253 102.518636,18.901 C102.518636,20.5410082 103.051631,21.8939947 104.117636,22.96 Z M136.839364,8.979 L142.128364,8.979 L142.128364,29.479 L136.839364,29.479 L136.839364,27.183 C135.554691,29.0963429 133.518378,30.053 130.730364,30.053 C128.489019,30.053 126.637204,29.3013409 125.174864,27.798 C123.712523,26.2946592 122.981364,24.2173466 122.981364,21.566 L122.981364,8.979 L128.270364,8.979 L128.270364,20.91 C128.270364,22.2766735 128.63936,23.322163 129.377364,24.0465 C130.115367,24.770837 131.099357,25.133 132.329364,25.133 C133.696037,25.133 134.78936,24.7093376 135.609364,23.862 C136.429368,23.0146624 136.839364,21.7436751 136.839364,20.049 L136.839364,8.979 Z M155.703091,3.895 L153.899091,6.56 L148.651091,6.56 L152.997091,0.615 L158.368091,0.615 L162.714091,6.56 L157.466091,6.56 L155.703091,3.895 Z M150.783091,21.402 C151.493761,23.9713462 153.420742,25.256 156.564091,25.256 C158.586768,25.256 160.117419,24.5726735 161.156091,23.206 L165.420091,25.666 C163.397414,28.5906813 160.418111,30.053 156.482091,30.053 C153.092741,30.053 150.373101,29.0280103 148.323091,26.978 C146.273081,24.9279898 145.248091,22.3450156 145.248091,19.229 C145.248091,16.1403179 146.259414,13.564177 148.282091,11.5005 C150.304768,9.43682302 152.901408,8.405 156.072091,8.405 C159.078773,8.405 161.559248,9.44365628 163.513591,11.521 C165.467934,13.5983437 166.445091,16.1676514 166.445091,19.229 C166.445091,19.9123368 166.376758,20.6366628 166.240091,21.402 L150.783091,21.402 Z M150.701091,17.302 L161.156091,17.302 C160.855423,15.907993 160.233596,14.8693368 159.290591,14.186 C158.347586,13.5026633 157.274764,13.161 156.072091,13.161 C154.65075,13.161 153.475429,13.523163 152.546091,14.2475 C151.616753,14.971837 151.001759,15.9899934 150.701091,17.302 Z M173.541818,14.801 C173.541818,15.3476694 173.903981,15.7918316 174.628318,16.1335 C175.262113,16.4324598 176.016229,16.7000254 176.890684,16.9362028 L177.272818,17.0355 C178.31149,17.295168 179.350146,17.6231647 180.388818,18.0195 C181.42749,18.4158353 182.308981,19.078662 183.033318,20.008 C183.757655,20.937338 184.119818,22.098993 184.119818,23.493 C184.119818,25.5976772 183.333993,27.217161 181.762318,28.3515 C180.190644,29.485839 178.229497,30.053 175.878818,30.053 C171.669464,30.053 168.799493,28.4266829 167.268818,25.174 L171.860818,22.591 C172.462155,24.3676756 173.801474,25.256 175.878818,25.256 C177.764828,25.256 178.707818,24.6683392 178.707818,23.493 C178.707818,22.9463306 178.345655,22.5021684 177.621318,22.1605 C176.987523,21.8615402 176.233407,21.5887429 175.358952,21.3421019 L174.976818,21.238 C173.938146,20.9646653 172.89949,20.623002 171.860818,20.213 C170.822146,19.8029979 169.940655,19.1538378 169.216318,18.2655 C168.491981,17.3771622 168.129818,16.26334 168.129818,14.924 C168.129818,12.9013232 168.874644,11.3091725 170.364318,10.1475 C171.853992,8.98582753 173.705807,8.405 175.919818,8.405 C177.58716,8.405 179.104145,8.78082958 180.470818,9.5325 C181.837492,10.2841704 182.917148,11.356993 183.709818,12.751 L179.199818,15.211 C178.543815,13.816993 177.450493,13.12 175.919818,13.12 C175.236481,13.12 174.66932,13.2703318 174.218318,13.571 C173.767316,13.8716682 173.541818,14.2816641 173.541818,14.801 Z" id="Português" fill="#FFFFFF"></path>
            <path d="M200.195545,6.396 L195.111545,6.396 L190.560545,0.779 L196.915545,0.779 L200.195545,6.396 Z M195.480545,8.405 C198.35056,8.405 200.578204,9.40265669 202.163545,11.398 L202.163545,8.979 L207.452545,8.979 L207.452545,29.479 L202.163545,29.479 L202.163545,27.06 C200.578204,29.0553433 198.35056,30.053 195.480545,30.053 C192.747198,30.053 190.403389,29.0075105 188.449045,26.9165 C186.494702,24.8254895 185.517545,22.2630152 185.517545,19.229 C185.517545,16.1949848 186.494702,13.6325105 188.449045,11.5415 C190.403389,9.45048954 192.747198,8.405 195.480545,8.405 Z M196.464545,13.448 C194.824537,13.448 193.471551,13.9878279 192.405545,15.0675 C191.33954,16.1471721 190.806545,17.5343249 190.806545,19.229 C190.806545,20.9236751 191.33954,22.3176612 192.405545,23.411 C193.471551,24.4770053 194.824537,25.01 196.464545,25.01 C198.104554,25.01 199.464373,24.4701721 200.544045,23.3905 C201.623718,22.3108279 202.163545,20.9236751 202.163545,19.229 C202.163545,17.5343249 201.623718,16.1471721 200.544045,15.0675 C199.464373,13.9878279 198.104554,13.448 196.464545,13.448 Z" id="à" fill="#FF2850"></path>
            <path d="M218.936273,29.479 L209.301273,0.779 L215.451273,0.779 L222.462273,22.837 L229.432273,0.779 L235.623273,0.779 L225.947273,29.479 L218.936273,29.479 Z M239.276,6.519 C238.401329,6.519 237.642837,6.19783655 237.0005,5.5555 C236.358163,4.91316346 236.037,4.15467104 236.037,3.28 C236.037,2.40532896 236.358163,1.64000328 237.0005,0.984 C237.642837,0.32799672 238.401329,1.13686838e-13 239.276,1.13686838e-13 C240.178005,1.13686838e-13 240.950163,0.32799672 241.5925,0.984 C242.234837,1.64000328 242.556,2.40532896 242.556,3.28 C242.556,4.15467104 242.234837,4.91316346 241.5925,5.5555 C240.950163,6.19783655 240.178005,6.519 239.276,6.519 Z M236.652,29.479 L236.652,8.979 L241.941,8.979 L241.941,29.479 L236.652,29.479 Z M250.841727,14.801 C250.841727,15.3476694 251.20389,15.7918316 251.928227,16.1335 C252.562022,16.4324598 253.316138,16.7000254 254.190593,16.9362028 L254.572727,17.0355 C255.611399,17.295168 256.650055,17.6231647 257.688727,18.0195 C258.727399,18.4158353 259.60889,19.078662 260.333227,20.008 C261.057564,20.937338 261.419727,22.098993 261.419727,23.493 C261.419727,25.5976772 260.633902,27.217161 259.062227,28.3515 C257.490553,29.485839 255.529406,30.053 253.178727,30.053 C248.969373,30.053 246.099402,28.4266829 244.568727,25.174 L249.160727,22.591 C249.762064,24.3676756 251.101384,25.256 253.178727,25.256 C255.064737,25.256 256.007727,24.6683392 256.007727,23.493 C256.007727,22.9463306 255.645564,22.5021684 254.921227,22.1605 C254.287432,21.8615402 253.533316,21.5887429 252.658861,21.3421019 L252.276727,21.238 C251.238055,20.9646653 250.199399,20.6230021 249.160727,20.213 C248.122055,19.802998 247.240564,19.1538378 246.516227,18.2655 C245.79189,17.3771622 245.429727,16.26334 245.429727,14.924 C245.429727,12.9013232 246.174553,11.3091725 247.664227,10.1475 C249.153901,8.98582753 251.005716,8.405 253.219727,8.405 C254.887069,8.405 256.404054,8.78082958 257.770727,9.5325 C259.137401,10.2841704 260.217057,11.356993 261.009727,12.751 L256.499727,15.211 C255.843724,13.816993 254.750402,13.12 253.219727,13.12 C252.536391,13.12 251.96923,13.2703318 251.518227,13.571 C251.067225,13.8716682 250.841727,14.2816641 250.841727,14.801 Z M275.281455,14.063 L270.648455,14.063 L270.648455,22.591 C270.648455,23.3016702 270.826119,23.8209984 271.181455,24.149 C271.53679,24.4770016 272.056118,24.6614998 272.739455,24.7025 C273.422791,24.7435002 274.270116,24.7366669 275.281455,24.682 L275.281455,29.479 C271.646103,29.8890021 269.083629,29.5473388 267.593955,28.454 C266.10428,27.3606612 265.359455,25.4063474 265.359455,22.591 L265.359455,14.063 L261.792455,14.063 L261.792455,8.979 L265.359455,8.979 L265.359455,4.838 L270.648455,3.239 L270.648455,8.979 L275.281455,8.979 L275.281455,14.063 Z M286.642182,8.405 C289.512196,8.405 291.739841,9.40265669 293.325182,11.398 L293.325182,8.979 L298.614182,8.979 L298.614182,29.479 L293.325182,29.479 L293.325182,27.06 C291.739841,29.0553433 289.512196,30.053 286.642182,30.053 C283.908835,30.053 281.565025,29.0075105 279.610682,26.9165 C277.656339,24.8254895 276.679182,22.2630152 276.679182,19.229 C276.679182,16.1949848 277.656339,13.6325105 279.610682,11.5415 C281.565025,9.45048955 283.908835,8.405 286.642182,8.405 Z M287.626182,13.448 C285.986174,13.448 284.633187,13.9878279 283.567182,15.0675 C282.501176,16.1471721 281.968182,17.5343249 281.968182,19.229 C281.968182,20.9236751 282.501176,22.3176612 283.567182,23.411 C284.633187,24.4770053 285.986174,25.01 287.626182,25.01 C289.26619,25.01 290.62601,24.4701721 291.705682,23.3905 C292.785354,22.3108279 293.325182,20.9236751 293.325182,19.229 C293.325182,17.5343249 292.785354,16.1471721 291.705682,15.0675 C290.62601,13.9878279 289.26619,13.448 287.626182,13.448 Z" id="Vista" fill="#FFFFFF"></path>
        </g>
    </g>
</svg>