<?xml version="1.0" encoding="UTF-8"?>
<svg width="428px" height="453px" viewBox="0 0 428 453" version="1.1" xmlns="http://www.w3.org/2000/svg" xmlns:xlink="http://www.w3.org/1999/xlink">
    <!-- Generator: Sketch 58 (84663) - https://sketch.com -->
    <title>knowledge</title>
    <desc>Created with Sketch.</desc>
    <g id="Page-1" stroke="none" stroke-width="1" fill="none" fill-rule="evenodd">
        <g id="knowledge" transform="translate(212.000000, 222.000000) rotate(-345.000000) translate(-212.000000, -222.000000) translate(6.000000, 21.000000)">
            <path d="M278.334902,349.740238 C278.334902,352.278549 277.406871,354.549668 275.815962,356.420002 C277.406871,358.156741 278.334902,360.561456 278.334902,363.099767 L278.334902,371.382674 C278.334902,373.119413 277.804599,374.856152 277.009144,376.3257 C277.804599,377.795248 278.334902,379.531987 278.334902,381.268725 L278.334902,389.551633 C278.334902,395.02904 273.959902,399.437684 268.524296,399.437684 L183.145508,399.437684 C177.709902,399.437684 173.334902,395.02904 173.334902,389.551633 L173.334902,381.13513 C173.334902,379.398391 173.865205,377.661653 174.660659,376.192105 C173.865205,374.722556 173.334902,372.985818 173.334902,371.249079 L173.334902,362.966171 C173.334902,360.427861 174.262932,358.156741 175.853841,356.286407 C174.262932,354.549668 173.334902,352.144953 173.334902,349.606643 L173.334902,341.323735 C173.334902,335.846328 177.709902,331.437684 183.145508,331.437684 L268.524296,331.437684 C273.959902,331.437684 278.334902,335.846328 278.334902,341.323735 L278.334902,349.740238 Z" id="Path" fill="#FF2850" fill-rule="nonzero"></path>
            <path d="M346.45712,165.009518 C346.45712,212.869367 318.534043,254.100427 278.112065,273.721639 L278.112065,318.267094 C278.112065,321.581488 275.319757,324.365579 271.995581,324.365579 L178.918658,324.365579 C175.594482,324.365579 172.802175,321.581488 172.802175,318.267094 L172.802175,273.721639 C132.380197,254.233003 104.45712,212.869367 104.45712,165.009518 C104.45712,98.3239122 158.574702,44.3655789 225.45712,44.3655789 C292.339537,44.3655789 346.45712,98.456488 346.45712,165.009518 Z" id="Path" fill="#FFCF2D" fill-rule="nonzero"></path>
            <path d="M266.45502,358.158565 L185.45502,358.158565" id="Path" stroke="#7F7F7F" stroke-width="2" opacity="0.23" stroke-linecap="round"></path>
            <path d="M266.284134,376.839325 L185.284134,376.839325" id="Path" stroke="#7F7F7F" stroke-width="2" opacity="0.23" stroke-linecap="round"></path>
            <path d="M246.421857,179.36073 C244.956029,178.026107 242.823917,177.358795 240.558547,177.62572 C237.76015,177.892644 235.095009,179.494192 233.362668,181.763051 C231.896841,183.764986 231.097299,186.167307 230.697528,188.436166 C229.498214,187.768855 228.165644,187.101543 226.966331,186.30077 L226.56656,186.033845 L224.834218,186.033845 L224.434447,186.30077 C223.101877,187.101543 221.902564,187.768855 220.703251,188.436166 C220.303479,186.167307 219.503937,183.764986 218.03811,181.763051 C216.439026,179.494192 213.640628,177.892644 210.842231,177.62572 C208.576861,177.358795 206.578006,178.026107 204.978921,179.36073 C202.980066,181.229202 202.313781,183.898448 202.980066,186.701156 C204.046122,190.438101 207.111034,193.507734 210.708974,194.175046 C212.974343,194.575432 215.106455,194.44197 217.371825,193.908121 L217.371825,193.908121 C220.703251,237.28337 222.035821,281.192469 221.103022,324.567718 L225.100732,324.567718 C226.033532,281.059007 224.700961,237.016446 221.369536,193.641196 C221.369536,193.240809 221.369536,192.840423 221.236279,192.440036 C222.835363,191.772724 224.30119,190.97195 225.767018,190.037714 C227.232845,190.838488 228.698672,191.772724 230.297756,192.440036 C230.297756,192.840423 230.297756,193.240809 230.164499,193.641196 C226.833074,237.016446 225.500503,281.059007 226.433303,324.567718 L230.431013,324.567718 C229.498214,281.192469 230.830785,237.149908 234.16221,193.908121 L234.16221,193.908121 C236.294323,194.44197 238.559692,194.708895 240.825061,194.175046 C244.289744,193.507734 247.487913,190.438101 248.553969,186.701156 C249.086997,183.898448 248.420712,181.229202 246.421857,179.36073 Z M211.375259,190.438101 C209.376403,190.037714 207.377548,188.035779 206.711263,185.76692 C206.444749,184.832684 206.311492,183.364599 207.510805,182.430363 C208.17709,181.763051 209.109889,181.629589 209.776174,181.629589 C209.909431,181.629589 210.042688,181.629589 210.309202,181.629589 C211.908287,181.763051 213.640628,182.697287 214.706684,184.165373 C215.905998,185.76692 216.572283,187.768855 216.838797,190.037714 C214.973198,190.571563 213.240857,190.705026 211.375259,190.438101 Z M244.556258,185.76692 C243.889973,188.035779 242.024375,190.037714 239.892262,190.438101 C238.159921,190.838488 236.294323,190.571563 234.561981,190.037714 C234.961752,187.768855 235.49478,185.76692 236.694094,184.165373 C237.626893,182.83075 239.359234,181.896513 241.091576,181.629589 C241.891118,181.496127 242.957174,181.629589 243.889973,182.430363 C244.822772,183.364599 244.689515,184.832684 244.556258,185.76692 Z" id="Shape" fill="#FFFFFF" fill-rule="nonzero"></path>
            <path d="M192.98998,66.0937262 C163.883237,76.7603929 116.25402,115.42706 120.223121,178.093726" id="Path" stroke="#FFFFFF" stroke-width="4" stroke-linecap="round"></path>
            <ellipse id="Oval" fill="#FF2850" fill-rule="nonzero" cx="33.9288943" cy="248.108726" rx="33.5" ry="34"></ellipse>
            <circle id="Oval" fill="#FF2850" fill-rule="nonzero" cx="395.5548" cy="137.235129" r="15.5"></circle>
            <circle id="Oval" fill="#FF2850" fill-rule="nonzero" cx="345.72551" cy="376.277054" r="25.5"></circle>
            <circle id="Oval" fill="#FF2850" fill-rule="nonzero" cx="104.777606" cy="25.6931018" r="25.5"></circle>
        </g>
    </g>
</svg>