<svg xmlns="http://www.w3.org/2000/svg" width="101" height="36" viewBox="0 0 101 36"><g><g><path fill="#838995" d="M1 5.023a4 4 0 0 1 4.023-4l80.015.466a4 4 0 0 1 3.154 1.57l10.879 14.226a2 2 0 0 1 0 2.43L88.21 33.918a4 4 0 0 1-3.201 1.57l-80.032-.465a4 4 0 0 1-3.977-4z"/><path fill="none" stroke="#838995" stroke-miterlimit="20" d="M1 5.023a4 4 0 0 1 4.023-4l80.015.466a4 4 0 0 1 3.154 1.57l10.879 14.226a2 2 0 0 1 0 2.43L88.21 33.918a4 4 0 0 1-3.201 1.57l-80.032-.465a4 4 0 0 1-3.977-4z"/></g></g></svg>