<?xml version="1.0" encoding="UTF-8"?>
<svg width="678px" height="529px" viewBox="0 0 678 529" version="1.1" xmlns="http://www.w3.org/2000/svg" xmlns:xlink="http://www.w3.org/1999/xlink">
    <!-- Generator: Sketch 58 (84663) - https://sketch.com -->
    <title>Group 40</title>
    <desc>Created with Sketch.</desc>
    <defs>
        <path d="M73.93014,0.20988 C61.91352,0.20988 52.16598,9.95148 52.16598,21.9681 L52.16598,21.9681 L52.16598,216.83574 C52.16598,228.85236 61.91352,238.59396 73.93014,238.59396 L73.93014,238.59396 L377.58294,238.59396 C389.59956,238.59396 399.34116,228.85236 399.34116,216.83574 L399.34116,216.83574 L399.34116,21.9681 C399.34116,9.95148 389.59956,0.20988 377.58294,0.20988 L377.58294,0.20988 L73.93014,0.20988 Z" id="path-1"></path>
        <path d="M10.38906,0 C4.82922,0 0.3267,4.50252 0.3267,10.05642 L0.3267,10.05642 L0.3267,48.66048 C0.3267,54.22032 4.82922,58.72284 10.38906,58.72284 L10.38906,58.72284 L169.69392,58.72284 C175.24782,58.72284 179.75034,54.22032 179.75034,48.66048 L179.75034,48.66048 L179.75034,10.05642 C179.75034,4.50252 175.24782,0 169.69392,0 L169.69392,0 L10.38906,0 Z" id="path-3"></path>
        <path d="M10.127214,0 C4.573314,0 0.076734,4.50252 0.076734,10.05642 L0.076734,10.05642 L0.076734,48.66642 C0.076734,54.21438 4.573314,58.72284 10.127214,58.72284 L10.127214,58.72284 L169.438014,58.72284 C174.997854,58.72284 179.494434,54.21438 179.494434,48.66642 L179.494434,48.66642 L179.494434,10.05642 C179.494434,4.50252 174.997854,0 169.438014,0 L169.438014,0 L10.127214,0 Z" id="path-5"></path>
        <path d="M49.74048,0 C44.18658,0 39.69,4.50252 39.69,10.05642 L39.69,10.05642 L39.69,48.66048 C39.69,54.21438 44.18658,58.7169 49.74048,58.7169 L49.74048,58.7169 L209.05128,58.7169 C214.61112,58.7169 219.1077,54.21438 219.1077,48.66048 L219.1077,48.66048 L219.1077,10.05642 C219.1077,4.50252 214.61112,0 209.05128,0 L209.05128,0 L49.74048,0 Z" id="path-7"></path>
        <path d="M42.01362,3.45906 C41.4909,34.1154 45.01926,70.16526 52.58088,111.49578 L61.38396,246.87432 C66.9735,251.53722 77.02398,252.36882 83.23722,247.18914 L88.73172,110.55726 C91.00674,70.16526 92.8719,34.5312 94.32126,3.45906 L42.01362,3.45906 Z" id="path-9"></path>
        <path d="M24.26292,10.40688 C27.57744,66.75372 20.84148,108.29214 3.96,135.11718 L3.96,135.11718 C36.79038,154.28556 70.35732,155.31912 104.4351,138.2238 L104.4351,138.2238 C93.13722,98.86536 89.72172,56.1924 94.07574,10.098 L94.07574,10.098 C83.0214,3.36798 71.71758,0 60.16428,0 L60.16428,0 C48.44466,0 36.46962,3.46896 24.26292,10.40688" id="path-11"></path>
        <path d="M173.95884,148.24458 L156.81006,164.0628 C155.11122,165.63096 155.0043,168.27426 156.56652,169.96716 L156.56652,169.96716 C158.13468,171.66006 160.77204,171.77292 162.47088,170.2107 L162.47088,170.2107 L179.61966,154.38654 C181.3185,152.82432 181.42542,150.18102 179.85726,148.48812 L179.85726,148.48812 C179.03754,147.59712 177.91488,147.14568 176.78628,147.14568 L176.78628,147.14568 C175.77648,147.14568 174.76074,147.50802 173.95884,148.24458" id="path-13"></path>
        <path d="M109.30194,77.01804 C111.36312,90.20484 116.04978,99.75042 120.42756,106.26066 L120.42756,106.26066 C126.56358,103.64706 132.95502,100.66518 139.39992,97.68924 L139.39992,97.68924 L133.13322,60.90282 L109.30194,77.01804 Z" id="path-15"></path>
        <path d="M67.5990179,41.43744 C76.3070579,70.76322 80.7145379,96.48936 102.229218,122.01354 L102.229218,122.01354 L0.132497939,215.80614 C-0.865422061,224.41914 3.73807794,231.81444 15.1488179,236.22786 L15.1488179,236.22786 C89.4225779,187.87626 131.762898,153.846 142.068798,134.22618 L142.068798,134.22618 C150.277878,123.21342 134.863578,78.87132 95.7308579,1.0989 L95.7308579,1.0989 C66.7971179,2.09682 63.3934979,-3.20166 67.5990179,41.43744" id="path-17"></path>
        <path d="M84.5161379,29.49804 L41.4095579,72.07596 C35.5883579,77.83182 35.5289579,87.21108 41.2848179,93.03822 L41.2848179,93.03822 C47.0347379,98.85942 56.4199379,98.91882 62.2411379,93.1689 L62.2411379,93.1689 L105.353658,50.58504 C111.174858,44.84106 111.234258,35.44992 105.484338,29.62872 L105.484338,29.62872 C102.579678,26.68842 98.7602579,25.22124 94.9348979,25.22124 L94.9348979,25.22124 C91.1689379,25.22124 87.4029779,26.6409 84.5161379,29.49804" id="path-19"></path>
        <path d="M24.1743421,4.20552 C19.6658821,28.52388 26.6750821,63.16002 45.0950221,108.00108 L45.0950221,108.00108 L71.4151621,248.2326 C79.5232621,250.9353 86.9363821,250.3413 93.7376821,246.23082 L93.7376821,246.23082 C93.9337021,192.58074 91.5339421,144.33606 86.5384021,101.29482 L86.5384021,101.29482 C84.5306821,62.2512 77.3254621,28.52388 65.0118421,0 L65.0118421,0 L24.1743421,4.20552 Z" id="path-21"></path>
        <path d="M95.3511964,37.78434 C91.9297564,40.89096 91.1575564,45.2925 93.1593364,51.16122 L93.1593364,51.16122 C108.240996,53.29368 123.322656,53.73918 138.392436,52.50366 L138.392436,52.50366 C144.379956,43.42734 124.843296,46.26666 114.020616,35.64 L114.020616,35.64 C109.506216,38.80008 103.281096,39.50694 95.3511964,37.78434" id="path-23"></path>
        <polygon id="path-25" points="295.1298 101.5641 300.02436 101.5641 300.02436 106.45866 295.1298 106.45866"></polygon>
        <polygon id="path-27" points="303.55272 101.5641 308.44728 101.5641 308.44728 106.45866 303.55272 106.45866"></polygon>
        <polygon id="path-29" points="311.98158 101.5641 316.87614 101.5641 316.87614 106.45866 311.98158 106.45866"></polygon>
        <polygon id="path-31" points="320.41638 101.5641 325.305 101.5641 325.305 106.45866 320.41638 106.45866"></polygon>
        <polygon id="path-33" points="295.1298 108.3654 300.02436 108.3654 300.02436 113.25996 295.1298 113.25996"></polygon>
        <polygon id="path-35" points="303.55272 108.3654 308.44728 108.3654 308.44728 113.25996 303.55272 113.25996"></polygon>
        <polygon id="path-37" points="311.98158 108.3654 316.87614 108.3654 316.87614 113.25996 311.98158 113.25996"></polygon>
        <polygon id="path-39" points="320.41638 108.3654 325.305 108.3654 325.305 113.25996 320.41638 113.25996"></polygon>
        <polygon id="path-41" points="295.1298 115.16076 300.02436 115.16076 300.02436 120.05532 295.1298 120.05532"></polygon>
        <polygon id="path-43" points="303.55272 115.16076 308.44728 115.16076 308.44728 120.05532 303.55272 120.05532"></polygon>
        <polygon id="path-45" points="311.98158 115.16076 316.87614 115.16076 316.87614 120.05532 311.98158 120.05532"></polygon>
        <polygon id="path-47" points="320.41638 115.16076 325.305 115.16076 325.305 120.05532 320.41638 120.05532"></polygon>
        <path d="M-35.3421,134.53704 C-49.75254,167.07042 -57.46266,204.40332 -58.46058,246.74364 L-58.46058,246.74364 C-30.73266,262.6569 -4.01454,262.76382 21.61656,247.04658 L21.61656,247.04658 C12.40956,217.71486 12.90852,182.5857 23.11938,141.84324 L23.11938,141.84324 C11.13246,135.00036 -1.31778,131.59674 -14.20758,131.59674 L-14.20758,131.59674 C-21.12768,131.59674 -28.17252,132.57684 -35.3421,134.53704" id="path-49"></path>
    </defs>
    <g id="Page-1" stroke="none" stroke-width="1" fill="none" fill-rule="evenodd">
        <g id="#1-PT" transform="translate(-720.000000, -216.000000)">
            <g id="Group-40" transform="translate(720.000000, 216.000000)">
                <mask id="mask-2" fill="white">
                    <use xlink:href="#path-1"></use>
                </mask>
                <g id="Clip-219"></g>
                <g id="Group-7" transform="translate(147.515382, 0.209880)">
                    <path d="M21.76416,-2.13162821e-14 C9.74754,-2.13162821e-14 0,9.7416 0,21.75822 L0,21.75822 L0,216.62586 C0,228.64248 9.74754,238.38408 21.76416,238.38408 L21.76416,238.38408 L325.41696,238.38408 C337.43358,238.38408 347.17518,228.64248 347.17518,216.62586 L347.17518,216.62586 L347.17518,21.75822 C347.17518,9.7416 337.43358,-2.13162821e-14 325.41696,-2.13162821e-14 L325.41696,-2.13162821e-14 L21.76416,-2.13162821e-14 Z" id="Fill-218" fill="#66B0F0"></path>
                    <path d="M321.997302,209.945736 L25.187382,209.945736 C14.554782,209.945736 5.935842,201.326796 5.935842,190.694196 L5.935842,36.064116 C5.935842,25.431516 14.554782,16.812576 25.187382,16.812576 L321.997302,16.812576 C332.623962,16.812576 341.242902,25.431516 341.242902,36.064116 L341.242902,190.694196 C341.242902,201.326796 332.623962,209.945736 321.997302,209.945736" id="Fill-221" fill="#FFFFFF"></path>
                    <g id="youtube" transform="translate(107.727840, 69.830640)" fill="#A9D7FF" fill-rule="nonzero">
                        <path d="M131.294905,8.15850829 C126.363364,2.36373697 117.258302,0 99.8696607,0 L36.7490172,0 C18.9624153,0 9.70310497,2.51620803 4.79007348,8.68562251 C0,14.7008234 0,23.563748 0,35.8302621 L0,59.2101735 C0,82.974312 5.683392,95.04 36.7490172,95.04 L99.8701014,95.04 C114.949424,95.04 123.305279,92.954196 128.711024,87.8403168 C134.254711,82.5961838 136.62,74.0338451 136.62,59.2101735 L136.62,35.8302621 C136.62,22.8941822 136.249363,13.9789819 131.294905,8.15850829 Z M87.7104807,50.74803 L59.0476047,65.5555832 C58.4068128,65.8866632 57.7060845,66.0508963 57.0062375,66.0508963 C56.2138415,66.0508963 55.4232083,65.8400506 54.7229206,65.420973 C53.4043173,64.631173 52.5991407,63.2184197 52.5991407,61.6945805 L52.5991407,32.1744418 C52.5991407,30.6532164 53.4021137,29.24177 54.7180728,28.4515343 C56.0344726,27.6612986 57.6717091,27.6072803 59.0374684,28.3086472 L87.7003444,43.020797 C89.1586527,43.7692121 90.0744474,45.2573296 90.0766535,46.8809285 C90.0784138,48.5058343 89.1665855,49.9961299 87.7104807,50.74803 Z" id="XMLID_823_"></path>
                    </g>
                    <g id="Group-31" transform="translate(189.005940, 52.285940)">
                        <g id="Group-30">
                            <g id="Group-5" transform="translate(92.918340, 92.972880)">
                                <mask id="mask-4" fill="white">
                                    <use xlink:href="#path-3"></use>
                                </mask>
                                <g id="Clip-345"></g>
                                <path d="M10.38906,0 C4.82922,0 0.3267,4.50252 0.3267,10.05642 L0.3267,10.05642 L0.3267,48.66048 C0.3267,54.22032 4.82922,58.72284 10.38906,58.72284 L10.38906,58.72284 L169.69392,58.72284 C175.24782,58.72284 179.75034,54.22032 179.75034,48.66048 L179.75034,48.66048 L179.75034,10.05642 C179.75034,4.50252 175.24782,0 169.69392,0 L169.69392,0 L10.38906,0 Z" id="Fill-344" fill="#66B0F0" mask="url(#mask-4)"></path>
                                <polygon id="Fill-347" fill="#FFFFFF" mask="url(#mask-4)" points="71.28 17.19036 90.03258 17.19036 90.03258 12.68784 71.28 12.68784"></polygon>
                                <polygon id="Fill-349" fill="#FFFFFF" mask="url(#mask-4)" points="71.28594 26.80722 162.0135 26.80722 162.0135 22.3047 71.28594 22.3047"></polygon>
                                <polygon id="Fill-350" fill="#FFFFFF" mask="url(#mask-4)" points="71.28594 36.41814 162.0135 36.41814 162.0135 31.91562 71.28594 31.91562"></polygon>
                                <polygon id="Fill-351" fill="#FFFFFF" mask="url(#mask-4)" points="71.28 46.035 126.18936 46.035 126.18936 41.53248 71.28 41.53248"></polygon>
                                <g id="mic" mask="url(#mask-4)" stroke="#FFFFFF" stroke-linecap="round" stroke-linejoin="round" stroke-width="3.2845824">
                                    <g transform="translate(27.763560, 9.521820)" id="Path">
                                        <path d="M11.4960384,0 C8.77500125,0 6.5691648,2.20583645 6.5691648,4.9268736 L6.5691648,18.0652032 C6.5691648,20.7862404 8.77500125,22.9920768 11.4960384,22.9920768 C14.2170756,22.9920768 16.422912,20.7862404 16.422912,18.0652032 L16.422912,4.9268736 C16.422912,2.20583645 14.2170756,0 11.4960384,0 Z"></path>
                                        <path d="M22.9920768,14.7806208 L22.9920768,18.0652032 C22.9920768,24.4142898 17.845125,29.5612414 11.4960384,29.5612414 C5.14695178,29.5612414 -1.77635684e-15,24.4142898 -1.77635684e-15,18.0652032 L-1.77635684e-15,14.7806208"></path>
                                        <path d="M11.4960384,29.5612416 L11.4960384,36.1304064"></path>
                                        <path d="M4.9268736,36.1304064 L18.0652032,36.1304064"></path>
                                    </g>
                                </g>
                            </g>
                            <g id="Group-4" transform="translate(0.005346, 191.870920)">
                                <g id="Group-3">
                                    <g id="Group-2">
                                        <path d="M10.127214,0 C4.573314,0 0.076734,4.50252 0.076734,10.05642 L0.076734,10.05642 L0.076734,48.66642 C0.076734,54.21438 4.573314,58.72284 10.127214,58.72284 L10.127214,58.72284 L169.438014,58.72284 C174.997854,58.72284 179.494434,54.21438 179.494434,48.66642 L179.494434,48.66642 L179.494434,10.05642 C179.494434,4.50252 174.997854,0 169.438014,0 L169.438014,0 L10.127214,0 Z" id="Fill-359" fill="#66B0F0"></path>
                                        <polygon id="Fill-362" fill="#FFFFFF" points="71.030034 17.19036 89.782614 17.19036 89.782614 12.6819 71.030034 12.6819"></polygon>
                                        <polygon id="Fill-364" fill="#FFFFFF" points="71.030034 26.80128 161.757594 26.80128 161.757594 22.29876 71.030034 22.29876"></polygon>
                                        <polygon id="Fill-365" fill="#FFFFFF" points="71.030034 36.41814 161.757594 36.41814 161.757594 31.91562 71.030034 31.91562"></polygon>
                                        <polygon id="Fill-366" fill="#FFFFFF" points="71.030034 46.035 125.945334 46.035 125.945334 41.53248 71.030034 41.53248"></polygon>
                                    </g>
                                    <g id="tv" transform="translate(19.696554, 12.693780)" stroke="#FFFFFF" stroke-linecap="round" stroke-linejoin="round" stroke-width="2.97">
                                        <rect id="Rectangle" x="3.19744231e-14" y="7.98336" width="31.93344" height="23.95008" rx="0.798336"></rect>
                                        <polyline id="Path" points="23.95008 3.64153152e-14 15.96672 7.98336 7.98336 3.64153152e-14"></polyline>
                                    </g>
                                </g>
                                <mask id="mask-6" fill="white">
                                    <use xlink:href="#path-5"></use>
                                </mask>
                                <g id="Clip-360"></g>
                            </g>
                            <mask id="mask-8" fill="white">
                                <use xlink:href="#path-7"></use>
                            </mask>
                            <g id="Clip-291"></g>
                        </g>
                        <g id="Group-6" transform="translate(39.363300, 0.000000)">
                            <path d="M10.37718,0 C4.82328,0 0.3267,4.50252 0.3267,10.05642 L0.3267,10.05642 L0.3267,48.66048 C0.3267,54.21438 4.82328,58.7169 10.37718,58.7169 L10.37718,58.7169 L169.68798,58.7169 C175.24782,58.7169 179.7444,54.21438 179.7444,48.66048 L179.7444,48.66048 L179.7444,10.05642 C179.7444,4.50252 175.24782,0 169.68798,0 L169.68798,0 L10.37718,0 Z" id="Fill-290" fill="#66B0F0"></path>
                            <polygon id="Fill-338" fill="#FFFFFF" points="71.28 17.53488 90.03258 17.53488 90.03258 13.03236 71.28 13.03236"></polygon>
                            <polygon id="Fill-340" fill="#FFFFFF" points="71.28 27.15174 162.00756 27.15174 162.00756 22.64922 71.28 22.64922"></polygon>
                            <polygon id="Fill-341" fill="#FFFFFF" points="71.28 36.7686 162.00756 36.7686 162.00756 32.26608 71.28 32.26608"></polygon>
                            <polygon id="Fill-342" fill="#FFFFFF" points="71.28 46.38546 126.1953 46.38546 126.1953 41.88294 71.28 41.88294"></polygon>
                            <g id="film" transform="translate(21.918600, 13.394700)" stroke="#FFFFFF" stroke-linecap="round" stroke-linejoin="round">
                                <rect id="Rectangle" stroke-width="3.42144" x="-1.71072" y="-1.71072" width="33.07392" height="33.07392" rx="3.23212032"></rect>
                                <path d="M7.41312,0 L7.41312,29.65248" id="Path" stroke-width="2.97"></path>
                                <path d="M22.23936,0 L22.23936,29.65248" id="Path" stroke-width="2.97"></path>
                                <path d="M0,14.82624 L29.65248,14.82624" id="Path" stroke-width="2.97"></path>
                                <path d="M0,7.41312 L7.41312,7.41312" id="Path" stroke-width="2.97"></path>
                                <path d="M0,22.23936 L7.41312,22.23936" id="Path" stroke-width="2.97"></path>
                                <path d="M22.23936,22.23936 L29.65248,22.23936" id="Path" stroke-width="2.97"></path>
                                <path d="M22.23936,7.41312 L29.65248,7.41312" id="Path" stroke-width="2.97"></path>
                            </g>
                        </g>
                    </g>
                </g>
                <g id="Group-39" transform="translate(438.300000, 73.260000)">
                    <path d="M142.721568,28.763262 C143.066088,32.463882 145.180728,36.075402 144.337248,39.692862 C143.719488,42.336162 141.616728,44.379522 139.389228,45.929862 C137.161728,47.474262 134.690688,48.709782 132.718608,50.569002 C128.982348,54.091422 127.485468,59.799762 128.994228,64.700262 C130.514868,69.600762 134.975808,73.455822 140.048568,74.257722 C142.270128,74.602242 144.545148,74.406222 146.790468,74.204262 C153.710568,73.586502 160.701948,72.950922 167.295348,70.765002 C173.888748,68.579082 180.149508,64.652742 183.814488,58.754322 C185.287608,56.384262 186.327108,53.693442 186.451848,50.901642 C186.677568,45.959562 184.016448,41.255082 180.494028,37.780182 C176.971608,34.311222 172.617588,31.828302 168.441768,29.167182 C162.311688,25.264602 141.135588,11.846142 142.721568,28.763262" id="Fill-245" fill="#000000"></path>
                    <g id="Group-38">
                        <g id="Group-24" transform="translate(112.327615, 420.985620)">
                            <path d="M82.5661615,3.689334 C82.3582615,8.251254 83.7007015,13.009194 86.4034015,17.885934 L97.0657015,27.722574 L66.7182415,24.402114 C67.7577415,15.290154 73.6561615,18.402714 73.3472815,3.582414 L82.5661615,3.689334 Z" id="Fill-237" fill="#FFC78F"></path>
                            <path d="M66.6148855,26.3736 C73.7607055,31.55328 94.7883055,36.21024 103.900265,32.48586 L103.900265,32.48586 C104.316065,24.30648 91.5807055,26.48052 86.7099055,17.2557 L86.7099055,17.2557 C81.5242855,18.711 76.3505455,17.88534 71.0698855,14.6718 L71.0698855,14.6718 C68.0642455,16.95276 66.6148855,20.77812 66.6148855,26.3736" id="Fill-239" fill="#3FB1B5"></path>
                            <path d="M21.4554415,0.893376 C21.6574015,5.455296 20.3149615,10.213236 17.6182015,15.084036 L6.9559015,24.926616 L37.3033615,21.606156 C36.2638615,12.494196 30.3595015,15.606756 30.6743215,0.786456 L21.4554415,0.893376 Z" id="Fill-253" fill="#FFC78F"></path>
                            <path d="M17.2119055,14.45796 C12.3351655,23.68278 -0.400194504,21.5028 0.00966549631,29.68812 L0.00966549631,29.68812 C9.1275655,33.41844 30.1551655,28.75554 37.3069255,23.5818 L37.3069255,23.5818 C37.3069255,17.98038 35.8516255,14.15502 32.8459855,11.88 L32.8459855,11.88 C27.6663055,15.08166 22.3856455,15.91326 17.2119055,14.45796" id="Fill-255" fill="#3FB1B5"></path>
                        </g>
                        <g id="Group-37">
                            <g id="Group-36">
                                <g id="Group-35">
                                    <g id="Group-23" transform="translate(158.895000, 182.380860)" fill="#FF2850">
                                        <path d="M0.16038,0.01872 C-0.36234,30.67506 3.16602,66.72492 10.72764,108.05544 L10.72764,108.05544 L19.53072,243.43398 C25.12026,248.09688 35.17074,248.92848 41.38398,243.7488 L41.38398,243.7488 L46.87848,107.11692 C49.1535,66.72492 51.01866,31.09086 52.46802,0.01872 L52.46802,0.01872 L0.16038,0.01872 Z" id="Fill-242"></path>
                                    </g>
                                    <g id="Group-244" transform="translate(117.041760, 178.940520)">
                                        <mask id="mask-10" fill="white">
                                            <use xlink:href="#path-9"></use>
                                        </mask>
                                        <use id="Clip-243" fill="#E81E43" xlink:href="#path-9"></use>
                                        <g id="Group-22" mask="url(#mask-10)">
                                            <g transform="translate(0.273240, -2.480940)"></g>
                                        </g>
                                        <path d="M0.27324,0.56034 C1.7226,31.63248 3.58182,67.2606 5.86872,107.65854 L5.86872,107.65854 L11.35134,244.28448 C17.57052,249.57108 27.621,248.73948 33.21054,243.9756 L33.21054,243.9756 L42.01362,108.59112 C49.57524,67.2606 53.09172,31.21668 52.58088,0.56034 L52.58088,0.56034 L0.27324,0.56034 Z" id="Fill-258" fill="#FF2850"></path>
                                    </g>
                                    <g id="Group-34">
                                        <g id="Group-33">
                                            <g id="Group-32">
                                                <g id="Group-25" transform="translate(0.000000, 19.800000)">
                                                    <g id="Group-18" transform="translate(0.105138, 0.574244)" fill="#FFC78F">
                                                        <path d="M139.293,77.3138084 C132.8481,80.2897484 126.4626,83.2716284 120.32658,85.8852284 C104.81724,92.5142684 91.20276,96.9514484 83.90844,93.7854284 C69.56334,83.9963084 40.92066,57.5514284 17.82,30.1383284 L24.2055,23.3251484 L89.43858,70.0135484 L109.20096,56.6426084 L133.0263,40.5333284 L139.293,77.3138084 Z" id="Fill-247"></path>
                                                        <path d="M24.19362,23.3257424 C22.85712,13.6079024 15.51528,11.9684624 15.51528,11.9684624 L5.1084,0.908182393 C2.29284,-1.72323761 -1.1286,1.94174239 1.6929,4.56722239 L8.77338,13.6970024 C5.18562,16.5719624 5.77368,20.2844624 9.34362,26.8778624 C11.63052,28.3272224 14.36886,29.8003424 17.81406,30.1151624 L24.19362,23.3257424 Z" id="Fill-268"></path>
                                                    </g>
                                                    <g id="Group-19" transform="translate(108.900000, 30.690000)">
                                                        <path d="M0.40194,26.52804 C2.46312,39.71484 7.14978,49.26042 11.52756,55.77066 L11.52756,55.77066 C17.66358,53.15706 24.05502,50.17518 30.49992,47.19924 L30.49992,47.19924 L24.23322,10.41282 L0.40194,26.52804 Z" id="Fill-250" fill="#FFCF2D"></path>
                                                        <path d="M24.26292,10.40688 C27.57744,66.75372 20.84148,108.29214 3.96,135.11718 L3.96,135.11718 C36.79038,154.28556 70.35732,155.31912 104.4351,138.2238 L104.4351,138.2238 C93.13722,98.86536 89.72172,56.1924 94.07574,10.098 L94.07574,10.098 C83.0214,3.36798 71.71758,0 60.16428,0 L60.16428,0 C48.44466,0 36.46962,3.46896 24.26292,10.40688" id="Fill-261" fill="#FFCF2D"></path>
                                                        <path d="M88.80102,47.19924 C89.1693,50.41872 89.59104,53.64414 90.07812,56.74482 L90.07812,56.74482 C99.43956,54.25002 107.70804,50.23458 114.51528,46.10628 L114.51528,46.10628 C110.74338,31.5711 104.24502,18.68724 94.08762,10.10988 L94.08762,10.10988 L88.80102,47.19924 Z" id="Fill-282" fill="#FFCF2D"></path>
                                                        <mask id="mask-12" fill="white">
                                                            <use xlink:href="#path-11"></use>
                                                        </mask>
                                                        <g id="Clip-262"></g>
                                                        <path d="M88.80102,47.19924 C89.1693,50.41872 89.59104,53.64414 90.07812,56.74482 L90.07812,56.74482 C99.43956,54.25002 107.70804,50.23458 114.51528,46.10628 L114.51528,46.10628 C110.74338,31.5711 104.24502,18.68724 94.08762,10.10988 L94.08762,10.10988 L88.80102,47.19924 Z" id="Clip-283" mask="url(#mask-12)"></path>
                                                    </g>
                                                </g>
                                                <g id="Group-17" transform="translate(143.188012, 0.205722)">
                                                    <path d="M13.2757458,51.783534 C19.4949258,61.828074 26.3259258,61.519194 33.7865658,50.850954 C29.9552658,48.469014 27.5733258,44.014014 26.8486458,37.384974 L18.9722058,37.070154 C19.3880058,44.530794 17.5228458,49.401594 13.2757458,51.783534" id="Fill-264" fill="#FFC78F"></path>
                                                    <path d="M11.4486018,38.31696 C16.9371618,48.7773 23.9760618,46.60326 28.8528018,38.62584 C31.7515218,33.44616 32.5771818,25.88454 31.3357218,16.14888 L7.9261818,15.84 C7.8252018,25.05888 8.9597418,32.51358 11.4486018,38.31696" id="Fill-266" fill="#FFC78F"></path>
                                                    <path d="M61.2596598,56.01816 C60.7131798,58.08528 60.7131798,60.45534 61.8714798,62.16012 C61.1349198,62.766 60.5943798,63.06894 60.1607598,63.06894 C53.9593998,62.95014 49.5222198,56.50524 43.9326798,53.77284 C41.1349398,52.371 39.4301598,54.13518 36.4542198,53.10162 C33.1693998,51.88392 28.2451398,47.80908 26.3027598,44.89254 C24.0514998,41.48892 25.7503398,36.9864 26.1839598,32.9175 C26.3621598,31.39686 26.3027598,29.81682 25.6315398,28.48032 C24.9662598,27.14382 23.4456198,26.10432 21.9903198,26.34786 C21.1943598,26.4726 20.4637398,26.90028 19.7984598,27.26262 C13.7158998,30.5415 4.6633398,29.81682 1.1349798,23.37192 C-0.260920204,20.75832 -0.385660204,17.3547 1.4379198,15.04404 C2.2279398,14.06988 3.3208998,13.33926 4.1109198,12.3651 C6.1186398,9.87624 5.9404398,6.16374 7.8234198,3.61548 C9.8905398,0.693 13.9594398,0.08712 17.5471998,0.14652 C21.0696198,0.14652 24.7821198,0.693 27.5798598,2.76012 C30.1340598,4.64904 31.8982398,7.68438 34.8741798,8.59914 C35.2365198,9.87624 35.6641998,10.9692 36.0324798,11.69982 C38.4619398,16.55874 43.3208598,19.65942 48.1263198,22.21956 C52.9317798,24.83316 58.0401798,27.20322 61.4378598,31.45626 C65.3938998,36.32112 66.4868598,43.3719 64.2415398,49.27032 C63.3267798,51.58098 61.9249398,53.6481 61.2596598,56.01816" id="Fill-285" fill="#000000"></path>
                                                </g>
                                            </g>
                                            <g id="Group-21" transform="translate(149.515631, 141.116580)" fill="#464646">
                                                <path d="M1.81774914,33.68574 C-0.475090864,35.79444 -0.617650864,39.35844 1.49698914,41.65722 L45.0312491,88.85646 C47.1399491,91.1493 50.7098891,91.29186 52.9967891,89.18316 L87.9002291,56.9943 C90.1930691,54.87966 90.3296891,51.31566 88.2209891,49.02282 L44.6807891,1.81764 C43.5700091,0.61182 42.0553091,0 40.5346691,0 C39.1684691,0 37.7963291,0.49302 36.7093091,1.49688 L1.81774914,33.68574 Z" id="Fill-271"></path>
                                            </g>
                                            <g id="Group-20" transform="translate(174.261780, 96.593904)" fill="#FFC78F">
                                                <path d="M53.04717,46.5696 C49.51881,61.46118 30.36825,93.44214 17.11611,118.85346 L8.12295,111.375 L32.73831,46.26666 C29.03175,36.2934 26.60229,24.01542 24.71337,10.63854 C34.08075,8.14374 42.34329,4.13424 49.15647,7.10542736e-15 C52.98183,14.83218 53.95599,31.36914 53.04717,46.5696" id="Fill-277"></path>
                                                <path d="M8.13186,111.387474 C5.04306,110.876634 0.45144,110.276694 0,111.387474 C0.63558,119.311434 4.05108,125.126694 13.662,126.201834 C15.89544,123.897114 17.21412,121.479534 17.12502,118.889694 L8.13186,111.387474 Z" id="Fill-279"></path>
                                            </g>
                                        </g>
                                    </g>
                                    <mask id="mask-14" fill="white">
                                        <use xlink:href="#path-13"></use>
                                    </mask>
                                    <g id="Clip-275"></g>
                                </g>
                                <path d="M173.95884,148.24458 L156.81006,164.0628 C155.11122,165.63096 155.0043,168.27426 156.56652,169.96716 L156.56652,169.96716 C158.13468,171.66006 160.77204,171.77292 162.47088,170.2107 L162.47088,170.2107 L179.61966,154.38654 C181.3185,152.82432 181.42542,150.18102 179.85726,148.48812 L179.85726,148.48812 C179.03754,147.59712 177.91488,147.14568 176.78628,147.14568 L176.78628,147.14568 C175.77648,147.14568 174.76074,147.50802 173.95884,148.24458" id="Fill-274" fill="#B4B4B4"></path>
                            </g>
                            <mask id="mask-16" fill="white">
                                <use xlink:href="#path-15"></use>
                            </mask>
                            <g id="Clip-251"></g>
                        </g>
                    </g>
                </g>
                <g id="Group-29" transform="translate(0.000000, 78.435720)">
                    <g id="Group-28">
                        <g id="Group-27" transform="translate(0.360000, 0.000000)">
                            <g id="Group-26">
                                <g id="Group-14" transform="translate(23.760000, 158.400000)">
                                    <g id="Group-13">
                                        <g id="Fill-381-+-Fill-384-+-Clip-403-Mask" transform="translate(0.614484, 0.000000)">
                                            <mask id="mask-18" fill="white">
                                                <use xlink:href="#path-17"></use>
                                            </mask>
                                            <g id="Mask"></g>
                                            <path d="M67.5990179,41.43744 C76.3070579,70.76322 80.7145379,96.48936 102.229218,122.01354 L102.229218,122.01354 L0.132497939,215.80614 C-0.865422061,224.41914 3.73807794,231.81444 15.1488179,236.22786 L15.1488179,236.22786 C89.4225779,187.87626 131.762898,153.846 142.068798,134.22618 L142.068798,134.22618 C150.277878,123.21342 134.863578,78.87132 95.7308579,1.0989 L95.7308579,1.0989 C66.7971179,2.09682 63.3934979,-3.20166 67.5990179,41.43744" id="Fill-381" fill="#FF2850"></path>
                                            <path d="M23.5598579,4.20552 C19.0513979,28.52388 26.0605979,63.16002 44.4805379,108.00108 L44.4805379,108.00108 L70.8006779,248.2326 C78.9087779,250.9353 86.3218979,250.3413 93.1231979,246.23082 L93.1231979,246.23082 C93.3192179,192.58074 90.9194579,144.33606 85.9239179,101.29482 L85.9239179,101.29482 C83.9161979,62.2512 76.7109779,28.52388 64.3973579,-3.55271368e-14 L64.3973579,-3.55271368e-14 L23.5598579,4.20552 Z" id="Fill-384" fill="#FF2850"></path>
                                            <mask id="mask-20" fill="white">
                                                <use xlink:href="#path-19"></use>
                                            </mask>
                                            <g id="Clip-403"></g>
                                        </g>
                                    </g>
                                    <mask id="mask-22" fill="white">
                                        <use xlink:href="#path-21"></use>
                                    </mask>
                                    <use id="Clip-385" fill="#E81E43" xlink:href="#path-21"></use>
                                </g>
                                <g id="Group-12" transform="translate(3.296826, 0.671616)">
                                    <g id="Group-11">
                                        <g id="Group-15" transform="translate(0.765270, 377.712126)" fill="#FFB26C">
                                            <path d="M27.8289,0 C13.99464,15.55092 8.59518,9.74754 1.37667655e-14,19.64952 L18.90702,49.60494 C22.01958,33.80454 11.54142,29.06442 33.80454,7.20522 L27.8289,0 Z" id="Fill-371"></path>
                                            <path d="M94.259484,26.09739 C98.334324,51.96609 90.701424,46.95273 91.651824,59.64057 L123.911964,62.07597 C115.186104,49.14459 107.475984,58.85055 107.790804,28.53873 L94.259484,26.09739 Z" id="Fill-376"></path>
                                        </g>
                                        <g id="Group-9" transform="translate(82.170000, 0.000000)">
                                            <path d="M23.5224,39.813444 L10.91178,36.611784 C9.90792,44.719884 6.30828,50.125284 0,52.626024 C7.91208,65.539584 16.41816,66.739464 25.62516,56.326644 C20.62368,51.426144 19.92276,45.919764 23.5224,39.813444" id="Fill-390" fill="#FFB26C"></path>
                                            <path d="M36.434772,14.690214 L12.615372,9.783774 L5.303232,37.309734 C14.213232,46.718694 21.020472,49.522374 25.629912,45.720774 C31.427352,38.711574 34.931952,28.405674 36.434772,14.690214" id="Fill-392" fill="#FFB26C"></path>
                                            <path d="M41.74335,17.59131 C42.14133,15.79149 42.24231,14.69259 41.83839,12.98781 C41.13747,10.08315 40.24053,8.38431 38.13777,6.18057 C35.63703,3.37689 33.63525,1.87407 30.02967,0.77517 C26.43003,-0.32373 24.02433,-0.12771 20.22273,0.57915 C18.41697,0.87615 17.71605,1.97505 15.91623,2.17701 C14.61537,2.27799 13.91445,1.37511 12.61359,1.67805 C10.61181,2.17701 9.51291,3.07989 8.20611,4.68369 C3.20463,11.18799 2.60469,16.49241 1.49985,24.70149 C1.00089,28.30113 0.89991,30.50487 2.00475,34.00947 C2.60469,36.01125 3.10365,37.21113 4.70151,38.41101 C5.90733,39.41487 6.91119,40.11579 8.40807,39.71781 C9.00801,39.51585 9.20997,39.01095 9.51291,38.51199 C10.81377,36.30825 11.41371,34.81137 11.71071,32.20371 C11.81169,31.10481 11.61567,30.50487 11.31273,29.50101 C10.71279,27.20223 8.30709,26.00235 9.10899,23.69763 C9.51291,22.59873 10.61181,21.69585 11.71071,22.29579 C14.31243,23.39469 13.41549,28.40211 14.41341,29.60199 C15.41727,30.80781 15.21531,28.09917 15.61329,27.00027 C16.61715,24.00057 14.81733,20.89395 17.41905,18.99315 C21.72555,15.98751 26.52507,17.49033 30.73059,20.59695 C33.53427,22.69971 31.13451,27.70119 34.23519,28.90107 C35.73207,29.60199 36.63495,28.00413 37.73979,26.60229 C40.24053,23.69763 40.94145,21.39885 41.74335,17.59131 Z" id="Fill-394" fill="#000000"></path>
                                        </g>
                                        <g id="Group-10" transform="translate(20.631996, 49.519404)">
                                            <path d="M86.365422,54.40149 C108.325602,86.14485 124.529922,101.03643 134.984322,99.07623 C140.829282,96.55767 156.112902,65.99043 180.603522,7.19631 C177.431562,3.44223 174.342762,1.19097 171.331182,0.44847 L130.850082,68.01597 C116.944542,36.21321 109.287882,19.52181 101.375802,13.21353 L86.365422,54.40149 Z" id="Fill-370" fill="#FFB26C"></path>
                                            <path d="M42.91848,5.9103 C28.50804,38.44368 20.79792,75.77658 19.8,118.1169 L19.8,118.1169 C47.52792,134.03016 74.24604,134.13708 99.87714,118.41984 L99.87714,118.41984 C90.67014,89.08812 91.1691,53.95896 101.37996,13.2165 L101.37996,13.2165 C89.39304,6.37362 76.9428,2.97 64.053,2.97 L64.053,2.97 C57.1329,2.97 50.08806,3.9501 42.91848,5.9103" id="Fill-387" fill="#FFCF2D"></path>
                                            <g id="Group-8" transform="translate(37.061640, 2.417580)">
                                                <path d="M176.074074,98.407386 C156.828474,117.421326 125.780094,117.231246 106.766154,97.979706 C87.728454,78.710346 87.918534,47.661966 107.164134,28.648026 C126.445374,9.610326 157.487814,9.800406 176.525514,29.069766 C195.539454,48.321306 195.349374,79.369686 176.074074,98.407386" id="Fill-396" fill="#FFFFFF"></path>
                                                <polygon id="Fill-399" fill="#464646" points="41.58 148.65444 55.29546 162.53622 114.2559 104.30046 100.54044 90.41274"></polygon>
                                                <path d="M47.90016,135.28944 L4.79358,177.86736 C-1.02762,183.62322 -1.08702,193.00248 4.66884,198.82962 L4.66884,198.82962 C10.41876,204.65082 19.80396,204.71022 25.62516,198.9603 L25.62516,198.9603 L68.73768,156.37644 C74.55888,150.63246 74.61828,141.24132 68.86836,135.42012 L68.86836,135.42012 C65.9637,132.47982 62.14428,131.01264 58.31892,131.01264 L58.31892,131.01264 C54.55296,131.01264 50.787,132.4323 47.90016,135.28944" id="Fill-402" fill="#464646"></path>
                                                <path d="M96.98832,18.33678 C72.03438,42.9759 71.79084,83.19564 96.45966,108.16146 L96.45966,108.16146 C121.09284,133.10946 161.31258,133.35894 186.26058,108.71982 L186.26058,108.71982 C211.2264,84.051 211.47588,43.8372 186.83676,18.8892 L186.83676,18.8892 C174.40434,6.30234 158.02182,0 141.63336,0 L141.63336,0 C125.50626,0 109.36728,6.10038 96.98832,18.33678 M106.76556,97.9803 C87.72786,78.705 87.91794,47.65662 107.16354,28.64862 L107.16354,28.64862 C126.44478,9.61092 157.48722,9.801 176.52492,29.07036 L176.52492,29.07036 C195.53886,48.3219 195.34878,79.37028 176.07348,98.40798 L176.07348,98.40798 C166.5279,107.83476 154.07766,112.54518 141.6393,112.54518 L141.6393,112.54518 C128.9871,112.54518 116.35272,107.68032 106.76556,97.9803" id="Fill-405" fill="#464646"></path>
                                            </g>
                                            <path d="M42.920262,5.909706 C28.836522,18.371826 -7.658838,88.855866 2.575782,108.208386 C12.358962,118.062846 58.702842,143.337546 93.582522,163.788966 L100.930302,154.106766 L27.167382,95.366106 L51.836202,51.885306 C57.942522,35.277066 53.095482,17.439246 42.920262,5.909706" id="Fill-408" fill="#FFB26C"></path>
                                        </g>
                                    </g>
                                    <path d="M114.21333,213.305994 C114.21333,213.305994 113.67279,216.180954 117.08829,218.004534 C120.50379,219.828114 131.29083,218.164914 130.57803,205.382034 C130.15035,197.642214 121.56111,203.623794 121.56111,203.623794 L114.21333,213.305994 Z" id="Fill-410" fill="#FFB26C"></path>
                                </g>
                                <g id="Group-16" transform="translate(0.091266, 390.956940)">
                                    <path d="M0.45375639,6.17166 C6.91647639,19.5129 11.2704964,37.02996 32.6188564,38.41992 L32.6188564,38.41992 C43.2573964,38.50308 21.4872964,29.66436 24.4335364,15.01632 L24.4335364,15.01632 C19.4379964,12.96702 15.5116564,8.21502 12.6426364,0.85536 L12.6426364,0.85536 C11.7635164,0.60588 10.8903364,0.481126207 10.0290364,0.481126207 L10.0290364,0.481126207 C6.65511639,0.4752 3.44751639,2.38788 0.45375639,6.17166" id="Fill-373" fill="#3FB1B5"></path>
                                    <mask id="mask-24" fill="white">
                                        <use xlink:href="#path-23"></use>
                                    </mask>
                                    <g id="Clip-379"></g>
                                    <path d="M95.3511964,37.78434 C91.9297564,40.89096 91.1575564,45.2925 93.1593364,51.16122 L93.1593364,51.16122 C108.240996,53.29368 123.322656,53.73918 138.392436,52.50366 L138.392436,52.50366 C144.379956,43.42734 124.843296,46.26666 114.020616,35.64 L114.020616,35.64 C109.506216,38.80008 103.281096,39.50694 95.3511964,37.78434" id="Fill-378" fill="#3FB1B5" mask="url(#mask-24)"></path>
                                </g>
                            </g>
                        </g>
                    </g>
                    <path d="M195.618222,50.63652 C204.367842,39.303 214.869762,53.95698 213.159042,58.35258 C211.448322,62.75412 201.409722,61.0137 195.618222,56.10132 C192.155202,53.16102 195.618222,50.63652 195.618222,50.63652" id="Fill-412" fill="#FFB26C"></path>
                </g>
                <mask id="mask-26" fill="white">
                    <use xlink:href="#path-25"></use>
                </mask>
                <g id="Clip-303"></g>
                <mask id="mask-28" fill="white">
                    <use xlink:href="#path-27"></use>
                </mask>
                <g id="Clip-306"></g>
                <mask id="mask-30" fill="white">
                    <use xlink:href="#path-29"></use>
                </mask>
                <g id="Clip-309"></g>
                <mask id="mask-32" fill="white">
                    <use xlink:href="#path-31"></use>
                </mask>
                <g id="Clip-312"></g>
                <mask id="mask-34" fill="white">
                    <use xlink:href="#path-33"></use>
                </mask>
                <g id="Clip-315"></g>
                <mask id="mask-36" fill="white">
                    <use xlink:href="#path-35"></use>
                </mask>
                <g id="Clip-318"></g>
                <mask id="mask-38" fill="white">
                    <use xlink:href="#path-37"></use>
                </mask>
                <g id="Clip-321"></g>
                <mask id="mask-40" fill="white">
                    <use xlink:href="#path-39"></use>
                </mask>
                <g id="Clip-324"></g>
                <mask id="mask-42" fill="white">
                    <use xlink:href="#path-41"></use>
                </mask>
                <g id="Clip-327"></g>
                <mask id="mask-44" fill="white">
                    <use xlink:href="#path-43"></use>
                </mask>
                <g id="Clip-330"></g>
                <mask id="mask-46" fill="white">
                    <use xlink:href="#path-45"></use>
                </mask>
                <g id="Clip-333"></g>
                <mask id="mask-48" fill="white">
                    <use xlink:href="#path-47"></use>
                </mask>
                <g id="Clip-336"></g>
                <mask id="mask-50" fill="white">
                    <use xlink:href="#path-49"></use>
                </mask>
                <g id="Clip-388"></g>
            </g>
        </g>
    </g>
</svg>