<?xml version="1.0" encoding="UTF-8"?>
<svg width="657px" height="704px" viewBox="0 0 657 704" version="1.1" xmlns="http://www.w3.org/2000/svg" xmlns:xlink="http://www.w3.org/1999/xlink">
    <!-- Generator: Sketch 58 (84663) - https://sketch.com -->
    <title>Group 41</title>
    <desc>Created with Sketch.</desc>
    <g id="Page-1" stroke="none" stroke-width="1" fill="none" fill-rule="evenodd">
        <g id="#1-PT" transform="translate(-97.000000, -1657.000000)">
            <g id="Group-274" transform="translate(97.000000, 1663.000000)">
                <g id="Group-41">
                    <g id="Group-102" transform="translate(0.000000, 54.000000)">
                        <g id="Group-101">
                            <g id="Group-100" transform="translate(112.578400, 0.189099)">
                                <path d="M24.8092,-2.27373675e-13 C11.6428,-2.27373675e-13 0.9646,10.6704 0.9646,23.8446 L0.9646,23.8446 L0.9646,237.4008 C0.9646,250.5672 11.6428,261.2376 24.8092,261.2376 L24.8092,261.2376 L357.5884,261.2376 C370.7548,261.2376 381.433,250.5672 381.433,237.4008 L381.433,237.4008 L381.433,23.8446 C381.433,10.6704 370.7548,-2.27373675e-13 357.5884,-2.27373675e-13 L357.5884,-2.27373675e-13 L24.8092,-2.27373675e-13 Z" id="Fill-272" fill="#66B0F0"></path>
                                <path d="M353.83816,230.0766 L28.56256,230.0766 C16.91716,230.0766 7.47136,220.6386 7.47136,208.9854 L7.47136,39.5226 C7.47136,27.8694 16.91716,18.4236 28.56256,18.4236 L353.83816,18.4236 C365.48356,18.4236 374.92936,27.8694 374.92936,39.5226 L374.92936,208.9854 C374.92936,220.6386 365.48356,230.0766 353.83816,230.0766" id="Fill-275" fill="#FFFFFF"></path>
                                <polygon id="Fill-283" fill="#1F6EB2" points="37.375 197.6676 354.2188 197.6676 354.2188 193.1748 37.375 193.1748"></polygon>
                                <path d="M176.8,195.429 C176.8,199.3992 180.0214,202.6206 183.9916,202.6206 L183.9916,202.6206 C187.9774,202.6206 191.1988,199.3992 191.1988,195.429 L191.1988,195.429 C191.1988,191.4432 187.9774,188.2218 183.9916,188.2218 L183.9916,188.2218 C180.0214,188.2218 176.8,191.4432 176.8,195.429" id="Fill-286" fill="#1F6EB2"></path>
                            </g>
                            <g id="Group-89" transform="translate(0.000000, 63.000000)">
                                <g id="Group-84" transform="translate(2.600000, 201.200000)">
                                    <g id="Group-82" transform="translate(4.767479, 287.600000)">
                                        <path d="M42.6819612,40.2172194 L14.9529612,38.9614194 L1.60716117,38.3608194 C-0.342838825,34.4920194 2.53536117,31.7542194 4.82076117,28.9852194 C5.99856117,27.5656194 7.03596117,26.0680194 7.19976117,24.3754194 L9.20436117,11.0998194 L10.3431612,3.17501941 C12.6831612,0.780419412 14.8749612,-0.217980588 16.9341612,0.0394194119 C18.6969612,0.195419412 20.2647612,1.31081941 21.7857612,3.38561941 L21.6531612,10.4758194 L21.2553612,25.4596194 C21.2241612,26.1928194 21.3333612,26.8636194 21.4503612,27.4642194 C23.1819612,35.6854194 36.8553612,32.7526194 42.6819612,40.2172194" id="Fill-291" fill="#C19165"></path>
                                        <path d="M21.4519212,27.4688994 C18.9481212,30.1520994 16.4365212,31.5716994 13.7611212,31.9538994 L13.7611212,31.9538994 C10.9297212,32.3984994 7.95012117,31.3532994 4.82232117,28.9820994 L4.82232117,28.9820994 C4.53372117,28.8182994 4.32312117,28.6622994 4.03452117,28.4282994 L4.03452117,28.4282994 C0.774121175,32.9210994 -0.497278825,37.5152994 0.173521175,41.9066994 L0.173521175,41.9066994 C5.40732117,43.4978994 11.3353212,44.6834994 17.5051212,45.4478994 L17.5051212,45.4478994 C29.7745212,46.9610994 42.7147212,46.8752994 51.8719212,45.5648994 L51.8719212,45.5648994 C55.2805212,30.8852994 27.9961212,39.6992994 22.3879212,26.4080994 L22.3879212,26.4080994 C22.0837212,26.7590994 21.7639212,27.1100994 21.4519212,27.4688994" id="Fill-294" fill="#3FB1B5"></path>
                                        <path d="M116.549521,52.8469794 L88.3525212,48.5491794 L76.3015212,46.7473794 C74.8507212,42.6133794 78.0331212,40.3123794 80.6227212,37.7773794 C81.9019212,36.4747794 83.0797212,35.1331794 83.4151212,33.5341794 L86.5429212,21.3817794 L88.6645212,12.9109794 C90.8563212,11.1169794 92.8141212,10.2511794 94.4989212,10.2199794 C96.5659212,10.3447794 98.3287212,11.7409794 99.7717212,14.4163794 L98.5549212,24.0181794 L96.9715212,36.2017794 C96.8857212,36.8959794 96.9169212,37.5199794 96.9247212,38.0815794 C97.7983212,46.3495794 111.471721,44.9221794 116.549521,52.8469794" id="Fill-302" fill="#C19165"></path>
                                        <path d="M74.6401212,49.9172994 C79.3747212,51.9998994 84.7879212,53.6144994 90.3415212,55.0184994 L90.3415212,55.0184994 C102.579721,57.9512994 115.738321,59.1836994 125.168521,58.9262994 L125.168521,58.9262994 C130.043521,44.8706994 102.228721,50.6738994 98.0947212,37.0784994 L98.0947212,37.0784994 C97.6813212,37.4216994 97.3693212,37.7960994 96.9247212,38.0846994 L96.9247212,38.0846994 C93.8047212,40.8614994 90.6769212,42.0080994 87.5569212,41.5400994 L87.5569212,41.5400994 C85.2637212,41.2826994 82.9003212,39.9878994 80.6227212,37.7804994 L80.6227212,37.7804994 C80.3263212,37.4996994 80.0455212,37.2266994 79.7569212,36.9536994 L79.7569212,36.9536994 C75.9817212,41.1500994 74.3983212,45.4010994 74.6401212,49.9172994" id="Fill-305" fill="#3FB1B5"></path>
                                    </g>
                                    <g id="Group-83" transform="translate(0.000000, 0.565099)">
                                        <path d="M5.4636,8.5488 C-7.4922,46.7688 9.153,91.6656 11.0328,133.1538 L11.0328,133.1538 C-0.6594,185.7726 12.936,223.8756 8.256,294.0054 L8.256,294.0054 C9.8706,295.854 11.7894,297.2892 13.9656,298.1316 L13.9656,298.1316 C15.7752,298.896 17.7486,299.286 19.7532,299.169 L19.7532,299.169 C21.9762,299.13 24.2226,298.5762 26.4222,297.5076 L26.4222,297.5076 C27.5532,296.9694 28.6218,296.2908 29.6982,295.4562 L29.6982,295.4562 L53.886,136.5078 C56.499,122.7408 58.7532,108.966 60.555,95.16 L60.555,95.16 C64.7514,63.5934 66.9588,31.8474 67.0914,2.27373675e-13 L67.0914,2.27373675e-13 L5.4636,8.5488 Z" id="Fill-297" fill="#E81E43"></path>
                                        <path d="M75.999,31.1064 L43.2,41.8392 C60.555,114.0438 100.7484,114.3168 107.5812,145.314 L107.5812,145.314 C90.4992,196.4586 99.9372,235.8174 87.9954,304.9644 L87.9954,304.9644 C88.9236,306.3294 90.039,307.5306 91.3104,308.412 L91.3104,308.412 C92.5896,309.465 94.0794,310.245 95.6472,310.6818 L95.6472,310.6818 C98.0262,311.4774 100.6938,311.6568 103.3224,311.0484 L103.3224,311.0484 C105.1944,310.7052 107.2068,309.9564 109.11,308.7864 L109.11,308.7864 L149.8572,153.2544 C156.651,120.8688 138.2508,76.2918 94.602,19.5468 L94.602,19.5468 L75.999,31.1064 Z" id="Fill-308" fill="#FF2850"></path>
                                    </g>
                                </g>
                                <g id="Group-88" transform="translate(0.489800, 0.535499)">
                                    <g id="Group-86" transform="translate(0.000000, 67.600000)">
                                        <g id="Group-85" fill="#FFCF2D">
                                            <path d="M25.7634,4.8126 C5.4678,13.4472 2.067,92.4534 1.33226763e-14,159.7752 L1.33226763e-14,159.7752 C23.0256,182.2236 47.8452,182.4966 75.894,176.7402 L75.894,176.7402 C87.7812,174.2286 99.0678,169.6578 108.888,163.3008 L108.888,163.3008 C105.3468,140.4936 103.0614,115.1748 101.946,87.2664 L101.946,87.2664 C101.7978,84.162 101.6574,80.9952 101.6574,77.8206 L101.6574,77.8206 C100.9242,56.043 100.9866,32.7132 101.7276,7.9872 L101.7276,7.9872 C101.7276,7.917 101.6574,7.917 101.6574,7.917 L101.6574,7.917 C88.7016,2.6676 74.997,-4.79616347e-14 60.5592,-4.79616347e-14 L60.5592,-4.79616347e-14 C49.3974,-4.79616347e-14 37.7988,1.5912 25.7634,4.8126" id="Fill-313"></path>
                                            <path d="M90.1368,64.9038 L88.1478,74.724 C92.8668,79.1544 97.4454,83.3586 101.946,87.2664 L101.946,87.2664 C107.2578,91.845 112.437,96.0492 117.3744,99.8166 L117.3744,99.8166 C119.301,98.3346 121.3602,96.6498 123.6612,94.7232 L123.6612,94.7232 C133.0992,86.6814 144.4716,75.0126 149.1204,62.5404 L149.1204,62.5404 C127.491,33.0096 111.618,14.781 101.7276,7.9872 L101.7276,7.9872 C101.7276,7.917 101.6574,7.917 101.6574,7.917 L101.6574,7.917 L90.1368,64.9038 Z" id="Fill-325"></path>
                                        </g>
                                        <path d="M246.85596,46.07694 C246.19296,46.88814 245.52996,47.62914 244.86696,48.44034 C202.71576,98.56314 175.25196,126.09714 162.48336,125.36394 C155.39316,124.47474 138.56076,115.98054 117.37596,99.81894 C119.29476,98.34474 121.36176,96.64434 123.65496,94.72554 C133.10076,86.68374 144.47316,75.01494 149.12196,62.54274 C154.29336,69.55494 159.75336,77.23014 165.57996,85.49814 L239.69556,32.41914 L246.85596,46.07694 Z" id="Fill-322" fill="#C19165"></path>
                                    </g>
                                    <g id="Group-87" transform="translate(44.089500, 0.342248)">
                                        <path d="M7.05822,67.2616523 C12.20622,72.1912523 21.44142,72.8932523 31.41762,68.3770523 C26.26962,63.5488523 24.17142,55.9906523 25.22442,45.7024523 L11.32482,49.1968523 C12.47142,56.4430523 10.63062,62.6440523 7.05822,67.2616523" id="Fill-316" fill="#C19165"></path>
                                        <path d="M7.05822,50.6336123 C19.65522,57.1466123 27.95442,58.5116123 31.94022,54.7286123 C35.40342,50.9534123 35.09142,38.0366123 30.89502,16.1966123 L9.05502,21.7658123 L7.05822,50.6336123 Z" id="Fill-318" fill="#C19165"></path>
                                        <path d="M23.1231,30.6882323 C30.2601,28.9020323 34.2537,37.3026323 41.3907,35.6256323 C46.5309,34.3620323 49.6821,31.5306323 51.5697,26.4840323 C54.5103,18.4032323 54.0969,11.2662323 48.6369,4.75323232 C45.2751,0.876632324 40.7589,-1.33076768 36.0321,0.876632324 C32.2569,2.65503232 35.5095,8.74683232 31.8357,10.8450323 C27.5301,13.2630323 23.7549,9.48003232 19.3479,9.06663232 C14.0985,8.01363232 8.3187,9.79983232 8.9505,17.7792323 C2.7573,22.2876323 2.6481,22.0770323 0.7605,26.3826323 C-0.3939,29.0112323 0.0273,30.8988323 0.3393,33.7302323 C0.5499,36.2496323 1.4937,37.5132323 1.9149,39.9312323 C2.2269,41.3976323 2.1255,42.3414323 2.3361,43.8156323 C2.5467,45.2820323 2.3361,46.2258323 3.0693,47.4816323 C4.7541,50.6328323 6.3219,52.3176323 9.4731,53.8932323 C12.6243,55.4688323 15.0423,56.3034323 18.4977,55.2504323 C20.2917,54.7278323 20.7051,53.4720323 22.0701,52.2084323 C23.1231,51.1632323 24.3789,50.9526323 24.5895,49.4784323 C25.4319,44.7594323 16.6101,42.1308323 19.8705,38.1450323 C21.7581,36.1482323 24.5895,42.7626323 25.7439,42.4428323 C27.0075,42.1308323 25.5411,38.8782323 24.8001,36.6708323 C24.0669,34.6818323 21.6567,34.0500323 21.9687,31.8426323 C22.0701,31.2108323 22.4913,30.8988323 23.1231,30.6882323" id="Fill-320" fill="#000000"></path>
                                    </g>
                                </g>
                            </g>
                            <g id="Group-99" transform="translate(439.524060, 200.914244)">
                                <g id="Group-98" transform="translate(6.808865, 0.060335)">
                                    <g id="Group-93" transform="translate(0.480302, 70.877447)" fill="#FFB26C">
                                        <path d="M137.083033,9.33051346 C138.565033,14.3693135 138.604033,21.9665135 137.473033,31.2017135 C133.885033,59.9837135 119.345833,103.749513 106.772233,128.881113 C98.3404328,141.220713 46.9696328,111.682113 6.71383277,92.0495135 C2.86063277,90.1853135 6.21463277,93.0401135 2.55643277,91.3943135 L0.434832773,75.5525135 L87.0070328,100.957113 C88.7698328,75.4199135 92.4904328,49.5785135 98.2312328,23.3237135 C104.073433,-1.16828654 130.765033,-5.04488654 137.083033,9.33051346" id="Fill-332"></path>
                                        <path d="M209.537233,133.132893 C206.526433,149.208693 135.967633,139.794093 90.6964328,139.068693 L90.6964328,126.931893 C90.7822328,126.838293 90.7822328,126.838293 90.8758328,126.931893 L180.139033,115.520493 C171.473233,91.4184935 164.539033,66.1386935 159.328633,39.9462935 C154.859233,15.0252935 177.861433,0.696693459 189.545833,11.3748935 C194.842033,17.5836935 199.225633,30.9918935 202.509433,47.3328935 C208.164433,74.6250935 210.816433,109.951293 209.537233,133.132893" id="Fill-374"></path>
                                        <path d="M91.3336928,126.932673 L91.0606928,132.501873 L90.6940928,139.069473 L90.6940928,139.248873 C84.8518928,138.437673 83.1124928,134.139873 78.2764928,133.866873 L72.7072928,134.873073 L67.8712928,135.785673 C66.1474928,135.512673 63.3082928,134.139873 66.3268928,132.501873 C70.7026928,129.943473 74.9068928,128.024673 78.9160928,126.659673 C82.5742928,126.386673 86.4976928,126.566073 90.6940928,126.932673 C90.7876928,126.839073 90.7876928,126.839073 90.8734928,126.932673 L91.3336928,126.932673 Z" id="Fill-376"></path>
                                    </g>
                                    <g id="Group-94" transform="translate(108.200000, 0.000000)">
                                        <path d="M24.2137748,68.0321604 C28.1527748,77.0411604 36.8965748,77.0411604 50.4685748,68.1647604 C45.0163748,62.1977604 41.8495748,53.7035604 41.0851748,42.6665604 L25.8673748,44.1875604 C29.9233748,54.4601604 29.4163748,62.4551604 24.2137748,68.0321604" id="Fill-378" fill="#FFA45A"></path>
                                        <path d="M22.0586348,59.5356204 C26.7542348,64.7382204 35.5058348,61.0566204 48.3134348,48.4986204 L41.4650348,16.2846204 L15.3428348,24.6540204 C13.3148348,39.6222204 15.4598348,51.2910204 22.0586348,59.5356204" id="Fill-380" fill="#FFB26C"></path>
                                        <path d="M22.1881148,37.8453804 C19.0213148,37.5957804 19.2709148,42.5409804 16.2211148,43.5549804 C11.4085148,45.2007804 7.47731477,44.9511804 3.16391477,42.1587804 C1.38551477,41.0199804 0.886314767,39.4911804 0.371514767,37.4631804 C-0.135485233,35.4351804 -0.260285233,33.9141804 0.886314767,32.1435804 C1.64291477,30.8721804 4.05311477,31.5039804 4.30271477,30.1077804 C4.56011477,29.0937804 2.90651477,28.9689804 2.39951477,27.9549804 C1.38551477,25.4199804 2.02511477,23.6415804 2.14991477,20.8491804 C2.27471477,18.6963804 1.51811477,17.0427804 2.78171477,15.2721804 C4.30271477,12.9867804 6.20591477,11.7153804 8.87351477,11.7153804 C10.2697148,11.7153804 10.5193148,13.8759804 11.9155148,13.6263804 C17.3677148,12.3549804 14.5753148,3.98558035 19.6531148,1.44278035 C21.9385148,0.30398035 23.9665148,0.68618035 26.2519148,1.94978035 C27.7729148,2.71418035 27.3907148,5.12438035 29.0365148,5.50658035 C33.3499148,6.26318035 34.4887148,0.43658035 38.8021148,0.0543803501 C41.4697148,-0.20301965 43.3729148,0.43658035 45.2683148,2.33198035 C47.5537148,4.61738035 45.2683148,8.42378035 47.9359148,10.3269804 C51.9919148,13.1193804 55.9231148,7.91678035 60.3691148,9.94478035 C63.6607148,11.4657804 65.3065148,13.6263804 66.2035148,17.0427804 C66.9601148,19.7103804 65.9461148,21.4887804 64.9243148,24.1485804 C63.7855148,27.1905804 60.4939148,28.0797804 60.4939148,31.3791804 C60.6187148,35.0607804 65.3065148,35.4351804 65.8213148,39.1167804 C66.5779148,45.4581804 64.2925148,49.6467804 60.1117148,54.4593804 C57.7015148,57.2517804 55.0417148,57.1269804 51.9919148,58.9053804 C47.8033148,61.3077804 46.2901148,66.0033804 41.4697148,65.6289804 C35.7601148,65.1141804 31.9537148,61.1829804 30.8071148,55.6059804 C30.1753148,52.5561804 33.0925148,51.2925804 34.3639148,48.3753804 C35.3779148,45.9651804 37.6555148,44.1867804 36.3919148,42.0339804 C35.3779148,40.2555804 32.7181148,40.0059804 30.9397148,41.2695804 C28.7869148,42.6657804 31.8211148,48.2427804 29.5435148,47.6109804 C27.2581148,46.8543804 26.7511148,38.2275804 22.1881148,37.8453804" id="Fill-382" fill="#000000"></path>
                                    </g>
                                </g>
                                <g id="Group-97" transform="translate(0.000000, 66.000000)">
                                    <g id="Group-96" transform="translate(0.000000, 41.600000)">
                                        <g id="Group-92" transform="translate(0.611452, 64.000000)">
                                            <g id="Group-91" transform="translate(3.901288, 96.002456)" fill="#C80C2E">
                                                <path d="M28.7508,1.4586 L19.6248,5.109 L8.9466,9.2196 L4.26325641e-14,12.7842 C0.0936,12.9636 0.1794,13.0494 0.273,13.2366 L0.273,13.2366 C3.1122,18.9852 6.8484,23.4624 11.1306,26.8398 L11.1306,26.8398 C15.249,30.1236 19.812,32.3154 24.5544,33.774 L24.5544,33.774 C31.1298,35.7864 37.9704,36.2388 44.3664,35.6928 L44.3664,35.6928 C53.4846,35.0532 61.6122,32.3154 66.7212,28.9302 L66.7212,28.9302 L65.8086,28.119 L40.8096,6.9342 L35.061,2.0982 L32.5884,-5.68434189e-14 L28.7508,1.4586 Z" id="Fill-335"></path>
                                                <path d="M87.399,31.0518 L79.1232,36.3558 L69.3966,42.393 L61.2924,47.5722 C61.4094,47.7282 61.5186,47.8062 61.6434,47.97 L61.6434,47.97 C65.5044,53.0868 70.0128,56.7762 74.8644,59.28 L74.8644,59.28 C79.5132,61.7448 84.4116,63.0318 89.349,63.5778 L89.349,63.5778 C96.1818,64.3032 102.9912,63.4686 109.161,61.737 L109.161,61.737 C118.0062,59.3814 125.4708,55.1694 129.8544,50.8872 L129.8544,50.8872 L128.8092,50.2554 L100.2612,34.164 L93.7092,30.498 L90.8856,28.899 L87.399,31.0518 Z" id="Fill-348"></path>
                                            </g>
                                            <g id="Group-90" transform="translate(0.614426, 97.148056)">
                                                <path d="M48.2889616,92.05426 L37.7901616,94.42546 L37.5171616,94.42546 C36.9711616,94.60486 36.3315616,94.69846 35.6919616,94.79206 L29.3037616,96.25066 C29.1243616,95.51746 28.9449616,94.87786 28.7577616,94.15246 C22.1823616,69.87106 17.4399616,47.14186 14.4213616,25.69186 C13.6023616,20.48926 12.9705616,15.28666 12.5103616,10.27126 L12.2373616,8.07166 C12.1437616,7.34626 12.1437616,6.70666 12.0501616,6.06706 L22.9155616,3.96886 L31.5813616,2.22946 L38.3439616,0.95026 L42.3531616,0.13906 C42.9927616,1.95646 43.5465616,3.87526 44.0925616,5.78626 C45.2781616,10.35706 46.0971616,15.01366 46.6431616,19.67026 C47.1891616,24.59986 47.5557616,29.52166 47.6493616,34.54486 C48.1095616,52.25086 46.4637616,70.51066 47.9223616,87.75646 C48.0159616,89.22286 48.1095616,90.68146 48.2889616,92.05426" id="Fill-338" fill="#FFB26C"></path>
                                                <path d="M47.9262616,87.7588 C44.7360616,91.2298 41.3508616,93.4138 37.7862616,94.42 L37.7862616,94.42 L37.5132616,94.42 C36.9672616,94.5994 36.3276616,94.693 35.6880616,94.7944 L35.6880616,94.7944 C33.5040616,95.0674 31.1250616,94.7944 28.7616616,94.147 L28.7616616,94.147 C28.6680616,94.147 28.4886616,94.0534 28.3950616,94.0534 L28.3950616,94.0534 C27.1158616,112.8592 -5.5661384,131.7508 2.0154616,140.791 L2.0154616,140.791 C4.7454616,141.3448 8.3958616,140.8846 12.4206616,139.6054 L12.4206616,139.6054 C30.5790616,134.2234 57.5982616,114.1462 57.4188616,105.652 L57.4188616,105.652 C56.9586616,98.5228 53.9478616,92.4154 48.2928616,87.4 L48.2928616,87.4 L47.9262616,87.7588 Z" id="Fill-343" fill="#3FB1B5"></path>
                                                <path d="M123.889682,116.94718 L114.022682,121.25278 L113.757482,121.30738 C113.258282,121.58818 112.649882,121.79098 112.033682,122.00158 L106.035482,124.63798 C105.715682,123.95158 105.419282,123.35878 105.099482,122.68018 C94.0858816,100.06798 85.1392816,78.64138 78.1582816,58.13518 C76.3642816,53.18218 74.7574816,48.19798 73.3690816,43.34638 L72.6904816,41.24818 C72.4564816,40.54618 72.3472816,39.92218 72.1288816,39.31378 L82.4092816,35.21098 L90.5914816,31.87258 L96.9952816,29.35318 L100.778282,27.78538 C101.745482,29.45458 102.642482,31.24078 103.547282,33.01138 C105.567482,37.27798 107.252282,41.70058 108.664082,46.16218 C110.130482,50.89678 111.417482,55.67818 112.447082,60.58438 C116.230082,77.89258 118.047482,96.12898 122.727482,112.80538 C123.086282,114.21718 123.452882,115.63678 123.889682,116.94718" id="Fill-351" fill="#FFB26C"></path>
                                                <path d="M122.720462,112.8046 C120.240062,116.806 117.338462,119.5984 114.023462,121.252 L114.023462,121.252 L113.758262,121.3066 C113.251262,121.5874 112.642862,121.7902 112.042262,122.0008 L112.042262,122.0008 C109.936262,122.6794 107.557262,122.8666 105.100262,122.6794 L105.100262,122.6794 C105.053462,122.6872 104.975462,122.6794 104.905262,122.6716 L104.905262,122.6716 C104.835062,122.6716 104.764862,122.6638 104.725862,122.6638 L104.725862,122.6638 C106.995662,141.3682 78.4710616,166.0708 87.6126616,173.520154 L87.6126616,173.520154 C90.3972616,173.5432 93.8994616,172.4044 97.5966616,170.3998 L97.5966616,170.3998 C114.429062,161.695 137.189462,136.891 135.418862,128.584 L135.418862,128.584 C133.624862,121.681 129.522062,116.2366 123.009062,112.3756 L123.009062,112.3756 L122.720462,112.8046 Z" id="Fill-356" fill="#3FB1B5"></path>
                                            </g>
                                            <path d="M3.9012877,109.324856 C3.9948877,109.324856 4.0806877,109.239056 4.1742877,109.239056 C7.3722877,108.334256 10.3830877,107.780456 13.1208877,107.421656 C19.7820877,106.587056 25.3512877,107.234456 30.1950877,108.513656 C36.7626877,110.424656 42.0510877,113.716256 47.2536877,116.820656 C54.1956877,120.829856 60.7710877,124.573856 69.7098877,124.121456 L70.0764877,124.121456 L55.5996877,59.4438558 C87.8292877,89.3802558 107.134288,93.7248558 128.950888,88.2414558 C134.793088,86.1510558 139.543288,82.7658558 143.287288,78.2028558 C151.040488,68.8038558 154.238488,54.1086558 153.052888,34.1172558 C96.8382877,11.3568558 57.2376877,-0.00774420029 34.2978877,0 C23.5572877,0 16.4670877,2.4882558 13.0350877,7.4646558 C-0.295112299,27.6354558 -3.2981123,61.5888558 3.9012877,109.324856 Z" id="Fill-340" fill="#E81E43"></path>
                                            <path d="M55.1004877,42.3540558 C45.8028877,64.6698558 49.2270877,98.5842558 65.2872877,144.112856 L65.2872877,144.112856 C65.3808877,144.089456 65.4432877,143.988056 65.5446877,143.972456 L65.5446877,143.972456 C68.5164877,142.467056 71.3712877,141.367256 73.9920877,140.493656 L73.9920877,140.493656 C80.3802877,138.434456 85.9650877,138.013256 90.9570877,138.364256 L90.9570877,138.364256 C97.7664877,139.011656 103.585288,141.242456 109.279288,143.301656 L109.279288,143.301656 C116.853088,145.953656 124.005688,148.387256 132.710488,146.257856 L132.710488,146.257856 L133.069288,146.187656 L97.5636877,79.1934558 C134.839888,102.538856 163.746688,109.363856 184.143688,99.8946558 L184.143688,99.8946558 C189.486688,96.7278558 193.519288,92.5158558 196.335088,87.3288558 L196.335088,87.3288558 C202.185088,76.6350558 202.559488,61.6044558 197.637688,42.1980558 L197.637688,42.1980558 C154.121488,33.5790558 120.487888,29.2734558 96.7368877,29.2734558 L96.7368877,29.2734558 C72.8220877,29.2734558 58.9302877,33.6414558 55.1004877,42.3540558" id="Fill-353" fill="#FF2850"></path>
                                        </g>
                                        <g id="Group-95" transform="translate(3.200000, 0.125856)">
                                            <polygon id="Fill-366" fill="#464646" points="5.25954 63.3516 69.56274 106.4778 109.13214 100.3938 38.11314 54.6"></polygon>
                                            <polygon id="Fill-369" fill="#464646" points="5.39214 64.623 69.56274 106.9848 58.78314 35.958 0.06474 0.195"></polygon>
                                            <path d="M31.3248,39.84786 C31.3248,42.26586 29.5464,43.45146 27.3624,42.49206 C25.1706,41.54046 23.4,38.79486 23.4,36.37686 C23.4,33.95886 25.1706,32.77326 27.3624,33.73266 C29.5464,34.68426 31.3248,37.42206 31.3248,39.84786" id="Fill-372" fill="#F2F2F2"></path>
                                        </g>
                                    </g>
                                    <path d="M117.06674,11.1108558 C110.58494,79.2906558 141.79274,99.7422558 101.90354,128.025056 L101.90354,128.025056 C118.42394,144.553256 134.85854,156.237656 150.91874,162.992456 L150.91874,162.992456 C168.08654,170.394656 184.96574,172.212056 201.49394,168.655256 L201.49394,168.655256 C212.07854,108.681056 210.61994,58.9404558 197.11034,19.6908558 L197.11034,19.6908558 L197.02454,19.6908558 C196.75154,18.4116558 196.29134,17.1324558 195.83114,15.9468558 L195.83114,15.9468558 C181.27634,5.6196558 166.82294,0.4716558 152.49434,0.479446949 L152.49434,0.479446949 C140.59934,0.479446949 128.78234,4.0284558 117.06674,11.1108558" id="Fill-361" fill="#FFCF2D"></path>
                                </g>
                            </g>
                        </g>
                        <g id="youtube" opacity="0.5" transform="translate(237.000000, 67.000000)" fill="#A9D7FF" fill-rule="nonzero">
                            <path d="M131.294905,8.15850829 C126.363364,2.36373697 117.258302,0 99.8696607,0 L36.7490172,0 C18.9624153,0 9.70310497,2.51620803 4.79007348,8.68562251 C0,14.7008234 0,23.563748 0,35.8302621 L0,59.2101735 C0,82.974312 5.683392,95.04 36.7490172,95.04 L99.8701014,95.04 C114.949424,95.04 123.305279,92.954196 128.711024,87.8403168 C134.254711,82.5961838 136.62,74.0338451 136.62,59.2101735 L136.62,35.8302621 C136.62,22.8941822 136.249363,13.9789819 131.294905,8.15850829 Z M87.7104807,50.74803 L59.0476047,65.5555832 C58.4068128,65.8866632 57.7060845,66.0508963 57.0062375,66.0508963 C56.2138415,66.0508963 55.4232083,65.8400506 54.7229206,65.420973 C53.4043173,64.631173 52.5991407,63.2184197 52.5991407,61.6945805 L52.5991407,32.1744418 C52.5991407,30.6532164 53.4021137,29.24177 54.7180728,28.4515343 C56.0344726,27.6612986 57.6717091,27.6072803 59.0374684,28.3086472 L87.7003444,43.020797 C89.1586527,43.7692121 90.0744474,45.2573296 90.0766535,46.8809285 C90.0784138,48.5058343 89.1665855,49.9961299 87.7104807,50.74803 Z" id="XMLID_823_"></path>
                        </g>
                        <path d="M240.18536,163.554639 C240.48176,152.665839 247.34576,146.035839 247.34576,153.165039 C247.34576,158.703039 245.91836,162.852639 250.46576,156.729639 C255.01316,150.591039 258.08636,146.145039 263.81156,151.878039 C269.55236,157.611039 263.50736,179.014239 247.34576,177.212439 C231.19196,175.410639 240.18536,163.554639 240.18536,163.554639" id="Fill-328" fill="#C19165"></path>
                    </g>
                    <g id="film" transform="translate(454.000000, 113.000000)" stroke-linecap="round" stroke-linejoin="round">
                        <rect id="Rectangle" stroke="#1F6EB2" stroke-width="8.895744" fill="#FFFFFF" x="-4.447872" y="-4.447872" width="85.992192" height="85.992192" rx="8.40351283"></rect>
                        <rect id="Rectangle" stroke="#66B0F0" stroke-width="8.895744" x="-4.447872" y="-4.447872" width="85.992192" height="85.992192" rx="8.40351283"></rect>
                        <path d="M19.274112,0 L19.274112,77.096448" id="Path" stroke="#66B0F0" stroke-width="7.722"></path>
                        <path d="M57.822336,0 L57.822336,77.096448" id="Path" stroke="#66B0F0" stroke-width="7.722"></path>
                        <path d="M0,38.548224 L77.096448,38.548224" id="Path" stroke="#66B0F0" stroke-width="7.722"></path>
                        <path d="M0,19.274112 L19.274112,19.274112" id="Path" stroke="#66B0F0" stroke-width="7.722"></path>
                        <path d="M0,57.822336 L19.274112,57.822336" id="Path" stroke="#66B0F0" stroke-width="7.722"></path>
                        <path d="M57.822336,57.822336 L77.096448,57.822336" id="Path" stroke="#66B0F0" stroke-width="7.722"></path>
                        <path d="M57.822336,19.274112 L77.096448,19.274112" id="Path" stroke="#66B0F0" stroke-width="7.722"></path>
                    </g>
                    <g id="tv" transform="translate(163.000000, 0.000000)" stroke="#66B0F0" stroke-linecap="round" stroke-linejoin="round" stroke-width="10.098">
                        <rect id="Rectangle" x="3.19744231e-14" y="27.143424" width="108.573696" height="81.430272" rx="2.7143424"></rect>
                        <rect id="Rectangle" fill="#FFFFFF" x="0" y="27.143424" width="108.573696" height="81.430272" rx="2.7143424"></rect>
                        <polyline id="Path" points="81.430272 3.64153152e-14 54.286848 27.143424 27.143424 3.64153152e-14"></polyline>
                    </g>
                    <g id="mic" transform="translate(302.000000, 276.000000)" stroke="#66B0F0" stroke-linecap="round" stroke-linejoin="round" stroke-width="10.8358919">
                        <path d="M37.9256215,0 C28.9488748,0 21.6717837,7.27709105 21.6717837,16.2538378 L21.6717837,59.5974052 C21.6717837,68.574152 28.9488748,75.851243 37.9256215,75.851243 C46.9023683,75.851243 54.1794593,68.574152 54.1794593,59.5974052 L54.1794593,16.2538378 C54.1794593,7.27709105 46.9023683,0 37.9256215,0 Z" id="Path" fill="#FFFFFF"></path>
                        <path d="M75.851243,48.7615134 L75.851243,59.5974052 C75.851243,80.5431474 58.8713637,97.5230262 37.9256215,97.5230262 C16.9798793,97.5230262 -1.77635684e-15,80.5431474 -1.77635684e-15,59.5974052 L-1.77635684e-15,48.7615134" id="Path"></path>
                        <path d="M37.9256215,97.5230268 L37.9256215,119.19481" id="Path"></path>
                        <path d="M16.2538378,119.19481 L59.5974052,119.19481" id="Path"></path>
                    </g>
                </g>
            </g>
        </g>
    </g>
</svg>