<?xml version="1.0" encoding="UTF-8"?>
<svg width="714px" height="683px" viewBox="0 0 714 683" version="1.1" xmlns="http://www.w3.org/2000/svg" xmlns:xlink="http://www.w3.org/1999/xlink">
    <!-- Generator: Sketch 58 (84663) - https://sketch.com -->
    <title>9 SCENE</title>
    <desc>Created with Sketch.</desc>
    <g id="Page-1" stroke="none" stroke-width="1" fill="none" fill-rule="evenodd">
        <g id="Sign-In-PT" transform="translate(-726.000000, -87.000000)">
            <g id="9-SCENE" transform="translate(729.000000, 90.000000)">
                <g id="LAMP" transform="translate(86.000000, 0.000000)">
                    <polygon id="Path" fill="#FFCF2D" fill-rule="nonzero" points="402.479868 20.0029784 456.693567 72.3395383 511.18121 367.369769 0.0821834743 367.369769"></polygon>
                    <g id="Group" transform="translate(402.699024, 0.000000)" stroke-linecap="round" stroke-width="6">
                        <g id="Path" stroke="#FFCF2D">
                            <path d="M54.460249,71.9285182 L0.0821834743,19.4275503 L9.17715463,9.97408786 C22.573061,-3.945793 46.7076079,-2.35651526 60.6240096,11.0153388 L60.6240096,11.0153388 C74.5404112,24.4145942 76.978521,48.555175 63.5826146,62.4750558 L54.460249,71.9285182 Z" fill="#FFFFFF" fill-rule="nonzero"></path>
                            <path d="M63.5552202,62.4750558 L9.14976014,9.97408786"></path>
                        </g>
                        <path d="M63.6100091,13.3992554 L69.6915862,8.74102755 C77.8551447,2.49352197 89.579987,4.13760238 95.6889586,12.4402085 L245.153304,194.439911 L168.640489,365.122859" id="Path" stroke="#3FB1B5"></path>
                        <path d="M147.382364,346.051526 L188.227551,346.051526 C199.979788,346.051526 209.485676,355.587193 209.485676,367.314966 L209.485676,367.917796 L126.096844,367.917796 L126.096844,367.314966 C126.124239,355.587193 135.630127,346.051526 147.382364,346.051526 Z" id="Path" stroke="#FFCF2D" fill="#FFFFFF" fill-rule="nonzero"></path>
                    </g>
                </g>
                <g id="COMPUTER" transform="translate(91.000000, 90.000000)">
                    <g id="COMPUTER_1_" transform="translate(71.394938, 0.000000)">
                        <path d="M275.923656,216.130748 L17.7256399,216.130748 C8.01483408,216.130748 0.164126295,208.26497 0.164126295,198.535524 L0.164126295,17.5952245 C0.164126295,7.86577793 8.01483408,0 17.7256399,0 L275.923656,0 C285.634462,0 293.485241,7.86577793 293.485241,17.5952245 L293.485241,198.508117 C293.512524,208.237564 285.634462,216.130748 275.923656,216.130748 Z" id="Path" stroke="#3FB1B5" stroke-width="6" fill="#FFFFFF" fill-rule="nonzero" stroke-linecap="round"></path>
                        <path d="M276.087783,199.302917 L20.379015,199.302917 C16.5767558,199.302917 13.513065,196.205938 13.513065,192.423787 L13.513065,19.3218587 C13.513065,15.5123007 16.6041102,12.4427289 20.379015,12.4427289 L276.087783,12.4427289 C279.890042,12.4427289 282.953913,15.5397076 282.953913,19.3218587 L282.953913,192.39638 C282.981087,196.205938 279.890042,199.302917 276.087783,199.302917 Z" id="Path" stroke="#66B0F0" stroke-width="6" fill="#66B0F0" fill-rule="nonzero" stroke-linejoin="round"></path>
                        <g id="Group" transform="translate(22.977681, 19.732962)" stroke="#FFFFFF" stroke-linecap="round" stroke-width="6">
                            <path d="M6.5650518,8.87983293 L2.51660319,8.87983293 C1.20359283,8.87983293 0.10941753,7.81096415 0.10941753,6.46802645 L0.10941753,2.41180647 C0.10941753,1.09627567 1.17623845,1.13686838e-13 2.51660319,1.13686838e-13 L6.5650518,1.13686838e-13 C7.87806216,1.13686838e-13 8.97223746,1.06886878 8.97223746,2.41180647 L8.97223746,6.46802645 C8.94488308,7.81096415 7.87806216,8.87983293 6.5650518,8.87983293 Z" id="Path"></path>
                            <path d="M24.9745512,8.87983293 L20.9261026,8.87983293 C19.6130923,8.87983293 18.518917,7.81096415 18.518917,6.46802645 L18.518917,2.41180647 C18.518917,1.09627567 19.5857379,1.13686838e-13 20.9261026,1.13686838e-13 L24.9745512,1.13686838e-13 C26.2875616,1.13686838e-13 27.3817369,1.06886878 27.3817369,2.41180647 L27.3817369,6.46802645 C27.3817369,7.81096415 26.2875616,8.87983293 24.9745512,8.87983293 Z" id="Path"></path>
                            <path d="M43.3840507,8.87983293 L39.335602,8.87983293 C38.0225917,8.87983293 36.9284164,7.81096415 36.9284164,6.46802645 L36.9284164,2.41180647 C36.9284164,1.09627567 37.9952373,1.13686838e-13 39.335602,1.13686838e-13 L43.3840507,1.13686838e-13 C44.697061,1.13686838e-13 45.7912363,1.06886878 45.7912363,2.41180647 L45.7912363,6.46802645 C45.7912363,7.81096415 44.7244154,8.87983293 43.3840507,8.87983293 Z" id="Path"></path>
                        </g>
                        <g id="Group" transform="translate(100.937671, 215.966307)" fill-rule="nonzero">
                            <polygon id="Path" stroke="#3FB1B5" stroke-width="6" fill="#FFFFFF" stroke-linecap="round" points="100.390584 61.8573547 0.164126295 61.8573547 19.8319273 0.164441351 80.6954284 0.164441351"></polygon>
                            <polygon id="Path" fill="#3FB1B5" points="8.04218846 37.1637452 19.8319273 0.164441351 80.6954284 0.164441351"></polygon>
                        </g>
                        <g id="Group" transform="translate(204.063694, 21.103307)" stroke="#FFFFFF" stroke-linecap="round" stroke-width="6">
                            <path d="M57.1433051,48.099095 L8.42514981,48.099095 C3.85696793,48.099095 0.164126295,44.3991646 0.164126295,39.8222137 L0.164126295,8.3042882 C0.164126295,3.72733728 3.85696793,0.0274068918 8.42514981,0.0274068918 L57.1433051,0.0274068918 C61.7114869,0.0274068918 65.4043286,3.72733728 65.4043286,8.3042882 L65.4043286,39.8222137 C65.4043286,44.3991646 61.7114869,48.099095 57.1433051,48.099095 Z" id="Path"></path>
                            <path d="M14.087507,11.2642325 L51.2621128,11.2642325" id="Path"></path>
                            <path d="M14.087507,19.760369 L51.2621128,19.760369" id="Path"></path>
                            <path d="M14.087507,28.2565054 L51.2621128,28.2565054" id="Path"></path>
                            <path d="M14.087507,36.7526418 L51.2621128,36.7526418" id="Path"></path>
                        </g>
                    </g>
                    <g id="TEACHER" transform="translate(0.000000, 22.473651)">
                        <g id="SHIRT" transform="translate(18.600980, 66.324678)">
                            <path d="M327.459313,110.504588 L133.817639,110.504588 L122.46557,126.811688 C109.636365,145.229119 82.528172,145.503188 69.3433597,127.332419 L0.191480678,32.0386565 C3.09104522,35.6563662 16.3579207,31.6275531 28.9956455,23.295858 C41.8248509,14.8271284 50.1132288,4.16584755 47.5145624,0.219255134 L95.466795,61.4462513 L110.156098,35.4645179 C114.177193,28.5853881 120.851662,23.6521476 128.620307,21.8432927 L178.596763,11.2368256 L221.679916,11.2368256 L269.167124,21.7336652 C277.428147,23.6247407 284.430869,29.0238984 288.397255,36.5059798 L327.459313,110.504588 Z" id="Path" stroke="#3FB1B5" stroke-width="6" fill="#FFFFFF" fill-rule="nonzero"></path>
                            <path d="M274.309748,109.380905 L260.550493,82.1658615" id="Path" stroke="#3FB1B5" stroke-width="6" stroke-linecap="round"></path>
                            <path d="M132.723464,111.929746 L146.345946,84.9887713" id="Path" stroke="#3FB1B5" stroke-width="6" stroke-linecap="round"></path>
                            <path d="M76.8111061,37.6844762 L108.022457,77.6711312" id="Path" stroke="#3FB1B5" stroke-width="6" stroke-linecap="round"></path>
                            <polyline id="Path" stroke="#3FB1B5" stroke-width="6" stroke-linecap="round" points="205.513476 24.3921337 217.002316 38.3970553 242.715436 16.5263557"></polyline>
                            <polyline id="Path" stroke="#3FB1B5" stroke-width="6" stroke-linecap="round" points="196.732719 24.6662026 185.572131 38.9451932 157.315054 16.5263557"></polyline>
                            <path d="M57.0338875,12.4701357 C59.6325539,16.4441351 51.3168216,27.2424504 38.405553,35.8208075 C25.7131196,44.2621302 12.2547634,48.3183502 9.32784444,44.6732336" id="Path" stroke="#3FB1B5" stroke-width="6" stroke-linecap="round"></path>
                            <ellipse id="Oval" stroke="#3FB1B5" stroke-width="6" stroke-linecap="round" cx="48.4446114" cy="16.3071006" rx="3.09104522" ry="3.09697877"></ellipse>
                            <ellipse id="Oval" stroke="#3FB1B5" stroke-width="6" stroke-linecap="round" cx="201.082066" cy="35.7659937" rx="3.09104522" ry="3.09697877"></ellipse>
                            <ellipse id="Oval" stroke="#3FB1B5" stroke-width="6" stroke-linecap="round" cx="201.082066" cy="60.7062652" rx="3.09104522" ry="3.09697877"></ellipse>
                            <polygon id="Path" fill="#3FB1B5" fill-rule="nonzero" points="121.480813 128.127219 133.817639 110.504588 133.817639 128.127219"></polygon>
                        </g>
                        <g id="ARM">
                            <path d="M47.2957274,88.7983293 C34.6580026,97.1300244 21.3911271,101.158837 18.4915626,97.5411277 C18.4368538,97.486314 18.4094994,97.4315002 18.3547907,97.3492795 C17.7529942,96.4448521 17.807703,95.2115419 18.3547907,93.7041629 C20.2422431,88.7435155 28.0382421,81.0695858 37.9405285,74.5467456 C45.8185907,69.3394361 53.5872353,65.7217264 58.9760487,64.5980439 C62.0944483,63.9676853 64.4195708,64.1595336 65.5411005,65.3654368 C65.5411005,65.3654368 65.5411005,65.3654368 65.5411005,65.3654368 L65.8146443,65.6943195 C65.8146443,65.6943195 65.8146443,65.6943195 65.8146443,65.6943195 C68.3859563,69.6409119 60.1249328,80.3295997 47.2957274,88.7983293 Z" id="Path" fill="#FE5244" fill-rule="nonzero"></path>
                            <path d="M47.2957274,88.7983293 C40.1015248,93.5397215 32.6884871,96.9107692 27.1081931,98.2263 C27.1081931,98.2263 27.1081931,98.2263 27.1081931,98.2263 L2.13364184,62.9262235 C-1.34036474,57.9929829 -0.191480678,51.1686669 4.75966256,47.6879916 L27.244965,31.8468082 L14.4978227,10.1131431 C12.6377247,6.9613505 13.7045456,2.87772363 16.877654,1.04146189 C17.9171205,0.438510268 19.0386502,0.164441351 20.1601799,0.164441351 C22.3211761,0.164441351 24.454818,1.23331013 25.7131196,3.20660633 L65.5684549,65.310623 L65.8419987,65.7491333 C65.8419987,65.7491333 65.8419987,65.7491333 65.8419987,65.7491333 C68.3859563,69.6409119 60.1249328,80.3295997 47.2957274,88.7983293 Z" id="Path" fill="#E57281" fill-rule="nonzero"></path>
                            <path d="M27.1902562,32.0934702 L41.1136369,53.7175078 C42.3992929,55.7456178 41.8248509,58.4314932 39.8006266,59.747024 L36.7095813,61.775134 C34.685357,63.1180717 31.9499188,62.542527 30.6369084,60.514417 L17.4794504,40.7814549" id="Path" stroke="#9A3B82" stroke-width="6" stroke-linecap="round"></path>
                            <path d="M30.5821996,60.4596032 C31.9225644,62.5151201 31.320768,65.2832162 29.2691893,66.598747 L26.4516879,68.3801949 C24.4274636,69.6683188 21.7467341,69.0927741 20.4337237,67.092071" id="Path" stroke="#9A3B82" stroke-width="6" stroke-linecap="round"></path>
                            <path d="M7.49510081,47.7428054 L20.379015,66.9276297 C21.7193797,68.9831465 21.1449377,71.7512426 19.0386502,73.0667734 L16.4126295,74.5193387 C14.443114,75.7800557 11.8444476,75.2593247 10.4767285,73.3408423 L3.00898208,62.789189" id="Path" stroke="#9A3B82" stroke-width="6" stroke-linecap="round"></path>
                            <path d="M56.2679648,50.8397842 L49.7302674,40.6718274 C47.5692712,37.3007797 43.0557981,36.3689454 39.7459178,38.6163105 L23.524769,49.633881 C23.524769,49.633881 28.2297228,58.1026105 39.6638546,51.387922 L43.4934682,57.4996589 L43.4934682,57.4996589 C35.6701148,62.4603063 33.4270554,72.9023321 38.5149706,80.6584824 L56.2679648,50.8397842 Z" id="Path" fill="#E57281" fill-rule="nonzero"></path>
                            <path d="M55.419979,51.1138531 L48.8822815,40.9458963 C46.7212853,37.5748486 42.2078122,36.6430143 38.8979319,38.8903794 L23.524769,49.633881 C23.524769,49.633881 28.2297228,58.1026105 39.6638546,51.387922 L43.4934682,57.4996589 L43.4934682,57.4996589 C35.6701148,62.4603063 33.4270554,72.9023321 38.5149706,80.6584824" id="Path" stroke="#9A3B82" stroke-width="6" stroke-linecap="round"></path>
                            <path d="M47.2957274,88.7983293 C40.1015248,93.5397215 32.6884871,96.9107692 27.1081931,98.2263 L27.1081931,98.2263 L20.8987482,89.4560947 C24.3727548,84.9065506 30.5821996,79.4251723 37.9405285,74.5741525 C45.8185907,69.366843 53.5872353,65.7491333 58.9760487,64.6254507 C62.0944483,63.9950922 64.4195708,64.1869405 65.5411005,65.3928437 C65.5411005,65.3928437 65.5411005,65.3928437 65.5411005,65.3928437 L65.8146443,65.7217264 C65.8146443,65.7217264 65.8146443,65.7217264 65.8146443,65.7217264 C65.8419987,65.7765402 65.8693531,65.8039471 65.8967075,65.8587609 C65.9240618,65.8861678 65.9240618,65.9135747 65.9514162,65.9683884 C65.9787706,66.0232022 66.006125,66.0506091 66.0334794,66.1054229 C67.8935774,70.2986773 59.714617,80.5762617 47.2957274,88.7983293 Z" id="Path" fill="#9A3B82" fill-rule="nonzero"></path>
                        </g>
                        <g id="HEAD_2_" transform="translate(184.915626, 4.111034)">
                            <g id="Group" transform="translate(12.035928, 49.332405)" fill-rule="nonzero">
                                <path d="M43.3019875,0 L43.3019875,24.0906578 C43.3019875,31.0794152 33.6185361,36.7252349 21.7193797,36.7252349 C9.79286894,36.7252349 0.136771913,31.0794152 0.136771913,24.0906578 L0.136771913,0 L43.3019875,0 Z" id="Path" fill="#E57281"></path>
                                <path d="M6.45563427,33.0253046 C2.54395757,30.7505325 0.10941753,27.5713331 0.10941753,24.0906578 L0.10941753,0 L43.3019875,0 L43.3019875,6.68728159 C43.3019875,13.6212252 39.0894126,19.8425896 32.6884871,22.4462443 L6.45563427,33.0253046 Z" id="Path" fill="#9A3B82"></path>
                            </g>
                            <path d="M67.3738441,47.9072468 L67.3738441,48.3183502 C67.3738441,52.4841977 64.0092551,55.8552454 59.8513889,55.8552454 L54.9002457,55.8552454 C53.2316284,62.5973408 47.1589554,67.6128019 39.8826897,67.6128019 L27.6279263,67.6128019 C20.379015,67.6128019 14.2789877,62.6247477 12.6377247,55.8552454 L7.68658149,55.8552454 C3.52871534,55.8552454 0.164126295,52.4841977 0.164126295,48.3183502 L0.164126295,47.9072468 C0.164126295,43.7413992 3.52871534,40.3703515 7.68658149,40.3703515 L12.1727002,40.3703515 L12.1727002,34.423056 C12.1727002,28.0646572 16.8502996,22.8025339 22.9503269,21.9255134 C24.2906917,24.1728785 28.3391403,29.5446293 36.6001638,29.2431535 C40.4844861,29.106119 44.0952646,28.366133 47.0768923,27.4891124 C50.6603164,26.4476505 54.2437405,28.6402019 55.1464351,32.0660633 C55.2832071,32.8334563 55.3652702,33.6008493 55.3652702,34.3956491 L55.3652702,40.3429447 L59.8513889,40.3429447 C63.9819007,40.3429447 67.3738441,43.7413992 67.3738441,47.9072468 Z" id="Path" fill="#E57281" fill-rule="nonzero"></path>
                            <path d="M58.784568,40.3429447 L55.3379158,40.3429447 L55.3379158,33.7378837 C55.3379158,33.162339 55.2558527,32.5867943 55.1190808,32.0660633 C54.2163861,28.6402019 50.632962,26.4476505 47.0495379,27.4891124 C44.0679102,28.366133 40.4844861,29.106119 36.5728094,29.2431535 C28.3117859,29.5446293 24.2633373,24.1728785 22.9229725,21.9255134 C16.8229452,22.8025339 12.1453458,28.0646572 12.1453458,34.423056 L12.1453458,40.3703515 L7.85070778,40.3703515 C7.85070778,40.3703515 2.92691893,22.528465 6.61976057,17.4855969 C10.2578934,12.5249495 14.6345946,14.690094 14.6345946,14.690094 C14.6345946,14.690094 12.0085739,-0.164441351 26.6705229,0.109627567 C41.3051176,0.383696485 60.3437678,17.4033763 61.7388413,20.5277619 C63.9271919,25.323968 58.784568,40.3429447 58.784568,40.3429447 Z" id="Path" fill="#9A3B82" fill-rule="nonzero"></path>
                            <g id="Group" transform="translate(5.197333, 32.614201)">
                                <g transform="translate(0.000000, 11.236826)" id="Path" stroke="#9A3B82" stroke-linecap="round" stroke-width="5">
                                    <path d="M51.8092005,5.45397146 C51.8092005,2.52143404 54.1890318,0.164441351 57.0885963,0.164441351"></path>
                                    <path d="M5.36145897,5.45397146 C5.36145897,2.52143404 2.98162769,0.164441351 0.0820631475,0.164441351"></path>
                                </g>
                                <g transform="translate(13.403647, 0.000000)">
                                    <path d="M29.8436313,1.80885486 C29.8436313,1.80885486 25.959309,-1.04146189 21.0081658,1.01405499" id="Path" stroke="#9A3B82" stroke-width="5" stroke-linecap="round"></path>
                                    <path d="M0.191480678,1.80885486 C0.191480678,1.80885486 4.07580299,-1.04146189 9.02694623,1.01405499" id="Path" stroke="#9A3B82" stroke-width="5" stroke-linecap="round"></path>
                                    <path d="M21.9655692,22.035141 C21.9655692,22.035141 19.8592817,26.584685 13.4036474,24.2002854" id="Path" stroke="#9A3B82" stroke-width="5" stroke-linecap="round"></path>
                                    <path d="M13.1027492,19.6781483 C14.7713666,19.7877758 17.3153241,19.6781483 17.3153241,19.6781483" id="Path" stroke="#9A3B82" stroke-width="5" stroke-linecap="round"></path>
                                    <ellipse id="Oval" fill="#9A3B82" fill-rule="nonzero" cx="25.4395757" cy="10.9353498" rx="1.36771913" ry="2.30217891"></ellipse>
                                    <ellipse id="Oval" fill="#9A3B82" fill-rule="nonzero" cx="5.82648347" cy="10.9353498" rx="1.36771913" ry="2.30217891"></ellipse>
                                </g>
                            </g>
                            <g id="Group" transform="translate(15.865542, 36.451166)" stroke="#FFFFFF" stroke-width="5">
                                <path d="M11.8170932,14.8545353 L3.20046275,14.8545353 C1.53184542,14.8545353 0.191480678,13.5115976 0.191480678,11.8397772 L0.191480678,3.20660633 C0.191480678,1.53478594 1.53184542,0.191848242 3.20046275,0.191848242 L11.8170932,0.191848242 C13.4857106,0.191848242 14.8260753,1.53478594 14.8260753,3.20660633 L14.8260753,11.8397772 C14.8534297,13.4841907 13.4857106,14.8545353 11.8170932,14.8545353 Z" id="Path"></path>
                                <path d="M32.9073222,14.8545353 L24.2906917,14.8545353 C22.6220743,14.8545353 21.2817096,13.5115976 21.2817096,11.8397772 L21.2817096,3.20660633 C21.2817096,1.53478594 22.6220743,0.191848242 24.2906917,0.191848242 L32.9073222,0.191848242 C34.5759395,0.191848242 35.9163042,1.53478594 35.9163042,3.20660633 L35.9163042,11.8397772 C35.9163042,13.4841907 34.5759395,14.8545353 32.9073222,14.8545353 Z" id="Path"></path>
                                <path d="M14.8534297,5.89248173 L21.2817096,5.89248173" id="Path"></path>
                            </g>
                        </g>
                    </g>
                    <g id="ICON" transform="translate(201.054711, 162.796937)">
                        <path d="M34.9041921,25.8721058 L5.005852,25.8721058 C2.29776813,25.8721058 0.0820631475,23.6795545 0.0820631475,20.9388653 L0.0820631475,5.01546119 C0.0820631475,2.30217891 2.27041375,0.0822206753 5.005852,0.0822206753 L34.9041921,0.0822206753 C37.612276,0.0822206753 39.8279809,2.27477202 39.8279809,5.01546119 L39.8279809,20.9388653 C39.8279809,23.6521476 37.6396303,25.8721058 34.9041921,25.8721058 Z" id="Path" stroke="#66B0F0" stroke-width="6" stroke-linejoin="round"></path>
                        <g id="Group" transform="translate(7.659227, 6.303585)" fill="#66B0F0" fill-rule="nonzero">
                            <path d="M13.0480405,13.155308 L2.92691893,13.155308 C1.31301036,13.155308 0,11.8397772 0,10.2227706 L0,3.12438566 C0,1.50737905 1.31301036,0.191848242 2.92691893,0.191848242 L13.0480405,0.191848242 C14.661949,0.191848242 15.9749594,1.50737905 15.9749594,3.12438566 L15.9749594,10.2227706 C15.9749594,11.8397772 14.661949,13.155308 13.0480405,13.155308 Z" id="Path"></path>
                            <path d="M22.8956182,12.9634598 L19.7772186,10.880536 C18.9292327,10.3049913 18.4094994,9.3183432 18.4094994,8.24947442 L18.4094994,5.12508876 C18.4094994,4.05621998 18.9292327,3.06957188 19.7772186,2.49402715 L22.8956182,0.411103376 C23.6341865,-0.0822206753 24.5915899,0.46591716 24.5915899,1.39775148 L24.5915899,12.0042186 C24.6189443,12.908646 23.6341865,13.4567838 22.8956182,12.9634598 Z" id="Path"></path>
                        </g>
                    </g>
                </g>
                <g id="TABLE" transform="translate(0.000000, 368.000000)">
                    <path d="M727.006977,0.191719745 L0.191649049,0.191719745" id="Path" stroke="#3FB1B5" stroke-width="6" stroke-linecap="round"></path>
                    <g id="Group" transform="translate(37.508457, 4.929936)">
                        <path d="M196.686681,0.0547770701 L196.686681,338.193631 L177.603911,338.193631 L177.603911,273.830573 C177.603911,267.832484 172.73055,262.957325 166.734672,262.957325 L30.1436575,262.957325 C24.1477801,262.957325 19.2744186,267.832484 19.2744186,273.830573 L19.2744186,338.193631 L0.191649049,338.193631 L0.191649049,0.0547770701 L196.686681,0.0547770701 Z" id="Path" stroke="#3FB1B5" stroke-width="6" fill="#FFFFFF" fill-rule="nonzero" stroke-linecap="round"></path>
                        <polygon id="Path" fill="#D0F0E4" fill-rule="nonzero" points="197.261628 0.0547770701 197.261628 89.7796178 0.191649049 252.111465 0.219027484 0.0547770701"></polygon>
                        <path d="M177.603911,25.8 L177.603911,87.1229299 C177.603911,92.8197452 173.004334,97.4210191 167.309619,97.4210191 L29.5960888,97.4210191 C23.9013742,97.4210191 19.301797,92.8197452 19.301797,87.1229299 L19.301797,25.8 C19.301797,20.1031847 23.9013742,15.5019108 29.5960888,15.5019108 L167.309619,15.5019108 C173.004334,15.5019108 177.603911,20.1031847 177.603911,25.8 Z" id="Path" stroke="#3FB1B5" stroke-width="6" stroke-linecap="round"></path>
                        <polygon id="Path" fill="#FFCF2D" fill-rule="nonzero" points="133.469873 143.871975 65.6808668 143.871975 62.8608879 124.453503 130.677273 124.453503"></polygon>
                        <g transform="translate(96.645877, 113.114650)" fill="#FFFFFF" fill-rule="nonzero" id="Path" stroke="#3FB1B5" stroke-linecap="round" stroke-width="6">
                            <path d="M72.9909091,0.136942675 C64.5309725,0.136942675 57.6863636,6.98407643 57.6863636,15.4471338 L57.6863636,30.7573248 L0,30.7573248 L0,15.4471338 C0,6.98407643 6.84460888,0.136942675 15.3045455,0.136942675 L72.9909091,0.136942675 Z"></path>
                            <path d="M87.3645877,11.3388535 L29.6782241,11.3388535 C27.8986258,4.87515924 21.9575053,0.136942675 14.9212474,0.136942675 L72.607611,0.136942675 C79.6438689,0.136942675 85.557611,4.87515924 87.3645877,11.3388535 Z"></path>
                        </g>
                        <path d="M177.603911,154.170064 L177.603911,215.492994 C177.603911,221.189809 173.004334,225.791083 167.309619,225.791083 L29.5960888,225.791083 C23.9013742,225.791083 19.301797,221.189809 19.301797,215.492994 L19.301797,154.170064 C19.301797,148.473248 23.9013742,143.871975 29.5960888,143.871975 L167.309619,143.871975 C173.004334,143.871975 177.603911,148.473248 177.603911,154.170064 Z" id="Path" stroke="#3FB1B5" stroke-width="6" stroke-linecap="round"></path>
                        <path d="M70.2530655,55.2426752 C70.2530655,50.3675159 74.1955603,46.3961783 79.0963002,46.3961783 L117.836786,46.3961783 C122.710148,46.3961783 126.680021,50.3401274 126.680021,55.2426752" id="Path" stroke="#3FB1B5" stroke-width="6" stroke-linecap="round"></path>
                        <path d="M70.2530655,183.612739 C70.2530655,178.73758 74.1955603,174.766242 79.0963002,174.766242 L117.836786,174.766242 C122.710148,174.766242 126.680021,178.710191 126.680021,183.612739" id="Path" stroke="#3FB1B5" stroke-width="6" stroke-linecap="round"></path>
                    </g>
                    <rect id="Rectangle" stroke="#3FB1B5" stroke-width="6" fill="#FFFFFF" fill-rule="nonzero" stroke-linecap="round" x="677.725793" y="4.98471338" width="20.3421776" height="338.878344"></rect>
                </g>
                <g id="PLANT" transform="translate(33.000000, 234.000000)">
                    <path d="M62.3464286,87.1190965 L50.052381,87.1190965 C50.052381,87.1190965 32.5011905,14.173922 17.0857143,11.7979466 C1.6702381,9.42197125 0.876190476,37.4967146 0.876190476,37.4967146 C0.876190476,37.4967146 1.15,-5.1889117 39.675,0.655441478 C78.227381,6.49979466 62.3464286,87.1190965 62.3464286,87.1190965 Z" id="Path" stroke="#3FB1B5" stroke-width="6" fill="#FFFFFF" fill-rule="nonzero" stroke-linecap="round"></path>
                    <path d="M20.2345238,2.51252567 C20.2345238,2.51252567 55.3642857,-10.4324435 56.952381,86.026694" id="Path" stroke="#3FB1B5" stroke-width="6" stroke-linecap="round"></path>
                    <rect id="Rectangle" fill="#FE5244" fill-rule="nonzero" x="38.0869048" y="86.026694" width="57.7464286" height="46.8913758"></rect>
                    <path d="M107.990476,109.486037 C104.321429,111.070021 99.9404762,110.87885 95.8607143,109.103696 C92.8488095,107.792813 90.0011905,105.635318 87.7011905,102.685832 C84.525,98.5893224 82.3892857,92.9907598 82.3892857,86.026694 L82.3892857,86.026694 C82.3892857,69.149076 68.9178571,58.5527721 63.3869048,80.8924025 C63.0035714,82.449076 62.647619,84.1422998 62.3464286,86.026694 L62.3464286,85.9720739 L62.3464286,85.8628337 L62.3464286,85.8628337 C62.3464286,85.8082136 62.3464286,85.7262834 62.3738095,85.6443532 L62.3738095,85.5351129 C62.4833333,84.1422998 62.8940476,80.0184805 64.1535714,75.0480493 C65.0845238,71.361191 66.4809524,67.2646817 68.5619048,63.4685832 C69.602381,61.5841889 70.8071429,59.7817248 72.2309524,58.1704312 C75.9,53.9646817 80.9380952,51.0151951 87.8107143,51.0151951 C100.460714,51.0151951 109.715476,65.8718686 113.247619,80.673922 C116.341667,93.536961 115.082143,106.4 107.990476,109.486037 Z" id="Path" stroke="#3FB1B5" stroke-width="6" fill="#FFFFFF" fill-rule="nonzero" stroke-linecap="round"></path>
                    <path d="M72.2583333,58.1704312 C72.2583333,58.1704312 97.6130952,40.1731006 105.060714,110.004928" id="Path" stroke="#3FB1B5" stroke-width="6" stroke-linecap="round"></path>
                    <path d="M0.0547619048,37.4967146 C0.0547619048,42.0028747 -0.46547619,59.2355236 16.0178571,60.0275154 C32.5011905,60.8195072 34.1440476,35.9946612 34.1440476,35.9946612 C34.1440476,35.9946612 26.0392857,14.0373717 17.0857143,11.7979466 C1.94404762,8.00184805 0.0547619048,37.4967146 0.0547619048,37.4967146 Z" id="Path" fill="#3FB1B5" fill-rule="nonzero"></path>
                    <path d="M82.3892857,86.026694 L62.3464286,86.026694 C66.9738095,57.1053388 82.3892857,67.9747433 82.3892857,86.026694 Z" id="Path" fill="#3FB1B5" fill-rule="nonzero"></path>
                </g>
                <g id="LIGHT" transform="translate(86.000000, 90.000000)" fill="#FFFFFF" fill-rule="nonzero" opacity="0.4">
                    <path d="M369.905605,17.6011834 L369.905605,198.575345 C369.905605,208.308087 362.014285,216.176529 352.314538,216.176529 L145.304402,216.176529 C132.316605,234.07929 105.546399,234.161538 92.4490008,216.176529 L92.4216003,216.149112 C87.2155215,215.792702 82.6122517,213.133333 79.6530069,209.212821 L84.4206791,205.100394 L206.078522,100.041617 L321.927478,0 L352.314538,0 C362.014285,0 369.905605,7.89585799 369.905605,17.6011834 Z" id="Path"></path>
                    <path d="M54.910432,255.21716 C51.2661768,256.86213 46.8547099,256.615385 42.7720481,254.833333 L42.7720481,277.917751 L0.109601661,277.917751 L34.6341248,248.116371 L42.7994485,241.070414 L49.0193427,235.696844 L61.048125,225.470611 C64.5553781,240.439842 62.6099487,251.680473 54.910432,255.21716 Z" id="Path"></path>
                </g>
                <g id="GIRL" transform="translate(223.000000, 119.000000)">
                    <g id="GIRL_1_">
                        <g id="LEGS" transform="translate(102.537773, 261.889441)">
                            <g id="RIGHT_LEG" transform="translate(88.829515, 85.470194)">
                                <polygon id="Path" fill="#A0505A" fill-rule="nonzero" points="90.0084248 0.054788586 90.0084248 152.531423 54.7507841 152.531423 32.2966568 89.8806753 0.137082584 0.054788586"></polygon>
                                <polygon id="Path" fill="#73325A" fill-rule="nonzero" points="0.137082584 0.054788586 90.0084248 0.054788586 90.0084248 49.0083901 10.8295242 29.8871736"></polygon>
                                <g id="Group" transform="translate(32.077325, 89.853281)" stroke="#FFFFFF" stroke-linecap="round" stroke-width="6">
                                    <path d="M57.9311001,0.027394293 L57.9311001,62.6781423 L22.6734594,62.6781423 L0.219332135,0.027394293 C0.219332135,0.027394293 18.3964828,10.0537055 57.9311001,0.027394293 Z" id="Path"></path>
                                    <ellipse id="Oval" cx="18.5609819" cy="10.7385628" rx="4.00281146" ry="3.99956677"></ellipse>
                                    <ellipse id="Oval" cx="37.6428776" cy="23.6412748" rx="4.00281146" ry="3.99956677"></ellipse>
                                    <ellipse id="Oval" cx="51.8446334" cy="9.31405961" rx="4.00281146" ry="3.99956677"></ellipse>
                                    <ellipse id="Oval" cx="46.2242474" cy="38.6533474" rx="4.00281146" ry="3.99956677"></ellipse>
                                    <ellipse id="Oval" cx="22.5637934" cy="31.3664655" rx="4.00281146" ry="3.99956677"></ellipse>
                                    <ellipse id="Oval" cx="29.0889244" cy="53.2818998" rx="4.00281146" ry="3.99956677"></ellipse>
                                </g>
                                <g id="Group" transform="translate(20.836553, 139.163008)" fill-rule="nonzero">
                                    <path d="M85.8411142,41.8036911 L61.6597464,91.9626415 C58.2326818,100.043958 50.3093084,105.303662 41.5086065,105.303662 L10.6650251,105.303662 C2.7690682,105.303662 -2.02882225,97.3045287 0.986994606,90.0176467 L31.9950752,15.2860155 C33.7223157,10.7385628 36.7655491,6.95815042 40.5764449,4.300904 C44.4147573,1.64365758 49.0207321,0.136971465 53.8734556,0.136971465 C60.6179187,0.136971465 67.3075489,4.71181839 71.7490246,9.77976259 L82.4962992,21.3675485 C87.4586887,27.0107729 88.747265,34.9277235 85.8411142,41.8036911 Z" id="Path" fill="#66B0F0"></path>
                                    <path d="M85.8411142,41.8036911 L61.6597464,91.9626415 C58.2326818,100.043958 50.3093084,105.303662 41.5086065,105.303662 L8.71845236,105.303662 C5.67521899,105.303662 3.94797843,103.413456 2.9335673,100.810998 L10.2263608,100.810998 C19.0270627,100.810998 26.9504361,95.5512939 30.3775007,87.4699775 L58.2600983,29.3666821 C60.8646674,23.9426121 66.3753873,20.4635369 72.407021,20.4635369 C80.2755613,20.4635369 86.252362,26.2163384 87.3490227,33.5032203 C87.4586887,36.2974382 86.9651914,39.1190504 85.8411142,41.8036911 Z" id="Path" stroke="#66B0F0" stroke-width="6" fill="#FFFFFF" stroke-linejoin="round"></path>
                                    <path d="M80.2755613,18.9568507 C77.3694105,17.3679817 73.8600964,16.2174214 70.7894465,16.2174214 C64.8948954,16.2174214 59.4390085,19.6417081 56.8892725,24.9562009 L28.0196802,85.1140683 C24.345867,93.7980591 15.8467467,99.4138892 6.38804843,99.4138892 L1.06924416,99.4138892 C0.795078989,98.8933976 0.603163371,98.3455118 0.411247753,97.7702316 L6.38804843,97.7702316 C15.1887503,97.7702316 23.0847072,92.5379217 26.5117718,84.4566052 L26.5391883,84.429211 L55.4361971,24.2439493 C58.2600983,18.3541763 64.291732,14.5737639 70.816863,14.5737639 C72.9005183,14.5737639 75.3954213,15.2586212 77.5339096,15.9982671 L80.2755613,18.9568507 Z" id="Path" fill="#FFFFFF"></path>
                                </g>
                            </g>
                            <g id="LEFT_LEG">
                                <path d="M88.9665972,85.5249827 L82.0850514,175.350869 L79.0144016,215.593086 C79.0144016,215.593086 58.9729277,237.89204 36.1623857,224.140105 L25.6070267,175.378264 L1.45307539,63.8013083 C-5.07205562,33.6401918 15.5451651,4.300904 46.1694144,0.219154344 L88.9665972,85.5249827 Z" id="Path" fill="#A0505A" fill-rule="nonzero"></path>
                                <g id="Group" transform="translate(25.497361, 175.323475)" stroke="#FFFFFF" stroke-linecap="round" stroke-width="6">
                                    <path d="M56.5876908,0.027394293 L53.5170409,41.3653824 C53.5170409,41.3653824 33.4755671,63.6643369 10.6650251,49.9124018 L0.109666067,0.054788586 C26.6214379,7.99913355 56.5876908,0.027394293 56.5876908,0.027394293 Z" id="Path"></path>
                                    <ellipse id="Oval" cx="25.0861129" cy="20.8744512" rx="4.00281146" ry="3.99956677"></ellipse>
                                    <ellipse id="Oval" cx="50.5286405" cy="14.7381296" rx="4.00281146" ry="3.99956677"></ellipse>
                                    <ellipse id="Oval" cx="9.73286348" cy="9.31405961" rx="4.00281146" ry="3.99956677"></ellipse>
                                    <ellipse id="Oval" cx="21.0833015" cy="42.6529142" rx="4.00281146" ry="3.99956677"></ellipse>
                                    <ellipse id="Oval" cx="39.7539494" cy="34.6537806" rx="4.00281146" ry="3.99956677"></ellipse>
                                </g>
                                <g id="Group" transform="translate(35.915637, 215.319143)" fill-rule="nonzero">
                                    <path d="M69.5282867,9.86194547 L43.0987645,115.466945 L34.7641434,115.466945 C34.3803121,115.466945 34.0238974,115.439551 33.6400662,115.412156 C27.3342673,114.836876 22.015463,109.522383 20.6720537,103.24909 L0.219332135,8.76617375 C23.0298742,22.5455031 43.0987645,0.246548637 43.0987645,0.246548637 L69.5282867,9.86194547 Z" id="Path" fill="#66B0F0"></path>
                                    <path d="M70.871696,64.047857 C76.437249,34.6811749 77.9725739,12.245249 68.376793,10.4372256 C58.7810121,8.62920229 41.7005221,28.1065446 36.1349692,57.4732267 C30.5694163,86.8399087 33.4755671,112.809698 43.071348,114.617722 C52.6671289,116.453139 65.3061431,93.4419333 70.871696,64.047857 Z" id="Path" stroke="#66B0F0" stroke-width="6" fill="#FFFFFF" stroke-linejoin="round"></path>
                                    <path d="M32.2966568,57.0075237 C29.4179226,72.2387506 28.5680106,86.9494859 29.9388364,98.455089 C30.925831,106.728165 33.0094863,112.617938 35.860804,115.466945 L34.7641434,115.466945 C34.3803121,115.466945 34.0238974,115.439551 33.6400662,115.412156 C31.0629136,112.015264 29.226007,106.317251 28.2938454,98.646849 C26.895603,87.0042745 27.745515,72.1017791 30.6790824,56.7061865 C33.4481506,42.1324226 39.04112,28.4626704 46.4709961,18.1898105 C50.9124718,12.0534889 55.5732796,7.75258491 59.8228398,5.80759011 L62.2903263,6.6294189 C52.5026298,9.53321396 37.6428776,28.8187962 32.2966568,57.0075237 Z" id="Path" fill="#FFFFFF"></path>
                                </g>
                            </g>
                        </g>
                        <g id="SKIRT" transform="translate(148.323356, 249.014123)">
                            <path d="M0.383831236,13.0670777 L125.457981,0.191760051 L250.477298,35.2290608 L249.408054,51.8300023 C247.70823,78.0189464 225.11702,98.4003004 198.851997,98.4003004 L43.2084306,98.4003004 L0.383831236,13.0670777 Z" id="Path" fill="#FE5244" fill-rule="nonzero"></path>
                            <g id="Group" transform="translate(0.000000, 10.957717)" stroke="#FFFFFF" stroke-linecap="round" stroke-linejoin="round" stroke-width="6">
                                <path d="M243.349004,23.0659947 C243.349004,46.844241 219.6063,75.9369801 193.341277,75.9369801 L37.6977107,75.9369801" id="Path"></path>
                                <path d="M228.516668,18.326782 C224.623523,39.5573591 203.841803,62.2398336 181.086094,62.2398336 L31.3919118,62.2398336" id="Path"></path>
                                <path d="M211.65551,13.2862321 C205.075546,31.3116769 187.227394,48.2687442 167.898749,48.2687442 L23.4411219,48.2687442" id="Path"></path>
                                <path d="M198.687498,9.7523683 C190.051295,22.8742346 175.876956,33.2018831 160.770455,33.2018831 L16.3128275,33.2018831" id="Path"></path>
                                <path d="M184.211577,5.69801294 C175.904372,14.0532723 165.157097,19.5047366 153.916326,19.5047366 L9.45869831,19.5047366" id="Path"></path>
                                <path d="M165.37643,0.246548637 C159.509295,3.56125809 153.09383,5.53364718 146.513866,5.53364718 L2.05623876,5.53364718" id="Path"></path>
                                <path d="M42.9068489,87.4425832 L0.109666067,2.10936056" id="Path"></path>
                            </g>
                        </g>
                        <g id="HANDS" transform="translate(0.000000, 149.572840)">
                            <g id="RIGHT_HAND" transform="translate(380.815419, 2.739429)" fill-rule="nonzero">
                                <path d="M24.8393643,17.5871361 C13.050262,20.9292398 1.45307539,19.9430453 0.219332135,16.3543929 C-0.932161573,12.9301063 4.27697663,7.06772759 14.8323356,3.17773799 C15.3532494,2.98597793 15.9015798,2.79421788 16.4499101,2.60245783 C19.6302261,1.53408041 22.810542,0.849223082 25.7989424,0.493097274 C34.6544773,-0.630068738 41.8650212,0.958800254 42.7697663,3.64344097 C44.0035095,7.23209335 37.3138794,14.0532723 24.8393643,17.5871361 Z" id="Path" stroke="#3FB1B5" stroke-width="6" fill="#FFFFFF" stroke-linejoin="round"></path>
                                <path d="M17.3820717,97.4688944 L12.8583464,97.4688944 L0.986994606,17.395376 L0.986994606,17.3405875 L0.685412921,15.3408041 C1.26115977,11.6973631 6.96379528,6.54723602 17.025657,3.20513228 C22.0428795,1.53408041 27.0326856,0.794434496 31.2822457,0.712251617 L35.6140554,12.5739805 L36.0253031,13.6971465 L49.7335616,51.2547222 C57.9585166,73.6906481 41.3166909,97.4688944 17.3820717,97.4688944 Z" id="Path" fill="#A0505A"></path>
                                <path d="M35.8882206,13.4232036 C33.0094863,15.2312269 29.28084,16.9022788 24.8393643,18.1624162 C14.64042,21.038817 4.30439314,19.8608624 0.986994606,17.395376 L0.986994606,17.3405875 L0.685412921,15.3408041 C1.26115977,11.6973631 6.96379528,6.54723602 17.025657,3.20513228 C22.0428795,1.53408041 27.0326856,0.794434496 31.2822457,0.712251617 L35.8882206,13.4232036 Z" id="Path" fill="#73325A"></path>
                            </g>
                            <g id="LEFT_HAND">
                                <path d="M251.354626,34.3250491 L236.960955,70.1019957 C229.860077,87.7713147 212.697338,99.3591006 193.615442,99.3591006 L0.137082584,99.3591006 L0.137082584,81.6623874 C0.137082584,77.3888777 2.7690682,73.5536766 6.77187966,72.0469905 L26.6488544,64.51356 C28.4583445,63.8287026 30.3500841,63.4725768 32.2692403,63.4725768 L54.8330337,63.4725768 L182.539169,50.5972591 L204.582049,0.164365758 L251.354626,34.3250491 Z" id="Path" fill="#A0505A" fill-rule="nonzero"></path>
                                <path d="M20.9736354,75.3890943 L5.97680067,81.0597129 C2.96098382,82.2102732 0.95957809,85.086674 0.95957809,88.3192006" id="Path" stroke="#73325A" stroke-width="6" stroke-linecap="round"></path>
                                <path d="M20.9736354,84.429211 L5.97680067,90.0998296 C2.96098382,91.2503899 0.95957809,94.1267907 0.95957809,97.3593172" id="Path" stroke="#73325A" stroke-width="6" stroke-linecap="round"></path>
                                <path d="M20.9736354,93.1405961 L5.97680067,98.5372718" id="Path" stroke="#73325A" stroke-width="6" stroke-linecap="round"></path>
                                <path d="M19.4108939,67.5543265 C19.4108939,67.5543265 33.4481506,31.7499856 37.9444593,32.35266 C42.4407681,32.9553345 25.4973607,65.2532059 25.4973607,65.2532059 L19.4108939,67.5543265 Z" id="Path" fill="#FE5244" fill-rule="nonzero"></path>
                                <polygon id="Path" fill="#73325A" fill-rule="nonzero" points="204.582049 0.191760051 201.3469 7.56082486 242.773257 55.637809 251.354626 34.3250491"></polygon>
                            </g>
                        </g>
                        <g id="T-SHIRT" transform="translate(193.286444, 83.004708)">
                            <path d="M188.51597,86.7303316 L205.51421,201.238476 L80.52231,166.201175 L58.0681827,100.865787 L0.109666067,58.5416041 L20.4527216,34.3250491 C38.6024557,12.7109519 65.3883927,0.219154344 93.627405,0.219154344 L133.792602,0.219154344 C168.721245,0.219154344 200.880819,19.2855823 217.632311,49.9124018 L230.655156,72.4305106 C230.655156,72.4305106 226.734594,66.6777091 205.59646,72.4579049 C186.980645,77.5806377 188.51597,86.7303316 188.51597,86.7303316 Z" id="Path" fill="#3FB1B5" fill-rule="nonzero"></path>
                            <path d="M58.0681827,100.345295 L64.5658972,72.183962" id="Path" stroke="#FFFFFF" stroke-width="6" stroke-linecap="round" stroke-linejoin="round"></path>
                            <path d="M202.361311,174.501646 L181.223176,43.2008" id="Path" stroke="#FFFFFF" stroke-width="6" stroke-linecap="round" stroke-linejoin="round"></path>
                            <path d="M80.4948935,165.680684 L205.240045,201.238476" id="Path" stroke="#FFFFFF" stroke-width="6" stroke-linecap="round" stroke-linejoin="round"></path>
                        </g>
                        <g id="HEAD" transform="translate(256.344433, 0.000000)">
                            <polygon id="NECK" fill="#A0505A" fill-rule="nonzero" points="24.1813679 64.9244744 24.1813679 83.3334392 56.6973568 83.0594963 56.6973568 50.5698648"></polygon>
                            <g id="HEAD_1_" transform="translate(0.000000, 8.492231)">
                                <path d="M59.3293425,36.4070154 L59.3293425,36.9001126 C59.3293425,41.8310854 55.6006962,45.8306521 50.6657231,45.8306521 L48.746567,45.8306521 C47.5128237,50.7068363 36.546217,56.4048492 28.7599262,56.4048492 L19.6850591,56.4048492 C9.76028,56.4048492 2.16590483,47.501704 3.78347932,37.6945471 L4.22214359,35.0373007 L1.53532494,33.5306146 C3.46944695e-17,32.6539972 -0.43866427,30.6542138 0.630579887,29.2297106 L6.44288146,21.5593086 L7.70404123,13.9984837 C8.71845236,7.77997921 12.8035134,2.712035 18.2319837,0.219154344 C20.370472,24.2987379 41.6456891,27.1477443 47.266075,27.4764759 L50.391558,27.4764759 C55.326531,27.4764759 59.3293425,31.4760426 59.3293425,36.4070154 Z" id="Path" fill="#A0505A" fill-rule="nonzero"></path>
                                <path d="M44.9356711,38.7629246 C44.9356711,34.872935 48.0885705,31.7225913 51.9817159,31.7225913" id="Path" stroke="#73325A" stroke-width="6" stroke-linecap="round"></path>
                                <ellipse id="Oval" fill="#73325A" fill-rule="nonzero" cx="15.2161668" cy="24.4904979" rx="1.39824236" ry="3.23252657"></ellipse>
                                <path d="M13.0776785,14.491581 C13.0776785,14.491581 16.9434074,14.1080609 20.9188024,19.5869195" id="Path" stroke="#73325A" stroke-width="6" stroke-linecap="round"></path>
                            </g>
                            <g id="HAIR" transform="translate(18.094901, 0.000000)">
                                <path d="M29.1711739,35.9687067 L32.2966568,35.9687067 C37.2316299,35.9687067 41.2344413,39.9682735 41.2344413,44.8992462 L41.2344413,45.3923435 C41.2344413,50.3233162 37.505795,54.322883 32.570822,54.322883 L30.4597502,55.8021748 C21.5767988,61.5001877 9.29419921,83.9087194 12.3100161,99.770015 C15.7096642,117.6037 31.2548292,121.575872 45.621084,118.836443 C59.9873389,116.097014 70.4604483,107.741754 67.0608002,89.8806753 C66.676969,87.7713147 66.0463891,85.6619541 65.2513101,83.5799879 C65.4980587,83.6621707 65.7173909,83.7443536 65.9641395,83.8265365 C83.2365451,88.5383549 103.524768,89.0862408 109.117737,75.6082486 C114.710706,62.1302565 113.449547,48.7892358 96.6432219,41.8310854 C86.8829419,37.77673 73.6133477,37.8041243 63.3321539,40.5983422 C68.5138756,22.6002917 59.3019259,2.57506354 42.385935,0.575280152 C15.8193302,-2.57506354 0.575746854,8.38265365 0.164247318,8.68399087 C0.164247318,8.68399087 0.164247318,8.68399087 0.164247318,8.68399087 C0.137082584,11.8617289 2.30298742,34.407232 29.1711739,35.9687067 Z" id="Path" fill="#73325A" fill-rule="nonzero"></path>
                                <path d="M64.0175668,39.9682735 C61.851662,47.0086067 57.3827698,54.5420373 50.1173928,59.6647701 C50.1173928,59.6647701 62.9483227,68.1296066 65.9641395,83.8539308" id="Path" stroke="#FFFFFF" stroke-width="6" stroke-linecap="round" stroke-linejoin="round"></path>
                                <g id="Group" transform="translate(23.304039, 25.202750)" stroke="#FE5244" stroke-linejoin="round" stroke-width="6">
                                    <g transform="translate(40.850610, 0.000000)" id="Path">
                                        <path d="M7.32021,14.1628495 L0.0548330337,14.1628495 L0.0548330337,6.90336183 C0.0548330337,3.09555511 3.12548292,0.027394293 6.93637876,0.027394293 L7.32021,0.027394293 C11.1311058,0.027394293 14.2017557,3.09555511 14.2017557,6.90336183 L14.2017557,7.28688193 C14.2291722,11.0672944 11.1311058,14.1628495 7.32021,14.1628495 Z"></path>
                                        <path d="M4.66080786,21.6140972 L0,14.2176381 L7.40245955,9.56060825 C11.1036893,7.23209335 16.0112458,8.32786506 18.3416498,12.0260946 L18.780314,12.7109519 C21.110718,16.4091815 20.0140573,21.3127599 16.3128275,23.6412748 L15.6274146,24.0795835 C11.8713518,26.4080984 6.9912118,25.3123267 4.66080786,21.6140972 Z"></path>
                                    </g>
                                    <g transform="translate(0.000000, 27.120350)" id="Path">
                                        <path d="M2.57715258,7.69779633 L7.75887427,2.7394293 L12.8309299,8.46483653 C15.3258329,11.3412373 14.9968347,15.6969299 12.1181004,18.1624162 L11.8165188,18.4089649 C8.93778449,20.9018455 4.57855831,20.573114 2.1110718,17.6967133 L1.86432315,17.395376 C-0.630579887,14.5463696 -0.301581685,10.190677 2.57715258,7.69779633 Z"></path>
                                        <path d="M10.1441112,11.2590544 L7.8137073,2.84900647 L16.230578,0.520491567 C20.4527216,-0.657463031 24.8119477,1.80802334 25.990858,6.02674445 L26.2101901,6.82117895 C27.3891003,11.0399001 24.9216138,15.3955927 20.6994702,16.5735473 L19.9043912,16.7927016 C15.6822476,17.9432619 11.3230215,15.4503812 10.1441112,11.2590544 Z"></path>
                                    </g>
                                </g>
                            </g>
                        </g>
                    </g>
                    <g id="CHAIR" transform="translate(185.061489, 347.359635)" stroke-width="6">
                        <path d="M48.006321,21.1209999 L0.246748652,244.466671" id="Path" stroke="#FFCF2D" stroke-linecap="round"></path>
                        <path d="M170.229153,21.1209999 L217.988725,244.466671" id="Path" stroke="#FFCF2D" stroke-linecap="round"></path>
                        <path d="M10.8295242,194.883 L206.747954,194.883" id="Path" stroke="#FFCF2D" stroke-linecap="round"></path>
                        <path d="M207.817198,21.1209999 L10.3908599,21.1209999 C7.89595685,21.1209999 5.86713461,19.0938222 5.86713461,16.6009415 L5.86713461,4.57484693 C5.86713461,2.08196627 7.89595685,0.054788586 10.3908599,0.054788586 L207.817198,0.054788586 C210.312101,0.054788586 212.340923,2.08196627 212.340923,4.57484693 L212.340923,16.6009415 C212.340923,19.0938222 210.312101,21.1209999 207.817198,21.1209999 Z" id="Path" stroke="#66B0F0" fill="#FFFFFF" fill-rule="nonzero" stroke-linejoin="round"></path>
                    </g>
                </g>
            </g>
        </g>
    </g>
</svg>