<?xml version="1.0" encoding="UTF-8"?>
<svg width="911px" height="608px" viewBox="0 0 911 608" version="1.1" xmlns="http://www.w3.org/2000/svg" xmlns:xlink="http://www.w3.org/1999/xlink">
    <!-- Generator: Sketch 58 (84663) - https://sketch.com -->
    <title>5 SCENE</title>
    <desc>Created with Sketch.</desc>
    <g id="Page-1" stroke="none" stroke-width="1" fill="none" fill-rule="evenodd">
        <g id="5-SCENE" transform="translate(0.000000, 1.000000)">
            <polygon id="FLOOR" fill="#D0F0E4" fill-rule="nonzero" points="911 605 0 605 163.532764 508 911 508"></polygon>
            <g id="LAPTOP" transform="translate(320.000000, 27.000000)">
                <g id="Group">
                    <path d="M203.188,106.406379 L39.2812308,106.406379 L39.2812308,11.6203448 C39.2812308,5.20241379 44.4830769,0 50.9003077,0 L191.568923,0 C197.986154,0 203.188,5.20241379 203.188,11.6203448 L203.188,106.406379 L203.188,106.406379 Z" id="Path" stroke="#66B0F0" stroke-width="1.2" fill="#FFFFFF" fill-rule="nonzero"></path>
                    <path d="M190.815385,100.231552 L52.3344615,100.231552 C48.6883077,100.231552 45.7227692,97.2656897 45.7227692,93.6191379 L45.7227692,12.3739655 C45.7227692,8.72741379 48.6883077,5.76155172 52.3344615,5.76155172 L190.815385,5.76155172 C194.461538,5.76155172 197.427077,8.72741379 197.427077,12.3739655 L197.427077,93.6434483 C197.427077,97.29 194.461538,100.231552 190.815385,100.231552 Z" id="Path" fill="#66B0F0" fill-rule="nonzero"></path>
                    <path d="M231.919692,128.650345 C238.191077,132.734483 236.732615,140.732586 229.318769,140.732586 L6.02830769,140.732586 C-0.218769231,140.732586 -2.35784615,132.296897 3.76769231,128.431552 L231.919692,128.650345 Z" id="Path" stroke="#66B0F0" stroke-width="1.2" fill="#66B0F0" fill-rule="nonzero"></path>
                    <path d="M229.318769,135.165517 L6.02830769,135.165517 C2.04184615,135.165517 0.461846154,130.473621 3.76769231,128.431552 L39.3298462,106.406379 L202.726154,106.406379 L231.895385,128.650345 C234.812308,130.862586 233.110769,135.165517 229.318769,135.165517 Z" id="Path" stroke="#66B0F0" stroke-width="1.2" fill="#FFFFFF" fill-rule="nonzero"></path>
                    <g transform="translate(28.440000, 106.236207)" id="Path" stroke="#66B0F0" stroke-width="1.2">
                        <path d="M175.112615,22.2925862 L3.35446154,22.2925862 C0.291692308,22.2925862 -0.923692308,18.6703448 1.60430769,17.1144828 L26.3009231,0.170172414 L154.645538,0.170172414 L177.081538,17.2846552 C179.342154,18.9863793 178.029538,22.2925862 175.112615,22.2925862 Z" fill="#FFFFFF" fill-rule="nonzero"></path>
                        <g transform="translate(97.716923, 0.000000)">
                            <path d="M45.82,0.170172414 L68.2803077,22.2925862"></path>
                            <path d="M33.9092308,0.170172414 L53.6956923,22.2925862"></path>
                            <path d="M22.7763077,0.170172414 L39.9375385,22.2925862"></path>
                            <path d="M10.3307692,0.170172414 L24.8424615,22.2925862"></path>
                            <path d="M0,0.170172414 L7.07353846,22.2925862"></path>
                        </g>
                        <g transform="translate(14.098462, 0.000000)">
                            <path d="M22.6304615,0.170172414 L0.170153846,22.2925862"></path>
                            <path d="M34.5412308,0.170172414 L14.7547692,22.2925862"></path>
                            <path d="M45.6741538,0.170172414 L28.5129231,22.2925862"></path>
                            <path d="M58.1196923,0.170172414 L43.608,22.2925862"></path>
                            <path d="M68.4504615,0.170172414 L61.3769231,22.2925862"></path>
                        </g>
                        <path d="M89.5495385,22.56 L89.5495385,0.170172414" fill="#FFFFFF" fill-rule="nonzero"></path>
                        <path d="M14.2686154,8.43568966 L165.511077,8.43568966"></path>
                    </g>
                </g>
                <g id="Group" transform="translate(55.664615, 16.531034)">
                    <g id="SHIRT" transform="translate(0.486154, 41.327586)" fill-rule="nonzero">
                        <path d="M123.142769,42.372931 L0.170153846,42.372931 L2.38215385,26.6927586 C3.74338462,17.0415517 10.6710769,9.11637931 20.0295385,6.44224138 L50.0009231,0.218793103 L73.312,0.218793103 L103.283385,6.44224138 C112.666154,9.09206897 119.593846,17.0415517 120.930769,26.6927586 L123.142769,42.372931 Z" id="Path" fill="#FFCF2D"></path>
                        <g id="Group" transform="translate(39.864615, 2.187931)" fill="#FFFFFF">
                            <path d="M30.0929231,15.9475862 L21.2206154,6.97706897 C21.0261538,6.78258621 21.0261538,6.46655172 21.2206154,6.29637931 C21.4150769,6.10189655 21.7310769,6.10189655 21.9012308,6.29637931 L30.0443077,14.5375862 L42.6843077,0.218793103 C42.8544615,0.0243103448 43.1704615,2.75057754e-14 43.3649231,0.170172414 C43.5593846,0.340344828 43.5836923,0.65637931 43.4135385,0.850862069 L30.0929231,15.9475862 Z" id="Path"></path>
                            <path d="M13.6123077,15.9475862 L0.291692308,0.850862069 C0.121538462,0.65637931 0.121538462,0.340344828 0.340307692,0.170172414 C0.534769231,-9.71445147e-17 0.850769231,-9.71445147e-17 1.02092308,0.218793103 L13.6609231,14.5375862 L21.804,6.29637931 C21.9984615,6.10189655 22.2901538,6.10189655 22.4846154,6.29637931 C22.6790769,6.49086207 22.6790769,6.78258621 22.4846154,6.97706897 L13.6123077,15.9475862 Z" id="Path"></path>
                            <path d="M21.9984615,21.8063793 C20.8316923,21.8063793 19.8836923,20.8582759 19.8836923,19.6913793 C19.8836923,18.5244828 20.8316923,17.5763793 21.9984615,17.5763793 C23.1652308,17.5763793 24.1132308,18.5244828 24.1132308,19.6913793 C24.1132308,20.8582759 23.1652308,21.8063793 21.9984615,21.8063793 Z M21.9984615,18.5487931 C21.3664615,18.5487931 20.856,19.0593103 20.856,19.6913793 C20.856,20.3234483 21.3664615,20.8339655 21.9984615,20.8339655 C22.6304615,20.8339655 23.1409231,20.3234483 23.1409231,19.6913793 C23.1409231,19.0593103 22.6304615,18.5487931 21.9984615,18.5487931 Z" id="Shape"></path>
                            <path d="M21.9984615,33.7184483 C20.8316923,33.7184483 19.8836923,32.7703448 19.8836923,31.6034483 C19.8836923,30.4365517 20.8316923,29.4884483 21.9984615,29.4884483 C23.1652308,29.4884483 24.1132308,30.4365517 24.1132308,31.6034483 C24.1132308,32.7703448 23.1652308,33.7184483 21.9984615,33.7184483 Z M21.9984615,30.4608621 C21.3664615,30.4608621 20.856,30.9713793 20.856,31.6034483 C20.856,32.2355172 21.3664615,32.7460345 21.9984615,32.7460345 C22.6304615,32.7460345 23.1409231,32.2355172 23.1409231,31.6034483 C23.1409231,30.9713793 22.6304615,30.4608621 21.9984615,30.4608621 Z" id="Shape"></path>
                        </g>
                    </g>
                    <g id="HAND_1_" transform="translate(0.000000, 39.868966)">
                        <polygon id="Path" stroke="#66B0F0" stroke-width="0.8" fill="#FFFFFF" fill-rule="nonzero" points="50.3412308 43.3210345 10.6224615 43.3210345 0.0243076923 11.8634483 39.7430769 0.486206897"></polygon>
                        <g id="Group" transform="translate(8.264615, 0.000000)">
                            <path d="M4.424,15.9475862 L3.67046154,15.9475862 C1.75015385,15.9475862 0.194461538,14.3917241 0.194461538,12.4712069 L0.194461538,1.55586207 C0.194461538,0.777931034 0.826461538,0.145862069 1.60430769,0.145862069 L4.88584615,0.145862069 C5.66369231,0.145862069 6.29569231,0.777931034 6.29569231,1.55586207 L6.29569231,14.0513793 C6.32,15.0967241 5.46923077,15.9475862 4.424,15.9475862 Z" id="Path" fill="#FFFFFF" fill-rule="nonzero"></path>
                            <path d="M4.424,15.9475862 L3.67046154,15.9475862 C1.75015385,15.9475862 0.194461538,14.3917241 0.194461538,12.4712069 L0.194461538,1.55586207 C0.194461538,0.777931034 0.826461538,0.145862069 1.60430769,0.145862069 L4.88584615,0.145862069 C5.66369231,0.145862069 6.29569231,0.777931034 6.29569231,1.55586207 L6.29569231,14.0513793 C6.32,15.0967241 5.46923077,15.9475862 4.424,15.9475862 Z" id="Path" stroke="#66B0F0" stroke-width="0.8" stroke-linecap="round"></path>
                            <path d="M20.4184615,15.9475862 L21.172,15.9475862 C23.0923077,15.9475862 24.648,14.3917241 24.648,12.4712069 L24.648,1.55586207 C24.648,0.777931034 24.016,0.145862069 23.2381538,0.145862069 L19.9323077,0.145862069 C19.1544615,0.145862069 18.5224615,0.777931034 18.5224615,1.55586207 L18.5224615,14.0513793 C18.5224615,15.0967241 19.3732308,15.9475862 20.4184615,15.9475862 Z" id="Path" fill="#FFFFFF" fill-rule="nonzero"></path>
                            <path d="M10.5252308,17.2117241 L8.77507692,17.2117241 C7.41384615,17.2117241 6.32,16.1177586 6.32,14.7563793 L6.32,1.58017241 C6.32,0.802241379 6.952,0.170172414 7.72984615,0.170172414 L11.0113846,0.170172414 C11.7892308,0.170172414 12.4212308,0.802241379 12.4212308,1.58017241 L12.4212308,15.3155172 C12.4212308,16.3608621 11.5704615,17.2117241 10.5252308,17.2117241 Z" id="Path" fill="#FFFFFF" fill-rule="nonzero"></path>
                            <path d="M16.6507692,17.697931 L15.1923077,17.697931 C13.6609231,17.697931 12.4212308,16.4581034 12.4212308,14.9265517 L12.4212308,1.55586207 C12.4212308,0.777931034 13.0532308,0.145862069 13.8310769,0.145862069 L17.1126154,0.145862069 C17.8904615,0.145862069 18.5224615,0.777931034 18.5224615,1.55586207 L18.5224615,15.8017241 C18.5224615,16.847069 17.6716923,17.697931 16.6507692,17.697931 Z" id="Path" fill="#FFFFFF" fill-rule="nonzero"></path>
                            <path d="M20.4184615,15.9475862 L21.172,15.9475862 C23.0923077,15.9475862 24.648,14.3917241 24.648,12.4712069 L24.648,1.55586207 C24.648,0.777931034 24.016,0.145862069 23.2381538,0.145862069 L19.9323077,0.145862069 C19.1544615,0.145862069 18.5224615,0.777931034 18.5224615,1.55586207 L18.5224615,14.0513793 C18.5224615,15.0967241 19.3732308,15.9475862 20.4184615,15.9475862 Z" id="Path" stroke="#66B0F0" stroke-width="0.8" stroke-linecap="round"></path>
                            <path d="M10.5252308,17.2117241 L8.77507692,17.2117241 C7.41384615,17.2117241 6.32,16.1177586 6.32,14.7563793 L6.32,1.58017241 C6.32,0.802241379 6.952,0.170172414 7.72984615,0.170172414 L11.0113846,0.170172414 C11.7892308,0.170172414 12.4212308,0.802241379 12.4212308,1.58017241 L12.4212308,15.3155172 C12.4212308,16.3608621 11.5704615,17.2117241 10.5252308,17.2117241 Z" id="Path" stroke="#66B0F0" stroke-width="0.8" stroke-linecap="round"></path>
                            <path d="M16.6507692,17.697931 L15.1923077,17.697931 C13.6609231,17.697931 12.4212308,16.4581034 12.4212308,14.9265517 L12.4212308,1.55586207 C12.4212308,0.777931034 13.0532308,0.145862069 13.8310769,0.145862069 L17.1126154,0.145862069 C17.8904615,0.145862069 18.5224615,0.777931034 18.5224615,1.55586207 L18.5224615,15.8017241 C18.5224615,16.847069 17.6716923,17.697931 16.6507692,17.697931 Z" id="Path" stroke="#66B0F0" stroke-width="0.8" stroke-linecap="round"></path>
                        </g>
                    </g>
                    <g id="HEAD_5_" transform="translate(44.969231, 0.000000)" fill-rule="nonzero">
                        <g id="NECK_2_" transform="translate(5.347692, 27.227586)">
                            <path d="M23.5055385,0.0243103448 L23.5055385,17.7708621 C23.5055385,20.8339655 18.2793846,23.337931 11.8378462,23.337931 C5.39630769,23.337931 0.170153846,20.8339655 0.170153846,17.7708621 L0.170153846,0.0243103448 L23.5055385,0.0243103448 Z" id="Path" fill="#FFFFFF"></path>
                            <path d="M23.5055385,0.0243103448 C23.5055385,13.4193103 14.9249231,17.4062069 6.68461538,16.7012069 C6.66030769,16.7012069 6.636,16.7012069 6.61169231,16.7012069 C2.96553846,16.3608621 0.194461538,13.2491379 0.194461538,9.60258621 L0.194461538,0.0486206897 L23.5055385,0.0486206897 L23.5055385,0.0243103448 Z" id="Path" fill="#66B0F0"></path>
                        </g>
                        <path d="M34.2738462,22.6815517 L34.2738462,23.5810345 C34.2738462,25.5744828 32.6695385,27.1789655 30.6763077,27.1789655 L28.8289231,27.1789655 L28.8532308,27.5922414 C28.8532308,33.3294828 24.2104615,37.9727586 18.4738462,37.9727586 L15.9215385,37.9727586 C10.1849231,37.9727586 5.54215385,33.3294828 5.54215385,27.5922414 L5.56646154,27.1789655 L3.71907692,27.1789655 C1.72584615,27.1789655 0.121538462,25.5744828 0.121538462,23.5810345 L0.121538462,22.6815517 C0.121538462,20.6881034 1.72584615,19.0836207 3.71907692,19.0836207 L6.07692308,19.0836207 L6.34430769,14.6834483 C6.34430769,14.0027586 6.44153846,13.3463793 6.636,12.7386207 C13.588,14.4646552 21.7310769,9.99155172 23.9187692,8.65448276 C26.3495385,9.57827586 28.0753846,11.912069 28.0753846,14.6591379 L28.3427692,19.0593103 L30.7006154,19.0593103 C32.6695385,19.0836207 34.2738462,20.6881034 34.2738462,22.6815517 Z" id="HEAD_4_" fill="#FFFFFF"></path>
                        <path d="M30.8464615,19.0836207 L28.3184615,19.0836207 L28.0510769,14.6834483 C28.0510769,11.9363793 26.3252308,9.60258621 23.8944615,8.6787931 C21.7067692,9.99155172 13.5636923,14.4646552 6.61169231,12.762931 C6.41723077,13.3706897 6.32,14.027069 6.32,14.7077586 L6.05261538,19.107931 L4.47261538,19.107931 C4.47261538,19.107931 1.23969231,3.45206897 4.424,0.583448276 C6.78184615,-1.53155172 28.3670769,3.08741379 30.7492308,6.36931034 C32.0861538,8.2412069 30.8464615,19.0836207 30.8464615,19.0836207 Z" id="HAIR_2_" fill="#E57281"></path>
                        <g id="FACE" transform="translate(2.187692, 15.801724)" fill="#66B0F0">
                            <path d="M22.5818462,2.3337931 C22.5089231,2.3337931 22.4116923,2.30948276 22.3387692,2.23655172 L22.3387692,2.23655172 C22.3144615,2.21224138 20.7344615,0.923793103 18.2064615,0.923793103 C18.012,0.923793103 17.8418462,0.75362069 17.8418462,0.559137931 C17.8418462,0.364655172 18.012,0.194482759 18.2064615,0.194482759 C21.0018462,0.194482759 22.7276923,1.60448276 22.8006154,1.67741379 C22.9464615,1.79896552 22.9707692,2.04206897 22.8492308,2.18793103 C22.8006154,2.28517241 22.6790769,2.3337931 22.5818462,2.3337931 Z" id="Path"></path>
                            <path d="M13.3449231,9.87 C13.2963077,9.87 13.2476923,9.87 13.2233846,9.84568966 C13.0289231,9.77275862 12.9316923,9.55396552 13.0046154,9.3837931 C13.6852308,7.58482759 13.5150769,5.32396552 12.5670769,3.33051724 C12.008,2.115 11.2058462,1.23982759 10.5009231,0.996724138 C8.94523077,0.461896552 6.75753846,1.21551724 6.73323077,1.21551724 C6.53876923,1.28844828 6.34430769,1.1912069 6.27138462,0.996724138 C6.19846154,0.802241379 6.29569231,0.607758621 6.49015385,0.534827586 C6.58738462,0.510517241 8.92092308,-0.291724138 10.7196923,0.316034483 C11.6190769,0.632068966 12.5427692,1.6287931 13.1990769,3.0387931 C14.22,5.20241379 14.3901538,7.68206897 13.6609231,9.67551724 C13.6366154,9.77275862 13.4907692,9.87 13.3449231,9.87 Z" id="Path"></path>
                            <path d="M18.1335385,13.7353448 C18.1578462,13.9298276 17.9876923,14.1 17.7932308,14.1243103 L17.7689231,14.1243103 C17.5744615,14.1243103 17.4286154,13.9784483 17.4043077,13.7839655 C17.38,13.5408621 17.3313846,13.2977586 17.2584615,13.0789655 C16.2132308,13.5894828 15.2652308,13.7596552 14.4873846,13.7596552 C12.956,13.7596552 12.0323077,13.1275862 11.9836923,13.0789655 C11.8135385,12.9574138 11.7892308,12.7386207 11.8864615,12.5684483 C12.008,12.3982759 12.2267692,12.3739655 12.3969231,12.4712069 C12.4455385,12.4955172 13.2233846,13.0303448 14.4873846,13.0303448 C15.168,13.0303448 15.9944615,12.8844828 16.9424615,12.4225862 C16.7966154,12.1794828 16.6507692,12.0336207 16.6507692,12.0336207 C16.5049231,11.8877586 16.5292308,11.6446552 16.6750769,11.5231034 C16.8209231,11.4015517 17.064,11.4015517 17.1855385,11.5474138 C17.2341538,11.6203448 18.0606154,12.5441379 18.1335385,13.7353448 Z" id="Path"></path>
                            <ellipse id="Oval" transform="translate(19.370395, 5.574639) rotate(-3.566673) translate(-19.370395, -5.574639) " cx="19.3703951" cy="5.5746388" rx="1" ry="1.21556169"></ellipse>
                            <ellipse id="Oval" transform="translate(9.452473, 5.574362) rotate(-3.566673) translate(-9.452473, -5.574362) " cx="9.4524726" cy="5.57436211" rx="1" ry="1.11831675"></ellipse>
                            <path d="M2.72246154,8.04672414 C2.528,8.04672414 2.35784615,7.87655172 2.35784615,7.68206897 C2.35784615,6.61241379 1.48276923,5.76155172 0.437538462,5.76155172 C0.243076923,5.76155172 0.0729230769,5.59137931 0.0729230769,5.39689655 C0.0729230769,5.20241379 0.243076923,5.03224138 0.437538462,5.03224138 C1.896,5.03224138 3.08707692,6.22344828 3.08707692,7.68206897 C3.08707692,7.90086207 2.91692308,8.04672414 2.72246154,8.04672414 Z" id="Path"></path>
                            <path d="M27.176,8.04672414 C26.9815385,8.04672414 26.8113846,7.87655172 26.8113846,7.68206897 C26.8113846,6.22344828 28.0024615,5.03224138 29.4609231,5.03224138 C29.6553846,5.03224138 29.8255385,5.20241379 29.8255385,5.39689655 C29.8255385,5.59137931 29.6553846,5.76155172 29.4609231,5.76155172 C28.3913846,5.76155172 27.5406154,6.63672414 27.5406154,7.68206897 C27.5406154,7.90086207 27.3947692,8.04672414 27.176,8.04672414 Z" id="Path"></path>
                        </g>
                    </g>
                </g>
            </g>
            <g id="TABLE" transform="translate(23.000000, 134.000000)" stroke="#66B0F0" stroke-width="1.2">
                <path d="M867,471.514653 L762.838401,127.840411 C760.77122,120.997018 754.423759,116.313419 747.249425,116.313419 L115.056858,116.313419 C107.809565,116.313419 101.437784,121.094087 99.4192426,128.058817 L0.0243197756,471.514653" id="Path"></path>
                <path d="M288.23798,0.169871465 L564.753829,0.169871465" id="Path"></path>
            </g>
            <g id="BOY" transform="translate(407.000000, 6.000000)">
                <path d="M0.194321767,181.125616 L65.4378549,181.125616 L65.4378549,237.146101 L0.194321767,237.146101 C0.194321767,237.146101 0.194321767,179.01301 0.194321767,181.125616 Z" id="PAPER_1_" fill="#FFCF2D" fill-rule="nonzero"></path>
                <g id="BOY_1_" transform="translate(15.059937, 0.000000)">
                    <g id="LEGS_1_" transform="translate(88.416404, 245.013737)">
                        <g id="Group" transform="translate(57.324921, 0.000000)" fill="#9A3B82" fill-rule="nonzero">
                            <polygon id="Path" points="83.3640379 196.399515 53.0255521 120.879919 101.873186 120.879919"></polygon>
                            <path d="M0.121451104,20.081899 L0.121451104,20.081899 C6.63123028,7.77050505 19.4321767,0.0728484848 33.3504732,0.0728484848 L70.9274448,0.0728484848 L96.4564669,20.081899 L0.121451104,20.081899 Z" id="Path"></path>
                        </g>
                        <g id="Group" transform="translate(0.000000, 18.940606)">
                            <g id="Path">
                                <path d="M199.908517,89.5550707 L105.249527,89.5550707 L140.883281,176.026222 C138.405678,171.995273 123.564353,176.196202 107.84858,185.836485 C92.3271293,195.355354 81.8337539,206.816848 83.9712934,210.993495 L7.16561514,77.3893737 C-12.7523659,43.6848081 11.5378549,1.14129293 50.6936909,1.14129293 L262.820189,1.14129293 L263.281703,2.59826263 C277.127129,45.5788687 245.064038,89.5550707 199.908517,89.5550707 Z" fill="#3FB1B5" fill-rule="nonzero"></path>
                                <path d="M266.488013,25.9340606 C266.14795,33.8259798 264.399054,41.4507879 261.435647,48.5170909 L150.186435,1.16557576 L260.609779,1.16557576 L263.184543,8.69325253 C264.982019,13.2098586 265.977918,19.5476768 266.488013,25.9340606 Z" fill="#E6E6E6" fill-rule="nonzero"></path>
                                <path d="M140.907571,176.026222 C143.385174,180.057172 132.551735,191.057293 116.860252,200.697576 C101.144479,210.337859 86.5460568,215.170141 84.0684543,211.139192 C81.5908517,207.108242 92.1570978,195.719596 107.872871,186.079313 C123.564353,176.43903 138.405678,171.995273 140.907571,176.026222 Z" fill="#66B0F0" fill-rule="nonzero"></path>
                                <g transform="translate(34.977918, 0.000000)" stroke="#FFFFFF" stroke-width="1.2">
                                    <path d="M71.0731861,186.127879 L1.99179811,64.0338182 C-3.42492114,54.3692525 3.54637224,42.422101 14.6470032,42.422101 L149.190536,42.422101 C167.311041,42.422101 180.840694,25.739798 177.1,8.01333333" stroke-linecap="round"></path>
                                    <path d="M48.288959,211.406303 C45.8113565,207.375354 56.5233438,194.55402 72.8949527,185.010869 C91.2826498,174.302141 103.184858,171.121091 106.73123,176.803273" stroke-linecap="round"></path>
                                    <path d="M107.265615,177.337495 L62.1343849,69.7645657" stroke-linecap="round"></path>
                                    <path d="M13.0681388,0.339959596 L123.17571,0.339959596"></path>
                                </g>
                            </g>
                            <g transform="translate(94.731861, 174.836364)" fill-rule="nonzero" id="Path">
                                <path d="M15.5943218,41.863596 L9.03596215,32.9275152 L0,20.640404 C3.69211356,17.532202 8.13722397,14.3025859 13.1167192,11.2429495 C23.0271293,5.17224242 32.5731861,1.14129293 38.9129338,0.0242828283 L43.3094637,8.79038384 L48.7990536,19.7176566 C44.9126183,33.5345859 15.5943218,41.863596 15.5943218,41.863596 Z" fill="#E57281"></path>
                                <path d="M43.3337539,8.79038384 C39.2529968,13.7683636 31.5772871,20.0576162 22.1283912,25.8612121 C17.5861199,28.6537374 13.1410095,31.0334545 9.06025237,32.9275152 L0.0242902208,20.640404 C3.71640379,17.532202 8.1615142,14.3025859 13.1410095,11.2429495 C23.0514196,5.17224242 32.5974763,1.14129293 38.937224,0.0242828283 L43.3337539,8.79038384 Z" fill="#9A3B82"></path>
                            </g>
                            <g transform="translate(93.274448, 194.505455)" id="Path">
                                <path d="M80.2791798,48.2014141 L13.6268139,96.0628687 C7.96719243,99.9966869 -0.825867508,103.274869 0.340063091,89.0451313 C1.96750789,69.4246061 6.31545741,40.2366465 17.051735,22.1702222 C17.051735,22.1702222 17.051735,22.1702222 17.051735,22.1702222 C17.5132492,22.0488081 46.3700315,13.719798 50.2564669,0.0242828283 L80.6435331,21.6117172 C89.3880126,28.4109091 89.1936909,41.6693333 80.2791798,48.2014141 Z" stroke="#FFCF2D" stroke-width="1.2" fill="#FFFFFF" fill-rule="nonzero"></path>
                                <path d="M13.966877,28.5080404 C19.2621451,29.5036364 48.9933754,18.9648889 53.6085174,2.71967677" stroke="#FFCF2D" stroke-width="1.2" stroke-linecap="round"></path>
                                <path d="M6.80126183,91.1334545 C6.80126183,91.1334545 50.3050473,30.7177778 81.2507886,34.1173737 C114.941325,37.7840808 -20.7438486,126.367838 6.80126183,91.1334545 Z" fill="#FFCF2D" fill-rule="nonzero"></path>
                                <path d="M5.56246057,99.3653333 C2.18611987,99.5838788 -1.38454259,95.6500606 3.54637224,89.3365253 C3.54637224,89.3365253 48.8233438,26.6868283 81.0564669,30.2321212 C86.0359621,30.7663434 87.7119874,34.8215758 86.5460568,38.318303" stroke="#FFCF2D" stroke-width="1.2" stroke-linecap="round"></path>
                            </g>
                        </g>
                    </g>
                    <g id="T-SHIRT" transform="translate(171.246057, 87.661010)" stroke="#FE5244" stroke-width="1.2">
                        <path d="M183.901262,207.156808 C168.501262,203.514384 130.171293,193.922667 86.4488959,183.82101 C65.8993691,179.085859 48.7018927,165.098949 39.8359621,145.964081 L0.0242902208,59.8571717 L24.1201893,21.6845657 C31.5287066,9.93167677 44.1596215,2.45256566 58.0293375,1.60266667 L81.7365931,0.14569697 C105.63817,-1.31127273 124.827445,13.5983838 132.114511,36.3999596 L180.330599,177.434626 C185.625868,190.644485 183.901262,207.156808 183.901262,207.156808 Z" id="Path" fill="#FFFFFF" fill-rule="nonzero"></path>
                        <path d="M20.9867508,64.6894545 C20.9867508,64.6894545 33.6662461,84.6013737 62.5473186,88.9965657" id="Path"></path>
                        <g id="Group" transform="translate(29.148265, 8.741818)" fill="#FFCF2D" fill-rule="nonzero" stroke-linejoin="round">
                            <path d="M8.93880126,19.7176566 L8.93880126,19.7176566 C7.62712934,18.3092525 5.31955836,18.6977778 4.51798107,20.4218586 L4.51798107,20.4218586 C3.6192429,22.3644848 5.2466877,24.5256566 7.35993691,24.2099798 L7.35993691,24.2099798 C9.52176656,23.894303 10.4205047,21.2960404 8.93880126,19.7176566 Z" id="Path"></path>
                            <path d="M69.4457413,61.2170101 L69.4457413,61.2170101 C68.1340694,59.8086061 65.8264984,60.1971313 65.0249211,61.9212121 L65.0249211,61.9212121 C64.126183,63.8638384 65.7536278,66.0250101 67.866877,65.7093333 L67.866877,65.7093333 C70.0287066,65.3936566 70.9274448,62.7953939 69.4457413,61.2170101 Z" id="Path"></path>
                            <path d="M88.6107256,78.2149899 L88.6107256,78.2149899 C87.2990536,76.8065859 84.9914826,77.1951111 84.1899054,78.9191919 L84.1899054,78.9191919 C83.2911672,80.8618182 84.918612,83.0229899 87.0318612,82.7073131 L87.0318612,82.7073131 C89.1694006,82.4159192 90.0681388,79.8176566 88.6107256,78.2149899 Z" id="Path"></path>
                            <path d="M125.36183,174.399273 L125.36183,174.399273 C124.050158,172.990869 121.742587,173.379394 120.941009,175.103475 L120.941009,175.103475 C120.042271,177.046101 121.669716,179.207273 123.782965,178.891596 L123.782965,178.891596 C125.920505,178.575919 126.819243,176.001939 125.36183,174.399273 Z" id="Path"></path>
                            <path d="M104.788013,128.431879 L104.788013,128.431879 C103.476341,127.023475 101.16877,127.412 100.367192,129.136081 L100.367192,129.136081 C99.4684543,131.078707 101.095899,133.239879 103.209148,132.924202 L103.209148,132.924202 C105.370978,132.608525 106.269716,130.010263 104.788013,128.431879 Z" id="Path"></path>
                            <path d="M113.31388,95.3586667 L113.31388,95.3586667 C111.419243,95.6014949 110.374763,97.714101 111.322082,99.3653333 L111.322082,99.3653333 C112.390852,101.235111 115.087066,101.162263 116.058675,99.2439192 L116.058675,99.2439192 C117.054574,97.3012929 115.45142,95.0672727 113.31388,95.3586667 Z" id="Path"></path>
                            <path d="M128.835331,144.40998 L128.835331,144.40998 C126.940694,144.652808 125.896215,146.765414 126.843533,148.416646 L126.843533,148.416646 C127.912303,150.286424 130.608517,150.213576 131.580126,148.295232 L131.580126,148.295232 C132.576025,146.352606 130.997161,144.118586 128.835331,144.40998 Z" id="Path"></path>
                            <path d="M64.4662461,91.497697 L64.4662461,91.497697 C63.1545741,90.0892929 60.8470032,90.4778182 60.0454259,92.201899 L60.0454259,92.201899 C59.1466877,94.1445253 60.7741325,96.305697 62.8873817,95.9900202 L62.8873817,95.9900202 C65.0249211,95.6743434 65.9236593,93.1003636 64.4662461,91.497697 Z" id="Path"></path>
                            <path d="M51.0823344,119.010141 L51.0823344,119.010141 C49.7706625,117.601737 47.4630915,117.990263 46.6615142,119.714343 L46.6615142,119.714343 C45.762776,121.65697 47.3902208,123.818141 49.50347,123.502465 L49.50347,123.502465 C51.6652997,123.186788 52.5640379,120.588525 51.0823344,119.010141 Z" id="Path"></path>
                            <path d="M27.1321767,109.394141 L27.1321767,109.394141 C28.5410095,108.082869 28.1523659,105.776 26.4277603,104.974667 L26.4277603,104.974667 C24.4845426,104.076202 22.3227129,105.703152 22.6384858,107.815758 L22.6384858,107.815758 C22.9542587,109.952646 25.5290221,110.851111 27.1321767,109.394141 Z" id="Path"></path>
                            <path d="M48.3861199,156.745657 L48.3861199,156.745657 C49.7949527,155.434384 49.4063091,153.127515 47.6817035,152.326182 L47.6817035,152.326182 C45.7384858,151.427717 43.5766562,153.054667 43.892429,155.167273 L43.892429,155.167273 C44.2082019,157.328444 46.8072555,158.226909 48.3861199,156.745657 Z" id="Path"></path>
                            <path d="M84.1656151,116.120485 L84.1656151,116.120485 C85.5744479,114.809212 85.1858044,112.502343 83.4611987,111.70101 L83.4611987,111.70101 C81.5179811,110.802545 79.3561514,112.429495 79.6719243,114.542101 L79.6719243,114.542101 C79.9876972,116.67899 82.5867508,117.601737 84.1656151,116.120485 Z" id="Path"></path>
                            <path d="M96.3835962,166.968727 L96.3835962,166.968727 C97.792429,165.657455 97.4037855,163.350586 95.6791798,162.549253 L95.6791798,162.549253 C93.7359621,161.650788 91.5741325,163.277737 91.8899054,165.390343 L91.8899054,165.390343 C92.181388,167.551515 94.7804416,168.44998 96.3835962,166.968727 Z" id="Path"></path>
                            <path d="M23.1242902,63.9852525 L23.1242902,63.9852525 C21.8126183,62.5768485 19.5050473,62.9653737 18.70347,64.6894545 L18.70347,64.6894545 C17.8047319,66.6320808 19.4321767,68.7932525 21.5454259,68.4775758 L21.5454259,68.4775758 C23.7072555,68.161899 24.6059937,65.5636364 23.1242902,63.9852525 Z" id="Path"></path>
                            <path d="M27.4722397,0.99559596 L27.4722397,0.99559596 C26.1605678,-0.412808081 23.8529968,-0.0242828283 23.0514196,1.69979798 L23.0514196,1.69979798 C22.1526814,3.64242424 23.7801262,5.80359596 25.8933754,5.48791919 L25.8933754,5.48791919 C28.055205,5.17224242 28.9539432,2.5739798 27.4722397,0.99559596 Z" id="Path"></path>
                            <path d="M69.4457413,0.99559596 L69.4457413,0.99559596 C68.1340694,-0.412808081 65.8264984,-0.0242828283 65.0249211,1.69979798 L65.0249211,1.69979798 C64.126183,3.64242424 65.7536278,5.80359596 67.866877,5.48791919 L67.866877,5.48791919 C70.0287066,5.17224242 70.9274448,2.5739798 69.4457413,0.99559596 Z" id="Path"></path>
                            <path d="M69.518612,28.1923636 L69.518612,28.1923636 C67.7454259,28.8965657 67.2353312,31.1791515 68.5712934,32.5632727 L68.5712934,32.5632727 C70.0529968,34.0930909 72.6520505,33.3888889 73.1378549,31.3005657 L73.1378549,31.3005657 C73.6236593,29.1879596 71.5347003,27.3910303 69.518612,28.1923636 Z" id="Path"></path>
                            <path d="M45.6656151,12.6999192 L45.6656151,12.6999192 C43.8195584,13.2341414 43.115142,15.4438788 44.2810726,16.9494141 L44.2810726,16.9494141 C45.6170347,18.6249293 48.2646688,18.1635556 48.944795,16.1480808 L48.944795,16.1480808 C49.6492114,14.0840404 47.7302839,12.0928485 45.6656151,12.6999192 Z" id="Path"></path>
                            <path d="M42.1435331,79.9633535 L42.1435331,79.9633535 C40.2488959,80.181899 39.1801262,82.2702222 40.1031546,83.9457374 L40.1031546,83.9457374 C41.1476341,85.8155152 43.8438486,85.7912323 44.8397476,83.8971717 L44.8397476,83.8971717 C45.8599369,81.9788283 44.3053628,79.7205253 42.1435331,79.9633535 Z" id="Path"></path>
                            <path d="M21.3268139,130.544485 L21.3268139,130.544485 C19.4321767,130.76303 18.3634069,132.851354 19.2864353,134.526869 L19.2864353,134.526869 C20.3309148,136.396646 23.0271293,136.372364 24.0230284,134.478303 L24.0230284,134.478303 C25.0432177,132.55996 23.4886435,130.301657 21.3268139,130.544485 Z" id="Path"></path>
                            <path d="M28.3223975,32.7575354 L28.3223975,32.7575354 C26.4763407,33.2917576 25.7719243,35.5014949 26.9378549,37.0070303 L26.9378549,37.0070303 C28.273817,38.6825455 30.9214511,38.2211717 31.6015773,36.205697 L31.6015773,36.205697 C32.3059937,34.1659394 30.4113565,32.1747475 28.3223975,32.7575354 Z" id="Path"></path>
                            <path d="M48.4347003,46.3559192 L48.4347003,46.3559192 C46.5886435,46.8901414 45.8842271,49.0998788 47.0501577,50.6054141 L47.0501577,50.6054141 C48.3861199,52.2809293 51.0337539,51.8195556 51.7138801,49.8040808 L51.7138801,49.8040808 C52.4182965,47.7400404 50.5236593,45.7488485 48.4347003,46.3559192 Z" id="Path"></path>
                            <path d="M4.88233438,45.7731313 L4.88233438,45.7731313 C6.09684543,44.2918788 5.44100946,42.0578586 3.59495268,41.4993535 L3.59495268,41.4993535 C1.55457413,40.868 -0.388643533,42.7620606 0.218611987,44.8018182 L0.218611987,44.8018182 C0.825867508,46.8901414 3.4977918,47.4486465 4.88233438,45.7731313 Z" id="Path"></path>
                            <path d="M96.9665615,45.8459798 L96.9665615,45.8459798 C98.1810726,44.3647273 97.5252366,42.1307071 95.6791798,41.572202 L95.6791798,41.572202 C93.6388013,40.9408485 91.6955836,42.8349091 92.3028391,44.8746667 L92.3028391,44.8746667 C92.8858044,46.9629899 95.5820189,47.5214949 96.9665615,45.8459798 Z" id="Path"></path>
                            <path d="M73.5993691,144.288566 L73.5993691,144.288566 C74.8138801,142.807313 74.1580442,140.573293 72.3119874,140.014788 L72.3119874,140.014788 C70.2716088,139.383434 68.3283912,141.277495 68.9356467,143.317253 L68.9356467,143.317253 C69.518612,145.381293 72.2148265,145.939798 73.5993691,144.288566 Z" id="Path"></path>
                        </g>
                    </g>
                    <g id="HEAD_2_" transform="translate(182.905363, 0.000000)">
                        <g id="NECK_1_" transform="translate(21.861199, 47.594343)" fill-rule="nonzero">
                            <path d="M49.8435331,39.4110303 C49.3091483,39.4353131 48.7747634,39.459596 48.2160883,39.4838788 L24.5088328,40.9408485 C18.4605678,41.3050909 12.6794953,42.9320404 7.43280757,45.6274343 L0.145741325,23.8214545 L32.6217666,0.0242828283 L49.8435331,39.4110303 Z" id="Path" fill="#E57281"></path>
                            <path d="M7.33564669,45.2874747 L7.33564669,45.2874747 C14.0883281,42.2278384 19.4807571,36.7884848 22.5413249,30.0378586 L34.3463722,3.93381818 L32.6217666,0 L0.145741325,23.7971717 L7.33564669,45.2874747 Z" id="Path" fill="#9A3B82"></path>
                        </g>
                        <g id="HEAD_3_" transform="translate(1.214511, 20.154747)">
                            <path d="M55.3574132,29.6493333 C55.3574132,31.9076364 54.4343849,33.9473939 52.9526814,35.4286465 C51.4709779,36.909899 49.4305994,37.8326465 47.1716088,37.8326465 L40.0302839,37.8326465 C37.2126183,48.784202 26.3063091,56.287596 14.5741325,54.2235556 L9.20599369,53.2765253 C3.32776025,52.2323636 -0.680126183,46.7444444 0.145741325,40.8437172 L6.43690852,9.34888889 C7.52996845,2.62254545 14.4526814,-1.48125253 20.8895899,0.825616162 L31.3100946,5.00226263 C36.9454259,6.94488889 40.7347003,12.2385455 40.7347003,18.1878384 L40.7347003,21.2231919 L47.1716088,21.4660202 C51.6895899,21.4660202 55.3574132,25.1327273 55.3574132,29.6493333 Z" id="Path" fill="#E57281" fill-rule="nonzero"></path>
                            <g id="Group" transform="translate(9.716088, 15.783838)">
                                <path d="M33.544795,15.4438788 C33.544795,12.3113939 36.0709779,9.7859798 39.2044164,9.7859798" id="Path" stroke="#9A3B82" stroke-linecap="round"></path>
                                <path d="M0.218611987,0.194262626 C0.218611987,0.194262626 5.31955836,0.194262626 8.96309148,5.07511111" id="Path" stroke="#9A3B82" stroke-linecap="round"></path>
                                <ellipse id="Oval" fill="#9A3B82" fill-rule="nonzero" transform="translate(2.413758, 9.065562) rotate(-79.700278) translate(-2.413758, -9.065562) " cx="2.41375811" cy="9.06556171" rx="2.59832513" ry="1.21451662"></ellipse>
                            </g>
                        </g>
                        <g id="HAIR_1_" fill-rule="nonzero">
                            <path d="M48.3861199,41.6207677 C52.9041009,41.6207677 56.5719243,45.2874747 56.5719243,49.8040808 C56.5719243,49.8283636 56.5719243,49.8769293 56.5719243,49.9254949 C60.2154574,44.3161616 69.1542587,30.0378586 69.1542587,25.2055758 C69.1542587,18.7220606 61.0656151,12.2385455 52.685489,15.2010505 C53.244164,14.7882424 53.8271293,14.3511515 54.4343849,13.8897778 C57.6649842,11.3643636 59.3652997,9.47030303 59.6324921,8.11046465 C59.729653,7.62480808 59.6567823,7.18771717 59.4138801,6.84775758 C58.4422713,5.46363636 57.3735016,4.85656566 56.2318612,5.05082828 C54.555836,5.31793939 52.8312303,7.3819798 51.1066246,11.170101 C50.3293375,12.8941818 49.722082,14.5939798 49.3820189,15.6381414 C48.7018927,11.5829091 45.4227129,-1.84549495 31.3343849,0.218545455 C26.4763407,0.922747475 24.1930599,2.93822222 23.5615142,5.1479596 C19.5293375,1.99119192 14.1369085,-0.485656566 9.66750789,1.86977778 C1.94321767,5.9250101 2.89053628,12.5785051 7.35993691,17.2893737 C3.13343849,17.2165253 0.170031546,18.4549495 0.170031546,22.0245253 C0.170031546,25.3027071 3.54637224,26.8810909 8.18580442,27.5124444 C12.8252366,28.143798 18.7763407,27.8038384 23.9258675,27.2210505 C27.5936909,26.8082424 30.8971609,26.298303 33.0104101,25.9340606 C31.6015773,28.8237172 31.0429022,31.3005657 31.1643533,33.3888889 C31.3829653,37.7112323 34.5164038,40.2609293 38.937224,41.1593939 C39.8845426,41.3536566 40.9047319,41.4750707 41.9492114,41.5236364 L48.3861199,41.6207677 Z M56.3776025,6.02214141 C56.4504732,5.99785859 56.5233438,5.99785859 56.6205047,5.99785859 C57.3006309,5.99785859 57.9564669,6.48351515 58.6123028,7.40626263 C58.6608833,7.50339394 58.7337539,7.64909091 58.6851735,7.91620202 C58.29653,9.88311111 53.3170347,13.6226667 50.4264984,15.5895758 C51.5681388,12.2385455 53.9728707,6.43494949 56.3776025,6.02214141 Z" id="Shape" fill="#FFCF2D"></path>
                            <path d="M29.0025237,13.2098586 C27.3264984,13.2098586 25.626183,12.3113939 24.3873817,10.7330101 C23.0028391,8.98464646 22.5413249,6.82347475 23.1242902,4.95369697 C23.1971609,4.71086869 23.4400631,4.56517172 23.6829653,4.61373737 C23.7801262,4.61373737 23.8772871,4.6380202 23.9501577,4.71086869 C27.6179811,7.33341414 30.5570978,11.0729697 30.1198738,12.5542222 C30.0227129,12.9427475 29.7069401,13.1855758 29.2940063,13.2098586 C29.1968454,13.2098586 29.0996845,13.2098586 29.0025237,13.2098586 Z M23.9015773,5.87644444 C23.6829653,7.28484848 24.1201893,8.83894949 25.1403785,10.1259394 C26.2334385,11.5100606 27.7394322,12.3113939 29.1968454,12.2142626 C29.2454259,11.5829091 27.6179811,8.69325253 23.9015773,5.87644444 Z" id="Shape" fill="#FFFFFF"></path>
                        </g>
                    </g>
                    <g id="HANDS" transform="translate(0.000000, 45.166061)">
                        <g id="LEFT_1_" transform="translate(0.000000, 113.400808)">
                            <path d="M163.958991,69.0603636 L8.50157729,69.0603636 C4.6637224,69.0603636 2.35615142,64.8351515 4.39652997,61.6055354 L25.0917981,29.1151111 C27.7880126,24.889899 32.4274448,22.340202 37.4312303,22.340202 L142.656467,22.340202 L163.958991,69.0603636 Z" id="Path" fill="#E57281" fill-rule="nonzero"></path>
                            <path d="M40.8561514,22.3644848 L53.244164,1.96690909 C53.9728707,0.752767677 55.3088328,0 56.7176656,0 L56.7176656,0 C59.8996845,0 61.8429022,3.47244444 60.1911672,6.19212121 L50.3536278,22.3644848 L40.8561514,22.3644848 Z" id="Path" fill="#FE5244" fill-rule="nonzero"></path>
                            <path d="M163.958991,69.0603636 L129.005363,69.0603636 C128.932492,68.9875152 128.835331,68.8903838 128.762461,68.8175354 C120.260883,60.0757172 116.64164,46.8172929 121.426814,34.0445253 L126.406309,22.340202 L142.656467,22.340202 L163.958991,69.0603636 Z" id="Path" fill="#9A3B82" fill-rule="nonzero"></path>
                            <path d="M30.4599369,47.2543838 L10.9791798,47.2543838 C9.66750789,47.2543838 8.45299685,47.9585859 7.79716088,49.0998788 L5.73249211,52.6937374 C4.34794953,55.1220202 6.09684543,58.1573737 8.91451104,58.1573737 L24.5817035,58.1573737 C27.3022082,58.1573737 29.8283912,56.7489697 31.2615142,54.4178182 L32.9375394,51.6738586 C34.10347,49.7312323 32.7189274,47.2543838 30.4599369,47.2543838 Z" id="Path" fill="#E57281" fill-rule="nonzero"></path>
                            <path d="M25.4318612,58.1573737 L5.9511041,58.1573737 C4.63943218,58.1573737 3.42492114,58.8615758 2.76908517,60.0028687 L0.704416404,63.5967273 C-0.680126183,66.0250101 1.06876972,69.0603636 3.88643533,69.0603636 L19.5536278,69.0603636 C22.2741325,69.0603636 24.8003155,67.6519596 26.2334385,65.3208081 L27.9094637,62.5768485 C29.0996845,60.6342222 27.6908517,58.1573737 25.4318612,58.1573737 Z" id="Path" fill="#E57281" fill-rule="nonzero"></path>
                            <path d="M36.0223975,36.205697 L16.5416404,36.205697 C15.2299685,36.205697 14.0154574,36.909899 13.3596215,38.0511919 L11.2949527,41.6450505 C9.91041009,44.0733333 11.659306,47.1086869 14.4769716,47.1086869 L30.144164,47.1086869 C32.8646688,47.1086869 35.3908517,45.7002828 36.8239748,43.3691313 L38.5,40.6251717 C39.6902208,38.6825455 38.281388,36.205697 36.0223975,36.205697 Z" id="Path" fill="#E57281" fill-rule="nonzero"></path>
                            <path d="M30.4599369,47.2543838 L10.9791798,47.2543838 C9.66750789,47.2543838 8.45299685,47.9585859 7.79716088,49.0998788 L5.73249211,52.6937374 C4.34794953,55.1220202 6.09684543,58.1573737 8.91451104,58.1573737 L24.5817035,58.1573737 C27.3022082,58.1573737 29.8283912,56.7489697 31.2615142,54.4178182 L32.9375394,51.6738586 C34.10347,49.7312323 32.7189274,47.2543838 30.4599369,47.2543838 Z" id="Path" stroke="#9A3B82" stroke-linecap="round"></path>
                            <path d="M25.4318612,58.1573737 L5.9511041,58.1573737 C4.63943218,58.1573737 3.42492114,58.8615758 2.76908517,60.0028687 L0.704416404,63.5967273 C-0.680126183,66.0250101 1.06876972,69.0603636 3.88643533,69.0603636 L19.5536278,69.0603636 C22.2741325,69.0603636 24.8003155,67.6519596 26.2334385,65.3208081 L27.9094637,62.5768485 C29.0996845,60.6342222 27.6908517,58.1573737 25.4318612,58.1573737 Z" id="Path" stroke="#9A3B82" stroke-linecap="round"></path>
                            <path d="M36.0223975,36.205697 L16.5416404,36.205697 C15.2299685,36.205697 14.0154574,36.909899 13.3596215,38.0511919 L11.2949527,41.6450505 C9.91041009,44.0733333 11.659306,47.1086869 14.4769716,47.1086869 L30.144164,47.1086869 C32.8646688,47.1086869 35.3908517,45.7002828 36.8239748,43.3691313 L38.5,40.6251717 C39.6902208,38.6825455 38.281388,36.205697 36.0223975,36.205697 Z" id="Path" stroke="#9A3B82" stroke-linecap="round"></path>
                            <path d="M64.2233438,52.4509091 C58.3694006,52.4509091 52.7340694,50.338303 48.3132492,46.4773333 L40.9290221,40.018101 L34.1277603,40.018101 L32.3788644,41.8878788 C29.2454259,45.2389091 25.3832808,47.1572525 20.792429,47.1572525 L17.5375394,47.1572525 C15.837224,47.1572525 14.7927445,45.2631919 15.7157729,43.8305051 L23.9015773,31.0091717 L64.2476341,31.0091717 L64.2476341,52.4509091 L64.2233438,52.4509091 Z" id="Path" fill="#E57281" fill-rule="nonzero"></path>
                            <path d="M23.9015773,31.0091717 L15.7157729,43.8305051 C14.7927445,45.2631919 15.837224,47.1572525 17.5375394,47.1572525 L20.792429,47.1572525 C25.3832808,47.1572525 29.2454259,45.2631919 32.3788644,41.8878788 L34.1277603,40.018101 L40.9290221,40.018101 L48.3132492,46.4773333 C52.7097792,50.3140202 58.3694006,52.4509091 64.2233438,52.4509091" id="Path" stroke="#9A3B82" stroke-linecap="round"></path>
                        </g>
                        <g id="RIGHT_1_" transform="translate(127.280757, 0.000000)">
                            <path d="M100.950158,137.052283 L63.8589905,178.478788 C56.0618297,187.196323 44.9126183,192.174303 33.2047319,192.174303 L33.2047319,192.174303 C10.0804416,192.174303 -5.92681388,169.105616 2.18611987,147.445333 L46.2485804,43.9519192 L31.3586751,35.6229091 C29.2454259,33.9716768 28.2252366,31.2762828 28.6867508,28.6537374 L31.2129338,11.6314747 C31.9902208,7.84335354 35.8523659,4.88084848 39.6173502,4.00666667 L57.0577287,0.0728484848 C58.5394322,-0.267111111 59.8996845,0.99559596 59.6567823,2.47684848 L57.1305994,15.6138586 C56.1347003,22.0245253 60.4583596,27.5610101 66.8709779,28.6537374 L66.8709779,28.6537374 C72.1176656,29.552202 75.8097792,34.8215758 75.3239748,40.1152323 L63.4460568,114.177859 C63.4217666,114.226424 75.5911672,133.191313 100.950158,137.052283 Z" id="Path" fill="#E57281" fill-rule="nonzero"></path>
                            <path d="M72.5063091,57.7202828 L58.1750789,150.747798" id="Path" stroke="#9A3B82" stroke-linecap="round"></path>
                            <path d="M42.7993691,12.869899 L42.6050473,18.8920404 C42.5321767,21.3688889 44.0138801,23.5543434 46.1514196,24.1614141 L68.4741325,28.6780202" id="Path" stroke="#9A3B82" stroke-linecap="round"></path>
                            <path d="M83.6555205,30.6206465 L65.8022082,28.2409293 C59.9239748,27.1967677 55.9160883,21.7088485 56.7419558,15.8081212 L59.0495268,2.62254545 C59.2681388,1.38412121 58.1507886,0.339959596 56.9362776,0.631353535 L38.718612,4.88084848" id="Path" stroke="#9A3B82" stroke-linecap="round"></path>
                            <path d="M73.7936909,167.308687 L122.08265,113.595071" id="Path" stroke="#FE5244" stroke-width="1.2"></path>
                            <path d="M46.7586751,43.976202 L55.2845426,43.976202" id="Path" stroke="#9A3B82" stroke-linecap="round"></path>
                            <path d="M42.8236593,14.4725657 L42.8236593,16.4151919 C42.8236593,18.7220606 44.4996845,20.6161212 46.5643533,20.6161212 L49.2362776,20.6161212 C50.4022082,20.6161212 51.3252366,19.5719596 51.3252366,18.2606869 L51.4952681,5.58505051 C51.5195584,3.61814141 49.4305994,2.404 47.7302839,2.81680808" id="Path" stroke="#9A3B82" stroke-linecap="round"></path>
                            <path d="M51.4952681,14.4725657 L51.4952681,16.4151919 C51.4952681,18.7220606 53.1712934,20.6161212 55.2359621,20.6161212 L56.9362776,20.6161212" id="Path" stroke="#9A3B82" stroke-linecap="round"></path>
                        </g>
                    </g>
                </g>
                <g id="CHAIR_1_" transform="translate(204.523659, 354.043636)" stroke-width="1.2">
                    <path d="M150.623659,11.8500202 L178.824606,246.470707" id="Path" stroke="#66B0F0"></path>
                    <path d="M28.3952681,11.8500202 L0.194321767,246.470707" id="Path" stroke="#66B0F0"></path>
                    <path d="M9.86182965,165.900283 L169.132808,165.900283" id="Path" stroke="#66B0F0"></path>
                    <path d="M12.1451104,12.5785051 L165.416404,12.5785051 C167.456782,12.5785051 169.108517,10.9272727 169.108517,8.88751515 L169.108517,3.88525253 C169.108517,1.84549495 167.456782,0.194262626 165.416404,0.194262626 L12.1451104,0.194262626 C10.1047319,0.194262626 8.45299685,1.84549495 8.45299685,3.88525253 L8.45299685,8.88751515 C8.45299685,10.9272727 10.1047319,12.5785051 12.1451104,12.5785051 Z" id="Path" stroke="#FFCF2D" fill="#FFFFFF" fill-rule="nonzero"></path>
                </g>
            </g>
            <g id="GIRL" transform="translate(127.000000, 0.000000)">
                <g id="PAPER" transform="translate(146.162445, 193.790099)" stroke="#3FB1B5">
                    <polygon id="Path" fill="#FFFFFF" fill-rule="nonzero" points="94.4471616 0.14588966 70.9931878 48.483997 0.12139738 48.483997 28.6012227 0.14588966"></polygon>
                    <path d="M78.9082969,11.9386372 C78.9082969,11.9386372 75.8248035,6.66229448 68.4195633,8.02393131 C62.8838428,9.02084398 56.3283843,13.5920533 52.2979913,11.1362441 C48.2675983,8.68043478 44.6985153,5.61675191 39.4784279,7.07564852 C34.2583406,8.53454512 30.3979039,11.3307636 30.3979039,11.3307636" id="Path"></path>
                    <path d="M76.4803493,19.4762696 C76.4803493,19.4762696 73.3968559,14.1999269 65.9916157,15.5615637 C60.4558952,16.5584764 53.9004367,21.1296858 49.8700437,18.6738765 C45.8396507,16.2180672 42.2705677,13.1543844 37.0504803,14.613281 C31.830393,16.0721776 27.9699563,18.868396 27.9699563,18.868396" id="Path"></path>
                </g>
                <g id="GIRL_1_">
                    <g id="LEGS" transform="translate(86.192140, 358.402265)" fill-rule="nonzero">
                        <g id="LEFT" transform="translate(100.517031, 40.605955)">
                            <path d="M80.5593013,11.8656924 C80.5593013,18.3577822 62.5682096,23.60981 40.0368559,23.60981 C17.5055022,23.60981 0.048558952,18.3577822 0.048558952,11.8656924 C0.048558952,5.37360248 17.5055022,0.121574717 40.0368559,0.121574717 C62.5682096,0.121574717 80.5593013,5.39791742 80.5593013,11.8656924 Z" id="Path" fill="#FE5244"></path>
                            <g id="Group" transform="translate(13.596507, 0.000000)">
                                <path d="M56.5954585,3.96333577 L56.5954585,87.8498903 L54.0461135,75.7410485 C51.3025328,62.7082389 39.8183406,53.3956156 26.5131878,53.3956156 C22.5070742,53.3956156 18.5737991,54.2466386 15.0047162,55.8514249 C14.8833188,55.9000548 14.7619214,55.9729996 14.6162445,56.0216295 L5.26864629,21.883449 L0.0728384279,2.89347826 C7.18672489,1.16711728 16.3886463,0.121574717 26.4403493,0.121574717 C38.3858515,0.121574717 49.1416594,1.60478626 56.5954585,3.96333577 Z" id="Path" fill="#A0505A"></path>
                                <path d="M56.5954585,3.96333577 L56.5954585,19.7680489 C49.1416594,22.1265985 38.3858515,23.60981 26.4403493,23.60981 C18.6951965,23.60981 11.4599127,22.9776215 5.26864629,21.907764 L0.0728384279,2.9177932 C7.18672489,1.19143222 16.3886463,0.14588966 26.4403493,0.14588966 C38.3858515,0.121574717 49.1416594,1.60478626 56.5954585,3.96333577 Z" id="Path" fill="#73325A"></path>
                            </g>
                            <g id="Group" transform="translate(7.769432, 53.249726)">
                                <path d="M60.6258515,32.1443551 C61.2813974,32.3388747 67.4483843,34.0652356 72.9112664,34.0652356 C75.8733624,34.0652356 78.6169432,33.5546218 80.1708297,31.9984655 C81.5062009,30.6611436 81.8218341,28.7159481 81.1177293,26.2601388 C80.4864629,24.0717939 79.2724891,22.7101571 77.5000873,22.2238582 C74.2466376,21.3485203 69.730655,23.7800146 66.1615721,26.3330837 C71.7215721,19.5735294 77.2087336,10.9903544 75.1692576,5.37360248 C74.4408734,3.37977713 72.789869,2.04245524 70.7261135,1.79930581 C69.0022707,1.60478626 67.3998253,2.21265985 66.6471616,3.35546218 C63.150917,8.68043478 60.2859389,30.5395689 60.1645415,31.4635367 L60.6258515,32.1443551 Z M67.6668996,4.0362806 C68.1039301,3.37977713 69.0265502,2.99073803 70.0948472,2.99073803 C70.2648035,2.99073803 70.4347598,2.99073803 70.6047162,3.01505298 C71.3816594,3.11231275 73.251179,3.54998173 74.0524017,5.78695652 C74.5865502,7.27016806 74.780786,9.99344172 72.6199127,14.5646511 C70.5804367,18.892711 66.8899563,23.9745341 61.6455895,29.7371757 C62.4225328,24.1933686 64.8990393,8.2427658 67.6668996,4.0362806 Z M79.321048,31.1474424 C77.7186026,32.7522287 74.0766812,33.2385276 68.759476,32.5577091 C65.9673362,32.192985 63.3694323,31.6094264 61.9855022,31.2447022 C63.0295197,30.3207344 64.9718777,28.6430033 67.229869,27.0868469 C71.5516157,24.0961089 74.9993013,22.8074169 77.2087336,23.4152904 C78.5441048,23.7800146 79.4424454,24.8255572 79.9765939,26.600548 C80.5593013,28.6430033 80.340786,30.1262148 79.321048,31.1474424 Z" id="Shape" fill="#FFCF2D"></path>
                                <path d="M11.3385153,9.58008768 L5.72995633,15.877658 C-0.631266376,23.0262514 -1.67528384,33.4330471 3.15633188,41.7001278 L27.848559,84.1053891 C32.6801747,92.3967847 41.5421834,97.4786079 51.1082969,97.4786079 L61.3299563,97.4786079 C68.7351965,97.4786079 74.2466376,90.6704238 72.7170306,83.4245706 L59.8489083,22.5156375 C57.1053275,9.48282791 45.6211354,0.170076141 32.3159825,0.170076141 L32.3159825,0.170076141 C24.3280349,0.14588966 16.68,3.57429667 11.3385153,9.58008768 Z" id="Path" stroke="#3FB1B5" fill="#FFFFFF"></path>
                                <path d="M30.4464629,27.913555 L62.3254148,89.7707709 C63.8307424,92.5669893 65.700262,94.3662952 67.8368559,95.5090975 C65.9916157,96.7491596 63.7579039,97.5029228 61.3299563,97.5029228 L51.1082969,97.5029228 C41.5179039,97.5029228 32.6558952,92.3967847 27.848559,84.129704 L3.15633188,41.7001278 C2.16087336,39.9737669 1.40820961,38.1744611 0.898340611,36.3022104 C-2.59790393,23.2937157 12.1882969,13.0814395 23.2840175,20.7163317 C25.809083,22.4426927 28.2855895,24.7769273 30.4464629,27.913555 Z" id="Path" fill="#3FB1B5"></path>
                                <g transform="translate(0.485590, 26.746438)" fill="#FFFFFF" id="Path">
                                    <path d="M30.0337118,1.31300694 L0.6069869,1.31300694 C0.752663755,0.851023017 0.922620087,0.413354037 1.1168559,0 L29.0868122,0 C29.3781659,0.389039094 29.6695197,0.778078187 29.9608734,1.19143222 L30.0337118,1.31300694 Z"></path>
                                    <path d="M34.3554585,9.67734745 L0.461310044,9.67734745 C0.461310044,9.62871757 0.437030568,9.58008768 0.437030568,9.55577274 C0.339912664,9.16673364 0.24279476,8.75337961 0.169956332,8.36434051 L33.6999127,8.36434051 L34.3554585,9.67734745 Z"></path>
                                    <polygon points="38.6772052 18.0660029 4.49170306 18.0660029 3.71475983 16.728681 37.9973799 16.728681"></polygon>
                                    <polygon points="42.998952 26.4546584 9.37187773 26.4546584 8.5949345 25.1173365 42.3191266 25.1173365"></polygon>
                                    <polygon points="47.3206987 34.8189989 14.2520524 34.8189989 13.4751092 33.5059919 46.6408734 33.5059919"></polygon>
                                    <polygon points="51.6424454 43.2076543 19.1322271 43.2076543 18.3552838 41.8703325 50.9383406 41.8703325"></polygon>
                                    <polygon points="55.9641921 51.5963098 24.0124017 51.5963098 23.2354585 50.2589879 55.2600873 50.2589879"></polygon>
                                    <path d="M60.2616594,59.9606503 L29.0868122,59.9606503 C28.771179,59.5229813 28.4555459,59.0853123 28.1641921,58.6476434 L59.5818341,58.6476434 L60.2616594,59.9606503 Z"></path>
                                    <path d="M66.6471616,68.3493058 L39.5512664,68.3493058 C38.6772052,67.9602667 37.8274236,67.5225977 37.0019214,67.0362988 L64.8990393,67.0362988 C65.4574672,67.5225977 66.0401747,67.9602667 66.6471616,68.3493058 Z"></path>
                                </g>
                            </g>
                        </g>
                        <g id="RIGHT">
                            <path d="M81.6275983,50.7452868 C81.409083,57.1644318 63.2237555,62.3678297 40.8380786,62.3678297 C18.4524017,62.3678297 0.267074236,57.1887468 0.048558952,50.7452868 L0.048558952,0.194519547 L81.6275983,0.194519547 L81.6275983,50.7452868 Z" id="Path" fill="#73325A"></path>
                            <g id="Group" transform="translate(20.394760, 59.085312)">
                                <path d="M55.8185153,0.0486298867 L55.6971179,6.05442089 L54.5317031,64.6777493 L54.5317031,62.9757033 C54.5317031,47.9247533 42.3434061,35.7186518 27.3144105,35.7186518 L25.6634061,35.7186518 C17.9910917,35.7186518 11.071441,38.7093898 5.94847162,43.5237486 L2.37938865,19.3546949 L0.169956332,4.40100475 C6.14270742,5.39791742 13.0623581,5.95716112 20.4190393,5.95716112 C35.5694323,5.93284618 48.7531878,3.54998173 55.8185153,0.0486298867 Z" id="Path" fill="#A0505A"></path>
                                <path d="M55.8185153,0.0486298867 L55.6971179,6.05442089 C46.6651528,12.4735659 18.7680349,20.3759225 2.40366812,19.33038 L0.194235808,4.3766898 C6.1669869,5.34928754 13.0866376,5.93284618 20.4433188,5.93284618 C35.5694323,5.93284618 48.7531878,3.54998173 55.8185153,0.0486298867 Z" id="Path" fill="#73325A"></path>
                            </g>
                            <g id="Group" transform="translate(16.995633, 94.585130)">
                                <path d="M31.9517904,97.5515527 L36.4677729,97.5515527 C48.3161572,97.5515527 57.9308297,87.9228352 57.9308297,76.0571428 L57.9308297,27.475886 C57.9308297,12.4249361 45.7425328,0.21883449 30.7135371,0.21883449 L29.0625328,0.21883449 C11.58131,0.21883449 -1.89379913,15.6588235 0.461310044,33.0196931 L6.1669869,75.0359152 C7.93938865,87.9228352 18.9379913,97.5515527 31.9517904,97.5515527 Z" id="Path" stroke="#3FB1B5" fill="#FFFFFF"></path>
                                <path d="M51.1811354,91.6916514 C47.3449782,95.3145779 42.1491703,97.5515527 36.4677729,97.5515527 L31.9517904,97.5515527 C18.9379913,97.5515527 7.93938865,87.9228352 6.19126638,75.0359152 L0.48558952,33.0196931 C0.388471616,32.2172999 0.291353712,31.4149068 0.267074236,30.6368286 C1.72384279,21.3242053 9.76034934,14.1999269 19.4721397,14.1999269 C24.2551965,14.1999269 28.6740611,15.9506028 32.0974672,18.868396 C35.5208734,21.7861892 37.9245415,25.8954147 38.6772052,30.6368286 L46.1795633,81.9170442 C46.7379913,85.7344903 48.5346725,89.1385823 51.1811354,91.6916514 Z" id="Path" fill="#3FB1B5"></path>
                                <g transform="translate(0.242795, 22.612897)" fill="#FFFFFF" id="Path">
                                    <path d="M36.1764192,1.53184143 L2.25799127,1.53184143 C2.50078603,1.06985751 2.79213974,0.632188527 3.08349345,0.21883449 L35.3751965,0.21883449 C35.6665502,0.632188527 35.9336245,1.06985751 36.1764192,1.53184143 Z"></path>
                                    <path d="M38.7014847,9.89618194 L0.169956332,9.89618194 C0.12139738,9.45851296 0.0728384279,9.02084398 0.048558952,8.583175 L38.5072489,8.583175 L38.7014847,9.89618194 Z"></path>
                                    <polygon points="39.939738 18.2848374 1.3110917 18.2848374 1.1168559 16.9718305 39.7455022 16.9718305"></polygon>
                                    <polygon points="41.1537118 26.6734929 2.45222707 26.6734929 2.25799127 25.336171 40.959476 25.336171"></polygon>
                                    <polygon points="42.3919651 35.0378334 3.59336245 35.0378334 3.39912664 33.7248264 42.1977293 33.7248264"></polygon>
                                    <polygon points="43.6059389 43.4264888 4.71021834 43.4264888 4.54026201 42.1134819 43.4117031 42.1134819"></polygon>
                                    <polygon points="44.8441921 51.8151443 5.85135371 51.8151443 5.68139738 50.4778224 44.6499563 50.4778224"></polygon>
                                    <path d="M46.0824454,60.1794848 L8.25502183,60.1794848 C8.03650655,59.7418158 7.84227074,59.3041468 7.67231441,58.8664779 L45.8639301,58.8664779 L45.9367686,59.3041468 C45.9853275,59.5959262 46.0338865,59.8877055 46.0824454,60.1794848 Z"></path>
                                    <path d="M50.4284716,68.5681403 L14.6648035,68.5681403 C14.179214,68.1547862 13.6936245,67.6928023 13.2565939,67.2551333 L49.3116157,67.2551333 C49.6515284,67.7171172 50.04,68.1547862 50.4284716,68.5681403 Z"></path>
                                </g>
                            </g>
                        </g>
                    </g>
                    <g id="CLOTHES" transform="translate(0.000000, 106.742601)">
                        <g id="Group" transform="translate(38.847162, 0.729448)" fill="#FFCF2D" fill-rule="nonzero">
                            <path d="M146.623755,38.9282243 L146.623755,79.8745889 C144.851354,75.2304347 130.817817,75.8869382 115.37607,81.7468396 C102.143755,86.7800328 92.2134498,93.6854767 90.7566812,98.4755206 L90.7566812,40.8491048 C90.7566812,23.7070698 99.9100437,8.38865546 113.96786,0.0243149434 C132.226026,3.20957252 146.623755,19.1358604 146.623755,38.9282243 Z" id="Path"></path>
                            <path d="M89.6883843,1.87225064 C77.2572926,10.5283705 69.3421834,24.898502 69.3421834,40.8491048 L69.3421834,88.3848191 L0.218515284,88.3848191 L9.76034934,47.2439349 C13.8150218,29.7128608 26.4889083,15.7317683 42.998952,9.77460723 L89.6883843,1.87225064 Z" id="Path"></path>
                        </g>
                        <g id="Group">
                            <path d="M268.336769,206.069145 L268.336769,301.505298 C268.336769,295.013208 249.27738,289.76118 226.746026,289.76118 C204.214672,289.76118 185.956507,295.013208 185.956507,301.505298 L185.956507,255.768889 C185.956507,253.629174 184.208384,251.878498 182.07179,251.878498 L58.149345,251.878498 C20.8803493,251.878498 -6.6768559,217.132444 1.74812227,180.781604 L31.6604367,51.7178845 C36.419214,31.1231275 53.0749345,15.439989 73.8824454,11.8900073 L81.8461135,10.5283705 C65.3360699,16.4855316 52.6621834,30.466624 48.6075109,47.9976982 L39.0656769,89.1385823 L108.189345,89.1385823 L108.189345,41.5785531 C108.189345,25.6279503 116.128734,11.2335038 128.535546,2.60169894 L128.535546,2.60169894 L139.46131,0.753763244 C141.719301,0.36472415 143.928734,0.194519547 146.138166,0.194519547 C146.42952,0.194519547 146.696594,0.194519547 146.987948,0.194519547 C147.255022,0.194519547 147.522096,0.21883449 147.764891,0.21883449 C147.81345,0.21883449 147.862009,0.21883449 147.910568,0.21883449 C148.104803,0.21883449 148.323319,0.243149434 148.517555,0.243149434 C148.541834,0.243149434 148.590393,0.243149434 148.614672,0.243149434 C148.73607,0.243149434 148.857467,0.267464377 148.954585,0.267464377 C149.1731,0.29177932 149.367336,0.29177932 149.585852,0.316094264 C149.828646,0.340409207 150.095721,0.36472415 150.338515,0.389039094 C150.58131,0.413354037 150.799825,0.43766898 151.04262,0.461983924 C151.091179,0.461983924 151.139738,0.486298867 151.212576,0.486298867 C151.455371,0.51061381 151.722445,0.559243697 151.96524,0.58355864 C151.98952,0.58355864 152.013799,0.58355864 152.013799,0.58355864 C152.280873,0.632188527 152.547948,0.656503471 152.815022,0.705133357 C138.757205,9.06947387 129.603843,24.3878882 129.603843,41.5299232 L129.603843,158.363226 L220.748996,158.363226 C247.019389,158.411856 268.336769,179.736061 268.336769,206.069145 Z" id="Path" fill="#FF2850" fill-rule="nonzero"></path>
                            <path d="M130.113712,1.53184143 C117.68262,10.1879613 108.165066,25.6279503 108.165066,41.5785531 L108.165066,89.1142674 L39.0413974,89.1142674 L48.5832314,47.9733832 C52.6379039,30.4423091 64.2434934,16.1937523 80.7778166,10.2365912" id="Path" stroke="#FFFFFF" stroke-width="1.2" stroke-linecap="round"></path>
                            <path d="M185.956507,241.106978 C185.956507,227.563555 190.739563,214.4578 199.455895,204.123949" id="Path" stroke="#FFFFFF" stroke-width="1.2" stroke-linecap="round"></path>
                            <path d="M84.9781659,236.268305 C84.8567686,236.268305 84.7353712,236.24399 84.6382533,236.171045 L81.4333624,234.420369 C81.0691703,234.225849 80.9477729,233.78818 81.1420087,233.423456 C81.3362445,233.058732 81.7732751,232.937157 82.1374672,233.131677 L85.3423581,234.882353 C85.7065502,235.076872 85.8279476,235.514541 85.6337118,235.879265 C85.4880349,236.122415 85.2452402,236.268305 84.9781659,236.268305 Z M88.1830568,235.441596 C87.9159825,235.441596 87.6731878,235.295707 87.5517904,235.052557 C87.3575546,234.687833 87.478952,234.250164 87.8431441,234.055645 L91.0480349,232.304969 C91.4122271,232.110449 91.8492576,232.256339 92.0434934,232.596748 C92.2377293,232.961472 92.1163319,233.399141 91.7521397,233.593661 L88.5472489,235.344337 C88.4258515,235.392967 88.3044541,235.441596 88.1830568,235.441596 Z M78.5683843,232.791268 C78.4469869,232.791268 78.3255895,232.766953 78.2284716,232.694008 L75.0235808,230.943332 C74.6593886,230.748812 74.5379913,230.311143 74.7322271,229.946419 C74.9264629,229.581695 75.3634934,229.46012 75.7276856,229.65464 L78.9325764,231.405316 C79.2967686,231.599835 79.4181659,232.037504 79.2239301,232.402229 C79.0782533,232.645378 78.8354585,232.791268 78.5683843,232.791268 Z M94.568559,231.940245 C94.3014847,231.940245 94.05869,231.794355 93.9372926,231.551206 C93.7430568,231.186481 93.8644541,230.748812 94.2286463,230.554293 L97.4335371,228.803617 C97.9919651,228.511838 98.5018341,228.171428 99.0117031,227.806704 C99.3273362,227.563555 99.7886463,227.6365 100.031441,227.952594 C100.274236,228.268688 100.201397,228.730672 99.8857642,228.973822 C99.3273362,229.387176 98.7446288,229.7519 98.1376419,230.092309 L94.9327511,231.842985 C94.8113537,231.91593 94.6899563,231.940245 94.568559,231.940245 Z M72.231441,229.192656 C72.0857642,229.192656 71.9400873,229.144026 71.7944105,229.046766 C70.7746725,228.293003 69.8277729,227.417665 69.0265502,226.420752 C68.759476,226.104658 68.8080349,225.642674 69.1236681,225.399525 C69.4393013,225.132061 69.9006114,225.18069 70.1434061,225.496785 C70.8717904,226.396438 71.7215721,227.174516 72.6441921,227.855334 C72.9598253,228.098484 73.0326638,228.560468 72.8141485,228.876562 C72.6927511,229.095396 72.4742358,229.192656 72.231441,229.192656 Z M102.070917,226.639587 C101.900961,226.639587 101.755284,226.590957 101.609607,226.469382 C101.293974,226.226233 101.245415,225.764249 101.512489,225.448155 C102.240873,224.548502 102.84786,223.575904 103.33345,222.506047 C103.503406,222.141322 103.940437,221.971118 104.304629,222.141322 C104.668821,222.311527 104.838777,222.749196 104.668821,223.11392 C104.134672,224.281037 103.454847,225.37521 102.653624,226.347808 C102.483668,226.542327 102.289432,226.639587 102.070917,226.639587 Z M67.6668996,223.624534 C67.3998253,223.624534 67.1327511,223.478644 67.0113537,223.21118 C66.4772052,222.044063 66.0887336,220.828316 65.8459389,219.563938 C65.7731004,219.174899 66.0401747,218.78586 66.4286463,218.712915 C66.8171179,218.639971 67.2055895,218.907435 67.2784279,219.296474 C67.4969432,220.439276 67.8368559,221.533449 68.3224454,222.578991 C68.4924017,222.943716 68.3224454,223.381385 67.9582533,223.551589 C67.8611354,223.600219 67.7640175,223.624534 67.6668996,223.624534 Z M105.081572,220.074552 C105.033013,220.074552 104.984454,220.074552 104.960175,220.074552 C104.571703,220.001607 104.304629,219.612568 104.377467,219.223529 C104.523144,218.421136 104.595983,217.618743 104.595983,216.81635 L104.595983,215.722177 C104.595983,215.308823 104.911616,214.992729 105.324367,214.992729 C105.737118,214.992729 106.052751,215.308823 106.052751,215.722177 L106.052751,216.81635 C106.052751,217.716003 105.979913,218.615656 105.809956,219.490994 C105.737118,219.831403 105.421485,220.074552 105.081572,220.074552 Z M66.3315284,216.524571 C65.9187773,216.524571 65.6031441,216.208476 65.6031441,215.795122 L65.6031441,212.147881 C65.6031441,211.734527 65.9187773,211.418432 66.3315284,211.418432 C66.7442795,211.418432 67.0599127,211.734527 67.0599127,212.147881 L67.0599127,215.795122 C67.0599127,216.184161 66.72,216.524571 66.3315284,216.524571 Z M105.300087,212.804384 C104.887336,212.804384 104.571703,212.48829 104.571703,212.074936 L104.571703,208.427694 C104.571703,208.01434 104.887336,207.698246 105.300087,207.698246 C105.712838,207.698246 106.028472,208.01434 106.028472,208.427694 L106.028472,212.074936 C106.028472,212.48829 105.712838,212.804384 105.300087,212.804384 Z M66.3315284,209.230088 C65.9187773,209.230088 65.6031441,208.913993 65.6031441,208.500639 L65.6031441,204.853398 C65.6031441,204.440044 65.9187773,204.123949 66.3315284,204.123949 C66.7442795,204.123949 67.0599127,204.440044 67.0599127,204.853398 L67.0599127,208.500639 C67.0599127,208.889678 66.72,209.230088 66.3315284,209.230088 Z M105.300087,205.509901 C104.887336,205.509901 104.571703,205.193807 104.571703,204.780453 L104.571703,201.133211 C104.571703,200.719857 104.887336,200.403763 105.300087,200.403763 C105.712838,200.403763 106.028472,200.719857 106.028472,201.133211 L106.028472,204.780453 C106.028472,205.193807 105.712838,205.509901 105.300087,205.509901 Z M66.3315284,201.935605 C65.9187773,201.935605 65.6031441,201.61951 65.6031441,201.206156 L65.6031441,197.558915 C65.6031441,197.145561 65.9187773,196.829466 66.3315284,196.829466 C66.7442795,196.829466 67.0599127,197.145561 67.0599127,197.558915 L67.0599127,201.206156 C67.0599127,201.595195 66.72,201.935605 66.3315284,201.935605 Z M105.300087,198.215418 C104.887336,198.215418 104.571703,197.899324 104.571703,197.48597 L104.571703,193.838728 C104.571703,193.425374 104.887336,193.10928 105.300087,193.10928 C105.712838,193.10928 106.028472,193.425374 106.028472,193.838728 L106.028472,197.48597 C106.028472,197.899324 105.712838,198.215418 105.300087,198.215418 Z M66.3315284,194.641122 C65.9187773,194.641122 65.6031441,194.325027 65.6031441,193.911673 L65.6031441,190.775046 L67.5697817,190.775046 C67.9825328,190.775046 68.2981659,191.09114 68.2981659,191.504494 C68.2981659,191.917848 67.9825328,192.233942 67.5697817,192.233942 L67.0599127,192.233942 L67.0599127,193.911673 C67.0599127,194.300712 66.72,194.641122 66.3315284,194.641122 Z M103.988996,192.233942 L100.347074,192.233942 C99.9343231,192.233942 99.61869,191.917848 99.61869,191.504494 C99.61869,191.09114 99.9343231,190.775046 100.347074,190.775046 L103.988996,190.775046 C104.401747,190.775046 104.71738,191.09114 104.71738,191.504494 C104.71738,191.917848 104.401747,192.233942 103.988996,192.233942 Z M96.7051528,192.233942 L93.0632314,192.233942 C92.6504803,192.233942 92.3348472,191.917848 92.3348472,191.504494 C92.3348472,191.09114 92.6504803,190.775046 93.0632314,190.775046 L96.7051528,190.775046 C97.1179039,190.775046 97.4335371,191.09114 97.4335371,191.504494 C97.4335371,191.917848 97.1179039,192.233942 96.7051528,192.233942 Z M89.42131,192.233942 L85.7793886,192.233942 C85.3666376,192.233942 85.0510044,191.917848 85.0510044,191.504494 C85.0510044,191.09114 85.3666376,190.775046 85.7793886,190.775046 L89.42131,190.775046 C89.8340611,190.775046 90.1496943,191.09114 90.1496943,191.504494 C90.1496943,191.917848 89.8340611,192.233942 89.42131,192.233942 Z M82.1374672,192.233942 L78.4955459,192.233942 C78.0827948,192.233942 77.7671616,191.917848 77.7671616,191.504494 C77.7671616,191.09114 78.0827948,190.775046 78.4955459,190.775046 L82.1374672,190.775046 C82.5502183,190.775046 82.8658515,191.09114 82.8658515,191.504494 C82.8658515,191.917848 82.5502183,192.233942 82.1374672,192.233942 Z M74.8536245,192.233942 L71.2117031,192.233942 C70.798952,192.233942 70.4833188,191.917848 70.4833188,191.504494 C70.4833188,191.09114 70.798952,190.775046 71.2117031,190.775046 L74.8536245,190.775046 C75.2663755,190.775046 75.5820087,191.09114 75.5820087,191.504494 C75.5820087,191.917848 75.2663755,192.233942 74.8536245,192.233942 Z" id="Shape" fill="#FFFFFF" fill-rule="nonzero"></path>
                            <path d="M16.2672489,232.232024 C16.0001747,232.232024 15.7573799,232.086134 15.6359825,231.842985 C15.4417467,231.478261 15.5631441,231.040592 15.9273362,230.846072 L18.8894323,229.216971 C18.9622707,229.168341 19.0351092,229.144026 19.1079476,229.095396 C19.4478603,228.900877 19.9091703,229.022451 20.1034061,229.362861 C20.2976419,229.70327 20.1762445,230.165254 19.8363319,230.359773 C19.7634934,230.408403 19.690655,230.457033 19.5935371,230.481348 L16.631441,232.110449 C16.5100437,232.207709 16.3886463,232.232024 16.2672489,232.232024 Z M22.4099563,228.341633 C22.2157205,228.341633 22.0214847,228.268688 21.8758079,228.098484 C21.6087336,227.806704 21.6330131,227.34472 21.9243668,227.077256 C22.7741485,226.299178 23.5268122,225.399525 24.1823581,224.451242 C24.4008734,224.110833 24.8621834,224.037888 25.2020961,224.256723 C25.5420087,224.475557 25.6148472,224.937541 25.3963319,225.27795 C24.6922271,226.323493 23.8424454,227.29609 22.9198253,228.171428 C22.749869,228.293003 22.5799127,228.341633 22.4099563,228.341633 Z M26.4646288,222.360157 C26.3675109,222.360157 26.2946725,222.335842 26.1975546,222.311527 C25.8333624,222.165637 25.6391266,221.752283 25.7848035,221.363244 C26.1975546,220.269072 26.4889083,219.150584 26.6588646,218.007782 C26.7074236,217.618743 27.0716157,217.326964 27.4843668,217.375594 C27.8728384,217.424223 28.1641921,217.788948 28.1156332,218.202302 C27.9456769,219.466679 27.6300437,220.706741 27.1687336,221.898173 C27.0230568,222.189952 26.7559825,222.360157 26.4646288,222.360157 Z M27.5086463,215.211564 C27.0958952,215.211564 26.780262,214.895469 26.780262,214.482115 L26.780262,210.834874 C26.780262,210.42152 27.0958952,210.105426 27.5086463,210.105426 C27.9213974,210.105426 28.2370306,210.42152 28.2370306,210.834874 L28.2370306,214.482115 C28.2370306,214.871154 27.9213974,215.211564 27.5086463,215.211564 Z M27.5086463,207.917081 C27.0958952,207.917081 26.780262,207.600986 26.780262,207.187632 L26.780262,203.540391 C26.780262,203.127037 27.0958952,202.810943 27.5086463,202.810943 C27.9213974,202.810943 28.2370306,203.127037 28.2370306,203.540391 L28.2370306,207.187632 C28.2370306,207.576671 27.9213974,207.917081 27.5086463,207.917081 Z M27.5086463,200.622598 C27.0958952,200.622598 26.780262,200.306503 26.780262,199.893149 L26.780262,196.245908 C26.780262,195.832554 27.0958952,195.516459 27.5086463,195.516459 C27.9213974,195.516459 28.2370306,195.832554 28.2370306,196.245908 L28.2370306,199.893149 C28.2370306,200.282188 27.9213974,200.622598 27.5086463,200.622598 Z M27.5086463,193.328115 C27.0958952,193.328115 26.780262,193.01202 26.780262,192.598666 L26.780262,192.233942 L24.9593013,192.233942 C24.5465502,192.233942 24.230917,191.917848 24.230917,191.504494 C24.230917,191.09114 24.5465502,190.775046 24.9593013,190.775046 L28.2370306,190.775046 L28.2370306,192.598666 C28.2370306,192.987705 27.9213974,193.328115 27.5086463,193.328115 Z M21.3173799,192.233942 L17.6754585,192.233942 C17.2627074,192.233942 16.9470742,191.917848 16.9470742,191.504494 C16.9470742,191.09114 17.2627074,190.775046 17.6754585,190.775046 L21.3173799,190.775046 C21.730131,190.775046 22.0457642,191.09114 22.0457642,191.504494 C22.0457642,191.917848 21.7058515,192.233942 21.3173799,192.233942 Z M14.0335371,192.233942 L10.3916157,192.233942 C9.97886463,192.233942 9.66323144,191.917848 9.66323144,191.504494 C9.66323144,191.09114 9.97886463,190.775046 10.3916157,190.775046 L14.0335371,190.775046 C14.4462882,190.775046 14.7619214,191.09114 14.7619214,191.504494 C14.7619214,191.917848 14.4220087,192.233942 14.0335371,192.233942 Z M6.74969432,192.233942 L3.10777293,192.233942 C2.69502183,192.233942 2.37938865,191.917848 2.37938865,191.504494 C2.37938865,191.09114 2.69502183,190.775046 3.10777293,190.775046 L6.74969432,190.775046 C7.16244541,190.775046 7.4780786,191.09114 7.4780786,191.504494 C7.4780786,191.917848 7.13816594,192.233942 6.74969432,192.233942 Z" id="Shape" fill="#FFFFFF" fill-rule="nonzero"></path>
                        </g>
                    </g>
                    <g id="HAND" transform="translate(129.409607, 184.064121)" fill-rule="nonzero">
                        <path d="M56.06131,3.28251735 C57.8337118,7.92667153 46.6165939,16.1694373 31.1991266,22.0293387 C15.7816594,27.88924 1.96663755,28.7888929 0.194235808,24.1204238 C-1.57816594,19.4519547 9.37187773,11.0389843 24.8136245,5.17908293 C40.2553712,-0.680818414 54.2889083,-1.38595177 56.06131,3.28251735 Z" id="Path" fill="#FE5244"></path>
                        <path d="M64.680524,154.132426 L64.680524,156.70981 C63.8793013,156.51529 63.0295197,156.418031 62.179738,156.418031 L59.0476856,156.418031 C54.4103057,156.418031 50.4527511,153.451607 48.9474236,149.318067 L57.8337118,148.126635 C61.4513537,147.640336 64.680524,150.460869 64.680524,154.132426 Z" id="Path" fill="#73325A"></path>
                        <path d="M72.8869869,167.140921 L72.8869869,186.933284 C72.8869869,191.553124 69.1479476,195.297625 64.5348472,195.297625 L55.2358079,195.297625 C52.9292576,195.297625 50.8412227,194.373657 49.3358952,192.841816 C47.8305677,191.334289 46.8836681,189.243204 46.8836681,186.933284 L52.9292576,186.933284 C54.9201747,186.933284 56.5226201,185.328498 56.5226201,183.334673 L56.5226201,178.15559 C56.5226201,176.161765 54.9201747,174.556978 52.9292576,174.556978 L22.0214847,174.556978 C9.95458515,174.556978 0.169956332,164.758056 0.169956332,152.673529 L0.169956332,21.907764 C1.62672489,17.1177201 11.5570306,10.1879613 24.789345,5.17908293 C33.82131,1.75067592 42.3919651,0.0972597734 48.2918777,0.243149434 L48.2918777,145.695141 C48.2918777,151.627987 53.099214,156.442346 59.0234061,156.442346 L62.1554585,156.442346 C68.0796507,156.418031 72.8869869,161.208074 72.8869869,167.140921 Z" id="Path" fill="#A0505A"></path>
                        <path d="M48.2918777,0.21883449 L48.2918777,13.4461637 C43.8972926,16.4125868 37.948821,19.4519547 31.1748472,22.0050237 C15.7331004,27.8649251 1.94235808,28.764578 0.169956332,24.0961089 L0.169956332,21.883449 C1.62672489,17.0934052 11.5570306,10.1636463 24.789345,5.15476799 C33.8455895,1.72636098 42.3919651,0.0729448301 48.2918777,0.21883449 Z" id="Path" fill="#73325A"></path>
                    </g>
                    <g id="HEAD_1_" transform="translate(72.838428, 0.000000)">
                        <g id="NECK" transform="translate(8.255022, 85.588601)" fill-rule="nonzero">
                            <polygon id="Path" fill="#A0505A" points="56.2312664 0.194519547 47.1021834 23.7556997 0.048558952 32.192985 12.3339738 0.194519547"></polygon>
                            <polygon id="Path" fill="#73325A" points="56.2312664 0.194519547 51.3025328 12.9355499 4.63737991 20.2300329 12.3339738 0.194519547"></polygon>
                        </g>
                        <g id="HAIR" fill="#FFFFFF" fill-rule="nonzero" stroke="#FFCF2D" stroke-linecap="round" stroke-width="1.2">
                            <path d="M92.0677729,37.8340519 C92.0677729,41.0193094 86.5563319,44.5449762 80.1951092,47.5113993 C71.5273362,51.5719949 61.3056769,54.6599927 61.3056769,54.6599927 L54.4103057,67.6684873 C63.7821834,72.6530507 67.4483843,81.6009499 68.9051528,87.8498903 C69.8277729,91.837541 69.8277729,94.6823894 69.8277729,94.6823894 L3.7390393,94.6823894 C3.7390393,94.6823894 -13.620786,38.3689806 28.2127511,24.898502 C53.8033188,16.6557362 92.0677729,30.2721045 92.0677729,37.8340519 Z" id="Path"></path>
                            <ellipse id="Oval" cx="22.0943231" cy="16.4612166" rx="16.4372052" ry="16.4612166"></ellipse>
                        </g>
                        <g id="HEAD" transform="translate(46.131004, 48.143588)">
                            <path d="M22.749869,39.7063025 C21.3902183,33.7977713 17.9910917,25.3848009 9.61467249,20.3029777 L7.45379913,20.3029777 C5.4628821,20.3029777 3.6419214,19.5005846 2.33082969,18.1875776 C1.01973799,16.8745707 0.218515284,15.0509499 0.218515284,13.0571246 C0.218515284,9.04515893 3.44768559,5.81127146 7.45379913,5.81127146 L16.6071616,6.00579101 C16.6071616,6.00579101 16.6071616,6.00579101 16.6071616,6.00579101 L16.8499563,6.00579101 C17.0199127,5.95716112 17.189869,5.88421629 17.3841048,5.8355864 C19.8606114,5.30065765 27.7028821,3.40409207 34.2097817,0.14588966 L34.9624454,4.64415418 L37.390393,19.0629156 C39.0413974,28.9590975 32.2674236,38.0772013 22.749869,39.7063025 Z" id="Path" fill="#A0505A" fill-rule="nonzero"></path>
                            <path d="M34.9381659,4.61983924 C26.9744978,7.8537267 16.5828821,5.98147606 16.5828821,5.98147606 C16.5828821,5.98147606 26.3675109,4.0362806 34.1855022,0.121574717 L34.9381659,4.61983924 Z" id="Path" fill="#73325A" fill-rule="nonzero"></path>
                            <path d="M13.0866376,14.4430764 C13.0866376,11.6711728 10.8529258,9.43419802 8.0850655,9.43419802" id="Path" stroke="#73325A" stroke-linecap="round"></path>
                        </g>
                    </g>
                </g>
                <g id="CHAIR" transform="translate(7.283843, 358.402265)" stroke-width="1.2">
                    <path d="M150.484192,12.5951407 L178.672664,247.526123" id="Path" stroke="#66B0F0"></path>
                    <path d="M28.2855895,12.5951407 L0.12139738,247.526123" id="Path" stroke="#66B0F0"></path>
                    <path d="M9.78462882,166.849141 L168.985153,166.849141" id="Path" stroke="#66B0F0"></path>
                    <path d="M3.78759825,12.5951407 L174.982183,12.5951407 C177.021659,12.5951407 178.672664,10.9417245 178.672664,8.89926927 L178.672664,3.89039094 C178.672664,1.84793569 177.021659,0.194519547 174.982183,0.194519547 L3.78759825,0.194519547 C1.74812227,0.194519547 0.0971179039,1.84793569 0.0971179039,3.89039094 L0.0971179039,8.89926927 C0.12139738,10.9417245 1.77240175,12.5951407 3.78759825,12.5951407 Z" id="Path" stroke="#FFCF2D" fill="#FFFFFF" fill-rule="nonzero"></path>
                </g>
            </g>
        </g>
    </g>
</svg>