<?xml version="1.0" encoding="UTF-8"?>
<svg width="702px" height="636px" viewBox="0 0 702 636" version="1.1" xmlns="http://www.w3.org/2000/svg" xmlns:xlink="http://www.w3.org/1999/xlink">
    <!-- Generator: Sketch 58 (84663) - https://sketch.com -->
    <title>3 SCENE</title>
    <desc>Created with Sketch.</desc>
    <g id="Page-1" stroke="none" stroke-width="1" fill="none" fill-rule="evenodd">
        <g id="3-SCENE" transform="translate(3.000000, 3.000000)">
            <g id="CHARACTER_x27_S_LEGS" transform="translate(217.000000, 311.000000)">
                <path d="M24.1777688,318.136723 L296.927971,318.136723" id="SHADOW" stroke="#FFCF2D" stroke-width="6" stroke-linecap="round"></path>
                <g id="CHAIR" transform="translate(36.494745, 56.496735)" stroke-width="6">
                    <path d="M123.962086,20.0503307 L123.962086,127.03351 C123.962086,159.969905 141.008973,190.550266 169.004285,207.835862 L208.404204,232.16552" id="Path" stroke="#66B0F0" stroke-linecap="round" stroke-linejoin="round"></path>
                    <path d="M102.617462,20.0503307 L102.617462,127.03351 C102.617462,159.969905 85.570574,190.550266 57.5752627,207.835862 L18.1753436,232.16552" id="Path" stroke="#66B0F0" stroke-linecap="round" stroke-linejoin="round"></path>
                    <path d="M88.2836702,20.0503307 L136.327082,20.0503307 C140.576799,20.0503307 144.010186,16.6124443 144.010186,12.3571583 L144.010186,0.216370476 L80.6005659,0.216370476 L80.6005659,12.3571583 C80.6005659,16.6124443 84.0339531,20.0503307 88.2836702,20.0503307 Z" id="Path" stroke="#66B0F0" fill="#FFFFFF" fill-rule="nonzero"></path>
                    <path d="M210.180922,261.639987 C200.432983,261.639987 192.533791,253.730444 192.533791,243.969732 C192.533791,234.209019 200.432983,226.299476 210.180922,226.299476 C219.92886,226.299476 227.828052,234.209019 227.828052,243.969732 C227.828052,253.730444 219.92886,261.639987 210.180922,261.639987" id="Path" stroke="#FFCF2D" fill="#FFFFFF" fill-rule="nonzero"></path>
                    <path d="M17.7911884,261.639987 C8.0432498,261.639987 0.144058205,253.730444 0.144058205,243.969732 C0.144058205,234.209019 8.0432498,226.299476 17.7911884,226.299476 C27.5391269,226.299476 35.4383185,234.209019 35.4383185,243.969732 C35.4383185,253.730444 27.5391269,261.639987 17.7911884,261.639987" id="Path" stroke="#FFCF2D" fill="#FFFFFF" fill-rule="nonzero"></path>
                    <path d="M17.7911884,257.913607 C10.1080841,257.913607 3.86556184,251.662904 3.86556184,243.969732 C3.86556184,236.276559 10.1080841,230.025857 17.7911884,230.025857 C25.4742926,230.025857 31.7168149,236.276559 31.7168149,243.969732 C31.7168149,251.662904 25.4742926,257.913607 17.7911884,257.913607" id="Path" stroke="#FFCF2D" fill="#FFFFFF" fill-rule="nonzero"></path>
                    <path d="M210.108892,257.913607 C202.425788,257.913607 196.183266,251.662904 196.183266,243.969732 C196.183266,236.276559 202.425788,230.025857 210.108892,230.025857 C217.791997,230.025857 224.034519,236.276559 224.034519,243.969732 C224.034519,251.662904 217.791997,257.913607 210.108892,257.913607" id="Path" stroke="#FFCF2D" fill="#FFFFFF" fill-rule="nonzero"></path>
                    <path d="M87.3472918,178.722013 C87.3472918,178.722013 110.204527,161.94128 139.280275,178.722013" id="Path" stroke="#66B0F0" stroke-linecap="round" stroke-linejoin="round"></path>
                </g>
                <g id="RIGHT_LEG" transform="translate(116.206952, 2.644528)">
                    <path d="M43.6976556,44.4761533 L21.6087308,270.77563 L89.6762328,270.77563 L145.642846,67.146971 C155.943007,33.9220824 133.782053,0.12020582 99.2801132,0.0478773468 L94.478173,0.0478773468 C68.9318513,-0.024041164 47.2751011,18.9444372 43.6976556,44.4761533 Z" id="Path" fill="#31A1A9" fill-rule="nonzero"></path>
                    <path d="M34.9101051,270.77563 L70.7805982,270.77563 L65.1383185,289.263285 C58.0554568,282.195183 48.1874697,277.098456 37.407114,276.449344 C36.3987065,276.377221 35.4143088,276.35318 34.4299111,276.35318 L34.9101051,270.77563 Z" id="Path" fill="#E57281" fill-rule="nonzero"></path>
                    <path d="M76.0627324,315.347948 C77.9354891,297.942145 59.5920776,277.79565 37.3831043,276.425303 C15.174131,275.054957 1.46459175,289.744108 0.384155214,307.197993 C0.216087308,309.842521 -0.0240097009,313.064037 0.55222312,315.420071 L76.0627324,315.347948 Z" id="Path" stroke="#FE5244" stroke-width="6" fill="#FFFFFF" fill-rule="nonzero"></path>
                    <polyline id="Path" stroke="#FE5244" stroke-width="6" points="1.03241714 309.025122 1.03241714 309.025122 76.0627324 309.914645"></polyline>
                </g>
                <g id="LEFT_LEG">
                    <path d="M179.256427,273.420158 L236.039369,238.800882 L109.076071,25.8202101 C93.0135812,0.312535132 52.2451091,-7.57296665 26.5307195,8.10187226 L26.5307195,8.10187226 C-3.12126112,26.1808276 -8.93160873,66.8344358 14.4538399,92.5103989 L179.256427,273.420158 Z" id="Path" fill="#3FB1B5" fill-rule="nonzero"></path>
                    <path d="M179.496524,272.458511 L236.519563,238.320058 L109.316168,25.8202101 C93.2536783,0.312535132 52.4852061,-7.57296665 26.7708165,8.10187226 L26.7708165,8.10187226 C-2.88116411,26.1808276 -8.69151172,66.8344358 14.6939369,92.5103989 L179.496524,272.458511 Z" id="Path" stroke="#FFFFFF" stroke-width="6"></path>
                    <path d="M235.151011,237.286288 C232.629992,233.103126 217.864026,237.358412 202.161681,246.83063 C186.459337,256.278808 175.82304,267.67432 178.344058,271.857482 C180.865077,276.040645 195.583023,271.448782 211.285368,262.000605 C226.963703,252.552427 237.648019,241.493492 235.151011,237.286288 Z" id="Path" fill="#73325A" fill-rule="nonzero"></path>
                    <path d="M231.693614,264.356639 L205.186904,281.041207 L197.695877,272.626799 L195.414956,270.054395 L185.907114,259.380118 C189.988763,255.196955 195.583023,250.773381 202.185691,246.83063 C207.515845,243.633156 212.773969,241.084792 217.52789,239.353828 L224.946888,252.40818 L226.579547,255.269079 L231.693614,264.356639 Z" id="Path" fill="#E57281" fill-rule="nonzero"></path>
                    <path d="M273.518513,282.459635 L207.491835,318.112682 L207.491835,318.112682 C205.835166,316.333635 204.418593,314.242054 203.290137,311.861979 C202.329749,309.866562 201.585449,307.774981 201.009216,305.659359 C197.119644,291.042331 202.617866,274.28564 220.168957,265.919315 C235.655214,258.538677 254.935004,262.769922 266.075505,272.482552 C269.364834,275.391533 271.957882,278.781337 273.518513,282.459635 Z" id="Path" stroke="#FE5244" stroke-width="6" fill="#FFFFFF" fill-rule="nonzero"></path>
                    <path d="M269.989086,277.050374 L203.938399,312.70342" id="Path" stroke="#FE5244" stroke-width="6" stroke-linecap="round"></path>
                    <path d="M224.898868,252.384139 C221.105335,255.557573 216.447454,258.875254 211.237348,262.000605 C205.667098,265.366368 200.192886,268.107061 195.366936,270.054395 L185.378901,259.380118 C189.46055,255.196955 195.535004,250.773381 202.137672,246.83063 C207.467825,243.633156 212.72595,240.844381 217.479871,239.113417 L224.898868,252.384139 Z" id="Path" fill="#9A3B82" fill-rule="nonzero"></path>
                    <path d="M233.686419,233.583949 C231.1654,229.400787 215.222959,233.559908 199.256508,243.176374 C183.290057,252.792839 173.157963,264.068145 175.678981,268.251308" id="Path" stroke="#FFFFFF" stroke-width="6"></path>
                </g>
            </g>
            <g id="TABLE" transform="translate(29.000000, 292.000000)">
                <path d="M642.460235,76.0108897 C648.721937,76.0108897 653.80807,70.9259075 653.80807,64.6656228 L653.80807,21.2513879 C653.80807,14.9911032 648.721937,9.906121 642.460235,9.906121 L11.395818,9.906121 C5.13411592,9.906121 0.0479823918,14.9911032 0.0479823918,21.2513879 L0.0479823918,64.6656228 C0.0479823918,70.9259075 5.13411592,76.0108897 11.395818,76.0108897 L642.460235,76.0108897 Z" id="Path" fill="#9A3B82" fill-rule="nonzero"></path>
                <path d="M642.268305,0.0719572954 L11.5637564,0.0719572954 C5.30205429,0.0719572954 0.215920763,5.1569395 0.215920763,11.4172242 L0.215920763,54.8314591 C0.215920763,61.0917438 5.30205429,66.176726 11.5637564,66.176726 L642.268305,66.176726 C648.530007,66.176726 653.616141,61.0917438 653.616141,54.8314591 L653.616141,11.4172242 C653.616141,5.1569395 648.530007,0.0719572954 642.268305,0.0719572954 Z" id="Path" stroke="#FFCF2D" stroke-width="6" fill="#FFFFFF" fill-rule="nonzero"></path>
                <path d="M609.424358,66.2246975 L609.424358,336.928043" id="Path" stroke="#FFCF2D" stroke-width="6" stroke-linecap="round"></path>
                <path d="M58.8504035,66.2246975 L58.8504035,336.928043" id="Path" stroke="#FFCF2D" stroke-width="6" stroke-linecap="round"></path>
            </g>
            <g id="PLANT" transform="translate(0.000000, 420.000000)">
                <path d="M67.238128,141.21361 L66.2255782,141.864475 L29.436269,85.1910035 L18.3705463,86.0347174 C16.0079301,86.2275663 14.1274805,84.0821223 14.609647,81.7438293 C15.1159219,79.4296424 17.6955131,78.2243368 19.7929377,79.3814302 L28.8817775,84.3713956 L22.2037705,74.0539792 L11.1380477,74.9217993 C8.77543155,75.1146482 6.89498193,72.945098 7.40125683,70.6309112 C7.90753173,68.3167243 10.4871229,67.1114187 12.5845474,68.2685121 L21.6733873,73.2343714 L14.9953803,62.916955 L3.92965754,63.7847751 C1.56704135,63.977624 -0.31340827,61.8080738 0.192866628,59.493887 C0.699141525,57.1797001 3.27873267,55.9743945 5.37615724,57.1314879 L14.4649971,62.1214533 L10.4389062,55.9261822 L2.9653244,49.5380623 C1.15719977,47.995271 1.35006639,45.1507497 3.32694933,43.8490196 C5.32794059,42.5472895 8.00396504,43.5356401 8.67899824,45.8257209 L11.451456,55.2512111 L15.5980885,61.639331 L14.7301887,51.0326413 C14.5373221,48.6702422 16.6829633,46.7899654 18.9973628,47.2720877 C21.3117623,47.7542099 22.5171788,50.3576701 21.3840873,52.4307958 L16.0320384,62.3143022 L22.8064787,72.7522491 L21.9385789,62.1696655 C21.7457123,59.8072664 23.8913535,57.9269896 26.205753,58.4091119 C28.5201525,58.8912341 29.725569,61.4946943 28.5924775,63.5678201 L23.2404286,73.4513264 L30.0148689,83.8892734 L29.1469691,73.3066897 C28.9541025,70.9442907 31.0997437,69.0399077 33.4141432,69.5461361 C35.7285428,70.0282584 36.9339592,72.6317186 35.8008677,74.7048443 L30.4488188,84.5883506 L67.238128,141.21361 Z" id="Path" fill="#9A3B82" fill-rule="nonzero"></path>
                <g id="Group" transform="translate(62.440571, 38.328720)">
                    <path d="M66.6113115,82.8527105 C48.9399067,118.457439 25.0726616,143.214418 10.9692894,141.502884 C9.81208968,141.358247 8.7272149,141.044867 7.7146651,140.538639 C-5.68956551,133.885352 -1.06076645,97.2681661 18.0812463,58.7465975 C26.278078,42.23391 35.8008677,28.0836217 45.0584659,17.7903114 C57.4260384,4.0739331 69.3114443,-2.74809689 76.9778927,1.06066897 C90.3821233,7.71395617 85.7292159,44.3311419 66.6113115,82.8527105 Z" id="Path" fill="#9A3B82" fill-rule="nonzero"></path>
                    <path d="M44.479866,54.7208766 C40.5502084,99.8475202 26.1093197,136.247751 10.9933978,141.502884 C9.83619801,141.358247 8.75132323,141.044867 7.73877343,140.538639 C-5.66545718,133.885352 -1.03665812,97.2681661 18.1053547,58.7465975 C26.3021863,42.23391 35.8249761,28.0836217 45.0825742,17.7903114 C45.7576074,29.1442907 45.6129574,41.6553633 44.479866,54.7208766 Z" id="Path" fill="#FFCF2D" fill-rule="nonzero"></path>
                    <path d="M76.9778927,1.06066897 L10.9933978,141.502884" id="Path" stroke="#FFCF2D" stroke-width="6"></path>
                </g>
                <path d="M138.16483,143.527797 L128.834907,146.661592 L122.614958,151.024798 L133.174406,149.77128 C135.537023,149.482007 137.489797,151.555133 137.104064,153.893426 L137.104064,153.893426 C136.694222,156.231719 134.162848,157.533449 132.017207,156.47278 L121.939925,151.482814 L111.742102,158.64233 L122.30155,157.388812 C124.664166,157.099539 126.616941,159.172664 126.231208,161.510957 C125.821366,163.84925 123.289992,165.15098 121.14435,164.090311 L111.067069,159.100346 L100.893355,166.259862 L111.452802,165.006344 C113.815419,164.71707 115.768193,166.790196 115.358352,169.128489 C114.94851,171.466782 112.417136,172.768512 110.271494,171.707843 L100.194213,166.717878 L81.5584751,179.807497 L79.4610506,179.807497 L99.5432881,165.705421 L98.2896551,154.688927 C98.0244635,152.326528 100.09778,150.373933 102.436288,150.783737 C104.774795,151.193541 106.052537,153.748789 104.99177,155.870127 L100.338863,165.15098 L110.392036,158.087889 L109.138403,147.071396 C108.873211,144.708997 110.946527,142.756401 113.285035,143.166205 C115.623543,143.576009 116.901285,146.131257 115.840518,148.252595 L111.211719,157.509343 L121.264892,150.446251 L120.011259,139.429758 C119.746067,137.067359 121.819384,135.114764 124.157891,135.524567 C126.496399,135.934371 127.774141,138.489619 126.713374,140.610957 L122.060467,149.891811 L128.111657,145.649135 L134.211064,137.935179 C135.681672,136.079008 138.550564,136.151326 139.90063,138.103922 C141.323021,140.056517 140.431013,142.780507 138.16483,143.527797 Z" id="Path" fill="#FFCF2D" fill-rule="nonzero"></path>
                <g id="Group" transform="translate(0.241083, 92.085352)">
                    <path d="M62.2959207,85.8659746 C61.0905043,86.2757785 59.8127629,86.5650519 58.5109131,86.7337947 C43.3226662,88.710496 22.3484205,74.5361015 9.66743971,53.0093426 C-4.09841584,29.6264129 -2.84478276,6.43633218 12.4640058,1.18119954 C17.4303215,-0.530334487 23.2886453,-0.120530565 29.363944,2.00080738 C42.0449248,6.41222607 55.786672,18.2242215 65.0924868,34.0137255 C78.834234,57.4207612 77.5806009,80.610842 62.2959207,85.8659746 Z" id="Path" stroke="#FFCF2D" stroke-width="6" fill="#FFFFFF" fill-rule="nonzero"></path>
                    <path d="M62.2959207,85.8659746 C61.0905043,86.2757785 59.8127629,86.5650519 58.5109131,86.7337947 C44.479866,80.3697809 32.2810518,53.4191465 29.7014606,20.683045 C29.1951857,14.2226067 29.0987524,7.9550173 29.363944,2.00080738 C42.0449248,6.41222607 55.786672,18.2242215 65.0924868,34.0137255 C78.834234,57.4207612 77.5806009,80.610842 62.2959207,85.8659746 Z" id="Path" fill="#FFCF2D" fill-rule="nonzero"></path>
                    <path d="M6.65389865,4.58016148 L58.4868048,86.7337947" id="Path" stroke="#FFCF2D" stroke-width="6"></path>
                </g>
                <g id="Group" transform="translate(38.332242, 0.000000)" stroke="#FFCF2D" stroke-width="6">
                    <ellipse id="Oval" fill="#FFFFFF" fill-rule="nonzero" cx="30.3764938" cy="90.42203" rx="30.3764938" ry="90.3738178"></ellipse>
                    <path d="M30.3764938,0.024106113 L30.3764938,180.795848" id="Path"></path>
                    <polyline id="Path" stroke-linecap="round" points="49.7354816 21.6955017 30.3764938 47.6336794 13.9587222 15.138639"></polyline>
                    <polyline id="Path" stroke-linecap="round" points="56.0277553 43.6802768 30.1836272 79.2126874 6.94319859 34.2547866"></polyline>
                    <polyline id="Path" stroke-linecap="round" points="60.0538462 69.0399077 29.9425439 110.550634 2.43494117 57.5171857"></polyline>
                    <polyline id="Path" stroke-linecap="round" points="61.9342958 102.88489 30.0871939 147.432987 0.0723249853 90.4943483"></polyline>
                </g>
                <path d="M113.743094,208.927682 L23.6020535,208.927682 C16.658855,208.927682 11.0175061,203.286851 11.0175061,196.344291 L11.0175061,192.414994 C11.0175061,185.472434 16.658855,179.831603 23.6020535,179.831603 L113.743094,179.831603 C120.686292,179.831603 126.327641,185.472434 126.327641,192.414994 L126.327641,196.344291 C126.327641,203.310957 120.686292,208.927682 113.743094,208.927682 Z" id="Path" stroke="#66B0F0" stroke-width="6" fill="#FFFFFF" fill-rule="nonzero"></path>
            </g>
            <g id="BOOKS" transform="translate(531.000000, 249.000000)">
                <path d="M110.597655,67.4424065 L110.597655,67.4424065 C110.597655,71.0134507 107.742748,73.9134263 104.240089,73.9134263 L6.52550155,73.9134263 C2.99885181,73.9134263 0.167935702,71.0134507 0.167935702,67.4424065 L0.167935702,67.4424065 C0.167935702,63.8713622 3.02284263,60.9713866 6.52550155,60.9713866 L104.240089,60.9713866 C107.742748,60.9713866 110.597655,63.8713622 110.597655,67.4424065 Z" id="Path" fill="#FE5244" fill-rule="nonzero"></path>
                <g id="Group" transform="translate(19.912376, 0.000000)" stroke="#FFCF2D" stroke-width="6">
                    <path d="M49.4450687,0.0479334801 L9.45238092,0.0479334801 L9.45238092,27.8493519 L86.7028037,27.8493519 L86.7028037,27.8493519 C81.8086775,11.3602348 66.6464827,0.0479334801 49.4450687,0.0479334801 Z" id="Path" fill="#FFFFFF" fill-rule="nonzero"></path>
                    <polygon id="Path" fill="#FFCF2D" fill-rule="nonzero" points="16.6496253 0.0479334801 16.6496253 27.8493519 0.0959632581 27.8733187 0.0959632581 0.0479334801"></polygon>
                    <path d="M147.951353,27.2981169 L86.7028037,27.8493519 C86.7028037,27.8493519 102.032934,7.09415505 144.112823,12.5825385 C144.112823,12.5825385 111.197425,5.72805087 77.8022115,12.5825385" id="Path"></path>
                    <path d="M86.7028037,27.8493519 C86.7028037,27.8493519 113.548525,13.1098068 146.271996,20.2518953" id="Path"></path>
                </g>
                <g id="Group" transform="translate(1.439449, 40.743458)">
                    <path d="M112.013113,9.85033015 C112.013113,12.4627048 112.420957,14.8354121 113.068709,16.5849841 L83.679961,16.5849841 C82.1685397,16.5849841 80.9210174,15.2668134 80.9210174,13.6610418 L80.9210174,6.06358523 C80.9210174,4.43384691 82.1445489,3.13964294 83.679961,3.13964294 L113.068709,3.13964294 C112.420957,4.86524823 112.013113,7.23795549 112.013113,9.85033015 Z" id="Path" fill="#FFCF2D" fill-rule="nonzero"></path>
                    <path d="M80.9450082,6.06358523 L80.9450082,13.6610418 C80.9450082,15.2907801 82.264503,16.5849841 83.8718875,16.5849841 L115.443799,16.5849841 L115.443799,17.1362191 C115.443799,18.4783566 114.364213,19.5568599 113.020727,19.5568599 L2.59100797,19.5568599 C1.24752235,19.5568599 0.167935702,18.4783566 0.167935702,17.1362191 L0.167935702,2.56444118 C0.167935702,1.22230374 1.24752235,0.14380044 2.59100797,0.14380044 L113.020727,0.14380044 C114.364213,0.14380044 115.443799,1.22230374 115.443799,2.56444118 L115.443799,3.1156762 L83.8718875,3.1156762 C82.264503,3.13964294 80.9450082,4.43384691 80.9450082,6.06358523 Z" id="Path" fill="#FFFFFF" fill-rule="nonzero"></path>
                    <path d="M80.9450082,6.06358523 L80.9450082,13.6610418 C80.9450082,15.2907801 82.264503,16.5849841 83.8718875,16.5849841 L115.443799,16.5849841 L115.443799,17.1362191 C115.443799,18.4783566 114.364213,19.5568599 113.020727,19.5568599 L2.59100797,19.5568599 C1.24752235,19.5568599 0.167935702,18.4783566 0.167935702,17.1362191 L0.167935702,2.56444118 C0.167935702,1.22230374 1.24752235,0.14380044 2.59100797,0.14380044 L113.020727,0.14380044 C114.364213,0.14380044 115.443799,1.22230374 115.443799,2.56444118 L115.443799,3.1156762 L83.8718875,3.1156762 C82.264503,3.13964294 80.9450082,4.43384691 80.9450082,6.06358523 Z" id="Path" stroke="#FFCF2D" stroke-width="6"></path>
                </g>
                <g id="Group" transform="translate(14.154581, 74.057227)">
                    <path d="M27.0856296,5.05698215 C25.9340705,6.13548545 25.2143461,8.10075813 25.2143461,9.75446319 C25.2143461,13.0379066 28.0932438,16.4172169 31.6438843,16.4172169 L120.122008,16.4172169 L120.122008,16.4172169 C120.122008,17.9510883 118.874486,19.2213255 117.315083,19.2213255 L10.5319676,19.2213255 C7.67706065,19.2213255 5.08605268,18.1428222 3.21476915,16.4172169 C1.34348561,14.6916116 0.167935702,12.2949376 0.167935702,9.63462949 C0.167935702,4.33797995 4.7981629,0.0479334801 10.5319676,0.0479334801 L117.315083,0.0479334801 C118.850495,0.0479334801 120.122008,1.29420396 120.122008,2.85204206 L120.122008,3.3553436 L31.6438843,3.3553436 C29.8445733,3.33137686 28.2371887,4.00244559 27.0856296,5.05698215 Z" id="Path" fill="#FFCF2D" fill-rule="nonzero"></path>
                    <path d="M113.716461,3.33137686 L113.716461,16.1775495 L120.098017,16.1775495 L120.098017,17.2560528 L31.3320038,17.2560528 C30.3483804,17.2560528 29.3887478,17.0643189 28.5250785,16.7048178 C28.5250785,16.7048178 28.5250785,16.7048178 28.5250785,16.7048178 C27.5894367,16.32135 26.7257674,15.7701149 26.0300337,15.0511127 C24.6625573,13.6850086 23.8228788,11.8156028 23.8228788,9.75446319 C23.8228788,5.60821717 27.1815928,2.25287356 31.3320038,2.25287356 L120.098017,2.25287356 L120.098017,3.33137686 L113.716461,3.33137686 Z" id="Path" fill="#FE5244" fill-rule="nonzero"></path>
                    <path d="M116.187515,3.33137686 L116.187515,16.1775495 L31.6438843,16.1775495 C28.0932438,16.1775495 25.2143461,13.3015407 25.2143461,9.75446319 C25.2143461,7.98092443 25.9340705,6.37515285 27.0856296,5.20078259 C28.2371887,4.05037907 29.8445733,3.33137686 31.6198935,3.33137686 L116.187515,3.33137686 Z" id="Path" fill="#FFFFFF" fill-rule="nonzero"></path>
                    <path d="M116.187515,3.33137686 L116.187515,16.1775495" id="Path" stroke="#FE5244" stroke-width="5"></path>
                    <path d="M43.4233743,12.4387381 L43.4233743,23.1518709 L36.0102126,23.1518709 L36.0102126,13.8048423 C36.0102126,11.5759354 34.2109015,9.75446319 31.9557649,9.75446319 L28.6450325,9.75446319 L28.6450325,8.38835901 L39.3689266,8.38835901 C41.6240632,8.38835901 43.4233743,10.2098313 43.4233743,12.4387381 Z" id="Path" fill="#FE5244" fill-rule="nonzero"></path>
                </g>
                <g id="Group" transform="translate(2.638990, 26.842749)" fill-rule="nonzero">
                    <path d="M131.973471,1.60577158 L5.92573119,1.60577158 C2.66298041,1.60577158 0.0239908145,4.24211299 0.0239908145,7.50158963 L0.0239908145,7.50158963 C0.047981629,10.7370995 2.66298041,13.3734409 5.92573119,13.3734409 L131.973471,13.3734409 C135.236221,13.3734409 137.875211,10.7370995 137.875211,7.47762289 L137.875211,7.47762289 C137.85122,4.24211299 135.212231,1.60577158 131.973471,1.60577158 Z" id="Path" fill="#66B0F0"></path>
                    <g transform="translate(8.156877, 0.000000)" fill="#9A3B82" id="Path">
                        <path d="M95.2195428,13.3974077 L93.9480296,13.3974077 C94.0919745,13.7808755 94.4518367,14.7395451 95.2435336,14.7395451 C95.7233499,14.7395451 98.0744497,14.380044 98.0744497,7.50158963 C98.0744497,5.05698215 97.78656,3.18757642 97.2107804,1.9173392 C96.5150468,0.407434581 95.6033958,0.2396674 95.2675244,0.2396674 C94.4518367,0.2396674 94.0919745,1.22230374 93.9480296,1.60577158 L95.2195428,1.60577158 C95.2675244,1.50990462 95.3155061,1.46197114 95.3394969,1.4380044 C95.7713315,1.5578381 96.9228906,2.7561751 96.9228906,7.50158963 C96.9228906,12.2470042 95.7713315,13.4213744 95.3394969,13.5651749 C95.2915153,13.5172414 95.2435336,13.4693079 95.2195428,13.3974077 Z"></path>
                        <path d="M105.631556,13.3974077 L104.360043,13.3974077 C104.503988,13.7808755 104.86385,14.7395451 105.655547,14.7395451 C106.135363,14.7395451 108.486463,14.380044 108.486463,7.50158963 C108.486463,5.05698215 108.198573,3.18757642 107.622794,1.9173392 C106.92706,0.407434581 106.015409,0.2396674 105.679538,0.2396674 C104.86385,0.2396674 104.503988,1.22230374 104.360043,1.60577158 L105.631556,1.60577158 C105.679538,1.50990462 105.72752,1.46197114 105.75151,1.4380044 C106.183345,1.5578381 107.334904,2.7561751 107.334904,7.50158963 C107.334904,12.2470042 106.183345,13.4213744 105.75151,13.5651749 C105.72752,13.5172414 105.679538,13.4693079 105.631556,13.3974077 Z"></path>
                        <path d="M116.067561,13.3974077 L114.796047,13.3974077 C114.939992,13.7808755 115.299855,14.7395451 116.091551,14.7395451 C116.763294,14.7395451 118.922468,14.2122768 118.922468,7.50158963 C118.922468,0.766935681 116.763294,0.26363414 116.091551,0.26363414 C115.275864,0.26363414 114.916002,1.24627048 114.772057,1.62973832 L116.04357,1.62973832 C116.091551,1.53387136 116.139533,1.48593788 116.163524,1.46197114 C116.64334,1.58180484 117.746918,2.82807532 117.746918,7.52555637 C117.746918,10.4015652 117.339074,11.8875031 116.979212,12.6544387 C116.691322,13.277574 116.379441,13.5412081 116.163524,13.5891416 C116.139533,13.5172414 116.115542,13.4693079 116.067561,13.3974077 Z"></path>
                        <path d="M63.9115299,13.3974077 L62.6400167,13.3974077 C62.7839616,13.7808755 63.1438238,14.7395451 63.9355207,14.7395451 C64.415337,14.7395451 66.7664368,14.380044 66.7664368,7.50158963 C66.7664368,0.766935681 64.6072635,0.26363414 63.9355207,0.26363414 C63.119833,0.26363414 62.7599708,1.24627048 62.6160259,1.62973832 L63.8875391,1.62973832 C63.9355207,1.53387136 63.9835023,1.48593788 64.0074931,1.46197114 C64.4873094,1.58180484 65.5908869,2.82807532 65.5908869,7.52555637 C65.5908869,12.2709709 64.4393278,13.4453412 64.0074931,13.5891416 C64.0074931,13.5172414 63.9595115,13.4693079 63.9115299,13.3974077 Z"></path>
                        <path d="M74.3475342,13.3974077 L73.076021,13.3974077 C73.2199659,13.7808755 73.5798281,14.7395451 74.371525,14.7395451 C74.8273505,14.7395451 75.667029,14.5478112 76.314781,13.2056738 C76.8905605,11.98337 77.2024411,10.0660308 77.2024411,7.50158963 C77.2024411,4.93714845 76.9145513,3.01980924 76.314781,1.7975055 C75.667029,0.455368061 74.8273505,0.26363414 74.371525,0.26363414 C73.5558373,0.26363414 73.1959751,1.24627048 73.0520302,1.62973832 L74.3235434,1.62973832 C74.371525,1.53387136 74.4195066,1.48593788 74.4434974,1.46197114 C74.7313872,1.50990462 75.019277,1.82147224 75.2591851,2.32477378 C75.5950565,3.04377598 76.0268912,4.52971387 76.0268912,7.52555637 C76.0268912,10.4974321 75.6190474,11.98337 75.2591851,12.726339 C75.019277,13.2296405 74.7073964,13.5412081 74.4434974,13.5891416 C74.4195066,13.5172414 74.3955158,13.4693079 74.3475342,13.3974077 Z"></path>
                        <path d="M84.7835385,13.3974077 L83.5120253,13.3974077 C83.6559702,13.7808755 84.0158324,14.7395451 84.8075293,14.7395451 C85.4792721,14.7395451 87.6384454,14.2122768 87.6384454,7.50158963 C87.6384454,0.599168501 85.2873456,0.26363414 84.8075293,0.26363414 C83.9918416,0.26363414 83.6319794,1.24627048 83.4880345,1.62973832 L84.7595477,1.62973832 C84.8075293,1.53387136 84.8555109,1.48593788 84.8795018,1.46197114 C85.3113364,1.58180484 86.4628955,2.78014184 86.4628955,7.52555637 C86.4628955,12.2230374 85.359318,13.4693079 84.8795018,13.5891416 C84.8555109,13.5172414 84.8315201,13.4693079 84.7835385,13.3974077 Z"></path>
                        <path d="M32.6275077,13.3974077 L31.3559946,13.3974077 C31.4999395,13.7808755 31.8598017,14.7395451 32.6514986,14.7395451 C33.0113608,14.7395451 33.9230117,14.5717779 34.5947545,13.0618733 C35.1705341,11.8156028 35.4584239,9.92223037 35.4584239,7.47762289 C35.4584239,5.22474933 35.1465433,3.33137686 34.5947545,2.0371729 C34.0909474,0.886769381 33.371223,0.21570066 32.6275077,0.21570066 C31.81182,0.21570066 31.4519578,1.198337 31.3080129,1.58180484 L32.5795261,1.58180484 C32.6275077,1.50990462 32.6514986,1.4380044 32.6754894,1.41403766 C32.8194343,1.48593788 33.1553057,1.74957202 33.4911771,2.5165077 C33.8510393,3.30741012 34.2588831,4.81731475 34.2588831,7.45365615 C34.2588831,12.1990707 33.107324,13.3734409 32.6754894,13.5172414 C32.6994802,13.5172414 32.6754894,13.4693079 32.6275077,13.3974077 Z"></path>
                        <path d="M43.0635121,13.3974077 L41.7919989,13.3974077 C41.9359438,13.7808755 42.295806,14.7395451 43.0875029,14.7395451 C43.4473651,14.7395451 44.359016,14.5717779 45.0307588,13.0618733 C45.6065384,11.8156028 45.8944282,9.92223037 45.8944282,7.47762289 C45.8944282,0.742968941 43.7352549,0.2396674 43.0635121,0.2396674 C42.2478244,0.2396674 41.8879621,1.22230374 41.7440173,1.60577158 L43.0155304,1.60577158 C43.0635121,1.50990462 43.1114937,1.46197114 43.1354845,1.4380044 C43.6153008,1.5578381 44.7188783,2.80410858 44.7188783,7.50158963 C44.7188783,12.2470042 43.5673192,13.4213744 43.1354845,13.5651749 C43.1354845,13.5172414 43.1114937,13.4693079 43.0635121,13.3974077 Z"></path>
                        <path d="M53.4995164,13.3974077 L52.2280032,13.3974077 C52.3719481,13.7808755 52.7318103,14.7395451 53.5235072,14.7395451 C54.19525,14.7395451 56.3544233,14.2122768 56.3544233,7.50158963 C56.3544233,4.93714845 56.0665335,3.01980924 55.4667632,1.7975055 C54.8190112,0.455368061 53.9793327,0.26363414 53.5235072,0.26363414 C52.7078195,0.26363414 52.3479573,1.24627048 52.2040124,1.62973832 L53.4755256,1.62973832 C53.5235072,1.53387136 53.5714888,1.48593788 53.5954796,1.46197114 C53.8833694,1.50990462 54.1712592,1.82147224 54.4111673,2.32477378 C54.7470387,3.04377598 55.1788734,4.52971387 55.1788734,7.52555637 C55.1788734,12.2230374 54.0752959,13.4693079 53.5954796,13.5891416 C53.5714888,13.5172414 53.5235072,13.4693079 53.4995164,13.3974077 Z"></path>
                        <path d="M1.34348561,13.3974077 L0.0719724435,13.3974077 C0.215917331,13.7808755 0.575779548,14.7395451 1.36747643,14.7395451 C2.11119168,14.7395451 2.8069253,14.0684764 3.33472322,12.9180729 C3.91050277,11.6238689 4.19839254,9.75446319 4.19839254,7.47762289 C4.19839254,4.81731475 3.71857625,3.13964294 3.33472322,2.20494008 C2.8069253,0.958669601 2.08720086,0.2396674 1.36747643,0.2396674 C0.551788734,0.2396674 0.191926516,1.22230374 0.047981629,1.60577158 L1.3194948,1.60577158 C1.36747643,1.53387136 1.39146724,1.48593788 1.41545806,1.4380044 C1.58339376,1.53387136 1.94325598,1.86940572 2.27912738,2.78014184 C2.61499878,3.61897775 2.99885181,5.10491563 2.99885181,7.47762289 C2.99885181,10.137931 2.59100797,11.6238689 2.23114575,12.4387381 C1.89527435,13.2056738 1.55940294,13.4693079 1.41545806,13.5412081 C1.41545806,13.5172414 1.36747643,13.4693079 1.34348561,13.3974077 Z"></path>
                        <path d="M11.7554991,13.3974077 L10.4839859,13.3974077 C10.6279308,13.7808755 10.987793,14.7395451 11.7794899,14.7395451 C12.5232052,14.7395451 13.2189388,14.0684764 13.7467367,12.9180729 C14.3225163,11.6238689 14.610406,9.75446319 14.610406,7.47762289 C14.610406,2.78014184 13.1469664,0.2396674 11.7794899,0.2396674 C10.9638022,0.2396674 10.60394,1.22230374 10.4599951,1.60577158 L11.7315083,1.60577158 C11.7794899,1.53387136 11.8034807,1.48593788 11.8274716,1.4380044 C11.9954073,1.53387136 12.3312787,1.86940572 12.6911409,2.73220836 C13.0270123,3.54707753 13.4108653,5.05698215 13.4108653,7.47762289 C13.4108653,10.137931 13.0030215,11.6238689 12.6431592,12.4387381 C12.3072878,13.2056738 11.9714164,13.4693079 11.8274716,13.5412081 C11.8274716,13.5172414 11.8034807,13.4693079 11.7554991,13.3974077 Z"></path>
                        <path d="M22.1915034,13.3974077 L20.9199903,13.3974077 C21.0639351,13.7808755 21.4237974,14.7395451 22.2154942,14.7395451 C22.5753565,14.7395451 23.4630166,14.5717779 24.182741,12.9660064 C24.7585206,11.6718024 25.0464104,9.82636341 25.0464104,7.50158963 C25.0464104,5.24871607 24.7345298,3.3553436 24.182741,2.06113964 C23.6789339,0.910736121 22.9592095,0.2396674 22.2154942,0.2396674 C21.3998065,0.2396674 21.0399443,1.22230374 20.8959994,1.60577158 L22.1675126,1.60577158 C22.2154942,1.53387136 22.2394851,1.46197114 22.2634759,1.4380044 C22.4074208,1.50990462 22.7432922,1.77353876 23.0791636,2.54047444 C23.4390258,3.33137686 23.8468696,4.84128149 23.8468696,7.47762289 C23.8468696,10.1858645 23.4390258,11.6718024 23.0791636,12.4627048 C22.7432922,13.2056738 22.4074208,13.4693079 22.2634759,13.5172414 C22.2634759,13.5172414 22.2394851,13.4693079 22.1915034,13.3974077 Z"></path>
                    </g>
                </g>
            </g>
            <g id="CLOCK" transform="translate(520.000000, 0.000000)">
                <path d="M100.99345,108.952088 L16.7882096,108.952088 C11.9126638,108.952088 7.97379913,105.023297 7.97379913,100.16022 L7.97379913,16.1703297 C7.97379913,11.3072527 11.9126638,7.37846154 16.7882096,7.37846154 L100.99345,7.37846154 C105.868996,7.37846154 109.80786,11.3072527 109.80786,16.1703297 L109.80786,100.16022 C109.80786,105.023297 105.844978,108.952088 100.99345,108.952088 Z" id="Path" fill="#FFCF2D" fill-rule="nonzero"></path>
                <path d="M94.8449782,103.322418 L8.98253275,103.322418 C4.1069869,103.322418 0.168122271,99.3936264 0.168122271,94.5305495 L0.168122271,8.88769231 C0.168122271,4.02461538 4.1069869,0.0958241758 8.98253275,0.0958241758 L94.8449782,0.0958241758 C99.720524,0.0958241758 103.659389,4.02461538 103.659389,8.88769231 L103.659389,94.5305495 C103.659389,99.3936264 99.720524,103.322418 94.8449782,103.322418 Z" id="Path" stroke="#FFCF2D" stroke-width="6" fill="#FFFFFF" fill-rule="nonzero"></path>
                <ellipse id="Oval" stroke="#FFCF2D" stroke-width="6" cx="51.9257642" cy="51.6971429" rx="39.628821" ry="39.5274725"></ellipse>
                <polyline id="Path" stroke="#FFCF2D" stroke-width="6" stroke-linecap="round" points="29.6375546 34.7362637 51.9257642 51.6971429 46.4497817 34.9518681"></polyline>
            </g>
            <g id="PAPER" transform="translate(405.000000, 323.000000)" fill-rule="nonzero">
                <polygon id="Path" fill="#FFCF2D" points="96.2546293 34.711374 28.4639375 34.711374 0 0.0728720238 66.1600703 0.0728720238"></polygon>
                <g id="Group" transform="translate(44.362497, 6.558482)" fill="#FFFFFF" stroke="#66B0F0" stroke-width="6">
                    <path d="M88.605096,29.9504018 L88.605096,51.3261954 L34.8905047,51.5448897 C28.0083226,51.5691022 22.4210459,45.9336657 22.4210459,38.9622421 L22.4210459,32.3308879 C22.4210459,27.9099851 20.8144042,23.6591171 17.9368368,20.379876 L0.215817555,0.218616071 L66.3758879,0.218616071 L83.3055761,17.1492163 C86.7106975,20.52562 88.605096,25.1165575 88.605096,29.9504018 Z" id="Path"></path>
                    <path d="M112.776662,43.7960863 C110.498588,48.4113145 105.798561,51.5691022 100.355163,51.5691022 L34.1711128,51.5691022 C39.5905314,51.5691022 44.2905581,48.4113145 46.5926121,43.7960863 L112.776662,43.7960863 Z" id="Path"></path>
                </g>
            </g>
            <g id="CHARACTER" transform="translate(152.000000, 49.000000)">
                <g id="HOODY" transform="translate(0.000000, 61.155506)">
                    <path d="M369.253077,131.712172 L328.880256,60.7717853 C319.242564,43.8161214 301.237821,33.359729 281.746667,33.359729 L130.540385,33.359729 L135.838718,21.920052 C135.407179,22.8553715 133.129615,23.095197 129.653333,22.615546 C124.331026,21.8960694 116.227692,19.569762 107.596923,15.7325537 C102.658205,13.5501415 98.175,11.2717992 94.4589744,9.16133464 C87.4344872,5.15624855 83.1910256,1.65479605 83.8862821,0.0959302056 L6.68884615,126.747784 C-10.2610256,151.473795 7.43205128,185.073364 37.4,185.073364 C41.4276923,185.073364 45.4074359,184.42582 49.1953846,183.154745 C52.9833333,181.88367 56.5555128,180.013031 59.7680769,177.590793 L119.056667,133.00723 C122.628846,130.321184 127.735385,132.407666 128.454615,136.796473 L136.198333,185.073364 L338.206282,185.073364 C365.608974,185.097332 382.79859,155.502863 369.253077,131.712172 Z M279.397179,137.252142 L285.870256,122.526855 C286.973077,120.008687 290.521282,119.960722 291.672051,122.454908 L298.696538,137.276124 L279.397179,137.276124 L279.397179,137.252142 Z" id="Shape" fill="#FE5244" fill-rule="nonzero"></path>
                    <path d="M154.610641,33.3117639 C154.610641,20.9127848 180.191282,5.58793448 211.214103,1.6787786 C257.748333,-4.14898139 267.817564,20.9127848 267.817564,33.3117639" id="Path" stroke="#FE5244" stroke-width="6"></path>
                    <path d="M262.447308,33.5276069 C262.447308,44.6315282 211.214103,67.3669869 211.214103,67.3669869 C211.214103,67.3669869 159.980897,44.6315282 159.980897,33.5276069 C159.980897,22.4236856 184.338846,9.56903801 212.412821,6.13953316 C252.809615,1.19912757 262.447308,22.399703 262.447308,33.5276069 Z" id="Path" fill="#FE5244" fill-rule="nonzero"></path>
                    <path d="M262.447308,33.5276069 C262.447308,44.6315282 211.214103,67.3669869 211.214103,67.3669869 C211.214103,67.3669869 159.980897,44.6315282 159.980897,33.5276069 C159.980897,33.4796418 159.980897,33.4316767 159.980897,33.3837116 L262.447308,33.3837116 C262.447308,33.4076941 262.447308,33.4556592 262.447308,33.5276069 Z" id="Path" fill="#FFFFFF" fill-rule="nonzero"></path>
                    <path d="M267.79359,33.2877814 C267.79359,45.5428651 211.214103,73.4105899 211.214103,73.4105899 C211.214103,73.4105899 154.634615,45.5668477 154.634615,33.2877814" id="Path" stroke="#FFFFFF" stroke-width="6"></path>
                    <path d="M254.87141,184.545733 C258.036026,184.545733 260.601282,174.065358 260.601282,161.162745 C260.601282,148.260133 258.036026,137.779758 254.87141,137.779758" id="Path" stroke="#FFFFFF" stroke-width="5" stroke-linecap="round"></path>
                    <path d="M134.663974,26.6206321 L90.2874359,115.380055" id="Path" stroke="#FFFFFF" stroke-width="5"></path>
                    <path d="M125.026282,113.341538 L132.362436,161.642397" id="Path" stroke="#FFFFFF" stroke-width="5" stroke-linecap="round"></path>
                    <g id="Group" transform="translate(208.097436, 71.228178)" stroke="#FFFFFF" stroke-width="5">
                        <g transform="translate(0.719231, 7.674416)" id="Path" stroke-linecap="round">
                            <path d="M0,0.191860411 L4.79487179,0.191860411"></path>
                            <path d="M0,5.89970765 L4.79487179,5.89970765"></path>
                            <path d="M0,11.5835723 L4.79487179,11.5835723"></path>
                            <path d="M0,17.267437 L4.79487179,17.267437"></path>
                            <path d="M0,22.9513017 L4.79487179,22.9513017"></path>
                            <path d="M0,28.6591489 L4.79487179,28.6591489"></path>
                            <path d="M0,28.922957 L4.79487179,28.922957"></path>
                            <path d="M0,34.6068217 L4.79487179,34.6068217"></path>
                            <path d="M0,40.2906864 L4.79487179,40.2906864"></path>
                            <path d="M0,45.710743 L4.79487179,45.710743"></path>
                            <path d="M0,51.4185902 L4.79487179,51.4185902"></path>
                            <path d="M0,57.1024549 L4.79487179,57.1024549"></path>
                            <path d="M0,62.7863196 L4.79487179,62.7863196"></path>
                            <path d="M0,68.4701843 L4.79487179,68.4701843"></path>
                            <path d="M0,74.1780315 L4.79487179,74.1780315"></path>
                            <path d="M0,79.8618962 L4.79487179,79.8618962"></path>
                            <path d="M0,85.5457609 L4.79487179,85.5457609"></path>
                            <path d="M0,91.2296256 L4.79487179,91.2296256"></path>
                            <path d="M0,91.5174162 L4.79487179,91.5174162"></path>
                            <path d="M0,97.2012809 L4.79487179,97.2012809"></path>
                            <path d="M0,102.885146 L4.79487179,102.885146"></path>
                        </g>
                        <path d="M0.215769231,0.119912757 L0.215769231,90.4142188" id="Path"></path>
                    </g>
                    <path d="M252.090385,137.731793 L309.748718,137.731793" id="Path" stroke="#FFFFFF" stroke-width="5" stroke-linecap="round"></path>
                </g>
                <g id="BOOK" transform="translate(91.582051, 223.757205)">
                    <polygon id="Path" stroke="#66B0F0" stroke-width="6" fill="#FFFFFF" fill-rule="nonzero" points="0.0719230769 69.501434 184.171026 69.501434 166.861538 22.6635111 20.0185897 22.6635111"></polygon>
                    <path d="M0.0719230769,69.501434 C0.0719230769,62.8822498 17.6211538,50.9149566 46.1266667,49.2841432 C76.6460256,47.5573995 92.6369231,66.7434406 92.1814103,69.501434 L0.0719230769,69.501434 Z" id="Path" fill="#66B0F0" fill-rule="nonzero"></path>
                    <path d="M92.1574359,69.501434 C92.1574359,69.501434 84.0541026,31.6090028 12.9221795,39.3313843 L28.2897436,1.94258666 C28.2897436,1.94258666 86.5474359,-8.65770106 92.1814103,22.6635111 L92.1574359,69.501434 Z" id="Path" stroke="#66B0F0" stroke-width="6" fill="#FFFFFF" fill-rule="nonzero" stroke-linejoin="round"></path>
                    <path d="M183.092179,66.5515802 C178.848718,60.6758551 162.498205,54.5363219 138.140256,53.1453339 C109.179231,51.4905379 93.3082051,65.2565224 92.1574359,68.9978004 L92.1574359,22.6635111 C92.1574359,22.6635111 112.823333,-0.935319505 166.861538,22.6635111 L183.092179,66.5515802 Z" id="Path" stroke="#66B0F0" stroke-width="6" fill="#FFFFFF" fill-rule="nonzero" stroke-linejoin="round"></path>
                    <path d="M158.230769,47.1736786 C152.189231,45.6387953 144.877051,44.4876329 136.533974,44.0079818 C132.38641,43.7681563 128.526538,43.8880691 124.978333,44.2717899 C116.179744,45.2550745 109.251154,47.8931552 104.312436,50.7230962" id="Path" stroke="#66B0F0" stroke-width="6" stroke-linecap="round" stroke-linejoin="round"></path>
                    <path d="M156.097051,39.187489 C150.319231,37.8204836 143.43859,36.7892339 135.670897,36.3335654 C131.523333,36.0937399 127.663462,36.2136526 124.115256,36.5973735 C115.316667,37.5806581 108.388077,40.2187387 103.449359,43.0486798" id="Path" stroke="#66B0F0" stroke-width="6" stroke-linecap="round" stroke-linejoin="round"></path>
                    <path d="M154.131154,31.2252819 C148.617051,30.0021718 142.215897,29.0908349 135.02359,28.6591489 C130.876026,28.4193234 127.016154,28.5392362 123.467949,28.922957 C114.669359,29.9062416 107.740769,32.5443223 102.802051,35.3742633" id="Path" stroke="#66B0F0" stroke-width="6" stroke-linecap="round" stroke-linejoin="round"></path>
                    <path d="M162.042692,20.5530466 L177.290385,62.0908256" id="Path" stroke="#66B0F0" stroke-width="6"></path>
                    <path d="M184.195,69.501434 L92.1574359,69.501434 L92.1574359,68.9978004 C93.3082051,65.2565224 109.179231,51.4905379 138.140256,53.1453339 C162.498205,54.5363219 178.848718,60.6758551 183.092179,66.5515802 L184.195,69.501434 Z" id="Path" fill="#66B0F0" fill-rule="nonzero"></path>
                </g>
                <g id="HEAD_1_" transform="translate(149.120513, 0.000000)">
                    <g id="NECK" transform="translate(31.406410, 45.806673)" fill-rule="nonzero">
                        <path d="M60.0557692,48.7085619 C60.0557692,48.7085619 42.8901282,57.6540536 19.0596154,54.0566709 L19.0596154,54.0566709 C13.1379487,53.1693165 6.78474359,51.4905379 0.215769231,48.7085619 L0.215769231,19.83357 L31.0947436,0.599563785 L35.7217949,8.29796279 L60.0557692,48.7085619 Z" id="Path" fill="#E57281"></path>
                        <path d="M32.7969231,2.87790617 C34.6429487,6.30741102 34.9546154,10.3844448 33.6120513,14.0537751 L19.0596154,54.0566709 L19.0596154,54.0566709 C13.1379487,53.1693165 6.78474359,51.4905379 0.215769231,48.7085619 L0.215769231,19.83357 L31.2385897,0 L32.7969231,2.87790617 Z" id="Path" fill="#9A3B82"></path>
                    </g>
                    <path d="M61.5421795,35.7579842 C61.5421795,35.7579842 65.1623077,3.54941761 52.2880769,0.599563785 C42.4585897,-1.65479605 37.5678205,5.75581234 37.5678205,5.75581234 C37.5678205,5.75581234 32.2455128,-2.01453432 23.9983333,1.6308135 C16.1587179,5.0843009 16.7101282,15.8524665 20.234359,14.9890946 C23.7585897,14.1257228 16.83,7.21874798 9.42192308,12.3270314 C1.22269231,17.962931 9.42192308,27.268161 9.42192308,27.268161 C9.42192308,27.268161 3.35641026,24.3422897 0.551410256,30.313945 C-2.92487179,37.7245534 16.9258974,53.6969326 16.9258974,53.6969326 L61.5421795,35.7579842 Z" id="HAIR" fill="#9A3B82" fill-rule="nonzero"></path>
                    <g id="HEAD" transform="translate(13.185897, 19.425867)">
                        <path d="M28.7452564,0.767441645 L8.15128205,9.04142188 C3.18858974,11.0319736 0.767179487,16.7158383 2.75705128,21.6562439 L11.7474359,44.0799295 C15.0558974,52.3539097 24.5497436,56.3829784 32.7969231,53.0733863 L41.3557692,49.6438814 C49.6269231,46.3342893 53.6546154,36.837199 50.3461538,28.5872013 L41.3557692,6.16351571 C39.3658974,1.19912757 33.6839744,-1.22311012 28.7452564,0.767441645 Z" id="HEAD_2_" fill="#E57281" fill-rule="nonzero"></path>
                        <g id="EARS" transform="translate(0.000000, 15.109007)">
                            <path d="M54.4937179,11.7994153 L50.3461538,13.4781939 L45.8389744,2.25435983 L49.9865385,0.575581234 C52.4558974,-0.407703374 55.2369231,0.791424197 56.2198718,3.23764444 L57.1548718,5.56395193 C58.1617949,8.01017217 56.9630769,10.7921481 54.4937179,11.7994153 Z" id="Path" fill="#E57281" fill-rule="nonzero"></path>
                            <path d="M7.28820513,29.834294 L11.4357692,28.1555154 L7.24025641,17.7231055 L3.09269231,19.4018841 C0.623333333,20.3851687 -0.551410256,23.1911272 0.431538462,25.6373475 L1.05487179,27.1722308 C2.03782051,29.618451 4.81884615,30.8175786 7.28820513,29.834294 Z" id="Path" fill="#9A3B82" fill-rule="nonzero"></path>
                            <path d="M49.4351282,8.20203258 C48.6679487,6.25944592 49.6029487,4.07703374 51.5448718,3.28560954" id="Path" stroke="#9A3B82" stroke-width="5" stroke-linecap="round"></path>
                        </g>
                        <g id="FACE" transform="translate(15.583333, 11.751450)">
                            <path d="M13.689359,1.17514502 C13.689359,1.17514502 18.5561538,2.99781893 24.7415385,0.0719476542" id="Path" stroke="#9A3B82" stroke-width="5" stroke-linecap="round"></path>
                            <path d="M3.40435897,9.3771776 C3.40435897,9.3771776 10.6685897,8.63371851 13.3057692,20.8648197" id="Path" stroke="#9A3B82" stroke-width="5" stroke-linecap="round"></path>
                            <path d="M24.0223077,24.8459233 C24.0223077,24.8459233 13.3057692,21.9680171 13.689359,27.5079865" id="Path" stroke="#9A3B82" stroke-width="5" stroke-linecap="round"></path>
                            <ellipse id="Oval" fill="#9A3B82" fill-rule="nonzero" transform="translate(21.714963, 11.219335) rotate(-19.505824) translate(-21.714963, -11.219335) " cx="21.7149626" cy="11.2193349" rx="1" ry="2.42212603"></ellipse>
                            <ellipse id="Oval" fill="#9A3B82" fill-rule="nonzero" transform="translate(1.940542, 19.472448) rotate(-19.505824) translate(-1.940542, -19.472448) " cx="1.94054215" cy="19.472448" rx="1" ry="2.42212603"></ellipse>
                        </g>
                        <g id="GLASSES" transform="translate(10.548718, 15.828484)" stroke="#FFCF2D" stroke-linecap="round" stroke-width="5">
                            <ellipse id="Oval" cx="27.3307692" cy="7.09883522" rx="6.92858974" ry="6.93095736"></ellipse>
                            <ellipse id="Oval" cx="6.9525641" cy="15.0130772" rx="6.92858974" ry="6.93095736"></ellipse>
                            <path d="M13.425641,12.5188918 L20.7378205,9.16133464" id="Path"></path>
                        </g>
                    </g>
                </g>
                <g id="ARMS" transform="translate(85.108974, 22.303773)">
                    <g id="LEFT">
                        <path d="M52.1682051,58.1337046 C51.760641,59.0690241 49.4591026,59.3088496 45.9828205,58.8291986 C40.6605128,58.1097221 32.5571795,55.7834146 23.9264103,51.9462064 C18.9876923,49.7398116 14.5044872,47.4854518 10.8124359,45.3749873 C3.78794872,41.3699012 -0.455512821,37.8684487 0.23974359,36.3095828 L0.23974359,36.3095828 C0.935,34.7746995 6.32923077,35.5181586 13.9530769,37.9883614 C18.0526923,39.3074018 22.775641,41.1300757 27.7623077,43.360453 C36.2971795,47.1496961 43.7052564,50.843009 48.0685897,53.6969326 C51.0414103,55.6155367 52.5997436,57.1744026 52.1682051,58.1337046 Z" id="Path" stroke="#FE5244" stroke-width="6" fill="#FFFFFF" fill-rule="nonzero"></path>
                        <path d="M92.8526923,9.49709036 L86.3316667,34.7027519 L80.4579487,20.0733955 C78.204359,14.4614785 80.9134615,8.03415472 86.4515385,5.68386468 L92.8526923,9.49709036 Z" id="Path" fill="#9A3B82" fill-rule="nonzero"></path>
                        <path d="M93.0924359,9.04142188 L80.1462821,31.48909 C78.6598718,34.0792056 75.8788462,35.6860365 72.8820513,35.6860365 L59.504359,35.6860365 C57.5384615,35.6860365 55.7883333,36.8851641 55.0451282,38.6838554 L48.0925641,53.7209152 L46.0547436,58.1097221 C40.1810256,57.3182979 32.0057692,54.7761474 24.1901282,51.2986775 C21.2652564,50.0036197 18.4123077,48.6366143 15.7751282,47.2696088 L19.299359,39.9069656 L25.6046154,26.7405448 C28.6253846,19.6177271 33.8278205,13.6220892 40.4687179,9.64098567 L53.5107692,1.79869136 C55.2369231,0.767441645 57.2267949,0.215842963 59.240641,0.215842963 L81.3929487,0.215842963 C82.615641,0.215842963 83.814359,0.479651028 84.8932051,1.00726716 L91.5580769,4.17296395 C93.4041026,5.06031835 94.099359,7.29069563 93.0924359,9.04142188 Z" id="Path" fill="#E57281" fill-rule="nonzero"></path>
                        <path d="M61.7819231,9.76089842 L77.605,9.76089842 C78.7797436,9.76089842 79.9305128,10.0247065 80.9853846,10.5283401 L87.3865385,13.5981067 C89.1366667,14.437496 89.8079487,16.5959256 88.8489744,18.2747042" id="Path" stroke="#9A3B82" stroke-width="5" stroke-linecap="round"></path>
                        <path d="M57.8501282,16.571943 L73.6732051,16.571943 C74.8479487,16.571943 75.9987179,16.8357511 77.0535897,17.3393847 L83.4547436,20.4091513 C85.2048718,21.2485406 85.8761538,23.4069702 84.9171795,25.0857488" id="Path" stroke="#9A3B82" stroke-width="5" stroke-linecap="round"></path>
                        <path d="M53.2230769,25.4694696 L69.0461538,25.4694696 C70.2208974,25.4694696 71.3716667,25.7332777 72.4265385,26.2369112 L78.8276923,29.3066778 C80.5778205,30.1460671 81.2491026,32.3044968 80.2901282,33.9832754" id="Path" stroke="#9A3B82" stroke-width="5" stroke-linecap="round"></path>
                        <path d="M46.0787179,58.1097221 C40.205,57.3182979 32.0297436,54.7761474 24.2141026,51.2986775 C21.2892308,50.0036197 18.4362821,48.6366143 15.7991026,47.2696088 L19.7788462,39.1395239 C22.44,40.1467911 25.0532051,41.2979535 27.9780769,42.6169939 C36.5129487,46.406237 43.9689744,50.363358 48.3323077,53.2172816 L46.0787179,58.1097221 Z" id="Path" fill="#9A3B82" fill-rule="nonzero"></path>
                        <path d="M48.5480769,35.0385076 L59.7680769,35.0385076" id="Path" stroke="#9A3B82" stroke-width="5" stroke-linecap="round"></path>
                    </g>
                    <g id="RIGHT" transform="translate(110.761538, 176.031927)">
                        <ellipse id="Oval" fill="#FFFFFF" fill-rule="nonzero" cx="56.1239744" cy="23.9825514" rx="5.72987179" ry="23.9106038"></ellipse>
                        <path d="M61.8538462,23.9825514 C61.8538462,28.0835677 61.6141026,31.9447585 61.1585897,35.3262982 C59.6721795,39.1155414 56.6274359,42.1133603 52.7915385,43.5283308 C51.2332051,44.103912 49.5310256,44.4396678 47.7569231,44.4396678 L26.0121795,44.4396678 C23.2791026,44.4396678 21.0494872,46.670045 21.0494872,49.4040559 L21.0494872,50.0755673 C21.0494872,54.0806534 16.7820513,56.670769 13.2338462,54.80013 L3.02076923,49.452021 C1.19871795,48.492719 0.0479487179,46.5980974 0.0479487179,44.535598 L0.0479487179,36.5494084 C0.0479487179,33.5515894 1.4624359,30.7456309 3.83589744,28.9469396 L19.4192308,17.2194719 C22.0564103,15.2289201 25.2689744,14.1736879 28.5534615,14.1736879 L61.3264103,14.1736879 C61.6860256,17.1715068 61.8538462,20.4810989 61.8538462,23.9825514 Z" id="Path" fill="#E57281" fill-rule="nonzero"></path>
                        <path d="M23.3510256,21.8960694 L9.03833333,32.664235 C6.85666667,34.3190311 5.56205128,36.9091466 5.56205128,39.6431575 L5.56205128,46.9818182 C5.56205128,48.8764398 6.61692308,50.627166 8.29512821,51.4905379" id="Path" stroke="#9A3B82" stroke-width="5" stroke-linecap="round"></path>
                        <path d="M30.6392308,25.1097313 L16.3265385,35.8778969 C14.1448718,37.532693 12.8502564,40.1228085 12.8502564,42.8568194 L12.8502564,50.1954801 C12.8502564,52.0901017 13.9051282,53.8408279 15.5833333,54.7041998" id="Path" stroke="#9A3B82" stroke-width="5" stroke-linecap="round"></path>
                        <path d="M61.8538462,23.9825514 C61.8538462,28.0835677 61.6141026,31.9447585 61.1585897,35.3262982 C59.6721795,39.1155414 56.6274359,42.1133603 52.7915385,43.5283308 C51.3291026,39.187489 50.3701282,32.0646712 50.3701282,23.9825514 C50.3701282,20.4810989 50.5619231,17.1715068 50.8735897,14.1736879 L61.3503846,14.1736879 C61.6860256,17.1715068 61.8538462,20.4810989 61.8538462,23.9825514 Z" id="Path" fill="#9A3B82" fill-rule="nonzero"></path>
                    </g>
                </g>
            </g>
            <g id="CUP" transform="translate(425.000000, 223.000000)">
                <ellipse id="Oval" fill="#FFCF2D" fill-rule="nonzero" cx="26.2495356" cy="80.6626437" rx="26.1770898" ry="2.1704023"></ellipse>
                <path d="M48.0315789,82.3083333 L37.2130031,82.3083333 C27.1671827,82.3083333 19.0532508,74.2706897 19.0532508,64.3727011 L19.0532508,49.1321839 L66.2154799,49.1321839 L66.2154799,64.3488506 C66.2154799,74.2706897 58.0773994,82.3083333 48.0315789,82.3083333 Z" id="Path" stroke="#FFCF2D" stroke-width="6" fill="#FFFFFF" fill-rule="nonzero"></path>
                <path d="M72.8080495,62.1784483 L66.1913313,62.1784483 L66.1913313,50.5632184 L72.8080495,50.5632184 C75.6334365,50.5632184 77.9517028,52.829023 77.9517028,55.6433908 L77.9517028,57.1221264 C77.9517028,59.9126437 75.6334365,62.1784483 72.8080495,62.1784483 Z" id="Path" stroke="#FFCF2D" stroke-width="6"></path>
                <ellipse id="Oval" stroke="#FFFFFF" stroke-width="5" fill="#3FB1B5" fill-rule="nonzero" cx="42.622291" cy="48.9652299" rx="23.7863777" ry="4.69856322"></ellipse>
                <g id="Group" transform="translate(19.077399, 52.709770)" stroke="#FFCF2D" stroke-width="6">
                    <path d="M0,0.0715517241 C0,2.67126437 10.5529412,4.77011494 23.5448916,4.77011494 C36.5368421,4.77011494 47.0897833,2.67126437 47.0897833,0.0715517241" id="Path"></path>
                    <path d="M0,5.05632184 C0,7.65603448 10.5529412,9.75488506 23.5448916,9.75488506 C36.5368421,9.75488506 47.0897833,7.65603448 47.0897833,5.05632184" id="Path"></path>
                    <path d="M0,10.041092 C0,12.6408046 10.5529412,14.7396552 23.5448916,14.7396552 C36.5368421,14.7396552 47.0897833,12.6408046 47.0897833,10.041092" id="Path"></path>
                    <path d="M0.362229102,15.0258621 C0.362229102,17.6255747 10.74613,19.7244253 23.5448916,19.7244253 C36.3436533,19.7244253 46.7275542,17.6255747 46.7275542,15.0258621" id="Path"></path>
                    <path d="M2.17337461,20.0106322 C2.17337461,22.6103448 11.7362229,24.7091954 23.5448916,24.7091954 C35.3535604,24.7091954 44.9164087,22.6103448 44.9164087,20.0106322" id="Path"></path>
                </g>
                <path d="M41.6804954,40.6175287 C39.3622291,39.0433908 32.1417957,24.0413793 41.0767802,17.9117816 C47.9349845,13.1893678 49.2631579,25.4247126 46.0996904,24.3991379 C40.593808,22.6103448 37.2371517,-1.33563218 51.6055728,0.143103448 C57.9325077,0.787068966 57.2321981,9.68333333 51.6055728,9.92183908" id="Path" stroke="#FFFFFF" stroke-width="5" stroke-linecap="round"></path>
            </g>
            <g id="LAPTOP" transform="translate(30.000000, 242.000000)" fill-rule="nonzero">
                <path d="M158.250177,92.4078199 L40.1512367,92.4078199 C36.9795053,92.4078199 34.1441696,90.493128 32.9667845,87.5732227 L0.648763251,8.01777251 C-0.889045936,4.21232227 1.92226148,0.0478672986 6.03109541,0.0478672986 L124.130035,0.0478672986 C127.301767,0.0478672986 130.137102,1.96255924 131.314488,4.88246445 L163.632509,84.4379147 C165.194346,88.2433649 162.383039,92.4078199 158.250177,92.4078199 Z" id="Path" stroke="#FFCF2D" stroke-width="6" fill="#FFFFFF"></path>
                <path d="M152.771731,92.9822275 L40.1031802,92.9822275 C37.0996466,92.9822275 34.3844523,91.1632701 33.2551237,88.3869668 L2.42685512,12.4933649 C0.961130742,8.85545024 3.62826855,4.9063981 7.56890459,4.9063981 L120.237456,4.9063981 C123.240989,4.9063981 125.956184,6.72535545 127.085512,9.50165877 L157.913781,85.3952607 C159.379505,89.0331754 156.688339,92.9822275 152.771731,92.9822275 Z" id="Path" fill="#FFCF2D"></path>
                <path d="M83.5943463,58.4699052 C80.2784452,58.4699052 77.1547703,57.1774882 74.8,54.8319905 C72.8777385,52.9172986 71.8204947,50.3803318 71.8204947,47.699763 C71.8204947,44.9952607 72.8777385,42.4582938 74.8,40.5675355 C76.3618375,39.0118483 78.4522968,38.150237 80.6628975,38.150237 C82.8734982,38.150237 84.9639576,39.0118483 86.5257951,40.5675355 C89.1929329,43.2241706 89.1929329,47.5322275 86.5257951,50.1888626 C84.3151943,52.3907583 80.7349823,52.3907583 78.5243816,50.1888626 C78.1399293,49.8059242 78.1399293,49.2075829 78.5243816,48.8246445 C78.9088339,48.4417062 79.5095406,48.4417062 79.8939929,48.8246445 C81.3597173,50.2845972 83.7144876,50.2845972 85.180212,48.8246445 C87.1024735,46.9099526 87.1024735,43.8225118 85.180212,41.9078199 C83.9787986,40.7111374 82.3689046,40.0409953 80.6628975,40.0409953 C78.9568905,40.0409953 77.3469965,40.7111374 76.145583,41.9078199 C74.5837456,43.4635071 73.7427562,45.4978673 73.7427562,47.699763 C73.7427562,49.8777251 74.6077739,51.936019 76.145583,53.4917062 C78.1399293,55.4781991 80.7590106,56.5552133 83.570318,56.5552133 C86.3816254,56.5552133 89.024735,55.4781991 90.995053,53.4917062 C91.3795053,53.1087678 91.980212,53.1087678 92.3646643,53.4917062 C92.7491166,53.8746445 92.7491166,54.4729858 92.3646643,54.8559242 C90.0339223,57.1774882 86.9102473,58.4699052 83.5943463,58.4699052 Z" id="Path" fill="#FFFFFF"></path>
                <path d="M200.515901,100.832464 L40.2954064,100.832464 C38.4452297,100.832464 36.955477,99.3485782 36.955477,97.5056872 L36.955477,95.9021327 C36.955477,94.0592417 38.4452297,92.5753555 40.2954064,92.5753555 L200.515901,92.5753555 C202.366078,92.5753555 203.85583,94.0592417 203.85583,95.9021327 L203.85583,97.5056872 C203.831802,99.3485782 202.342049,100.832464 200.515901,100.832464 Z" id="Path" stroke="#FFCF2D" stroke-width="6" fill="#FFFFFF"></path>
            </g>
        </g>
    </g>
</svg>