<?xml version="1.0" encoding="UTF-8"?>
<svg width="653px" height="690px" viewBox="0 0 653 690" version="1.1" xmlns="http://www.w3.org/2000/svg" xmlns:xlink="http://www.w3.org/1999/xlink">
    <!-- Generator: Sketch 58 (84663) - https://sketch.com -->
    <title>Group 81</title>
    <desc>Created with Sketch.</desc>
    <g id="Page-1" stroke="none" stroke-width="1" fill="none" fill-rule="evenodd">
        <g id="Sign-In-PT" transform="translate(-703.000000, -80.000000)">
            <g id="Group-81" transform="translate(703.000000, 80.000000)">
                <g id="Group-79" transform="translate(157.532400, 0.000000)">
                    <g id="Group-77" transform="translate(0.000000, 0.088520)">
                        <path d="M34.4988,0.72888 C15.4056,0.72888 0,16.12608 0,35.21928 L0,35.21928 L0,635.09688 C0,637.51608 0.294,639.83448 0.6804,642.16968 L0.6804,642.16968 C2.226,649.53648 6.1992,656.11368 11.7264,661.05288 L11.7264,661.05288 C17.7324,666.39528 25.7712,669.58728 34.4988,669.58728 L34.4988,669.58728 L460.3536,669.58728 C479.4384,669.58728 494.844,654.08088 494.844,635.09688 L494.844,635.09688 L494.844,35.21928 C494.844,16.12608 479.4384,0.72888 460.3536,0.72888 L460.3536,0.72888 L34.4988,0.72888 Z" id="Fill-258" fill="#66B0F0"></path>
                        <g id="Group-76" transform="translate(8.002800, 20.400000)">
                            <path d="M478.83348,32.4744 L478.83348,597.0216 C478.83348,614.9556 463.88988,629.496 445.44348,629.496 L33.38988,629.496 C14.94348,629.496 0.00828,614.9556 0.00828,597.0216 L0.00828,32.4744 C0.00828,14.5404 14.94348,0 33.38988,0 L445.44348,0 C463.88988,0 478.83348,14.5404 478.83348,32.4744" id="Fill-261" fill="#FFFFFF"></path>
                            <g id="Group-75" transform="translate(24.000000, 88.697280)" fill="#A3CFF6">
                                <g id="Group-74" transform="translate(0.008400, 0.000000)">
                                    <path d="M37.23,0 C17.1288,0 0.8328,16.3044 0.8328,36.3972 L0.8328,36.3972 L0.8328,109.368 C0.8328,129.4692 17.1288,145.7568 37.23,145.7568 L37.23,145.7568 L144.9936,145.7568 C165.1032,145.7568 181.3908,129.4692 181.3908,109.368 L181.3908,109.368 L181.3908,36.3972 C181.3908,16.3044 165.1032,0 144.9936,0 L144.9936,0 L37.23,0 Z" id="Fill-268"></path>
                                    <g id="Group-71" transform="translate(235.772400, 32.088000)">
                                        <polygon id="Fill-271" points="-4.35207426e-14 15.834 112.9464 15.834 112.9464 0 -4.35207426e-14 0"></polygon>
                                        <polygon id="Fill-273" points="2.66453526e-14 57.6996 192.528 57.6996 192.528 41.8656 2.66453526e-14 41.8656"></polygon>
                                        <polygon id="Fill-275" points="2.66453526e-14 99.5568 192.528 99.5568 192.528 83.7228 2.66453526e-14 83.7228"></polygon>
                                    </g>
                                    <g id="Group-73" transform="translate(7.200000, 199.525200)">
                                        <polygon id="Fill-277" points="5.59552404e-14 15.834 109.7292 15.834 109.7292 -6.99440506e-15 5.59552404e-14 -6.99440506e-15"></polygon>
                                        <polygon id="Fill-279" points="-8.52651283e-14 63.756 165.0684 63.756 165.0684 47.9136 -8.52651283e-14 47.9136"></polygon>
                                        <polygon id="Fill-281" points="-8.52651283e-14 111.678 165.0684 111.678 165.0684 95.8356 -8.52651283e-14 95.8356"></polygon>
                                        <polygon id="Fill-283" points="-8.52651283e-14 159.5916 165.0684 159.5916 165.0684 143.7576 -8.52651283e-14 143.7576"></polygon>
                                    </g>
                                    <g id="Group-72" transform="translate(258.561600, 199.525200)">
                                        <polygon id="Fill-285" points="5.59552404e-14 15.834 109.7292 15.834 109.7292 -6.99440506e-15 5.59552404e-14 -6.99440506e-15"></polygon>
                                        <polygon id="Fill-287" points="-1.86517468e-13 63.756 165.06 63.756 165.06 47.9136 -1.86517468e-13 47.9136"></polygon>
                                        <polygon id="Fill-289" points="-1.86517468e-13 111.678 165.06 111.678 165.06 95.8356 -1.86517468e-13 95.8356"></polygon>
                                        <polygon id="Fill-291" points="-1.86517468e-13 159.5916 165.06 159.5916 165.06 143.7576 -1.86517468e-13 143.7576"></polygon>
                                    </g>
                                </g>
                                <path d="M28.116,416.4384 C16.5576,416.4384 7.2,425.796 7.2,437.346 L7.2,437.346 L7.2,466.2672 C7.2,477.8172 16.5576,487.1748 28.116,487.1748 L28.116,487.1748 L402.7224,487.1748 C414.2724,487.1748 423.63,477.8172 423.63,466.2672 L423.63,466.2672 L423.63,437.346 C423.63,425.796 414.2724,416.4384 402.7224,416.4384 L402.7224,416.4384 L28.116,416.4384 Z" id="Fill-294"></path>
                            </g>
                        </g>
                    </g>
                    <g id="Group-78" transform="translate(0.008400, 0.200000)">
                        <path d="M34.4988,0.6258 C15.4392,0.6258 0,16.065 0,35.1246 L0,35.1246 L0,38.4258 C0,57.4854 15.4392,72.9246 34.4988,72.9246 L34.4988,72.9246 L460.3284,72.9246 C479.388,72.9246 494.8188,57.4854 494.8188,38.4258 L494.8188,38.4258 L494.8188,35.1246 C494.8188,16.065 479.388,0.6258 460.3284,0.6258 L460.3284,0.6258 L34.4988,0.6258 Z" id="Fill-263" fill="#66B0F0"></path>
                        <path d="M69.42852,36.7752 C69.42852,43.1676 64.24572,48.3504 57.84492,48.3504 C51.45252,48.3504 46.26972,43.1676 46.26972,36.7752 C46.26972,30.3828 51.45252,25.2 57.84492,25.2 C64.24572,25.2 69.42852,30.3828 69.42852,36.7752" id="Fill-266" fill="#FFFFFF"></path>
                    </g>
                </g>
                <g id="Group-80" transform="translate(0.000000, 95.816494)">
                    <path d="M140.86092,109.675306 C134.45172,105.592906 129.78972,102.829306 127.02612,95.6893063 C125.12772,90.4477063 126.14412,86.8021063 127.89972,81.4177063 C130.52052,73.2613063 138.53412,71.2201063 139.39932,62.7697063 C140.13012,55.1929063 131.67972,51.9925063 132.69612,44.4157063 C133.87212,35.8225063 138.67692,31.5973063 145.52292,26.4985063 C155.42652,19.0645063 163.58292,12.9493063 175.52772,16.3009063 C184.85172,18.9217063 190.68132,25.6249063 191.41212,35.2345063 C192.27732,45.7261063 181.06332,48.4897063 177.42612,58.4017063 C174.94812,64.9537063 175.24212,69.0361063 174.36012,75.8821063 C172.47012,90.5905063 180.18972,101.955706 171.15132,113.606506 C168.53892,116.958106 165.18732,117.100906 160.96212,116.958106 C152.51172,116.815306 147.84972,114.194506 140.86092,109.675306" id="Fill-308" fill="#000000"></path>
                    <g id="Group-70">
                        <g id="Group-69" transform="translate(0.000000, 62.004563)">
                            <g id="Group-68" transform="translate(0.000000, 0.714743)">
                                <g id="Group-67">
                                    <g id="Group-66" transform="translate(0.000000, 4.976103)">
                                        <g id="Group-62" transform="translate(0.000000, 138.999897)">
                                            <path d="M55.3632,302.1228 C40.8144,309.7668 28.6764,320.0232 19.0416,332.7912 L19.0416,332.7912 C26.2656,341.2752 34.5312,346.6176 43.116,349.5408 L43.116,349.5408 C45.8292,350.49 48.5592,351.1116 51.39,351.4308 L51.39,351.4308 C55.2624,352.1616 59.2356,352.2624 63.1164,351.9516 L63.1164,351.9516 C84.3684,350.49 104.7804,336.2436 114.6168,316.26 L114.6168,316.26 L114.2976,316.1508 L67.2996,296.4696 C63.1164,298.1412 59.1264,300.0312 55.3632,302.1228" id="Fill-315" fill="#D9AB00"></path>
                                            <path d="M66.88548,319.60404 L66.36468,324.10644 L63.11388,351.95244 L61.33308,367.24044 C58.61148,371.21364 54.20988,372.67524 49.71588,372.78444 C44.06268,372.89364 38.19948,371.00364 35.47788,369.95364 C38.40108,367.97124 41.23188,365.35044 43.85268,362.10804 L43.12188,349.54164 L41.34108,321.69564 L41.13108,317.71404 L51.07668,318.45324 L66.88548,319.60404 Z" id="Fill-318" fill="#FFB26C"></path>
                                            <path d="M46.7784,147.714 L19.0416,332.7912 C26.7864,326.0964 34.2204,322.854 41.3436,321.6948 L41.3436,321.6948 C44.4768,321.1824 47.6184,321.0732 50.6508,321.2748 L50.6508,321.2748 C56.1024,321.594 61.3272,322.7448 66.3588,324.1056 L66.3588,324.1056 C83.7384,328.818 99.3372,335.7228 114.2976,316.3608 L114.2976,316.3608 L114.2976,316.1508 L85.9308,144.8832 C103.5204,122.3712 125.814,100.2876 141.6228,71.9208 L141.6228,71.9208 C151.2576,54.6504 158.4816,35.1792 160.674,11.6172 L160.674,11.6172 L104.7804,0 C77.4468,50.988 58.0932,97.566 46.7784,147.714" id="Fill-320" fill="#FFCF2D"></path>
                                            <path d="M163.824,312.7992 C146.5452,324.1056 133.458,338.4444 124.7724,355.824 L124.7724,355.824 C133.3572,362.7372 142.362,366.6096 151.3668,367.8612 L151.3668,367.8612 C154.08,368.3904 156.9024,368.4996 159.6324,368.4996 L159.6324,368.4996 C163.7148,368.3904 167.6964,367.8612 171.5604,366.7104 L171.5604,366.7104 C192.1908,361.4772 209.7804,343.7868 215.8452,322.434 L215.8452,322.434 L215.4252,322.3248 L165.7056,311.4384 C165.0756,311.8584 164.4372,312.2784 163.824,312.7992" id="Fill-328" fill="#D9AB00"></path>
                                            <g id="Group-65" transform="translate(0.656259, 333.314040)">
                                                <g id="Group-63" transform="translate(142.821621, 0.000000)" fill="#FFB26C">
                                                    <path d="M29.03088,48.7902 C27.14088,53.0826 23.37768,55.275 19.18608,56.2242 C13.43208,57.585 7.04808,56.745 4.11648,56.115 C6.62808,53.7126 8.92968,50.571 10.92048,46.9002 L7.87968,34.5522 L1.18488,7.647 L0.23568,3.7746 L11.97048,2.5146 L25.99848,0.9522 L26.30928,5.5554 L28.09008,33.4014 L29.03088,48.7902 Z" id="Fill-331"></path>
                                                </g>
                                                <g id="Group-64" transform="translate(0.000000, 33.193560)" fill="#3FB1B5">
                                                    <path d="M49.0621411,6.276 C43.4089411,6.3852 37.5373411,4.5036 34.8157411,3.4452 L34.8157411,3.4452 C16.6045411,16.5408 -4.64745889,9.2076 0.896541111,23.9748 L0.896541111,23.9748 C11.5813411,27.8472 22.9885411,28.368 33.6733411,27.4272 L33.6733411,27.4272 C44.3413411,26.5872 54.3961411,24.3864 62.5609411,22.8156 L62.5609411,22.8156 C64.3417411,16.0116 63.6109411,8.6868 60.6709411,0.732 L60.6709411,0.732 C57.9493411,4.7052 53.5561411,6.1668 49.0621411,6.276" id="Fill-323"></path>
                                                    <path d="M162.008541,23.0256 C156.246141,24.3864 149.870541,23.5464 146.938941,22.9248 L146.938941,22.9248 C131.340141,39.0444 109.147341,35.6928 117.202941,49.1916 L117.202941,49.1916 C128.097741,50.9808 138.874941,49.62 149.030541,46.9908 L149.030541,46.9908 C159.807741,44.2692 169.652541,40.0944 177.708141,37.0536 L177.708141,37.0536 C178.228941,30.048 176.145741,22.9248 171.853341,15.6 L171.853341,15.6 C169.971741,19.884 166.200141,22.0848 162.008541,23.0256" id="Fill-336"></path>
                                                </g>
                                            </g>
                                            <path d="M118.8,168.756 L124.7724,355.824 C131.1564,347.8776 137.8596,343.3668 144.6552,340.956 L144.6552,340.956 C147.906,339.7044 151.2576,339.0828 154.5,338.7552 L154.5,338.7552 C159.6324,338.1336 164.7648,338.352 169.788,338.8644 L169.788,338.8644 C187.68,340.3344 204.228,344.316 215.5344,322.6356 L215.5344,322.6356 L215.4252,322.3248 L156.8016,159.0204 C178.1628,118.2972 211.7628,76.6332 206.4288,14.448 L206.4288,14.448 L187.8984,12.7764 L148.746,9.2148 C130.9464,64.2852 121.0008,117.4572 118.8,168.756" id="Fill-333" fill="#FFCF2D"></path>
                                        </g>
                                        <g id="Group-61" transform="translate(18.200943, 0.000000)">
                                            <g id="Group-59">
                                                <path d="M129.288417,54.313617 C128.767617,56.413617 128.347617,58.396017 127.818417,60.386817 C112.849617,118.069617 87.1036173,155.332017 61.6600173,140.993217 C44.0704173,128.536017 21.1468173,74.624817 2.61641734,27.408417 C1.99481734,25.837617 1.46561734,24.376017 0.835617343,22.805217 L15.3844173,15.472017 L71.7148173,102.361617 C84.4828173,67.291617 96.4192173,26.988417 113.269617,16.732017 L129.288417,54.313617 Z" id="Fill-310" fill="#FFB26C"></path>
                                                <path d="M113.274657,16.729497 C95.1642573,59.964297 130.225857,101.006697 76.6338573,146.853897 L76.6338573,146.853897 C83.4294573,158.689497 92.1234573,166.333497 101.959857,170.827497 L101.959857,170.827497 C128.974257,183.393897 164.044257,173.028297 188.740257,167.585097 L188.740257,167.585097 C196.392657,168.836697 209.471457,64.265097 197.333457,19.451097 L197.333457,19.451097 C196.174257,15.049497 194.821857,11.185497 193.041057,8.04389702 L193.041057,8.04389702 C180.415857,3.49109702 167.899857,0.399897021 155.686257,0.399897021 L155.686257,0.399897021 C140.977857,0.399897021 126.714657,4.89389702 113.274657,16.729497" id="Fill-341" fill="#3FB1B5"></path>
                                                <path d="M0.885177343,22.809417 C-1.72722266,15.770217 1.68317734,7.34501702 7.95797734,6.09341702 C15.8203773,4.52261702 19.2055773,23.229417 14.2075773,27.017817 C8.63837734,31.234617 0.885177343,22.809417 0.885177343,22.809417" id="Fill-364" fill="#FFB26C"></path>
                                            </g>
                                            <path d="M217.956297,52.221177 C198.384297,86.971977 178.182297,137.119977 160.483497,129.475977 C132.015897,111.474777 99.8690973,81.948777 66.1682973,48.029577 C65.1182973,47.088777 64.1690973,46.047177 63.1274973,44.997177 L73.5938973,32.959977 L160.483497,91.785177 L180.895497,4.48397702 L205.398297,35.992377 L217.956297,52.221177 Z" id="Fill-350" fill="#FFB26C"></path>
                                        </g>
                                    </g>
                                    <path d="M21.0744,6.804 L26.7864,33.2892 C27.7944,37.9596 32.2884,42.5964 36.8244,43.6296 L36.8244,43.6296 L88.2408,55.3644 C92.7768,56.3976 95.6412,53.4492 94.6248,48.762 L94.6248,48.762 L88.9128,22.2852 C87.9048,17.6064 83.4108,12.9696 78.8748,11.9364 L78.8748,11.9364 L27.45,0.21 C26.8452,0.0672 26.2572,0 25.7112,0 L25.7112,0 C22.2168,0 20.2008,2.7552 21.0744,6.804" id="Fill-357" fill="#464646"></path>
                                </g>
                            </g>
                            <path d="M37.87944,23.9432633 C38.17344,25.3040633 37.35024,26.1608633 36.02304,25.8668633 C34.70424,25.5644633 33.40224,24.2120633 33.10824,22.8596633 C32.80584,21.4904633 33.64584,20.6336633 34.95624,20.9360633 C36.28344,21.2384633 37.58544,22.5824633 37.87944,23.9432633" id="Fill-360" fill="#FFFFFF"></path>
                            <path d="M43.95768,25.3292633 C44.10888,26.0432633 43.67208,26.4968633 42.98328,26.3372633 C42.28608,26.1860633 41.59728,25.4720633 41.43768,24.7580633 C41.28648,24.0440633 41.72328,23.5820633 42.41208,23.7500633 C43.10928,23.9012633 43.79808,24.6152633 43.95768,25.3292633" id="Fill-362" fill="#FFFFFF"></path>
                        </g>
                        <g id="Group-60" transform="translate(147.453435, 0.000000)">
                            <path d="M15.8430452,68.7412663 C21.2358452,80.6860663 28.0734452,80.8288663 36.2382452,69.1780663 C32.2986452,65.0956663 32.2986452,57.8128663 36.2382452,46.8928663 L19.4802452,45.8680663 C23.7054452,56.9392663 22.5378452,64.5160663 15.8430452,68.7412663" id="Fill-346" fill="#FFB26C"></path>
                            <path d="M8.84584519,20.6714263 C6.51904519,33.3470263 7.24984519,46.3082263 11.0298452,59.5634263 C14.6670452,65.3930263 23.8482452,63.2090263 38.5650452,52.8686263 L34.7766452,17.4710263 L8.84584519,20.6714263 Z" id="Fill-348" fill="#FFB26C"></path>
                            <path d="M18.1732052,35.6746663 C15.6952052,34.0702663 13.6540052,37.1278663 10.5964052,36.8422663 C7.83280519,36.4054663 5.64880519,36.1114663 3.89320519,33.9274663 C-0.768794806,27.9550663 -0.474794806,22.2766663 0.844005194,14.8426663 C1.86040519,9.44986626 3.60760519,5.95546626 8.11840519,2.60386626 C11.1760052,0.277066255 13.9480052,-0.302533745 17.8792052,0.134266255 C27.3460052,1.30186626 30.2608052,9.44986626 39.4336052,11.3482663 C44.3896052,12.3730663 47.4472052,8.72746626 52.1092052,10.3318663 C53.7052052,10.9114663 54.2932052,11.9278663 55.3180052,13.2466663 C56.9140052,15.1366663 58.0816052,16.3042663 58.3756052,18.7738663 C59.0980052,25.1830663 52.2604052,28.2490663 53.4196052,34.6498663 C55.0240052,42.8146663 63.0376052,43.8310663 66.6748052,51.2566663 C68.1280052,54.1798663 67.4056052,56.5066663 68.8588052,59.4214663 C70.7572052,63.0586663 73.9660052,63.6466663 75.5620052,67.2838663 C78.1912052,72.9622663 79.6360052,77.1874663 77.8888052,83.1598663 C77.8888052,83.3026663 77.6032052,83.3026663 77.6032052,83.4538663 C78.3256052,121.909066 137.621205,119.867866 142.132005,158.037466 C145.046805,182.506666 134.412405,201.440266 113.286405,214.115866 C106.448805,218.198266 99.8884052,217.753066 92.8996052,213.821866 C82.8448052,208.143466 85.9024052,196.341466 77.3092052,188.621866 C58.3756052,171.578266 32.4448052,181.490266 18.3160052,160.221466 C8.69800519,145.798666 15.2584052,133.274266 16.2748052,115.936666 C17.4424052,95.8354663 25.4476052,85.2010663 24.7252052,64.9570663 C24.8764052,53.2978663 27.9256052,42.2266663 18.1732052,35.6746663" id="Fill-354" fill="#000000"></path>
                        </g>
                    </g>
                </g>
            </g>
        </g>
    </g>
</svg>