<?xml version="1.0" encoding="UTF-8"?>
<svg width="30px" height="27px" viewBox="0 0 30 27" version="1.1" xmlns="http://www.w3.org/2000/svg" xmlns:xlink="http://www.w3.org/1999/xlink">
    <!-- Generator: Sketch 58 (84663) - https://sketch.com -->
    <title>Icon/Comment</title>
    <desc>Created with Sketch.</desc>
    <defs>
        <path d="M4.33333333,2.66666667 C3.59695367,2.66666667 3,3.26362033 3,4 L3,17.3333333 C3,18.069713 3.59695367,18.6666667 4.33333333,18.6666667 L17.6666667,18.6666667 L23,24 L23,18.6666667 L25.6666667,18.6666667 C26.4030463,18.6666667 27,18.069713 27,17.3333333 L27,4 C27,3.26362033 26.4030463,2.66666667 25.6666667,2.66666667 L4.33333333,2.66666667 Z M25.6666667,0 C27.8758057,0 29.6666667,1.790861 29.6666667,4 L29.6666667,17.3333333 C29.6666667,19.5424723 27.8758057,21.3333333 25.6666667,21.3333333 L25.6666667,24 C25.6666667,26.3757463 22.7942882,27.5655244 21.1143819,25.8856181 L16.5620972,21.3333333 L4.33333333,21.3333333 C2.12419433,21.3333333 0.333333333,19.5424723 0.333333333,17.3333333 L0.333333333,4 C0.333333333,1.790861 2.12419433,0 4.33333333,0 L25.6666667,0 Z M16.3333333,12 L7,12 C6.26362033,12 5.66666667,12.5969537 5.66666667,13.3333333 C5.66666667,14.069713 6.26362033,14.6666667 7,14.6666667 L7,14.6666667 L16.3333333,14.6666667 C17.069713,14.6666667 17.6666667,14.069713 17.6666667,13.3333333 C17.6666667,12.5969537 17.069713,12 16.3333333,12 L16.3333333,12 Z M23,6.66666667 L7,6.66666667 C6.26362033,6.66666667 5.66666667,7.26362033 5.66666667,8 C5.66666667,8.69306322 6.19545607,9.26262105 6.8715911,9.32722971 L7,9.33333333 L23,9.33333333 C23.7363797,9.33333333 24.3333333,8.73637967 24.3333333,8 C24.3333333,7.26362033 23.7363797,6.66666667 23,6.66666667 Z" id="path-1"></path>
    </defs>
    <g id="Page-1" stroke="none" stroke-width="1" fill="none" fill-rule="evenodd">
        <g id="Icon/Comment">
            <g>
                <mask id="mask-2" fill="white">
                    <use xlink:href="#path-1"></use>
                </mask>
                <use id="Mask" fill="#2c2738" fill-rule="nonzero" xlink:href="#path-1"></use>
            </g>
        </g>
    </g>
</svg>