<?xml version="1.0" encoding="UTF-8"?>
<svg width="28px" height="28px" viewBox="0 0 28 28" version="1.1" xmlns="http://www.w3.org/2000/svg" xmlns:xlink="http://www.w3.org/1999/xlink">
    <!-- Generator: Sketch 58 (84663) - https://sketch.com -->
    <title>Contents</title>
    <desc>Created with Sketch.</desc>
    <defs>
        <path d="M24.6666667,0.666666667 C26.139426,0.666666667 27.3333333,1.860574 27.3333333,3.33333333 L27.3333333,24.6666667 C27.3333333,26.139426 26.139426,27.3333333 24.6666667,27.3333333 L3.33333333,27.3333333 C1.860574,27.3333333 0.666666667,26.139426 0.666666667,24.6666667 L0.666666667,3.33333333 C0.666666667,1.860574 1.860574,0.666666667 3.33333333,0.666666667 L24.6666667,0.666666667 Z M21.6573803,10.636853 L14.5950581,19.89787 C14.1077526,20.5368871 13.1700953,20.6028135 12.5981679,20.0382709 L9.90221103,17.3771247 L4.14966667,24.6666667 L24.6666667,24.6666667 L24.6666667,13.8946667 L21.6573803,10.636853 Z M24.6666667,3.33333333 L3.33333333,3.33333333 L3.33266667,21.3966667 L8.73177888,14.5555636 C9.22411468,13.9316373 10.1495102,13.8742628 10.7151459,14.432595 L13.3932828,17.0761513 L20.4995057,7.75756617 C21.001869,7.09880345 21.9770499,7.05281881 22.539174,7.66138565 L24.6666667,9.96466667 L24.6666667,3.33333333 Z M10,4.66666667 C12.209139,4.66666667 14,6.45752767 14,8.66666667 C14,10.8758057 12.209139,12.6666667 10,12.6666667 C7.790861,12.6666667 6,10.8758057 6,8.66666667 C6,6.45752767 7.790861,4.66666667 10,4.66666667 Z M10,10 C10.7363797,10 11.3333333,9.40304633 11.3333333,8.66666667 C11.3333333,7.930287 10.7363797,7.33333333 10,7.33333333 C9.26362033,7.33333333 8.66666667,7.930287 8.66666667,8.66666667 C8.66666667,9.40304633 9.26362033,10 10,10 Z" id="path-1"></path>
    </defs>
    <g id="Page-1" stroke="none" stroke-width="1" fill="none" fill-rule="evenodd">
        <g id="#1-PT" transform="translate(-857.000000, -2014.000000)">
            <g id="Group-43" transform="translate(857.000000, 2009.000000)">
                <g id="Contents" transform="translate(0.000000, 5.000000)">
                    <g id="Icon/Image">
                        <mask id="mask-2" fill="white">
                            <use xlink:href="#path-1"></use>
                        </mask>
                        <use id="Mask" fill="#000000" fill-rule="nonzero" xlink:href="#path-1"></use>
                        <g id="Icon/🖌-Fill/Dark" mask="url(#mask-2)" fill="#2C2738">
                            <g transform="translate(-6.000000, -6.000000)">
                                <rect x="0" y="0" width="40" height="40"></rect>
                            </g>
                        </g>
                    </g>
                </g>
            </g>
        </g>
    </g>
</svg>