<?xml version="1.0" encoding="UTF-8"?>
<svg width="30px" height="24px" viewBox="0 0 28 24" version="1.1" xmlns="http://www.w3.org/2000/svg" xmlns:xlink="http://www.w3.org/1999/xlink">
    <!-- Generator: Sketch 58 (84663) - https://sketch.com -->
    <title>Icon/Desktop</title>
    <desc>Created with Sketch.</desc>
    <defs>
        <path d="M8.33333333,24 C7.78104858,24 7.33333333,23.5522847 7.33333333,23 L7.33333333,22.3333333 C7.33333333,21.7810486 7.78104858,21.3333333 8.33333333,21.3333333 L9.99966667,21.333 L9.99966667,20 L3.33333333,20 C1.860574,20 0.666666667,18.8060927 0.666666667,17.3333333 L0.666666667,2.66666667 C0.666666667,1.19390733 1.860574,0 3.33333333,0 L24.6666667,0 C26.139426,0 27.3333333,1.19390733 27.3333333,2.66666667 L27.3333333,17.3333333 C27.3333333,18.8060927 26.139426,20 24.6666667,20 L17.9996667,20 L17.9996667,21.333 L19.6666667,21.3333333 C20.2189514,21.3333333 20.6666667,21.7810486 20.6666667,22.3333333 L20.6666667,23 C20.6666667,23.5522847 20.2189514,24 19.6666667,24 L18,24 L15.3333333,24 L8.33333333,24 Z M15.3326667,21.333 L15.3326667,20 L12.6666667,20 L12.6666667,21.333 L15.3326667,21.333 Z M24.6666667,13.333 L3.33266667,13.333 L3.33333333,17.3333333 L24.6666667,17.3333333 L24.6666667,13.333 Z M24.6666667,2.66666667 L3.33333333,2.66666667 L3.33266667,10.666 L24.6666667,10.666 L24.6666667,2.66666667 Z" id="path-1"></path>
    </defs>
    <g id="Page-1" stroke="none" stroke-width="1" fill="none" fill-rule="evenodd">
        <g id="Icon/Desktop">
            <g>
                <mask id="mask-2" fill="white">
                    <use xlink:href="#path-1"></use>
                </mask>
                <use id="Mask" fill="#2c2738" fill-rule="nonzero" xlink:href="#path-1"></use>
            </g>
        </g>
    </g>
</svg>