<?xml version="1.0" encoding="UTF-8"?>
<svg width="28px" height="24px" viewBox="0 0 28 24" version="1.1" xmlns="http://www.w3.org/2000/svg" xmlns:xlink="http://www.w3.org/1999/xlink">
    <!-- Generator: Sketch 58 (84663) - https://sketch.com -->
    <title>eye-off</title>
    <desc>Created with Sketch.</desc>
    <g id="Page-1" stroke="none" stroke-width="1" fill="none" fill-rule="evenodd" stroke-linecap="round" stroke-linejoin="round">
        <g id="Sign-Up-PT" transform="translate(-578.000000, -559.000000)" stroke="#FFFFFF" stroke-width="2">
            <g id="Group-3" transform="translate(141.000000, 452.000000)">
                <g id="eye-off" transform="translate(438.000000, 108.000000)">
                    <path d="M20.02,16.9400064 C17.9997881,18.2430046 15.5398543,18.9648633 13,19 C4.72727273,19 0,11.0000248 0,11.0000248 C1.4700517,8.68192766 3.50897826,6.65664568 5.98,5.06004323 M10.5181818,3.24004887 C11.3316654,3.07892888 12.1645303,2.99838836 13,3.00002443 C21.2727273,3.00002443 26,11.0000244 26,11.0000244 C25.2826122,12.1356286 24.4270655,13.2047541 23.4472727,14.1900149 M15.5054545,13.1200182 C14.6215936,13.9226285 13.2904647,14.2530114 12.0342706,13.9815577 C10.7780765,13.710104 9.79716919,12.8801081 9.47635926,11.8171779 C9.15554932,10.7542477 9.54600316,9.62791138 10.4945455,8.88003138" id="Shape"></path>
                    <path d="M0,0 L26,22" id="Path"></path>
                </g>
            </g>
        </g>
    </g>
</svg>