<?xml version="1.0" encoding="UTF-8"?>
<svg width="22px" height="31px" viewBox="0 0 22 31" version="1.1" xmlns="http://www.w3.org/2000/svg" xmlns:xlink="http://www.w3.org/1999/xlink">
    <!-- Generator: Sketch 58 (84663) - https://sketch.com -->
    <title>Icon/Bag</title>
    <desc>Created with Sketch.</desc>
    <defs>
        <path d="M11,0 C14.7969577,0 17.875,3.07804234 17.875,6.875 L17.875,8.25 L19.25,8.25 C20.7687831,8.25 22,9.48121694 22,11 L22,27.5 C22,29.0187831 20.7687831,30.25 19.25,30.25 L2.75,30.25 C1.23121694,30.25 0,29.0187831 0,27.5 L0,11 C0,9.48121694 1.23121694,8.25 2.75,8.25 L4.125,8.25 L4.125,6.875 C4.125,3.07804234 7.20304234,0 11,0 Z M19.25,24.75 L2.75,24.75 L2.75,27.5 L19.25,27.5 L19.25,24.75 Z M19.25,11 L2.75,11 L2.75,22 L19.25,22 L19.25,11 Z M11,2.75 C8.72182541,2.75 6.875,4.59682541 6.875,6.875 L6.875,8.25 L15.125,8.25 L15.125,6.875 C15.125,4.59682541 13.2781746,2.75 11,2.75 Z" id="path-1"></path>
    </defs>
    <g id="Page-1" stroke="none" stroke-width="1" fill="none" fill-rule="evenodd">
        <g id="Icon/Bag">
            <g>
                <mask id="mask-2" fill="white">
                    <use xlink:href="#path-1"></use>
                </mask>
                <use id="Mask" fill="#FFFFFF" fill-rule="nonzero" xlink:href="#path-1"></use>
            </g>
        </g>
    </g>
</svg>