<?xml version="1.0" encoding="UTF-8"?>
<svg width="26px" height="21px" viewBox="0 0 26 21" version="1.1" xmlns="http://www.w3.org/2000/svg" xmlns:xlink="http://www.w3.org/1999/xlink">
    <!-- Generator: Sketch 58 (84663) - https://sketch.com -->
    <title>Icon/Mail</title>
    <desc>Created with Sketch.</desc>
    <defs>
        <path d="M22.5852469,1.75085059 C23.1134163,1.37229006 23.8524517,1.48808275 24.2359286,2.00948079 C24.6194055,2.53087884 24.502109,3.26043941 23.9739396,3.63899994 L13.6442864,13.0698885 C13.227305,13.368756 12.6622317,13.3664626 12.2477537,13.0642205 L1.66914506,3.2154541 C1.14414662,2.83261916 1.03293085,2.10213114 1.42073768,1.58386345 C1.8085445,1.06559576 2.54851938,0.955805824 3.07351782,1.33864077 L12.9559625,10.6797563 L22.5852469,1.75085059 Z M23.6363636,0 C24.941764,0 26,1.04466892 26,2.33333333 L26,18.6666667 C26,19.9553311 24.941764,21 23.6363636,21 L2.36363636,21 C1.05823605,21 0,19.9553311 0,18.6666667 L0,2.33333333 C0,1.04466892 1.05823605,0 2.36363636,0 L23.6363636,0 Z M23.6363636,2.33333333 L2.36363636,2.33333333 L2.36363636,18.6666667 L23.6363636,18.6666667 L23.6363636,2.33333333 Z" id="path-1"></path>
    </defs>
    <g id="Page-1" stroke="none" stroke-width="1" fill="none" fill-rule="evenodd">
        <g id="Icon/Mail">
            <mask id="mask-2" fill="white">
                <use xlink:href="#path-1"></use>
            </mask>
            <use id="Mask" fill="#FFFFFF" fill-rule="nonzero" xlink:href="#path-1"></use>
        </g>
    </g>
</svg>