<?xml version="1.0" encoding="UTF-8"?>
<svg width="22px" height="26px" viewBox="0 0 22 26" version="1.1" xmlns="http://www.w3.org/2000/svg" xmlns:xlink="http://www.w3.org/1999/xlink">
    <!-- Generator: Sketch 58 (84663) - https://sketch.com -->
    <title>Icon/User</title>
    <desc>Created with Sketch.</desc>
    <defs>
        <path d="M10.9999324,13.4444444 C18.391814,13.4444444 22.1723552,16.4778614 21.9938142,24.4717356 C21.9787417,25.146582 21.4194519,25.6814344 20.7446055,25.6663619 C20.0697591,25.6512894 19.5349067,25.0919996 19.5499792,24.4171532 C19.6990142,17.7443608 16.9649127,15.8888889 10.9999324,15.8888889 C5.35043441,15.8888889 2.59386981,17.7678233 2.44413971,24.4717356 C2.4290672,25.146582 1.86977741,25.6814344 1.19493102,25.6663619 C0.520084625,25.6512894 -0.014767782,25.0919996 0.000304732877,24.4171532 C0.178150733,16.4543989 3.94005961,13.4444444 10.9999324,13.4444444 Z M11,0 C14.3750735,0 17.1111111,2.73603764 17.1111111,6.11111111 C17.1111111,9.48618458 14.3750735,12.2222222 11,12.2222222 C7.62492653,12.2222222 4.88888889,9.48618458 4.88888889,6.11111111 C4.88888889,2.73603764 7.62492653,0 11,0 Z M11,2.44444444 C8.97495592,2.44444444 7.33333333,4.08606703 7.33333333,6.11111111 C7.33333333,8.13615519 8.97495592,9.77777778 11,9.77777778 C13.0250441,9.77777778 14.6666667,8.13615519 14.6666667,6.11111111 C14.6666667,4.08606703 13.0250441,2.44444444 11,2.44444444 Z" id="path-1"></path>
    </defs>
    <g id="Page-1" stroke="none" stroke-width="1" fill="none" fill-rule="evenodd">
        <g id="Icon/User">
            <g>
                <mask id="mask-2" fill="white">
                    <use xlink:href="#path-1"></use>
                </mask>
                <use id="Mask" fill="#FFFFFF" fill-rule="nonzero" xlink:href="#path-1"></use>
            </g>
        </g>
    </g>
</svg>