<svg class="social_icon_svg" height="20" viewBox="0 0 24 20" width="24" xmlns="http://www.w3.org/2000/svg"><path d="m22 .01026254c-.957615.67547741-2.0178921 1.19210925-3.14 1.53-1.2336405-1.4184622-3.22163-1.91588569-4.9779185-1.24554656-1.7562885.67033912-2.9072812 2.36584743-2.8820815 4.24554656v1c-3.56933517.0925524-6.94797469-1.60802949-9-4.53 0 0-4 8.99999996 5 12.99999996-2.05947244 1.3979664-4.51284309 2.0989294-7 2 9 5 20 0 20-11.49999996-.0009209-.27854636-.0277025-.5564056-.08-.83 1.0206031-1.00650692 1.7408274-2.27728721 2.08-3.67z" fill="none" stroke="#fff" stroke-linecap="round" stroke-linejoin="round" stroke-width="2" transform="translate(1 1)"/></svg>