<svg xmlns="http://www.w3.org/2000/svg" width="15" height="21" viewBox="0 0 15 21"><g><g><path fill="#ff2850" d="M13.357 12.515l1.056 2.315a1.834 1.834 0 0 1-1.668 2.597h-1.953a3.666 3.666 0 0 1-7.093 0H1.745A1.834 1.834 0 0 1 .078 14.83l1.056-2.315V6.053c0-.453.167-.889.47-1.226C2.815 3.475 4.095 2.555 5.44 2.121a1.514 1.514 0 0 1-.025-.288C5.416.821 6.235 0 7.246 0c1.01 0 1.829.82 1.829 1.833 0 .105-.009.2-.026.288 1.346.434 2.626 1.354 3.839 2.706.302.337.469.773.469 1.226zM2.969 6.048v5.869h8.553V6.048c-1.425-1.588-2.85-2.381-4.277-2.381-1.425 0-2.85.793-4.276 2.381zm-1.222 9.525h10.997l-.833-1.823H2.58zm5.498 2.76c.674 0 1.263-.364 1.582-.906H5.664c.318.542.907.906 1.581.906z"/></g></g></svg>