<?xml version="1.0" encoding="UTF-8"?>
<svg width="30px" height="22px" viewBox="0 0 30 22" version="1.1" xmlns="http://www.w3.org/2000/svg" xmlns:xlink="http://www.w3.org/1999/xlink">
    <!-- Generator: Sketch 58 (84663) - https://sketch.com -->
    <title>Shape</title>
    <desc>Created with Sketch.</desc>
    <g id="Page-1" stroke="none" stroke-width="1" fill="none" fill-rule="evenodd">
        <g id="Editar-Perfil---Sessão-do-Professor" transform="translate(-373.000000, -244.000000)" fill="#ffffff" fill-rule="nonzero">
            <g id="Group-9" transform="translate(140.000000, 220.000000)">
                <g id="Rounded_Button_Active" transform="translate(233.000000, 24.000000)">
                    <g id="Group-8">
                        <g id="Group-2">
                            <g id="Group-11">
                                <path d="M1.07202501,16.0000956 C1.66376783,16.0000956 2.14338964,15.5203483 2.14338964,14.928731 L2.14338964,9.68352663 L5.35760908,11.0493188 L5.35760908,17.4428533 L5.35999463,17.4545299 C5.36125019,17.590632 5.38849572,17.7252275 5.44009901,17.851034 C5.51380006,17.966545 5.58938443,18.0806749 5.6669777,18.1936748 C5.76578984,18.294747 5.88381196,18.375228 6.0138874,18.4304724 L11.3414561,20.6926049 C13.6833163,21.6784663 16.3238729,21.6774618 18.6649798,20.6899682 L23.986773,18.4303468 C24.1168484,18.3751024 24.2348705,18.2946214 24.3336827,18.1935493 C24.4112759,18.0806749 24.4868603,17.9664195 24.5605614,17.8509085 C24.6122902,17.7249763 24.6394102,17.5903809 24.6406657,17.4544044 L24.6429257,17.4427277 L24.6429257,11.0491932 L28.8861976,9.2459659 C29.5654526,8.9303195 30,8.24930676 30,7.50024296 C30,6.75117916 29.5654526,6.07016642 28.8861976,5.75452003 L15.6652091,0.136541549 C15.240455,-0.0455138495 14.7595776,-0.0455138495 14.3348235,0.136541549 L1.11433719,5.75452003 C0.426293342,6.06012198 -0.0122718344,6.74753806 0.000261722131,7.50024296 L0.000261722131,14.9284799 C0.000660376686,15.5203483 0.480282184,16.0000956 1.07202501,16.0000956 Z M22.5000709,16.7339672 L17.8335516,18.7152322 C16.0237954,19.4777304 13.9830172,19.4787348 12.1725076,18.7178688 L7.50021278,16.7339672 L7.50021278,11.9599724 L14.3352002,14.864321 C14.7599543,15.0463764 15.2408316,15.0463764 15.6655857,14.864321 L22.5000709,11.9599724 L22.5000709,16.7339672 L22.5000709,16.7339672 Z M15.0002674,2.18209089 L27.5150066,7.50049407 L23.1594881,9.35143247 L23.1500715,9.35545025 L15.0002674,12.8187717 L6.85046334,9.35545025 L6.84104669,9.35143247 L2.48552823,7.50049407 L15.0002674,2.18209089 Z" id="Shape"></path>
                            </g>
                        </g>
                    </g>
                </g>
            </g>
        </g>
    </g>
</svg>