<?xml version="1.0" encoding="UTF-8"?>
<svg width="24px" height="23px" viewBox="0 0 24 23" version="1.1" xmlns="http://www.w3.org/2000/svg" xmlns:xlink="http://www.w3.org/1999/xlink">
    <!-- Generator: Sketch 58 (84663) - https://sketch.com -->
    <title>Group 19</title>
    <desc>Created with Sketch.</desc>
    <defs>
        <path d="M12.0573459,0 C12.5197846,0 12.966157,0.16964104 13.3118715,0.47677459 L16.3656367,3.1897466 C16.7691238,3.54820546 17,4.06214375 17,4.60186089 L17,18.8888889 C17,19.9320934 16.1543156,20.7777778 15.1111111,20.7777778 L1.88888889,20.7777778 C0.845684361,20.7777778 0,19.9320934 0,18.8888889 L0,1.88888889 C0,0.845684361 0.845684361,0 1.88888889,0 L12.0573459,0 Z M15.111,16.999 L1.888,16.999 L1.88888889,18.8888889 L15.1111111,18.8888889 L15.111,16.999 Z M10.3888889,1.88888889 L1.88888889,1.88888889 L1.888,15.111 L15.111,15.111 L15.111,7.602 L11.3333333,7.60282389 C10.8117311,7.60282389 10.3888889,7.17998171 10.3888889,6.65837945 L10.3888889,1.88888889 Z M12.277,2.083 L12.2777778,5.713935 L15.111,5.713 L15.1111111,4.60186089 L12.277,2.083 Z" id="path-1"></path>
        <path d="M12.0573459,0 C12.5197846,0 12.966157,0.16964104 13.3118715,0.47677459 L16.3656367,3.1897466 C16.7691238,3.54820546 17,4.06214375 17,4.60186089 L17,18.8888889 C17,19.9320934 16.1543156,20.7777778 15.1111111,20.7777778 L1.88888889,20.7777778 C0.845684361,20.7777778 0,19.9320934 0,18.8888889 L0,1.88888889 C0,0.845684361 0.845684361,0 1.88888889,0 L12.0573459,0 Z M15.111,16.999 L1.888,16.999 L1.88888889,18.8888889 L15.1111111,18.8888889 L15.111,16.999 Z M10.3888889,1.88888889 L1.88888889,1.88888889 L1.888,15.111 L15.111,15.111 L15.111,7.602 L11.3333333,7.60282389 C10.8117311,7.60282389 10.3888889,7.17998171 10.3888889,6.65837945 L10.3888889,1.88888889 Z M12.277,2.083 L12.2777778,5.713935 L15.111,5.713 L15.1111111,4.60186089 L12.277,2.083 Z" id="path-3"></path>
    </defs>
    <g id="Page-1" stroke="none" stroke-width="1" fill="none" fill-rule="evenodd">
        <g id="Group-19">
            <g id="Icon/File" transform="translate(7.000000, 0.000000)">
                <g>
                    <mask id="mask-2" fill="white">
                        <use xlink:href="#path-1"></use>
                    </mask>
                    <use id="Mask" fill="#FFFFFF" fill-rule="nonzero" xlink:href="#path-1"></use>
                </g>
            </g>
            <polygon id="Path-8" fill="#131B31" points="16 21 1 21 1 3 12 3 16 6"></polygon>
            <g id="Icon/File" transform="translate(0.000000, 2.000000)">
                <g>
                    <mask id="mask-4" fill="white">
                        <use xlink:href="#path-3"></use>
                    </mask>
                    <use id="Mask" fill="#FFFFFF" fill-rule="nonzero" xlink:href="#path-3"></use>
                </g>
            </g>
        </g>
    </g>
</svg>