<?xml version="1.0" encoding="UTF-8"?>
<svg width="22px" height="22px" viewBox="0 0 22 22" version="1.1" xmlns="http://www.w3.org/2000/svg" xmlns:xlink="http://www.w3.org/1999/xlink">
    <!-- Generator: Sketch 58 (84663) - https://sketch.com -->
    <title>Mask</title>
    <desc>Created with Sketch.</desc>
    <defs>
        <path d="M2.00027139,7.86704924 C3.10567735,8.47448945 3.85486848,9.64988894 3.85486848,11.0002714 C3.85486848,12.3506538 3.10567735,13.5260533 2.00027139,14.1334935 C2.12140683,14.4814863 2.26215547,14.8202937 2.42119352,15.1485918 C3.63225683,14.7966622 4.99295059,15.0980763 5.94770854,16.0528342 C6.90246649,17.0075922 7.20388062,18.3682859 6.85195093,19.5793493 C7.18024908,19.7383873 7.51905644,19.8791359 7.86704924,20.0002714 C8.47448945,18.8948654 9.64988894,18.1456743 11.0002714,18.1456743 C12.3506538,18.1456743 13.5260533,18.8948654 14.1334935,20.0002714 C14.4814863,19.8791359 14.8202937,19.7383873 15.1485918,19.5793493 C14.7966622,18.3682859 15.0980763,17.0075922 16.0528342,16.0528342 C17.0075922,15.0980763 18.3682859,14.7966622 19.5793493,15.1485918 C19.7383873,14.8202937 19.8791359,14.4814863 20.0002714,14.1334935 C18.8948654,13.5260533 18.1456743,12.3506538 18.1456743,11.0002714 C18.1456743,9.64988894 18.8948654,8.47448945 20.0002714,7.86704924 C19.8791359,7.51905644 19.7383873,7.18024908 19.5793493,6.85195093 C18.3682859,7.20388062 17.0075922,6.90246649 16.0528342,5.94770854 C15.0980763,4.99295059 14.7966622,3.63225683 15.1485918,2.42119352 C14.8202937,2.26215547 14.4814863,2.12140683 14.1334935,2.00027139 C13.5260533,3.10567735 12.3506538,3.85486848 11.0002714,3.85486848 C9.64988894,3.85486848 8.47448945,3.10567735 7.86704924,2.00027139 C7.51905644,2.12140683 7.18024908,2.26215547 6.85195093,2.42119352 C7.20388062,3.63225683 6.90246649,4.99295059 5.94770854,5.94770854 C4.99295059,6.90246649 3.63225683,7.20388062 2.42119352,6.85195093 C2.26215547,7.18024908 2.12140683,7.51905644 2.00027139,7.86704924 Z M14.7909922,0.111436956 C15.2108006,0.257571232 15.6212611,0.427851682 16.0205315,0.621270972 C16.8982539,1.04646756 17.3413002,2.04275091 17.0691438,2.97929751 C16.9095509,3.52849013 17.0561034,4.12255058 17.4670478,4.53349498 C17.8779922,4.94443938 18.4720526,5.09099191 19.0212453,4.93139895 C19.9577919,4.65924261 20.9540752,5.10228892 21.3792718,5.98001125 C21.5726911,6.37928169 21.7429715,6.7897422 21.8891058,7.20955058 C22.209934,8.13121211 21.8187375,9.14984762 20.9634599,9.61983786 C20.4621837,9.89529802 20.1456743,10.4190423 20.1456743,11.0002714 C20.1456743,11.5815004 20.4621837,12.1052448 20.9634599,12.3807049 C21.8187375,12.8506952 22.209934,13.8693307 21.8891058,14.7909922 C21.7429715,15.2108006 21.5726911,15.6212611 21.3792718,16.0205315 C20.9540752,16.8982539 19.9577919,17.3413002 19.0212453,17.0691438 C18.4720526,16.9095509 17.8779922,17.0561034 17.4670478,17.4670478 C17.0561034,17.8779922 16.9095509,18.4720526 17.0691438,19.0212453 C17.3413002,19.9577919 16.8982539,20.9540752 16.0205315,21.3792718 C15.6212611,21.5726911 15.2108006,21.7429715 14.7909922,21.8891058 C13.8693307,22.209934 12.8506952,21.8187375 12.3807049,20.9634599 C12.1052448,20.4621837 11.5815004,20.1456743 11.0002714,20.1456743 C10.4190423,20.1456743 9.89529802,20.4621837 9.61983786,20.9634599 C9.14984762,21.8187375 8.13121211,22.209934 7.20955058,21.8891058 C6.7897422,21.7429715 6.37928169,21.5726911 5.98001125,21.3792718 C5.10228892,20.9540752 4.65924261,19.9577919 4.93139895,19.0212453 C5.09099191,18.4720526 4.94443938,17.8779922 4.53349498,17.4670478 C4.12255058,17.0561034 3.52849013,16.9095509 2.97929751,17.0691438 C2.04275091,17.3413002 1.04646756,16.8982539 0.621270971,16.0205315 C0.427851682,15.6212611 0.257571232,15.2108006 0.111436956,14.7909922 C-0.209391173,13.8693307 0.181805281,12.8506952 1.03708291,12.3807049 C1.53835908,12.1052448 1.85486848,11.5815004 1.85486848,11.0002714 C1.85486848,10.4190423 1.53835908,9.89529802 1.03708291,9.61983786 C0.181805281,9.14984762 -0.209391173,8.13121211 0.111436956,7.20955058 C0.257571232,6.7897422 0.427851682,6.37928169 0.621270971,5.98001125 C1.04646756,5.10228892 2.04275091,4.65924261 2.97929751,4.93139895 C3.52849013,5.09099191 4.12255058,4.94443938 4.53349498,4.53349498 C4.94443938,4.12255058 5.09099191,3.52849013 4.93139895,2.97929751 C4.65924261,2.04275091 5.10228892,1.04646756 5.98001125,0.621270972 C6.37928169,0.427851682 6.7897422,0.257571232 7.20955058,0.111436956 C8.13121211,-0.209391173 9.14984762,0.181805281 9.61983786,1.03708291 C9.89529802,1.53835908 10.4190423,1.85486848 11.0002714,1.85486848 C11.5815004,1.85486848 12.1052448,1.53835908 12.3807049,1.03708291 C12.8506952,0.181805281 13.8693307,-0.209391173 14.7909922,0.111436956 Z M11.0002714,7.00027139 C8.79113239,7.00027139 7.00027139,8.79113239 7.00027139,11.0002714 C7.00027139,13.2094104 8.79113239,15.0002714 11.0002714,15.0002714 C13.2094104,15.0002714 15.0002714,13.2094104 15.0002714,11.0002714 C15.0002714,8.79113239 13.2094104,7.00027139 11.0002714,7.00027139 Z M11.0002714,9.00027139 C12.1048409,9.00027139 13.0002714,9.89570189 13.0002714,11.0002714 C13.0002714,12.1048409 12.1048409,13.0002714 11.0002714,13.0002714 C9.89570189,13.0002714 9.00027139,12.1048409 9.00027139,11.0002714 C9.00027139,9.89570189 9.89570189,9.00027139 11.0002714,9.00027139 Z" id="path-1"></path>
    </defs>
    <g id="Page-1" stroke="none" stroke-width="1" fill="none" fill-rule="evenodd">
        <g id="Editar-Perfil---Sessão-do-Professor" transform="translate(-517.000000, -244.000000)">
            <g id="Group-16" transform="translate(517.000000, 244.000000)">
                <g id="Icon/Gear">
                    <g>
                        <mask id="mask-2" fill="white">
                            <use xlink:href="#path-1"></use>
                        </mask>
                        <use id="Mask" fill="#ffffff" fill-rule="nonzero" xlink:href="#path-1"></use>
                    </g>
                </g>
            </g>
        </g>
    </g>
</svg>