<?xml version="1.0" encoding="UTF-8"?>
<svg width="18px" height="22px" viewBox="0 0 18 22" version="1.1" xmlns="http://www.w3.org/2000/svg" xmlns:xlink="http://www.w3.org/1999/xlink">
    <!-- Generator: Sketch 58 (84663) - https://sketch.com -->
    <title>Icon/File</title>
    <desc>Created with Sketch.</desc>
    <defs>
        <path d="M12.7666016,0 C13.2562425,0 13.7288721,0.179619924 14.0949228,0.504820154 L17.3283212,3.37737875 C17.7555428,3.75692342 18,4.30109339 18,4.87255859 L18,20 C18,21.1045695 17.1045695,22 16,22 L2,22 C0.8954305,22 0,21.1045695 0,20 L0,2 C0,0.8954305 0.8954305,0 2,0 L12.7666016,0 Z M16,18 L2,18 L2,20 L16,20 L16,18 Z M11,2 L2,2 L2,16 L16,16 L16,4.87255859 L13,2.208 L13,6.05004883 L14.4870605,6.05004883 C15.0393453,6.05004883 15.4870605,6.49776408 15.4870605,7.05004883 C15.4870605,7.60233358 15.0393453,8.05004883 14.4870605,8.05004883 L12,8.05004883 C11.4477153,8.05004883 11,7.60233358 11,7.05004883 L11,2 Z" id="path-1"></path>
    </defs>
    <g id="Page-1" stroke="none" stroke-width="1" fill="none" fill-rule="evenodd">
        <g id="Icon/File">
            <g>
                <mask id="mask-2" fill="white">
                    <use xlink:href="#path-1"></use>
                </mask>
                <use id="Mask" fill="#FFFFFF" fill-rule="nonzero" xlink:href="#path-1"></use>
            </g>
        </g>
    </g>
</svg>