<?xml version="1.0" encoding="UTF-8"?>
<svg width="21px" height="21px" viewBox="0 0 21 21" version="1.1" xmlns="http://www.w3.org/2000/svg" xmlns:xlink="http://www.w3.org/1999/xlink">
    <!-- Generator: Sketch 58 (84663) - https://sketch.com -->
    <title>Icon/ Graph Pie</title>
    <desc>Created with Sketch.</desc>
    <defs>
        <path d="M9.06818153,2.86363627 C9.26979355,2.86363627 9.47075776,2.8702455 9.67084008,2.88341501 C10.6743558,2.94946683 11.4545451,3.78269666 11.4545451,4.78838384 L11.4545451,9.54545424 L16.2116155,9.54545424 C17.2173027,9.54545424 18.0505325,10.3256435 18.1165843,11.3291593 C18.1297538,11.5292416 18.1363631,11.7302058 18.1363631,11.9318178 C18.1363631,16.9400362 14.0763999,20.9999993 9.06818153,20.9999993 C4.05996316,20.9999993 0,16.9400362 0,11.9318178 C0,6.92359943 4.05996316,2.86363627 9.06818153,2.86363627 Z M9.06818153,4.77272712 C5.11432492,4.77272712 1.90909085,7.9779612 1.90909085,11.9318178 C1.90909085,15.8856744 5.11432492,19.0909085 9.06818153,19.0909085 C13.0220381,19.0909085 16.2272722,15.8856744 16.2272722,11.9318178 C16.2272722,11.7714405 16.2219987,11.612295 16.2116155,11.4545451 L9.54545424,11.4545451 L9.54545424,4.78838384 C9.38770434,4.77800068 9.22855879,4.77272712 9.06818153,4.77272712 Z M14.580278,0 C18.112016,0 20.9799554,2.85267758 21,6.38285731 C21.0059699,7.44143113 20.1494993,8.30277096 19.0909085,8.30277096 L14.3181814,8.30277096 C13.2638196,8.30277096 12.4090905,7.44804187 12.4090905,6.39368011 L12.4090905,1.91657858 C12.4090905,0.904635991 13.1986977,0.0684952202 14.2089836,0.0106132799 C14.3323606,0.00354468747 14.4561633,0 14.580278,0 Z M14.580278,1.90909085 C14.4923014,1.90909085 14.4049132,1.91160948 14.3181814,1.91657858 L14.3181814,6.39368011 L19.0909085,6.39368011 C19.0768536,3.91450362 17.0627604,1.90909085 14.580278,1.90909085 Z" id="path-1"></path>
    </defs>
    <g id="Page-1" stroke="none" stroke-width="1" fill="none" fill-rule="evenodd">
        <g id="Icon/-Graph-Pie">
            <g>
                <mask id="mask-2" fill="white">
                    <use xlink:href="#path-1"></use>
                </mask>
                <use id="Mask" fill="#131b31" fill-rule="nonzero" xlink:href="#path-1"></use>
            </g>
        </g>
    </g>
</svg>