<?xml version="1.0" encoding="UTF-8"?>
<svg width="22px" height="20px" viewBox="0 0 22 20" version="1.1" xmlns="http://www.w3.org/2000/svg" xmlns:xlink="http://www.w3.org/1999/xlink">
    <!-- Generator: Sketch 58 (84663) - https://sketch.com -->
    <title>Icon/Graph Bar</title>
    <desc>Created with Sketch.</desc>
    <defs>
        <path d="M11,0 C12.1045695,0 13,0.8954305 13,2 L13,18 L14,18 L14,10 C14,8.8954305 14.8954305,8 16,8 L17,8 C18.1045695,8 19,8.8954305 19,10 L19,18 L21,18 C21.5522847,18 22,18.4477153 22,19 C22,19.5522847 21.5522847,20 21,20 L1,20 C0.44771525,20 0,19.5522847 0,19 C0,18.4477153 0.44771525,18 1,18 L2,18 L2,7 C2,5.8954305 2.8954305,5 4,5 L5,5 C6.1045695,5 7,5.8954305 7,7 L7,18 L8,18 L8,2 C8,0.8954305 8.8954305,0 10,0 L11,0 Z M11,2 L10,2 L10,18 L11,18 L11,2 Z M5,7 L4,7 L4,18 L5,18 L5,7 Z M17,10 L16,10 L16,18 L17,18 L17,10 Z" id="path-1"></path>
    </defs>
    <g id="Page-1" stroke="none" stroke-width="1" fill="none" fill-rule="evenodd">
        <g id="Icon/Graph-Bar">
            <g>
                <mask id="mask-2" fill="white">
                    <use xlink:href="#path-1"></use>
                </mask>
                <use id="Mask" fill="#131B31" fill-rule="nonzero" xlink:href="#path-1"></use>
            </g>
        </g>
    </g>
</svg>