<?xml version="1.0" encoding="UTF-8"?>
<svg width="22px" height="16px" viewBox="0 0 22 16" version="1.1" xmlns="http://www.w3.org/2000/svg" xmlns:xlink="http://www.w3.org/1999/xlink">
    <!-- Generator: Sketch 58 (84663) - https://sketch.com -->
    <title>Mask</title>
    <desc>Created with Sketch.</desc>
    <defs>
        <path d="M21.6097108,0.207425774 C22.0474649,0.544159729 22.1293579,1.17200638 21.792624,1.60976052 L20.4818989,3.31424391 C20.8088814,3.79470454 21,4.37505808 21,5.00004976 C21,6.65690401 19.6568542,8.00004976 18,8.00004976 C17.6516168,8.00004976 17.3171035,7.94066584 17.0060301,7.83146813 L13.8199891,11.9741059 C13.9364662,12.2941876 14,12.6396991 14,13.0000498 C14,14.656904 12.6568542,16.0000498 11,16.0000498 C9.34314575,16.0000498 8,14.656904 8,13.0000498 C8,12.7128425 8.04035948,12.4350616 8.11571635,12.1720693 L6.08228052,9.79889113 C5.74654456,9.92880485 5.38159235,10.0000498 5,10.0000498 C4.53673483,10.0000498 4.09799511,9.89504383 3.70628361,9.70753474 L1.70710678,11.7071565 C1.31658249,12.0976808 0.683417511,12.0976808 0.292893219,11.7071565 C-0.0976310729,11.3166323 -0.0976310729,10.6834673 0.292893219,10.292943 L2.29204249,8.29277855 C2.10482952,7.90131726 2,7.46292563 2,7.00004976 C2,5.34319551 3.34314575,4.00004976 5,4.00004976 C6.65685425,4.00004976 8,5.34319551 8,7.00004976 C8,7.54511147 7.85463968,8.05622246 7.60056988,8.49673188 L9.32616813,10.5100439 C9.80428362,10.1880116 10.3801914,10.0000498 11,10.0000498 C11.5479787,10.0000498 12.0616423,10.1469701 12.5037484,10.4035683 L15.4478731,6.57774869 C15.1639211,6.119395 15,5.57886529 15,5.00004976 C15,3.34319551 16.3431458,2.00004976 18,2.00004976 C18.3028937,2.00004976 18.5953031,2.04493825 18.8709387,2.12842569 L20.207376,0.390339002 C20.54411,-0.047415139 21.1719566,-0.129308181 21.6097108,0.207425774 Z M11,12.0000498 C10.4477153,12.0000498 10,12.447765 10,13.0000498 C10,13.5523345 10.4477153,14.0000498 11,14.0000498 C11.5522847,14.0000498 12,13.5523345 12,13.0000498 C12,12.447765 11.5522847,12.0000498 11,12.0000498 Z M5,6.00004976 C4.44771525,6.00004976 4,6.44776501 4,7.00004976 C4,7.55233451 4.44771525,8.00004976 5,8.00004976 C5.55228475,8.00004976 6,7.55233451 6,7.00004976 C6,6.44776501 5.55228475,6.00004976 5,6.00004976 Z M18,4.00004976 C17.4477153,4.00004976 17,4.44776501 17,5.00004976 C17,5.55233451 17.4477153,6.00004976 18,6.00004976 C18.5522847,6.00004976 19,5.55233451 19,5.00004976 C19,4.44776501 18.5522847,4.00004976 18,4.00004976 Z" id="path-1"></path>
    </defs>
    <g id="Page-1" stroke="none" stroke-width="1" fill="none" fill-rule="evenodd">
        <g id="Icon/Graph-Poly">
            <g>
                <mask id="mask-2" fill="white">
                    <use xlink:href="#path-1"></use>
                </mask>
                <use id="Mask" fill="#131b31" fill-rule="nonzero" xlink:href="#path-1"></use>
            </g>
        </g>
    </g>
</svg>