<?xml version="1.0" encoding="UTF-8"?>
<svg width="23px" height="21px" viewBox="0 0 23 21" version="1.1" xmlns="http://www.w3.org/2000/svg" xmlns:xlink="http://www.w3.org/1999/xlink">
    <!-- Generator: Sketch 58 (84663) - https://sketch.com -->
    <title>Heart_filled</title>
    <desc>Created with Sketch.</desc>
    <defs>
        <path d="M18.9150423,10.5454284 C20.6296064,8.7645949 20.62813,5.88082497 18.9117434,4.10187845 C17.1953568,2.32293192 14.4129999,2.32140168 12.6947927,4.09845926 L11.4712,5.36665029 L10.2884092,4.14036049 C8.57507621,2.36495382 5.79750781,2.36525779 4.08453658,4.14103944 C2.37156535,5.91682109 2.37185864,8.79562802 4.08519166,10.5710347 L11.4758791,18.2333333 L18.9150423,10.5454284 Z M10.0843655,19.5755209 L2.69401499,11.9135716 C0.257914098,9.38921131 0.257499908,5.32367947 2.69307661,2.7987962 C5.09733333,0.306381336 8.98225283,0.236581328 11.4697597,2.59005823 C13.959739,0.192310624 17.881189,0.249341735 20.3030617,2.75948838 C22.741594,5.28690178 22.7436774,9.35629884 20.3077836,11.8863421 L12.8946171,19.5697098 C12.6159862,19.8584964 12.2699211,20.0414382 11.9058531,20.1185352 C11.2689058,20.2631049 10.5728607,20.0819686 10.0843655,19.5755209 Z" id="path-1"></path>
    </defs>
    <g id="Page-1" stroke="none" stroke-width="1" fill="none" fill-rule="evenodd">
        <g id="Heart_filled">
            <g id="Icon/Heart">
                <g>
                    <mask id="mask-2" fill="white">
                        <use xlink:href="#path-1"></use>
                    </mask>
                    <use id="Mask" fill="#FFFFFF" fill-rule="nonzero" xlink:href="#path-1"></use>
                </g>
            </g>
            <path d="M11.2359238,19.0540452 C7.08652973,15.5623952 4.41986306,12.8957285 3.23592382,11.0540452 C2.05198457,9.21236197 1.71865123,7.21236197 2.23592382,5.05404524 C3.76680661,3.18024345 5.10013995,2.18024345 6.23592382,2.05404524 C7.37170769,1.92784704 9.03837435,2.5945137 11.2359238,4.05404524 C13.9451607,2.46255928 15.9451607,1.79589262 17.2359238,2.05404524 C18.526687,2.31219787 19.8600203,3.6455312 21.2359238,6.05404524 C21.9785445,7.55530497 21.6452112,9.22197164 20.2359238,11.0540452 C18.8266364,12.8861188 15.8266364,15.5527855 11.2359238,19.0540452 Z" id="Path-11" fill="#FFFFFF"></path>
        </g>
    </g>
</svg>