<?xml version="1.0" encoding="UTF-8"?>
<svg width="24px" height="22px" viewBox="0 0 24 22" version="1.1" xmlns="http://www.w3.org/2000/svg" xmlns:xlink="http://www.w3.org/1999/xlink">
    <!-- Generator: Sketch 58 (84663) - https://sketch.com -->
    <title>Group 38</title>
    <desc>Created with Sketch.</desc>
    <g id="Page-1" stroke="none" stroke-width="1" fill="none" fill-rule="evenodd">
        <g id="Group-38" transform="translate(1.500000, 0.000000)">
            <path d="M17.2666016,0 C17.7562425,0 18.2288721,0.179619924 18.5949228,0.504820154 L21.8283212,3.37737875 C22.2555428,3.75692342 22.5,4.30109339 22.5,4.87255859 L22.5,20 C22.5,21.1045695 21.6045695,22 20.5,22 L6.5,22 C5.3954305,22 4.5,21.1045695 4.5,20 L4.49824133,12.746926 C4.9623932,12.9060418 5.46357943,13 6,13 C6.17020122,13 6.33685529,12.9905409 6.4999047,12.9725427 L6.5,16 L20.5,16 L20.5,8.05 L16.5,8.05004883 C15.9477153,8.05004883 15.5,7.60233358 15.5,7.05004883 L15.5,2 L6.5,2 L6.4999047,5.02745729 C6.33685529,5.00945909 6.17020122,5 6,5 C5.46357943,5 4.9623932,5.09395821 4.49824133,5.253074 L4.5,2 C4.5,0.8954305 5.3954305,0 6.5,0 L17.2666016,0 Z M20.5,18 L6.5,18 L6.5,20 L20.5,20 L20.5,18 Z M17.5,2.208 L17.5,6.05004883 L20.5,6.05 L20.5,4.87255859 L17.5,2.208 Z" id="Combined-Shape" fill="#FF1240" fill-rule="nonzero"></path>
            <g id="eye" transform="translate(0.500000, 5.000000)"></g>
            <g id="eye" transform="translate(0.000000, 5.000000)" stroke="#FF1B46" stroke-linecap="round" stroke-linejoin="round">
                <path d="M0,4 C0,4 2,0 5.5,0 C9,0 11,4 11,4 C11,4 9,8 5.5,8 C2,8 0,4 0,4 Z" id="Path" stroke-width="1.7"></path>
                <circle id="Oval" cx="5.5" cy="4" r="1.5"></circle>
            </g>
        </g>
    </g>
</svg>