<?xml version="1.0" encoding="UTF-8"?>
<svg width="23px" height="22px" viewBox="0 0 23 22" version="1.1" xmlns="http://www.w3.org/2000/svg" xmlns:xlink="http://www.w3.org/1999/xlink">
    <!-- Generator: Sketch 58 (84663) - https://sketch.com -->
    <title>Mask</title>
    <desc>Created with Sketch.</desc>
    <defs>
        <path d="M11.5,-7.10542736e-15 C17.3726278,-7.10542736e-15 22.1333333,4.76070549 22.1333333,10.6333333 C22.1333333,16.5059612 17.3726278,21.2666667 11.5,21.2666667 C5.62737216,21.2666667 0.866666667,16.5059612 0.866666667,10.6333333 C0.866666667,4.76070549 5.62737216,-7.10542736e-15 11.5,-7.10542736e-15 Z M11.5,1.70133333 C6.56699261,1.70133333 2.568,5.70032595 2.568,10.6333333 C2.568,15.5663407 6.56699261,19.5653333 11.5,19.5653333 C16.4330074,19.5653333 20.432,15.5663407 20.432,10.6333333 C20.432,5.70032595 16.4330074,1.70133333 11.5,1.70133333 Z M11.5,8.7 C12.0338753,8.7 12.4666667,9.13279141 12.4666667,9.66666667 L12.4666667,14.5 C12.4666667,15.0338753 12.0338753,15.4666667 11.5,15.4666667 C10.9661247,15.4666667 10.5333333,15.0338753 10.5333333,14.5 L10.5333333,9.66666667 C10.5333333,9.13279141 10.9661247,8.7 11.5,8.7 Z M11.5,5.8 C12.0338753,5.8 12.4666667,6.23279141 12.4666667,6.76666667 C12.4666667,7.30054192 12.0338753,7.73333333 11.5,7.73333333 C10.9661247,7.73333333 10.5333333,7.30054192 10.5333333,6.76666667 C10.5333333,6.23279141 10.9661247,5.8 11.5,5.8 Z" id="path-1"></path>
    </defs>
    <g id="Page-1" stroke="none" stroke-width="1" fill="none" fill-rule="evenodd">
        <g id="Editar-Perfil---Sessão-do-Professor" transform="translate(-172.000000, -245.000000)">
            <g id="Group" transform="translate(147.000000, 227.000000)">
                <g id="Icon/Info" transform="translate(25.000000, 18.000000)">
                    <g>
                        <mask id="mask-2" fill="white">
                            <use xlink:href="#path-1"></use>
                        </mask>
                        <use id="Mask" fill="#FFFFFF" fill-rule="nonzero" xlink:href="#path-1"></use>
                    </g>
                </g>
            </g>
        </g>
    </g>
</svg>