<?xml version="1.0" encoding="UTF-8"?>
<svg width="18px" height="20px" viewBox="0 0 18 20" version="1.1" xmlns="http://www.w3.org/2000/svg" xmlns:xlink="http://www.w3.org/1999/xlink">
    <!-- Generator: Sketch 58 (84663) - https://sketch.com -->
    <title>Icon/Layers</title>
    <desc>Created with Sketch.</desc>
    <defs>
        <path d="M9.99227788,0.263513716 L16.9922779,4.26351372 C18.3359074,5.031302 18.3359074,6.968698 16.9922779,7.73648628 L16.531,8 L16.9922779,8.26351372 C18.3359074,9.031302 18.3359074,10.968698 16.9922779,11.7364863 L16.531,11.999 L16.9922779,12.2635137 C18.3359074,13.031302 18.3359074,14.968698 16.9922779,15.7364863 L9.99227788,19.7364863 C9.37741254,20.0878379 8.62258746,20.0878379 8.00772212,19.7364863 L1.00772212,15.7364863 C-0.335907374,14.968698 -0.335907374,13.031302 1.00772212,12.2635137 L1.468,12 L1.00772212,11.7364863 C-0.335907374,10.968698 -0.335907374,9.031302 1.00772212,8.26351372 L1.468,8 L1.00772212,7.73648628 C-0.335907374,6.968698 -0.335907374,5.031302 1.00772212,4.26351372 L8.00772212,0.263513716 C8.62258746,-0.0878379053 9.37741254,-0.0878379053 9.99227788,0.263513716 Z M14.515,13.152 L9.99227788,15.7364863 C9.37741254,16.0878379 8.62258746,16.0878379 8.00772212,15.7364863 L3.485,13.152 L2,14 L9,18 L16,14 L14.515,13.152 Z M14.515,9.152 L9.99227788,11.7364863 C9.37741254,12.0878379 8.62258746,12.0878379 8.00772212,11.7364863 L3.485,9.152 L2,10 L9,14 L16,10 L14.515,9.152 Z M9,2 L2,6 L9,10 L16,6 L9,2 Z" id="path-1"></path>
    </defs>
    <g id="Page-1" stroke="none" stroke-width="1" fill="none" fill-rule="evenodd">
        <g id="Icon/Layers">
            <g>
                <mask id="mask-2" fill="white">
                    <use xlink:href="#path-1"></use>
                </mask>
                <use id="Mask" fill="#FFFFFF" fill-rule="nonzero" xlink:href="#path-1"></use>
            </g>
        </g>
    </g>
</svg>