<?xml version="1.0" encoding="UTF-8"?>
<svg width="16px" height="19px" viewBox="0 0 16 19" version="1.1" xmlns="http://www.w3.org/2000/svg" xmlns:xlink="http://www.w3.org/1999/xlink">
    <!-- Generator: Sketch 58 (84663) - https://sketch.com -->
    <title>Icon/Lens</title>
    <desc>Created with Sketch.</desc>
    <defs>
        <path d="M7.05882353,0 C10.9573041,0 14.1176471,3.18113467 14.1176471,7.10526316 C14.1176471,8.98110172 13.3954783,10.687159 12.2157273,11.9571079 L15.7937589,16.4608152 C16.1184737,16.8693792 16.0526654,17.4655509 15.6467718,17.792402 C15.2408782,18.1192532 14.648603,18.0530119 14.3238882,17.6444479 L10.7588066,13.1573954 C9.6829517,13.8252243 8.41558957,14.2105263 7.05882353,14.2105263 C3.16034294,14.2105263 0,11.0293916 0,7.10526316 C0,3.18113467 3.16034294,0 7.05882353,0 Z M7.05882353,1.89473684 C4.19993777,1.89473684 1.88235294,4.22756894 1.88235294,7.10526316 C1.88235294,9.98295738 4.19993777,12.3157895 7.05882353,12.3157895 C9.91770929,12.3157895 12.2352941,9.98295738 12.2352941,7.10526316 C12.2352941,4.22756894 9.91770929,1.89473684 7.05882353,1.89473684 Z" id="path-1"></path>
    </defs>
    <g id="Page-1" stroke="none" stroke-width="1" fill="none" fill-rule="evenodd">
        <g id="Icon/Lens">
            <g transform="translate(0.000000, 0.384615)">
                <mask id="mask-2" fill="white">
                    <use xlink:href="#path-1"></use>
                </mask>
                <use id="Mask" fill="#131b31" fill-rule="nonzero" xlink:href="#path-1"></use>
            </g>
        </g>
    </g>
</svg>