<?xml version="1.0" encoding="UTF-8"?>
<svg width="84px" height="23px" viewBox="0 0 84 23" version="1.1" xmlns="http://www.w3.org/2000/svg" xmlns:xlink="http://www.w3.org/1999/xlink">
    <!-- Generator: Sketch 58 (84663) - https://sketch.com -->
    <title>LinkedIn_Logo</title>
    <desc>Created with Sketch.</desc>
    <g id="Page-1" stroke="none" stroke-width="1" fill="none" fill-rule="evenodd">
        <g id="Perfil---Sessão-do-Professor" transform="translate(-609.000000, -540.000000)">
            <g id="Group-15" transform="translate(582.000000, 530.000000)">
                <g id="LinkedIn_Logo" transform="translate(27.200000, 9.400000)">
                    <g id="g3019" transform="translate(41.500000, 11.900000) scale(-1, 1) rotate(-180.000000) translate(-41.500000, -11.900000) translate(0.000000, 0.400000)">
                        <path d="M61.1050813,20.7576924 C61.1050813,21.6349951 61.8267396,22.346618 62.7169922,22.346618 L81.3057665,22.346618 C82.1959898,22.346618 82.9176775,21.6349951 82.9176775,20.7576924 L82.9176775,1.75430895 C82.9176775,0.876709896 82.1959898,0.165383408 81.3057665,0.165383408 L62.7169922,0.165383408 C61.8267396,0.165383408 61.1050813,0.876709896 61.1050813,1.75430895 L61.1050813,20.7576924 L61.1050813,20.7576924 Z" id="path14" fill="#FFFFFF" fill-rule="nonzero"></path>
                        <polygon id="path16" fill="#FFFFFF" points="0.0444656997 3.76677014 9.14749782 3.76677014 9.14749782 6.78664746 3.3387405 6.78664746 3.3387405 18.3083582 0.0444656997 18.3083582"></polygon>
                        <path d="M13.7562385,3.76677014 L13.7562385,13.7825435 L10.4616704,13.7825435 L10.4616704,3.76677014 L13.7562385,3.76677014 Z M12.1089545,15.1500686 C13.2578473,15.1500686 13.9729355,15.9191904 13.9729355,16.8809631 C13.9515239,17.8634828 13.2578473,18.6109684 12.1308647,18.6109684 C11.0037355,18.6109684 10.2668837,17.8634828 10.2668837,16.8809631 C10.2668837,15.9191904 10.9818253,15.1500686 12.0874549,15.1500686 L12.1088665,15.1500686 L12.1089545,15.1500686 Z" id="path18" fill="#FFFFFF"></path>
                        <path d="M15.2859349,3.76677014 L18.5805323,3.76677014 L18.5805323,9.36016741 C18.5805323,9.65951731 18.6019439,9.95857082 18.6890861,10.1725615 C18.9271066,10.7703722 19.4691717,11.389819 20.37934,11.389819 C21.5716132,11.389819 22.0485342,10.4710223 22.0485342,9.12542967 L22.0485342,3.76677014 L25.342809,3.76677014 L25.342809,9.50984236 C25.342809,12.5863294 23.7172885,14.017874 21.549703,14.017874 C19.7725122,14.017874 18.9921333,13.0140145 18.5585928,12.3302519 L18.580591,12.3302519 L18.580591,13.7825435 L15.2859349,13.7825435 C15.3292567,12.8427033 15.2859349,3.76677014 15.2859349,3.76677014 L15.2859349,3.76677014 Z" id="path20" fill="#FFFFFF"></path>
                        <path d="M29.9905012,18.3083582 L26.6957865,18.3083582 L26.6957865,3.76677014 L29.9905012,3.76677014 L29.9905012,7.01397555 L30.8138793,8.0614038 L33.3932125,3.76677014 L37.446132,3.76677014 L33.1115182,9.98406002 L36.9044776,14.2140815 L32.9382017,14.2140815 C32.9382017,14.2140815 30.2289618,10.4295282 29.9905012,9.98079977 L29.9905012,18.3083582 L29.9905012,18.3083582 Z" id="path22" fill="#FFFFFF"></path>
                        <path d="M46.2567053,7.9446277 C46.2999685,8.20189078 46.3651418,8.69537353 46.3651418,9.25317206 C46.3651418,11.8424005 45.0644321,14.4707518 41.6401039,14.4707518 C37.9770219,14.4707518 36.2865041,11.543347 36.2865041,8.88832084 C36.2865041,5.60436356 38.3455358,3.55337219 41.9434445,3.55337219 C43.3740316,3.55337219 44.6959475,3.76677014 45.7798136,4.2154986 L45.3461557,6.41409021 C44.4576337,6.11622225 43.5473187,5.96743646 42.4203655,5.96743646 C40.8814886,5.96743646 39.5378091,6.60555559 39.4292553,7.9659675 L46.2567053,7.94522048 L46.2567053,7.9446277 Z M39.407785,10.1968652 C39.4944286,11.0516425 40.0579932,12.3124687 41.4668168,12.3124687 C42.9619906,12.3124687 43.3090049,10.965987 43.3090049,10.1968652 L39.407785,10.1968652 L39.407785,10.1968652 Z" id="path24" fill="#FFFFFF"></path>
                        <path d="M54.4971733,18.3083582 L54.4971733,13.2745378 L54.4539101,13.2745378 C53.9769891,13.9790474 52.9797666,14.4491157 51.6580266,14.4491157 C49.1219272,14.4491157 46.8896083,12.3981243 46.9110785,8.89454495 C46.9110785,5.64674676 48.9268765,3.53173601 51.4410363,3.53173601 C52.8064794,3.53173601 54.1068958,4.13013942 54.757104,5.28397026 L54.8222774,5.28397026 L54.9523014,3.76677014 L57.8785316,3.76677014 C57.8351218,4.47187252 57.7914481,5.68972274 57.7914481,6.88593678 L57.7914481,18.3083582 L54.4971733,18.3083582 L54.4971733,18.3083582 Z M54.4971733,8.40284052 C54.4971733,8.14676298 54.4754684,7.89009267 54.4319999,7.67669473 C54.2372132,6.75789802 53.4566876,6.1171114 52.5032855,6.1171114 C51.1377251,6.1171114 50.2490564,7.22796627 50.2490564,8.97990413 C50.2490564,10.6248466 51.0078184,11.9493958 52.5247851,11.9493958 C53.5433312,11.9493958 54.2587128,11.2445898 54.4539101,10.3687691 C54.4971733,10.1761182 54.4971733,9.96242384 54.4971733,9.77036569 L54.4971733,8.40284052 L54.4971733,8.40284052 Z" id="path26" fill="#FFFFFF"></path>
                        <path d="M67.7171543,3.77862558 L67.7171543,13.7946953 L64.4225569,13.7946953 L64.4225569,3.77862558 L67.7171543,3.77862558 Z M66.0698409,15.1622205 C67.2187337,15.1622205 67.9338219,15.9313422 67.9338219,16.8925221 C67.9124103,17.8753382 67.2187337,18.6231202 66.0916338,18.6231202 C64.9646512,18.6231202 64.2277994,17.8753382 64.2277994,16.8925221 C64.2277994,15.9313422 64.942741,15.1622205 66.0483707,15.1622205 L66.0697822,15.1622205 L66.0698409,15.1622205 Z" id="path28" fill="#0766C1"></path>
                        <path d="M69.54016,3.77862558 L72.8347281,3.77862558 L72.8347281,9.37202286 C72.8347281,9.67137275 72.8561397,9.97042626 72.9431352,10.184417 C73.1813024,10.782524 73.7233968,11.4019708 74.6335358,11.4019708 C75.8256917,11.4019708 76.3025834,10.4834705 76.3025834,9.13698873 L76.3025834,3.77862558 L79.5968875,3.77862558 L79.5968875,9.5216978 C79.5968875,12.5981849 77.9715137,14.0297294 75.8039281,14.0297294 C74.0265907,14.0297294 73.2463291,13.0258699 72.8128179,12.3421073 L72.8348161,12.3421073 L72.8348161,13.7946953 L69.54016,13.7946953 C69.5834818,12.8548552 69.54016,3.77862558 69.54016,3.77862558 L69.54016,3.77862558 Z" id="path30" fill="#0766C1"></path>
                    </g>
                </g>
            </g>
        </g>
    </g>
</svg>