<?xml version="1.0" encoding="UTF-8"?>
<svg width="16px" height="22px" viewBox="0 0 16 22" version="1.1" xmlns="http://www.w3.org/2000/svg" xmlns:xlink="http://www.w3.org/1999/xlink">
    <!-- Generator: Sketch 58 (84663) - https://sketch.com -->
    <title>Group</title>
    <desc>Created with Sketch.</desc>
    <defs>
        <path d="M8,0 C12.4234655,0 16,3.65933791 16,8.162063 C16,12.5164513 10.7637989,22 8,22 C5.23620113,22 0,12.5164513 0,8.162063 C0,3.65933791 3.57653449,0 8,0 Z M8,2 C4.69147901,2 2,4.75379174 2,8.162063 C2,9.79929622 3.06358328,12.7572955 4.62264452,15.5809901 C6.02578691,18.1222923 7.60083562,20 8,20 C8.39916438,20 9.97421309,18.1222923 11.3773555,15.5809901 C12.9364167,12.7572955 14,9.79929622 14,8.162063 C14,4.75379174 11.308521,2 8,2 Z M8,4 C10.209139,4 12,5.790861 12,8 C12,10.209139 10.209139,12 8,12 C5.790861,12 4,10.209139 4,8 C4,5.790861 5.790861,4 8,4 Z M8,10 C9.1045695,10 10,9.1045695 10,8 C10,6.8954305 9.1045695,6 8,6 C6.8954305,6 6,6.8954305 6,8 C6,9.1045695 6.8954305,10 8,10 Z" id="path-1"></path>
    </defs>
    <g id="Page-1" stroke="none" stroke-width="1" fill="none" fill-rule="evenodd">
        <g id="Group">
            <g id="Group-9">
                <g id="Icon/Marker">
                    <g>
                        <mask id="mask-2" fill="white">
                            <use xlink:href="#path-1"></use>
                        </mask>
                        <use id="Mask" fill="#000000" fill-rule="nonzero" xlink:href="#path-1"></use>
                    </g>
                </g>
            </g>
        </g>
    </g>
</svg>