<?xml version="1.0" encoding="UTF-8"?>
<svg width="17px" height="18px" viewBox="0 0 17 18" version="1.1" xmlns="http://www.w3.org/2000/svg" xmlns:xlink="http://www.w3.org/1999/xlink">
    <!-- Generator: Sketch 58 (84663) - https://sketch.com -->
    <title>Logout</title>
    <desc>Created with Sketch.</desc>
    <defs>
        <path d="M17.1,8.1 C17.5970563,8.1 18,8.50294373 18,9 L18,15.3 C18,15.7970563 17.5970563,16.2 17.1,16.2 L0.9,16.2 C0.402943725,16.2 0,15.7970563 0,15.3 L0,9 C0,8.50294373 0.402943725,8.1 0.9,8.1 C1.39705627,8.1 1.8,8.50294373 1.8,9 L1.8,14.4 L16.2,14.4 L16.2,9 C16.2,8.50294373 16.6029437,8.1 17.1,8.1 Z M9.6363961,0.263603897 L13.2363961,3.8636039 C13.587868,4.21507576 13.587868,4.78492424 13.2363961,5.1363961 C12.8849242,5.48786797 12.3150758,5.48786797 11.9636039,5.1363961 L9.9,3.073 L9.9,10.8013237 C9.9,11.2976489 9.49705627,11.7 9,11.7 C8.50294373,11.7 8.1,11.2976489 8.1,10.8013237 L8.1,3.071 L6.0363961,5.1363961 C5.68492424,5.48786797 5.11507576,5.48786797 4.7636039,5.1363961 C4.41213203,4.78492424 4.41213203,4.21507576 4.7636039,3.8636039 L8.3636039,0.263603897 C8.71507576,-0.0878679656 9.28492424,-0.0878679656 9.6363961,0.263603897 Z" id="path-1"></path>
    </defs>
    <g id="Page-1" stroke="none" stroke-width="1" fill="none" fill-rule="evenodd">
        <g id="Icon/Logout" transform="translate(7.700000, 9.000000) rotate(-270.000000) translate(-7.700000, -9.000000) translate(-1.300000, 0.500000)">
            <g id="Icon/Upload">
                <mask id="mask-2" fill="white">
                    <use xlink:href="#path-1"></use>
                </mask>
                <use id="Logout" fill="#ff2850" fill-rule="nonzero" xlink:href="#path-1"></use>
            </g>
        </g>
    </g>
</svg>