<?xml version="1.0" encoding="UTF-8"?>
<svg width="21px" height="22px" viewBox="0 0 21 22" version="1.1" xmlns="http://www.w3.org/2000/svg" xmlns:xlink="http://www.w3.org/1999/xlink">
    <!-- Generator: Sketch 58 (84663) - https://sketch.com -->
    <title>Icon/Pencil</title>
    <desc>Created with Sketch.</desc>
    <defs>
        <path d="M13.6672619,-0.83273811 C14.7718314,-0.83273811 15.6672619,0.0626923899 15.6672619,1.16726189 L15.6672619,20.1672619 C15.6672619,20.6976949 15.4565482,21.2064027 15.0814755,21.5814755 L13.0814755,23.5814755 C12.3004269,24.362524 11.0340969,24.362524 10.2530483,23.5814755 L8.25304833,21.5814755 C7.87797557,21.2064027 7.66726189,20.6976949 7.66726189,20.1672619 L7.66726189,1.16726189 C7.66726189,0.0626923899 8.56269239,-0.83273811 9.66726189,-0.83273811 L13.6672619,-0.83273811 Z M13.6672619,5.59526189 L9.66726189,5.59526189 L9.66726189,20.1672619 L11.6672619,22.1672619 L13.6672619,20.1672619 L13.6672619,5.59526189 Z M13.6672619,1.16726189 L9.66726189,1.16726189 L9.66726189,3.59526189 L13.6672619,3.59526189 L13.6672619,1.16726189 Z" id="path-1"></path>
    </defs>
    <g id="Page-1" stroke="none" stroke-width="1" fill="none" fill-rule="evenodd">
        <g id="Icon/Pencil" transform="translate(-2.000000, 0.000000)">
            <g>
                <mask id="mask-2" fill="white">
                    <use xlink:href="#path-1"></use>
                </mask>
                <use id="Mask" fill="#FFFFFF" fill-rule="nonzero" transform="translate(11.667262, 11.667262) rotate(45.000000) translate(-11.667262, -11.667262) " xlink:href="#path-1"></use>
            </g>
        </g>
    </g>
</svg>