<svg xmlns="http://www.w3.org/2000/svg" width="295" height="214" viewBox="0 0 295 214"><g><g opacity=".05"><path d="M23.591 156.425c-5.207 5.207-13.649 5.207-18.856 0-5.207-5.207-5.207-13.65 0-18.856l26.66-26.66a39.84 39.84 0 0 1-3.897-17.246c0-22.09 17.907-39.996 39.996-39.996 22.09 0 39.996 17.907 39.996 39.996a39.813 39.813 0 0 1-5.327 19.957l23.016 26.851a39.81 39.81 0 0 1 22.318-6.8c7.309 0 14.16 1.96 20.056 5.384l39.253-51.028a39.81 39.81 0 0 1-5.97-21.032c0-22.09 17.908-39.996 39.997-39.996 4.035 0 7.93.597 11.603 1.709l17.826-23.173c4.49-5.837 12.86-6.93 18.697-2.44s6.93 12.862 2.44 18.698l-17.48 22.723a39.812 39.812 0 0 1 6.91 22.48c0 22.09-17.906 39.996-39.996 39.996-4.642 0-9.1-.79-13.245-2.245l-42.495 55.242a39.922 39.922 0 0 1 2.4 13.678c0 22.09-17.907 39.997-39.996 39.997-22.09 0-39.997-17.907-39.997-39.997 0-3.83.539-7.536 1.544-11.043l-27.123-31.645a39.898 39.898 0 0 1-14.427 2.681 39.839 39.839 0 0 1-17.241-3.896zm217.237-76.1c7.359 0 13.324-5.968 13.324-13.33 0-7.36-5.965-13.329-13.324-13.329-7.358 0-13.324 5.968-13.324 13.33 0 7.36 5.966 13.328 13.324 13.328zm-93.331 106.671c7.36 0 13.328-5.968 13.328-13.329 0-7.361-5.967-13.329-13.328-13.329-7.362 0-13.33 5.968-13.33 13.33 0 7.36 5.968 13.328 13.33 13.328zm-80.003-80.004c7.361 0 13.329-5.967 13.329-13.329 0-7.361-5.968-13.329-13.33-13.329-7.36 0-13.328 5.968-13.328 13.33 0 7.36 5.968 13.328 13.329 13.328z"/></g></g></svg>