<svg xmlns="http://www.w3.org/2000/svg" width="22" height="16" viewBox="0 0 22 16"><g><g><path fill="#ff2850" d="M1.707 11.707a1 1 0 0 1-1.414-1.414l2-2a3 3 0 1 1 5.308.204l1.725 2.013A2.986 2.986 0 0 1 11 10c.548 0 1.062.147 1.505.404l2.943-3.826a3 3 0 0 1 3.423-4.45L20.206.39a1 1 0 1 1 1.586 1.22l-1.311 1.704a3 3 0 0 1-3.475 4.518l-3.187 4.142a3 3 0 1 1-5.704.198L6.082 9.799c-.336.13-.7.201-1.082.201-.463 0-.902-.105-1.293-.292zM18 6a1 1 0 1 0 0-2 1 1 0 0 0 0 2zm-7 8a1 1 0 1 0 0-2 1 1 0 0 0 0 2zM5 8a1 1 0 1 0 0-2 1 1 0 0 0 0 2z"/></g></g></svg>