<?xml version="1.0" encoding="UTF-8"?>
<svg width="20px" height="21px" viewBox="0 0 20 21" version="1.1" xmlns="http://www.w3.org/2000/svg" xmlns:xlink="http://www.w3.org/1999/xlink">
    <!-- Generator: Sketch 58 (84663) - https://sketch.com -->
    <title>Group 16</title>
    <desc>Created with Sketch.</desc>
    <g id="Page-1" stroke="none" stroke-width="1" fill="#131b31" fill-rule="evenodd">
        <g id="Group-16" transform="translate(1.000000, 1.000000)" stroke="#131b31">
            <g id="ear-(1)" transform="translate(4.000000, 0.000000)" fill="#131b31" fill-rule="nonzero">
                <path d="M6.98626056,0 C3.14862172,0 0.0261493982,3.12216009 0.0261493982,6.95995504 C0.0261493982,7.3802188 0.368199138,7.72211243 0.788462899,7.72211243 C1.20872666,7.72211243 1.5507764,7.38037492 1.5507764,6.95995504 C1.5507764,3.96284372 3.98914924,1.52447089 6.98626056,1.52447089 C9.98337188,1.52447089 12.4215886,3.96284372 12.4215886,6.95995504 C12.4215886,8.94871435 11.5855884,9.76473169 10.6168898,10.7097007 C9.56482539,11.7366305 8.37225672,12.90063 8.37225672,15.488874 C8.37225672,16.868001 7.25009628,17.9900054 5.87112533,17.9900054 C4.49215438,17.9900054 3.37030617,16.868001 3.37030617,15.488874 C3.37030617,15.0686102 3.02841254,14.7265605 2.60799266,14.7265605 C2.1877289,14.7265605 1.84567916,15.0684541 1.84567916,15.488874 C1.84567916,17.7085286 3.65147074,19.5144763 5.87112533,19.5144763 C8.09077991,19.5144763 9.89688372,17.7085286 9.89688372,15.488874 C9.89688372,13.5425782 10.7242975,12.7353033 11.6825364,11.8001696 C12.7436555,10.7644973 13.9462156,9.59097479 13.9462156,6.95995504 C13.9462156,3.12216009 10.8240555,0 6.98626056,0 Z" id="Path" stroke-width="0.5"></path>
                <path d="M7.29443317,3.70806272 C5.44555363,3.70806272 3.93731879,5.21223855 3.93731879,7.06096197 L3.93731879,8.01670296 C3.93731879,8.0190447 3.874248,8.01982528 3.84037087,8.02325983 C3.58918053,8.04979951 3.409179,8.2747624 3.43571869,8.52610885 C3.46225838,8.7774553 3.69128027,8.96135973 3.93966052,8.93294665 C4.29107721,8.89579109 4.63843489,8.97228784 4.94332907,9.15306994 C5.71828795,9.612831 5.97463011,10.6174362 5.51486905,11.392239 C5.05463964,12.1670418 4.05034663,12.4230717 3.27601222,11.9634668 C3.05885512,11.8346712 2.7781589,11.9064845 2.64920724,12.1233293 C2.52025558,12.3404864 2.59191274,12.6210265 2.80906983,12.7501343 C3.21606375,12.9916455 3.66349166,13.1063906 4.10545551,13.1063906 C4.9762695,13.1063906 5.82600786,12.66068 6.30169273,11.8590253 C6.64905041,11.2734349 6.7477156,10.5876181 6.57942276,9.92818494 C6.41112991,9.26843953 5.9913345,8.71391617 5.40605633,8.36640238 C5.23058216,8.26242925 5.00421423,8.18109291 4.8518452,8.12223725 L4.8518452,7.06096197 C4.8518452,5.71664873 5.95011993,4.62290137 7.29443317,4.62290137 C8.63890252,4.62290137 9.73514774,5.71664873 9.73514774,7.06096197 C9.73514774,7.31371347 9.94090838,7.5183813 10.193816,7.5183813 C10.4462553,7.5183813 10.6517037,7.31371347 10.6517037,7.06096197 C10.6517037,5.21223855 9.14315659,3.70806272 7.29443317,3.70806272 Z" id="Path" stroke-width="0.7451928"></path>
            </g>
            <path d="M2.18648129,8 C4.60450624,10.4855012 4.60450624,14.5144988 2.18648129,17 M0,10.2468175 C1.20901247,11.4895681 1.20901247,13.504067 0,14.7468175" id="Shape" stroke-linecap="round" stroke-linejoin="round"></path>
        </g>
    </g>
</svg>