<?xml version="1.0" encoding="UTF-8"?>
<svg width="24px" height="20px" viewBox="0 0 24 20" version="1.1" xmlns="http://www.w3.org/2000/svg" xmlns:xlink="http://www.w3.org/1999/xlink">
    <!-- Generator: Sketch 58 (84663) - https://sketch.com -->
    <title>Group 18</title>
    <desc>Created with Sketch.</desc>
    <defs>
        <path d="M4.26666667,11.2915055 L4.26666667,1.0650978 C4.26666667,0.476860527 4.7442296,-2.57571742e-14 5.33333333,-2.57571742e-14 C5.92243707,-2.57571742e-14 6.4,0.476860527 6.4,1.0650978 L6.4,11.2915055 L8.84575277,8.84575277 C9.26231201,8.42919352 9.93768799,8.42919352 10.3542472,8.84575277 C10.7708065,9.26231201 10.7708065,9.93768799 10.3542472,10.3542472 L6.08758057,14.6209139 C5.67102132,15.0374731 4.99564534,15.0374731 4.5790861,14.6209139 L0.312419433,10.3542472 C-0.104139811,9.93768799 -0.104139811,9.26231201 0.312419433,8.84575277 C0.728978678,8.42919352 1.40435466,8.42919352 1.8209139,8.84575277 L4.26666667,11.2915055 Z" id="path-1"></path>
        <path d="M18.4,-0.3581722 L18.4,9.86823554 C18.4,10.4564728 17.9224371,10.9333333 17.3333333,10.9333333 C16.7442296,10.9333333 16.2666667,10.4564728 16.2666667,9.86823554 L16.2666667,-0.3581722 L13.8209139,2.08758057 C13.4043547,2.50413981 12.7289787,2.50413981 12.3124194,2.08758057 C11.8958602,1.67102132 11.8958602,0.995645345 12.3124194,0.5790861 L16.5790861,-3.68758057 C16.9956453,-4.10413981 17.6710213,-4.10413981 18.0875806,-3.68758057 L22.3542472,0.5790861 C22.7708065,0.995645345 22.7708065,1.67102132 22.3542472,2.08758057 C21.937688,2.50413981 21.262312,2.50413981 20.8457528,2.08758057 L18.4,-0.3581722 Z" id="path-3"></path>
    </defs>
    <g id="Page-1" stroke="none" stroke-width="1" fill="none" fill-rule="evenodd">
        <g id="Group-18">
            <g id="Icon/Arrow-Bottom" transform="translate(0.000000, 4.000000)">
                <g id="Group">
                    <g transform="translate(0.666667, 0.533333)">
                        <mask id="mask-2" fill="white">
                            <use xlink:href="#path-1"></use>
                        </mask>
                        <use id="Mask" fill="#FFFFFF" fill-rule="nonzero" xlink:href="#path-1"></use>
                        <mask id="mask-4" fill="white">
                            <use xlink:href="#path-3"></use>
                        </mask>
                        <use id="Mask" fill="#FFFFFF" fill-rule="nonzero" xlink:href="#path-3"></use>
                    </g>
                </g>
            </g>
            <g id="Icon/Arrow-Top" transform="translate(12.000000, 0.000000)">
                <g></g>
            </g>
        </g>
    </g>
</svg>