<?xml version="1.0" encoding="UTF-8"?>
<svg width="20px" height="20px" viewBox="0 0 20 20" version="1.1" xmlns="http://www.w3.org/2000/svg" xmlns:xlink="http://www.w3.org/1999/xlink">
    <!-- Generator: Sketch 58 (84663) - https://sketch.com -->
    <title>Group 16</title>
    <desc>Created with Sketch.</desc>
    <defs>
        <path d="M7,0.583333333 C10.5438271,0.583333333 13.4166667,3.45617286 13.4166667,7 C13.4166667,10.5438271 10.5438271,13.4166667 7,13.4166667 C3.45617286,13.4166667 0.583333333,10.5438271 0.583333333,7 C0.583333333,3.45617286 3.45617286,0.583333333 7,0.583333333 Z M7,1.61 C4.0231852,1.61 1.61,4.0231852 1.61,7 C1.61,9.9768148 4.0231852,12.39 7,12.39 C9.9768148,12.39 12.39,9.9768148 12.39,7 C12.39,4.0231852 9.9768148,1.61 7,1.61 Z M7,5.83333333 C7.3221661,5.83333333 7.58333333,6.09450056 7.58333333,6.41666667 L7.58333333,9.33333333 C7.58333333,9.65549944 7.3221661,9.91666667 7,9.91666667 C6.6778339,9.91666667 6.41666667,9.65549944 6.41666667,9.33333333 L6.41666667,6.41666667 C6.41666667,6.09450056 6.6778339,5.83333333 7,5.83333333 Z M7,4.08333333 C7.3221661,4.08333333 7.58333333,4.34450056 7.58333333,4.66666667 C7.58333333,4.98883277 7.3221661,5.25 7,5.25 C6.6778339,5.25 6.41666667,4.98883277 6.41666667,4.66666667 C6.41666667,4.34450056 6.6778339,4.08333333 7,4.08333333 Z" id="path-1"></path>
    </defs>
    <g id="Page-1" stroke="none" stroke-width="1" fill="none" fill-rule="evenodd">
        <g id="Group-16">
            <g id="Group-15">
                <circle id="Oval" fill="#131B31" cx="10" cy="10" r="10"></circle>
                <g id="Icon/Info" transform="translate(3.000000, 3.000000)">
                    <g>
                        <mask id="mask-2" fill="white">
                            <use xlink:href="#path-1"></use>
                        </mask>
                        <use id="Mask" fill="#FFFFFF" fill-rule="nonzero" xlink:href="#path-1"></use>
                    </g>
                </g>
            </g>
        </g>
    </g>
</svg>