<?xml version="1.0" encoding="UTF-8"?>
<svg width="20px" height="18px" viewBox="0 0 20 18" version="1.1" xmlns="http://www.w3.org/2000/svg" xmlns:xlink="http://www.w3.org/1999/xlink">
    <!-- Generator: Sketch 58 (84663) - https://sketch.com -->
    <title>Icon/Upload</title>
    <desc>Created with Sketch.</desc>
    <defs>
        <path d="M19,9 C19.5522847,9 20,9.44771525 20,10 L20,17 C20,17.5522847 19.5522847,18 19,18 L1,18 C0.44771525,18 0,17.5522847 0,17 L0,10 C0,9.44771525 0.44771525,9 1,9 C1.55228475,9 2,9.44771525 2,10 L2,16 L18,16 L18,10 C18,9.44771525 18.4477153,9 19,9 Z M10.7071068,0.292893219 L14.7071068,4.29289322 C15.0976311,4.68341751 15.0976311,5.31658249 14.7071068,5.70710678 C14.3165825,6.09763107 13.6834175,6.09763107 13.2928932,5.70710678 L11,3.414 L11,12.0014708 C11,12.5529433 10.5522847,13 10,13 C9.44771525,13 9,12.5529433 9,12.0014708 L9,3.414 L6.70710678,5.70710678 C6.31658249,6.09763107 5.68341751,6.09763107 5.29289322,5.70710678 C4.90236893,5.31658249 4.90236893,4.68341751 5.29289322,4.29289322 L9.29289322,0.292893219 C9.68341751,-0.0976310729 10.3165825,-0.0976310729 10.7071068,0.292893219 Z" id="path-1"></path>
    </defs>
    <g id="Page-1" stroke="none" stroke-width="1" fill="none" fill-rule="evenodd">
        <g id="Icon/Upload">
            <g>
                <mask id="mask-2" fill="white">
                    <use xlink:href="#path-1"></use>
                </mask>
                <use id="Mask" fill="#ff2850" fill-rule="nonzero" xlink:href="#path-1"></use>
            </g>
        </g>
    </g>
</svg>