<?xml version="1.0" encoding="UTF-8"?>
<svg width="14px" height="22px" viewBox="0 0 14 22" version="1.1" xmlns="http://www.w3.org/2000/svg" xmlns:xlink="http://www.w3.org/1999/xlink">
    <!-- Generator: Sketch 58 (84663) - https://sketch.com -->
    <title>Mask</title>
    <desc>Created with Sketch.</desc>
    <defs>
        <path d="M7,16 C9.76142375,16 12,13.7614237 12,11 C12,8.23857625 9.76142375,6 7,6 C4.23857625,6 2,8.23857625 2,11 C2,13.7614237 4.23857625,16 7,16 Z M9.00975703,0 C9.48876355,0 9.90118058,0.380111932 9.99512148,0.908179726 L10.7376051,5.0802908 C12.6981812,6.32076336 14,8.50835364 14,11 C14,13.4916464 12.6981812,15.6792366 10.7376051,16.9197092 L9.99512148,21.0918203 C9.9084068,21.5792675 9.55032785,21.9406458 9.11900028,21.9933581 L9.00975703,22 L4.99024297,22 C4.54808311,22 4.16266222,21.6761176 4.03209596,21.21095 L4.00487852,21.0918203 L3.26239487,16.9197092 C1.30181883,15.6792366 0,13.4916464 0,11 C0,8.50835364 1.30181883,6.32076336 3.26239487,5.0802908 L4.00487852,0.908179726 C4.09881942,0.380111932 4.51123645,0 4.99024297,0 L9.00975703,0 Z M8.52582272,17.8332211 C8.03465403,17.9424127 7.52405213,18 7,18 C6.47594787,18 5.96534597,17.9424127 5.47417728,17.8332211 L5.8140463,19.7405201 L8.1859537,19.7405201 L8.52582272,17.8332211 Z M8.1859537,2.25947992 L5.8140463,2.25947992 L5.47417728,4.16677893 C5.96534597,4.0575873 6.47594787,4 7,4 C7.52405213,4 8.03465403,4.0575873 8.52582272,4.16677893 L8.1859537,2.25947992 Z" id="path-1"></path>
    </defs>
    <g id="Page-1" stroke="none" stroke-width="1" fill="none" fill-rule="evenodd">
        <g id="Icon/Watch">
            <g>
                <mask id="mask-2" fill="white">
                    <use xlink:href="#path-1"></use>
                </mask>
                <use id="Mask" fill="#FFFFFF" fill-rule="nonzero" xlink:href="#path-1"></use>
            </g>
        </g>
    </g>
</svg>